<svg xmlns="http://www.w3.org/2000/svg" xmlns:xlink="http://www.w3.org/1999/xlink" width="300" zoomAndPan="magnify" viewBox="0 0 224.87999 225" height="300" preserveAspectRatio="xMidYMid meet" version="1.0"><defs><clipPath id="9fed117f30"><path d="M 0 18.613281 L 224.761719 18.613281 L 224.761719 202.265625 L 0 202.265625 Z M 0 18.613281 " clip-rule="nonzero"/></clipPath><clipPath id="3f74a0a87b"><path d="M 14.710938 126 L 224.519531 126 L 224.519531 184.265625 L 14.710938 184.265625 Z M 14.710938 126 " clip-rule="nonzero"/></clipPath><clipPath id="ae959eab26"><path d="M 14 105 L 224.519531 105 L 224.519531 165 L 14 165 Z M 14 105 " clip-rule="nonzero"/></clipPath><clipPath id="312429b0d2"><path d="M 0.335938 43.183594 L 210.53125 43.183594 L 210.53125 102 L 0.335938 102 Z M 0.335938 43.183594 " clip-rule="nonzero"/></clipPath><clipPath id="e4f6f70453"><path d="M 0.335938 23.113281 L 210.53125 23.113281 L 210.53125 81.496094 L 0.335938 81.496094 Z M 0.335938 23.113281 " clip-rule="nonzero"/></clipPath><clipPath id="e10d85441b"><path d="M 13 0.613281 L 224 0.613281 L 224 59 L 13 59 Z M 13 0.613281 " clip-rule="nonzero"/></clipPath><clipPath id="b82a05138f"><rect x="0" width="225" y="0" height="185"/></clipPath></defs><g clip-path="url(#9fed117f30)"><g transform="matrix(1, 0, 0, 1, 0, 18)"><g clip-path="url(#b82a05138f)"><path fill="#121212" d="M 119.648438 127.453125 C 77.941406 127.453125 42.015625 134.128906 25.699219 143.738281 L 23.210938 136.046875 L 15.953125 134.976562 L 15.953125 155.5 L 16.351562 155.515625 C 16.679688 170.851562 62.796875 183.253906 119.648438 183.253906 C 175.285156 183.253906 220.640625 171.371094 222.855469 156.492188 L 223.34375 156.5625 L 223.34375 134.976562 L 211.519531 142.589844 C 194.363281 133.597656 159.664062 127.453125 119.648438 127.453125 " fill-opacity="1" fill-rule="evenodd"/><g clip-path="url(#3f74a0a87b)"><path fill="#121212" d="M 119.648438 126.28125 C 99.066406 126.28125 79.875 127.902344 63.734375 130.699219 C 47.816406 133.460938 34.839844 137.371094 26.371094 142.011719 L 24.328125 135.6875 L 23.210938 136.046875 L 24.328125 135.683594 C 24.179688 135.226562 23.773438 134.921875 23.324219 134.878906 L 16.125 133.8125 C 15.480469 133.71875 14.882812 134.164062 14.789062 134.804688 C 14.78125 134.859375 14.777344 134.917969 14.777344 134.976562 L 14.777344 155.5 C 14.777344 155.886719 14.960938 156.230469 15.25 156.441406 C 16.246094 164.328125 28.011719 171.304688 46.519531 176.273438 C 65.289062 181.3125 91.132812 184.429688 119.648438 184.429688 C 147.496094 184.429688 172.800781 181.453125 191.460938 176.617188 C 209.777344 171.867188 221.804688 165.203125 223.8125 157.640625 C 224.171875 157.484375 224.445312 157.152344 224.507812 156.734375 C 224.515625 156.675781 224.519531 156.617188 224.519531 156.5625 L 224.519531 134.976562 C 224.519531 134.328125 223.992188 133.800781 223.34375 133.800781 C 223.082031 133.800781 222.835938 133.886719 222.644531 134.03125 L 211.453125 141.238281 C 202.621094 136.746094 189.476562 132.984375 173.542969 130.363281 C 157.820312 127.773438 139.367188 126.28125 119.648438 126.28125 Z M 64.128906 133.011719 C 80.132812 130.242188 99.1875 128.628906 119.648438 128.628906 C 139.265625 128.628906 157.589844 130.109375 173.164062 132.671875 C 189.175781 135.308594 202.269531 139.085938 210.882812 143.574219 C 211.257812 143.816406 211.753906 143.832031 212.15625 143.578125 L 212.15625 143.574219 L 222.171875 137.128906 L 222.171875 155.539062 C 221.921875 155.71875 221.738281 155.992188 221.691406 156.320312 L 222.171875 156.390625 L 222.171875 156.394531 L 221.691406 156.324219 C 220.660156 163.265625 209.042969 169.640625 190.871094 174.347656 C 172.414062 179.136719 147.316406 182.078125 119.648438 182.078125 C 91.332031 182.078125 65.703125 178.992188 47.125 174.003906 C 29.023438 169.148438 17.753906 162.617188 17.527344 155.570312 L 17.527344 155.5625 C 17.542969 155.195312 17.386719 154.859375 17.128906 154.636719 L 17.128906 136.335938 L 22.320312 137.101562 L 24.554688 144.007812 C 24.582031 144.121094 24.625 144.230469 24.6875 144.335938 C 25.015625 144.894531 25.738281 145.082031 26.296875 144.753906 L 26.296875 144.746094 C 34.457031 139.941406 47.667969 135.867188 64.128906 133.011719 Z M 222.644531 134.03125 L 222.171875 134.976562 C 222.171875 134.589844 222.355469 134.246094 222.644531 134.03125 " fill-opacity="1" fill-rule="nonzero"/></g><path fill="#ffffff" d="M 138.007812 162.4375 L 119.648438 162.4375 L 119.648438 182.078125 L 138.007812 181.636719 L 138.007812 162.4375 " fill-opacity="1" fill-rule="evenodd"/><path fill="#ffffff" d="M 205.808594 150.503906 L 188.160156 155.308594 L 189.039062 174.824219 L 206.347656 169.296875 L 205.808594 150.503906 " fill-opacity="1" fill-rule="evenodd"/><path fill="#ffffff" d="M 48.550781 155.355469 L 67.25 159.113281 L 66.371094 178.082031 L 49.054688 174.511719 L 48.550781 155.355469 " fill-opacity="1" fill-rule="evenodd"/><path fill="#242424" d="M 119.648438 162.875 C 62.535156 162.875 15.953125 150.34375 15.953125 134.976562 C 15.953125 119.609375 62.535156 107.078125 119.648438 107.078125 C 176.761719 107.078125 223.34375 119.609375 223.34375 134.976562 C 223.34375 150.34375 176.761719 162.875 119.648438 162.875 " fill-opacity="1" fill-rule="evenodd"/><g clip-path="url(#ae959eab26)"><path fill="#121212" d="M 119.648438 105.902344 C 90.914062 105.902344 64.882812 109.039062 46.023438 114.113281 C 26.714844 119.304688 14.777344 126.671875 14.777344 134.976562 C 14.777344 143.277344 26.714844 150.644531 46.023438 155.835938 C 64.882812 160.910156 90.914062 164.050781 119.648438 164.050781 C 148.382812 164.050781 174.414062 160.910156 193.273438 155.835938 C 212.578125 150.644531 224.519531 143.277344 224.519531 134.976562 C 224.519531 126.671875 212.578125 119.304688 193.273438 114.113281 C 174.414062 109.039062 148.382812 105.902344 119.648438 105.902344 Z M 46.628906 116.382812 C 65.296875 111.359375 91.113281 108.25 119.648438 108.25 C 148.183594 108.25 174 111.359375 192.671875 116.382812 C 210.894531 121.285156 222.171875 127.871094 222.171875 134.976562 C 222.171875 142.082031 210.894531 148.664062 192.671875 153.566406 C 174 158.59375 148.183594 161.699219 119.648438 161.699219 C 91.113281 161.699219 65.296875 158.59375 46.628906 153.566406 C 28.402344 148.664062 17.128906 142.082031 17.128906 134.976562 C 17.128906 127.871094 28.402344 121.285156 46.628906 116.382812 " fill-opacity="1" fill-rule="nonzero"/></g><path fill="#121212" d="M 119.992188 150.476562 C 86.1875 150.476562 58.617188 143.511719 58.617188 134.976562 C 58.617188 126.4375 86.1875 119.476562 119.992188 119.476562 C 153.800781 119.476562 181.371094 126.4375 181.371094 134.976562 C 181.371094 143.511719 153.800781 150.476562 119.992188 150.476562 " fill-opacity="1" fill-rule="evenodd"/><path fill="#121212" d="M 119.992188 118.300781 C 102.945312 118.300781 87.480469 120.050781 76.257812 122.886719 C 64.566406 125.839844 57.335938 130.101562 57.335938 134.976562 C 57.335938 139.847656 64.566406 144.109375 76.257812 147.0625 C 87.480469 149.898438 102.945312 151.648438 119.992188 151.648438 C 137.046875 151.648438 152.511719 149.898438 163.730469 147.0625 C 175.421875 144.109375 182.652344 139.847656 182.652344 134.976562 C 182.652344 130.101562 175.421875 125.839844 163.730469 122.886719 C 152.511719 120.050781 137.046875 118.300781 119.992188 118.300781 Z M 76.925781 125.144531 C 87.925781 122.367188 103.148438 120.652344 119.992188 120.652344 C 136.84375 120.652344 152.066406 122.367188 163.0625 125.144531 C 173.585938 127.800781 180.09375 131.289062 180.09375 134.976562 C 180.09375 138.660156 173.585938 142.148438 163.0625 144.804688 C 152.066406 147.582031 136.84375 149.300781 119.992188 149.300781 C 103.148438 149.300781 87.925781 147.582031 76.925781 144.804688 C 66.40625 142.148438 59.894531 138.660156 59.894531 134.976562 C 59.894531 131.289062 66.402344 127.800781 76.925781 125.144531 " fill-opacity="1" fill-rule="nonzero"/><path fill="#ffffff" d="M 118.726562 107.851562 L 104.703125 113.078125 L 118.726562 118.304688 L 132.746094 113.078125 L 118.726562 107.851562 " fill-opacity="1" fill-rule="evenodd"/><path fill="#ffffff" d="M 118.726562 150.960938 L 104.703125 156.191406 L 118.726562 161.417969 L 132.746094 156.191406 L 118.726562 150.960938 " fill-opacity="1" fill-rule="evenodd"/><path fill="#ffffff" d="M 199.980469 128.664062 L 185.957031 134.492188 L 199.980469 140.3125 L 214.003906 134.492188 L 199.980469 128.664062 " fill-opacity="1" fill-rule="evenodd"/><path fill="#ffffff" d="M 37.6875 128.664062 L 23.664062 134.492188 L 37.6875 140.3125 L 51.710938 134.492188 L 37.6875 128.664062 " fill-opacity="1" fill-rule="evenodd"/><path fill="#121212" d="M 108.269531 99.859375 C 66.5625 99.859375 30.636719 106.539062 14.324219 116.148438 L 11.832031 108.453125 L 4.574219 107.378906 L 4.574219 127.90625 L 4.976562 127.925781 C 5.304688 143.257812 51.417969 155.660156 108.269531 155.660156 C 163.90625 155.660156 209.261719 143.777344 211.476562 128.898438 L 211.96875 128.96875 L 211.96875 107.378906 L 200.140625 114.996094 C 182.988281 106.007812 148.285156 99.859375 108.269531 99.859375 " fill-opacity="1" fill-rule="evenodd"/><path fill="#121212" d="M 108.269531 98.6875 C 87.6875 98.6875 68.5 100.308594 52.355469 103.105469 C 36.441406 105.863281 23.460938 109.777344 14.996094 114.417969 L 12.949219 108.09375 L 11.832031 108.453125 L 12.953125 108.089844 C 12.800781 107.632812 12.398438 107.328125 11.949219 107.285156 L 4.746094 106.21875 C 4.101562 106.125 3.507812 106.570312 3.414062 107.210938 C 3.402344 107.265625 3.398438 107.324219 3.398438 107.378906 L 3.398438 127.90625 C 3.398438 128.292969 3.585938 128.632812 3.875 128.851562 C 4.867188 136.734375 16.632812 143.710938 35.140625 148.679688 C 53.910156 153.71875 79.753906 156.835938 108.269531 156.835938 C 136.117188 156.835938 161.425781 153.859375 180.082031 149.023438 C 198.402344 144.273438 210.429688 137.613281 212.433594 130.046875 C 212.796875 129.890625 213.070312 129.554688 213.128906 129.136719 C 213.136719 129.082031 213.140625 129.027344 213.140625 128.96875 L 213.140625 107.378906 C 213.140625 106.730469 212.617188 106.203125 211.96875 106.203125 C 211.703125 106.203125 211.460938 106.292969 211.265625 106.4375 L 200.074219 113.644531 C 191.242188 109.15625 178.097656 105.390625 162.164062 102.765625 C 146.441406 100.179688 127.988281 98.6875 108.269531 98.6875 Z M 52.753906 105.417969 C 68.757812 102.644531 87.808594 101.035156 108.269531 101.035156 C 127.890625 101.035156 146.210938 102.511719 161.789062 105.078125 C 177.796875 107.714844 190.890625 111.492188 199.503906 115.980469 C 199.878906 116.222656 200.375 116.238281 200.777344 115.984375 L 200.777344 115.980469 L 210.792969 109.53125 L 210.792969 127.945312 C 210.542969 128.125 210.363281 128.398438 210.316406 128.726562 L 210.792969 128.796875 L 210.316406 128.730469 C 209.28125 135.671875 197.667969 142.042969 179.496094 146.753906 C 161.035156 151.542969 135.9375 154.484375 108.269531 154.484375 C 79.953125 154.484375 54.328125 151.398438 35.746094 146.410156 C 17.648438 141.554688 6.375 135.023438 6.148438 127.972656 C 6.164062 127.601562 6.007812 127.265625 5.75 127.039062 L 5.75 108.742188 L 10.941406 109.507812 L 13.179688 116.414062 C 13.203125 116.527344 13.25 116.636719 13.308594 116.742188 C 13.640625 117.300781 14.359375 117.484375 14.917969 117.160156 L 14.917969 117.152344 C 23.078125 112.34375 36.289062 108.273438 52.753906 105.417969 Z M 211.265625 106.4375 L 210.792969 107.378906 C 210.792969 106.996094 210.976562 106.652344 211.265625 106.4375 " fill-opacity="1" fill-rule="nonzero"/><path fill="#ffffff" d="M 126.628906 134.84375 L 108.269531 134.84375 L 108.269531 154.484375 L 126.628906 154.042969 L 126.628906 134.84375 " fill-opacity="1" fill-rule="evenodd"/><path fill="#ffffff" d="M 194.433594 122.910156 L 176.785156 127.71875 L 177.664062 147.234375 L 194.972656 141.703125 L 194.433594 122.910156 " fill-opacity="1" fill-rule="evenodd"/><path fill="#ffffff" d="M 37.171875 127.761719 L 55.875 131.519531 L 54.996094 150.488281 L 37.675781 146.917969 L 37.171875 127.761719 " fill-opacity="1" fill-rule="evenodd"/><path fill="#242424" d="M 108.269531 135.28125 C 51.15625 135.28125 4.574219 122.75 4.574219 107.378906 C 4.574219 92.015625 51.15625 79.484375 108.269531 79.484375 C 165.386719 79.484375 211.96875 92.015625 211.96875 107.378906 C 211.96875 122.75 165.386719 135.28125 108.269531 135.28125 " fill-opacity="1" fill-rule="evenodd"/><path fill="#121212" d="M 108.269531 78.308594 C 79.535156 78.308594 53.503906 81.445312 34.644531 86.519531 C 15.339844 91.714844 3.398438 99.074219 3.398438 107.378906 C 3.398438 115.6875 15.339844 123.046875 34.644531 128.242188 C 53.503906 133.316406 79.535156 136.453125 108.269531 136.453125 C 137.003906 136.453125 163.039062 133.316406 181.898438 128.242188 C 201.203125 123.046875 213.140625 115.6875 213.140625 107.378906 C 213.140625 99.078125 201.203125 91.714844 181.898438 86.519531 C 163.039062 81.445312 137.003906 78.308594 108.269531 78.308594 Z M 35.25 88.789062 C 53.917969 83.765625 79.734375 80.65625 108.269531 80.65625 C 136.804688 80.65625 162.621094 83.765625 181.292969 88.789062 C 199.519531 93.691406 210.792969 100.277344 210.792969 107.378906 C 210.792969 114.484375 199.519531 121.070312 181.292969 125.972656 C 162.621094 131 136.804688 134.105469 108.269531 134.105469 C 79.734375 134.105469 53.917969 131 35.25 125.972656 C 17.023438 121.070312 5.75 114.484375 5.75 107.378906 C 5.75 100.277344 17.023438 93.691406 35.25 88.789062 " fill-opacity="1" fill-rule="nonzero"/><path fill="#121212" d="M 108.617188 122.882812 C 74.8125 122.882812 47.238281 115.917969 47.238281 107.378906 C 47.238281 98.84375 74.8125 91.878906 108.617188 91.878906 C 142.421875 91.878906 169.996094 98.84375 169.996094 107.378906 C 169.996094 115.917969 142.421875 122.882812 108.617188 122.882812 " fill-opacity="1" fill-rule="evenodd"/><path fill="#121212" d="M 108.617188 90.707031 C 91.566406 90.707031 76.101562 92.460938 64.882812 95.292969 C 53.191406 98.246094 45.960938 102.507812 45.960938 107.378906 C 45.960938 112.253906 53.191406 116.515625 64.882812 119.46875 C 76.101562 122.304688 91.566406 124.058594 108.617188 124.058594 C 125.667969 124.058594 141.132812 122.304688 152.355469 119.46875 C 164.042969 116.515625 171.277344 112.253906 171.277344 107.378906 C 171.277344 102.507812 164.042969 98.246094 152.351562 95.292969 C 141.132812 92.460938 125.667969 90.707031 108.617188 90.707031 Z M 65.550781 97.550781 C 76.546875 94.773438 91.769531 93.054688 108.617188 93.054688 C 125.464844 93.054688 140.6875 94.773438 151.683594 97.550781 C 162.207031 100.210938 168.71875 103.695312 168.71875 107.378906 C 168.71875 111.066406 162.207031 114.554688 151.683594 117.210938 C 140.6875 119.988281 125.464844 121.707031 108.617188 121.707031 C 91.769531 121.707031 76.546875 119.988281 65.550781 117.210938 C 55.027344 114.554688 48.519531 111.066406 48.519531 107.378906 C 48.519531 103.695312 55.027344 100.210938 65.550781 97.550781 " fill-opacity="1" fill-rule="nonzero"/><path fill="#ffffff" d="M 107.347656 80.257812 L 93.324219 85.484375 L 107.347656 90.710938 L 121.367188 85.484375 L 107.347656 80.257812 " fill-opacity="1" fill-rule="evenodd"/><path fill="#ffffff" d="M 107.347656 123.371094 L 93.324219 128.597656 L 107.347656 133.824219 L 121.367188 128.597656 L 107.347656 123.371094 " fill-opacity="1" fill-rule="evenodd"/><path fill="#ffffff" d="M 188.605469 101.070312 L 174.582031 106.894531 L 188.605469 112.71875 L 202.625 106.894531 L 188.605469 101.070312 " fill-opacity="1" fill-rule="evenodd"/><path fill="#ffffff" d="M 26.308594 101.070312 L 12.289062 106.894531 L 26.308594 112.71875 L 40.332031 106.894531 L 26.308594 101.070312 " fill-opacity="1" fill-rule="evenodd"/><path fill="#121212" d="M 118.8125 77.558594 C 77.109375 77.558594 41.179688 84.234375 24.867188 93.84375 L 22.375 86.148438 L 15.117188 85.078125 L 15.117188 105.605469 L 15.519531 105.621094 C 15.847656 120.953125 61.960938 133.355469 118.8125 133.355469 C 174.449219 133.355469 219.804688 121.476562 222.019531 106.597656 L 222.507812 106.664062 L 222.507812 85.078125 L 210.6875 92.691406 C 193.53125 83.703125 158.828125 77.558594 118.8125 77.558594 " fill-opacity="1" fill-rule="evenodd"/><path fill="#121212" d="M 118.8125 76.382812 C 98.230469 76.382812 79.042969 78.003906 62.898438 80.804688 C 46.984375 83.5625 34.007812 87.476562 25.539062 92.117188 L 23.492188 85.792969 L 22.375 86.148438 L 23.496094 85.789062 C 23.347656 85.328125 22.941406 85.023438 22.488281 84.980469 L 15.289062 83.914062 C 14.648438 83.820312 14.050781 84.265625 13.953125 84.90625 C 13.949219 84.964844 13.941406 85.023438 13.941406 85.078125 L 13.941406 105.605469 C 13.941406 105.992188 14.128906 106.332031 14.414062 106.546875 C 15.410156 114.429688 27.175781 121.40625 45.683594 126.375 C 64.457031 131.417969 90.296875 134.53125 118.8125 134.53125 C 146.660156 134.53125 171.96875 131.554688 190.628906 126.71875 C 208.945312 121.972656 220.972656 115.308594 222.976562 107.746094 C 223.339844 107.585938 223.613281 107.253906 223.671875 106.835938 C 223.679688 106.777344 223.6875 106.722656 223.6875 106.664062 L 223.6875 85.078125 C 223.6875 84.429688 223.15625 83.902344 222.507812 83.902344 C 222.246094 83.902344 222.003906 83.988281 221.808594 84.136719 L 210.617188 91.339844 C 201.78125 86.851562 188.644531 83.089844 172.707031 80.464844 C 156.988281 77.875 138.535156 76.382812 118.8125 76.382812 Z M 63.292969 83.113281 C 79.300781 80.34375 98.351562 78.730469 118.8125 78.730469 C 138.433594 78.730469 156.753906 80.210938 172.332031 82.777344 C 188.335938 85.414062 201.4375 89.1875 210.046875 93.675781 C 210.421875 93.921875 210.921875 93.933594 211.320312 93.679688 L 211.320312 93.675781 L 221.332031 87.230469 L 221.332031 105.640625 C 221.085938 105.824219 220.90625 106.09375 220.859375 106.421875 L 221.332031 106.496094 L 220.859375 106.425781 C 219.824219 113.371094 208.210938 119.742188 190.039062 124.453125 C 171.578125 129.238281 146.484375 132.179688 118.8125 132.179688 C 90.496094 132.179688 64.871094 129.097656 46.289062 124.109375 C 28.191406 119.25 16.917969 112.722656 16.691406 105.671875 L 16.691406 105.667969 C 16.707031 105.300781 16.550781 104.960938 16.292969 104.738281 L 16.292969 86.4375 L 21.488281 87.207031 L 23.71875 94.109375 C 23.746094 94.222656 23.792969 94.335938 23.855469 94.4375 C 24.179688 94.996094 24.902344 95.183594 25.460938 94.855469 L 25.460938 94.851562 C 33.625 90.042969 46.835938 85.96875 63.292969 83.113281 Z M 221.808594 84.136719 L 221.332031 85.078125 C 221.332031 84.691406 221.519531 84.351562 221.808594 84.136719 " fill-opacity="1" fill-rule="nonzero"/><path fill="#ffffff" d="M 137.171875 112.539062 L 118.8125 112.539062 L 118.8125 132.179688 L 137.171875 131.738281 L 137.171875 112.539062 " fill-opacity="1" fill-rule="evenodd"/><path fill="#ffffff" d="M 204.976562 100.605469 L 187.328125 105.414062 L 188.207031 124.929688 L 205.515625 119.398438 L 204.976562 100.605469 " fill-opacity="1" fill-rule="evenodd"/><path fill="#ffffff" d="M 47.714844 105.457031 L 66.414062 109.214844 L 65.535156 128.1875 L 48.21875 124.613281 L 47.714844 105.457031 " fill-opacity="1" fill-rule="evenodd"/><path fill="#242424" d="M 118.8125 112.976562 C 61.699219 112.976562 15.117188 100.445312 15.117188 85.078125 C 15.117188 69.710938 61.699219 57.179688 118.8125 57.179688 C 175.929688 57.179688 222.507812 69.710938 222.507812 85.078125 C 222.507812 100.445312 175.929688 112.976562 118.8125 112.976562 " fill-opacity="1" fill-rule="evenodd"/><path fill="#121212" d="M 118.8125 56.003906 C 90.082031 56.003906 64.046875 59.144531 45.1875 64.21875 C 25.882812 69.410156 13.941406 76.773438 13.941406 85.078125 C 13.941406 93.382812 25.882812 100.746094 45.1875 105.9375 C 64.046875 111.011719 90.082031 114.152344 118.8125 114.152344 C 147.546875 114.152344 173.582031 111.011719 192.441406 105.9375 C 211.742188 100.746094 223.6875 93.382812 223.6875 85.078125 C 223.6875 76.773438 211.742188 69.410156 192.441406 64.21875 C 173.582031 59.144531 147.546875 56.003906 118.8125 56.003906 Z M 45.792969 66.484375 C 64.464844 61.460938 90.277344 58.355469 118.8125 58.355469 C 147.351562 58.355469 173.164062 61.460938 191.835938 66.484375 C 210.0625 71.390625 221.332031 77.972656 221.332031 85.078125 C 221.332031 92.183594 210.0625 98.765625 191.835938 103.671875 C 173.164062 108.695312 147.351562 111.800781 118.8125 111.800781 C 90.277344 111.800781 64.464844 108.695312 45.792969 103.671875 C 27.566406 98.765625 16.292969 92.183594 16.292969 85.078125 C 16.292969 77.972656 27.566406 71.390625 45.792969 66.484375 " fill-opacity="1" fill-rule="nonzero"/><path fill="#121212" d="M 119.164062 100.578125 C 85.355469 100.578125 57.785156 93.613281 57.785156 85.078125 C 57.785156 76.542969 85.355469 69.578125 119.164062 69.578125 C 152.96875 69.578125 180.539062 76.542969 180.539062 85.078125 C 180.539062 93.613281 152.96875 100.578125 119.164062 100.578125 " fill-opacity="1" fill-rule="evenodd"/><path fill="#121212" d="M 119.164062 68.402344 C 102.109375 68.402344 86.644531 70.15625 75.425781 72.992188 C 63.734375 75.941406 56.503906 80.203125 56.503906 85.078125 C 56.503906 89.953125 63.734375 94.214844 75.425781 97.167969 C 86.644531 100 102.109375 101.753906 119.164062 101.753906 C 136.210938 101.753906 151.675781 100 162.898438 97.167969 C 174.589844 94.214844 181.820312 89.953125 181.820312 85.078125 C 181.820312 80.203125 174.589844 75.941406 162.898438 72.992188 C 151.675781 70.15625 136.210938 68.402344 119.164062 68.402344 Z M 76.09375 75.246094 C 87.085938 72.46875 102.3125 70.753906 119.164062 70.753906 C 136.007812 70.753906 151.234375 72.46875 162.226562 75.246094 C 172.75 77.90625 179.261719 81.390625 179.261719 85.078125 C 179.261719 88.765625 172.75 92.25 162.226562 94.910156 C 151.234375 97.683594 136.007812 99.402344 119.164062 99.402344 C 102.3125 99.402344 87.085938 97.683594 76.09375 94.910156 C 65.570312 92.25 59.0625 88.765625 59.0625 85.078125 C 59.0625 81.390625 65.570312 77.90625 76.09375 75.246094 " fill-opacity="1" fill-rule="nonzero"/><path fill="#ffffff" d="M 117.890625 57.953125 L 103.867188 63.183594 L 117.890625 68.40625 L 131.914062 63.183594 L 117.890625 57.953125 " fill-opacity="1" fill-rule="evenodd"/><path fill="#ffffff" d="M 117.890625 101.066406 L 103.867188 106.296875 L 117.890625 111.519531 L 131.914062 106.296875 L 117.890625 101.066406 " fill-opacity="1" fill-rule="evenodd"/><path fill="#ffffff" d="M 199.144531 78.769531 L 185.125 84.59375 L 199.144531 90.414062 L 213.167969 84.59375 L 199.144531 78.769531 " fill-opacity="1" fill-rule="evenodd"/><path fill="#ffffff" d="M 36.851562 78.769531 L 22.828125 84.59375 L 36.851562 90.414062 L 50.875 84.59375 L 36.851562 78.769531 " fill-opacity="1" fill-rule="evenodd"/><path fill="#121212" d="M 105.207031 44.757812 C 63.5 44.757812 27.574219 51.433594 11.257812 61.042969 L 8.769531 53.347656 L 1.511719 52.277344 L 1.511719 72.800781 L 1.910156 72.820312 C 2.238281 88.152344 48.355469 100.554688 105.207031 100.554688 C 160.839844 100.554688 206.199219 88.671875 208.414062 73.796875 L 208.902344 73.863281 L 208.902344 52.277344 L 197.078125 59.890625 C 179.921875 50.902344 145.222656 44.757812 105.207031 44.757812 " fill-opacity="1" fill-rule="evenodd"/><g clip-path="url(#312429b0d2)"><path fill="#121212" d="M 105.207031 43.582031 C 84.625 43.582031 65.433594 45.203125 49.292969 48.003906 C 33.378906 50.761719 20.398438 54.675781 11.929688 59.3125 L 9.886719 52.992188 L 8.769531 53.347656 L 9.886719 52.984375 C 9.742188 52.527344 9.335938 52.222656 8.882812 52.179688 L 1.683594 51.117188 L 1.683594 51.113281 C 1.042969 51.019531 0.441406 51.464844 0.351562 52.105469 C 0.339844 52.164062 0.335938 52.222656 0.335938 52.277344 L 0.335938 72.800781 C 0.335938 73.191406 0.519531 73.53125 0.808594 73.746094 C 1.804688 81.632812 13.570312 88.605469 32.078125 93.574219 C 50.847656 98.613281 76.691406 101.730469 105.207031 101.730469 C 133.054688 101.730469 158.359375 98.753906 177.019531 93.917969 C 195.339844 89.171875 207.367188 82.507812 209.371094 74.941406 C 209.730469 74.785156 210.007812 74.453125 210.066406 74.03125 C 210.074219 73.976562 210.078125 73.921875 210.078125 73.863281 L 210.078125 52.277344 C 210.078125 51.628906 209.550781 51.101562 208.902344 51.101562 C 208.640625 51.101562 208.398438 51.1875 208.203125 51.335938 L 197.011719 58.539062 C 188.179688 54.050781 175.035156 50.289062 159.101562 47.664062 C 143.378906 45.074219 124.925781 43.582031 105.207031 43.582031 Z M 49.6875 50.316406 C 65.695312 47.542969 84.746094 45.933594 105.207031 45.933594 C 124.824219 45.933594 143.148438 47.410156 158.722656 49.976562 C 174.734375 52.613281 187.828125 56.386719 196.441406 60.878906 C 196.816406 61.121094 197.316406 61.136719 197.714844 60.878906 L 197.714844 60.875 L 207.730469 54.429688 L 207.730469 72.839844 C 207.480469 73.019531 207.300781 73.292969 207.25 73.621094 L 207.730469 73.695312 L 207.25 73.625 C 206.21875 80.566406 194.601562 86.9375 176.429688 91.648438 C 157.972656 96.4375 132.875 99.378906 105.207031 99.378906 C 76.890625 99.378906 51.261719 96.296875 32.683594 91.308594 C 14.585938 86.449219 3.3125 79.921875 3.085938 72.867188 C 3.101562 72.5 2.945312 72.160156 2.6875 71.933594 L 2.6875 53.636719 L 7.878906 54.402344 L 10.113281 61.308594 C 10.140625 61.421875 10.183594 61.53125 10.246094 61.636719 C 10.574219 62.195312 11.296875 62.382812 11.855469 62.054688 L 11.851562 62.050781 C 20.015625 57.242188 33.226562 53.167969 49.6875 50.316406 Z M 208.203125 51.335938 L 207.730469 52.277344 C 207.730469 51.890625 207.914062 51.546875 208.203125 51.335938 " fill-opacity="1" fill-rule="nonzero"/></g><path fill="#ffffff" d="M 123.566406 79.738281 L 105.207031 79.738281 L 105.207031 99.378906 L 123.566406 98.9375 L 123.566406 79.738281 " fill-opacity="1" fill-rule="evenodd"/><path fill="#ffffff" d="M 191.367188 67.804688 L 173.722656 72.613281 L 174.601562 92.128906 L 191.90625 86.601562 L 191.367188 67.804688 " fill-opacity="1" fill-rule="evenodd"/><path fill="#ffffff" d="M 34.109375 72.65625 L 52.808594 76.414062 L 51.929688 95.386719 L 34.613281 91.8125 L 34.109375 72.65625 " fill-opacity="1" fill-rule="evenodd"/><path fill="#242424" d="M 105.207031 80.175781 C 48.09375 80.175781 1.511719 67.644531 1.511719 52.277344 C 1.511719 36.910156 48.09375 24.378906 105.207031 24.378906 C 162.320312 24.378906 208.902344 36.910156 208.902344 52.277344 C 208.902344 67.644531 162.320312 80.175781 105.207031 80.175781 " fill-opacity="1" fill-rule="evenodd"/><g clip-path="url(#e4f6f70453)"><path fill="#121212" d="M 105.207031 23.203125 C 76.472656 23.203125 50.441406 26.34375 31.582031 31.417969 C 12.273438 36.609375 0.335938 43.972656 0.335938 52.277344 C 0.335938 60.582031 12.273438 67.945312 31.582031 73.136719 C 50.441406 78.210938 76.472656 81.351562 105.207031 81.351562 C 133.941406 81.351562 159.972656 78.210938 178.832031 73.136719 C 198.140625 67.945312 210.078125 60.582031 210.078125 52.277344 C 210.078125 43.972656 198.140625 36.609375 178.832031 31.417969 C 159.972656 26.34375 133.941406 23.203125 105.207031 23.203125 Z M 32.1875 33.683594 C 50.855469 28.660156 76.671875 25.554688 105.207031 25.554688 C 133.742188 25.554688 159.558594 28.660156 178.230469 33.683594 C 196.453125 38.585938 207.730469 45.171875 207.730469 52.277344 C 207.730469 59.378906 196.453125 65.96875 178.230469 70.871094 C 159.558594 75.894531 133.742188 79 105.207031 79 C 76.671875 79 50.855469 75.894531 32.1875 70.871094 C 13.960938 65.96875 2.6875 59.378906 2.6875 52.277344 C 2.6875 45.171875 13.960938 38.585938 32.1875 33.683594 " fill-opacity="1" fill-rule="nonzero"/></g><path fill="#121212" d="M 105.554688 67.777344 C 71.746094 67.777344 44.175781 60.8125 44.175781 52.277344 C 44.175781 43.742188 71.746094 36.777344 105.554688 36.777344 C 139.363281 36.777344 166.933594 43.742188 166.933594 52.277344 C 166.933594 60.8125 139.363281 67.777344 105.554688 67.777344 " fill-opacity="1" fill-rule="evenodd"/><path fill="#121212" d="M 105.554688 35.601562 C 88.503906 35.601562 73.039062 37.355469 61.820312 40.1875 C 50.128906 43.140625 42.894531 47.402344 42.894531 52.277344 C 42.894531 57.148438 50.128906 61.414062 61.820312 64.367188 C 73.039062 67.199219 88.503906 68.953125 105.554688 68.953125 C 122.605469 68.953125 138.070312 67.199219 149.292969 64.367188 C 160.980469 61.414062 168.210938 57.148438 168.210938 52.277344 C 168.210938 47.402344 160.980469 43.140625 149.292969 40.1875 C 138.070312 37.355469 122.605469 35.601562 105.554688 35.601562 Z M 62.488281 42.445312 C 73.480469 39.671875 88.707031 37.953125 105.554688 37.953125 C 122.402344 37.953125 137.628906 39.671875 148.621094 42.445312 C 159.144531 45.105469 165.652344 48.589844 165.652344 52.277344 C 165.652344 55.960938 159.144531 59.449219 148.621094 62.109375 C 137.628906 64.882812 122.402344 66.601562 105.554688 66.601562 C 88.707031 66.601562 73.480469 64.882812 62.488281 62.109375 C 51.964844 59.449219 45.453125 55.960938 45.453125 52.277344 C 45.453125 48.589844 51.964844 45.105469 62.488281 42.445312 " fill-opacity="1" fill-rule="nonzero"/><path fill="#ffffff" d="M 104.285156 25.152344 L 90.261719 30.378906 L 104.285156 35.609375 L 118.308594 30.378906 L 104.285156 25.152344 " fill-opacity="1" fill-rule="evenodd"/><path fill="#ffffff" d="M 104.285156 68.265625 L 90.261719 73.492188 L 104.285156 78.71875 L 118.308594 73.492188 L 104.285156 68.265625 " fill-opacity="1" fill-rule="evenodd"/><path fill="#ffffff" d="M 185.539062 45.96875 L 171.515625 51.792969 L 185.539062 57.613281 L 199.5625 51.792969 L 185.539062 45.96875 " fill-opacity="1" fill-rule="evenodd"/><path fill="#ffffff" d="M 23.246094 45.96875 L 9.222656 51.792969 L 23.246094 57.613281 L 37.269531 51.792969 L 23.246094 45.96875 " fill-opacity="1" fill-rule="evenodd"/><path fill="#121212" d="M 118.8125 22.164062 C 77.109375 22.164062 41.179688 28.839844 24.867188 38.449219 L 22.375 30.757812 L 15.117188 29.6875 L 15.117188 50.214844 L 15.519531 50.226562 C 15.847656 65.5625 61.960938 77.964844 118.8125 77.964844 C 174.449219 77.964844 219.804688 66.085938 222.019531 51.203125 L 222.507812 51.277344 L 222.507812 29.6875 L 210.6875 37.296875 C 193.53125 28.3125 158.828125 22.164062 118.8125 22.164062 " fill-opacity="1" fill-rule="evenodd"/><path fill="#121212" d="M 118.8125 20.992188 C 98.230469 20.992188 79.042969 22.613281 62.898438 25.410156 C 46.984375 28.171875 34.007812 32.082031 25.539062 36.722656 L 23.492188 30.398438 L 22.375 30.757812 L 23.496094 30.398438 C 23.347656 29.9375 22.941406 29.632812 22.488281 29.589844 L 15.289062 28.523438 C 14.648438 28.429688 14.050781 28.875 13.953125 29.515625 C 13.949219 29.574219 13.941406 29.628906 13.941406 29.6875 L 13.941406 50.214844 C 13.941406 50.597656 14.128906 50.941406 14.414062 51.15625 C 15.410156 59.042969 27.175781 66.015625 45.683594 70.984375 C 64.457031 76.027344 90.296875 79.140625 118.8125 79.140625 C 146.660156 79.140625 171.96875 76.167969 190.628906 71.328125 C 208.945312 66.578125 220.972656 59.914062 222.976562 52.355469 C 223.339844 52.195312 223.613281 51.863281 223.671875 51.445312 C 223.679688 51.386719 223.6875 51.332031 223.6875 51.277344 L 223.6875 29.6875 C 223.6875 29.039062 223.15625 28.511719 222.507812 28.511719 C 222.246094 28.511719 222.003906 28.597656 221.808594 28.742188 L 210.617188 35.949219 C 201.78125 31.457031 188.644531 27.695312 172.707031 25.074219 C 156.988281 22.484375 138.535156 20.992188 118.8125 20.992188 Z M 63.292969 27.722656 C 79.300781 24.949219 98.351562 23.339844 118.8125 23.339844 C 138.433594 23.339844 156.753906 24.820312 172.332031 27.386719 C 188.335938 30.023438 201.4375 33.796875 210.046875 38.285156 C 210.421875 38.527344 210.921875 38.546875 211.320312 38.285156 L 221.332031 31.839844 L 221.332031 50.25 C 221.085938 50.429688 220.90625 50.707031 220.859375 51.03125 L 221.332031 51.101562 L 221.332031 51.105469 L 220.859375 51.035156 C 219.824219 57.980469 208.210938 64.351562 190.039062 69.0625 C 171.578125 73.847656 146.484375 76.789062 118.8125 76.789062 C 90.496094 76.789062 64.871094 73.707031 46.289062 68.714844 C 28.191406 63.855469 16.917969 57.332031 16.691406 50.28125 L 16.691406 50.277344 C 16.707031 49.90625 16.550781 49.574219 16.292969 49.347656 L 16.292969 31.046875 L 21.488281 31.8125 L 23.71875 38.722656 C 23.746094 38.832031 23.792969 38.941406 23.855469 39.046875 C 24.179688 39.605469 24.902344 39.792969 25.460938 39.464844 L 25.460938 39.460938 C 33.625 34.652344 46.835938 30.578125 63.292969 27.722656 Z M 221.808594 28.742188 L 221.332031 29.6875 C 221.332031 29.300781 221.519531 28.957031 221.808594 28.742188 " fill-opacity="1" fill-rule="nonzero"/><path fill="#ffffff" d="M 137.171875 57.148438 L 118.8125 57.148438 L 118.8125 76.789062 L 137.171875 76.347656 L 137.171875 57.148438 " fill-opacity="1" fill-rule="evenodd"/><path fill="#ffffff" d="M 204.976562 45.214844 L 187.328125 50.019531 L 188.207031 69.535156 L 205.515625 64.007812 L 204.976562 45.214844 " fill-opacity="1" fill-rule="evenodd"/><path fill="#ffffff" d="M 47.714844 50.066406 L 66.414062 53.824219 L 65.535156 72.796875 L 48.21875 69.21875 L 47.714844 50.066406 " fill-opacity="1" fill-rule="evenodd"/><path fill="#242424" d="M 118.8125 57.585938 C 61.699219 57.585938 15.117188 45.050781 15.117188 29.6875 C 15.117188 14.320312 61.699219 1.789062 118.8125 1.789062 C 175.929688 1.789062 222.507812 14.320312 222.507812 29.6875 C 222.507812 45.050781 175.929688 57.585938 118.8125 57.585938 " fill-opacity="1" fill-rule="evenodd"/><g clip-path="url(#e10d85441b)"><path fill="#121212" d="M 118.8125 0.613281 C 90.082031 0.613281 64.046875 3.75 45.1875 8.824219 C 25.882812 14.019531 13.941406 21.382812 13.941406 29.6875 C 13.941406 37.988281 25.882812 45.351562 45.1875 50.546875 C 64.046875 55.621094 90.082031 58.761719 118.8125 58.761719 C 147.546875 58.761719 173.582031 55.621094 192.441406 50.546875 C 211.742188 45.351562 223.6875 37.988281 223.6875 29.6875 C 223.6875 21.382812 211.742188 14.019531 192.441406 8.824219 C 173.582031 3.75 147.546875 0.613281 118.8125 0.613281 Z M 45.792969 11.09375 C 64.464844 6.070312 90.277344 2.960938 118.8125 2.960938 C 147.351562 2.960938 173.164062 6.070312 191.835938 11.09375 C 210.0625 15.996094 221.332031 22.582031 221.332031 29.6875 C 221.332031 36.792969 210.0625 43.375 191.835938 48.28125 C 173.164062 53.300781 147.351562 56.410156 118.8125 56.410156 C 90.277344 56.410156 64.464844 53.300781 45.792969 48.28125 C 27.566406 43.375 16.292969 36.792969 16.292969 29.6875 C 16.292969 22.582031 27.566406 15.996094 45.792969 11.09375 " fill-opacity="1" fill-rule="nonzero"/></g><path fill="#121212" d="M 119.164062 45.1875 C 85.355469 45.1875 57.785156 38.222656 57.785156 29.6875 C 57.785156 21.148438 85.355469 14.1875 119.164062 14.1875 C 152.96875 14.1875 180.539062 21.148438 180.539062 29.6875 C 180.539062 38.222656 152.96875 45.1875 119.164062 45.1875 " fill-opacity="1" fill-rule="evenodd"/><path fill="#121212" d="M 119.164062 13.011719 C 102.109375 13.011719 86.644531 14.761719 75.425781 17.597656 C 63.734375 20.546875 56.503906 24.8125 56.503906 29.6875 C 56.503906 34.558594 63.734375 38.824219 75.425781 41.777344 C 86.644531 44.609375 102.109375 46.359375 119.164062 46.359375 C 136.210938 46.359375 151.675781 44.609375 162.898438 41.777344 C 174.589844 38.824219 181.820312 34.558594 181.820312 29.6875 C 181.820312 24.8125 174.589844 20.546875 162.898438 17.597656 C 151.675781 14.761719 136.210938 13.011719 119.164062 13.011719 Z M 76.09375 19.855469 C 87.085938 17.078125 102.3125 15.363281 119.164062 15.363281 C 136.007812 15.363281 151.234375 17.078125 162.226562 19.855469 C 172.75 22.511719 179.261719 26 179.261719 29.6875 C 179.261719 33.371094 172.75 36.859375 162.226562 39.515625 C 151.234375 42.292969 136.007812 44.011719 119.164062 44.011719 C 102.3125 44.011719 87.085938 42.292969 76.09375 39.515625 C 65.570312 36.859375 59.0625 33.371094 59.0625 29.6875 C 59.0625 26 65.570312 22.511719 76.09375 19.855469 " fill-opacity="1" fill-rule="nonzero"/><path fill="#ffffff" d="M 117.890625 2.5625 L 103.867188 7.789062 L 117.890625 13.019531 L 131.914062 7.789062 L 117.890625 2.5625 " fill-opacity="1" fill-rule="evenodd"/><path fill="#ffffff" d="M 117.890625 45.675781 L 103.867188 50.902344 L 117.890625 56.132812 L 131.914062 50.902344 L 117.890625 45.675781 " fill-opacity="1" fill-rule="evenodd"/><path fill="#ffffff" d="M 199.144531 23.378906 L 185.125 29.203125 L 199.144531 35.023438 L 213.167969 29.203125 L 199.144531 23.378906 " fill-opacity="1" fill-rule="evenodd"/><path fill="#ffffff" d="M 36.851562 23.378906 L 22.828125 29.203125 L 36.851562 35.023438 L 50.875 29.203125 L 36.851562 23.378906 " fill-opacity="1" fill-rule="evenodd"/></g></g></g></svg>