<svg xmlns="http://www.w3.org/2000/svg" xmlns:xlink="http://www.w3.org/1999/xlink" width="300" zoomAndPan="magnify" viewBox="0 0 224.87999 225" height="300" preserveAspectRatio="xMidYMid meet" version="1.0"><defs><clipPath id="3ede8a53ad"><path d="M 0.359375 144 L 210.167969 144 L 210.167969 202.265625 L 0.359375 202.265625 Z M 0.359375 144 " clip-rule="nonzero"/></clipPath><clipPath id="38b47871de"><path d="M 14.347656 61.183594 L 224.542969 61.183594 L 224.542969 120 L 14.347656 120 Z M 14.347656 61.183594 " clip-rule="nonzero"/></clipPath><clipPath id="c01b34e52d"><path d="M 14.347656 41.113281 L 224.542969 41.113281 L 224.542969 99.496094 L 14.347656 99.496094 Z M 14.347656 41.113281 " clip-rule="nonzero"/></clipPath><clipPath id="1fa0fd487a"><path d="M 1 18.613281 L 211 18.613281 L 211 77 L 1 77 Z M 1 18.613281 " clip-rule="nonzero"/></clipPath></defs><path fill="#d1d1d1" d="M 105.234375 145.453125 C 146.9375 145.453125 182.867188 152.128906 199.179688 161.738281 L 201.671875 154.046875 L 208.925781 152.976562 L 208.925781 173.5 L 208.527344 173.515625 C 208.199219 188.851562 162.082031 201.253906 105.234375 201.253906 C 49.597656 201.253906 4.238281 189.371094 2.027344 174.492188 L 1.535156 174.5625 L 1.535156 152.976562 L 13.359375 160.589844 C 30.515625 151.597656 65.21875 145.453125 105.234375 145.453125 " fill-opacity="1" fill-rule="evenodd"/><g clip-path="url(#3ede8a53ad)"><path fill="#121212" d="M 105.234375 144.28125 C 125.816406 144.28125 145.003906 145.902344 161.144531 148.699219 C 177.0625 151.460938 190.039062 155.371094 198.507812 160.011719 L 200.554688 153.6875 L 201.671875 154.046875 L 200.550781 153.683594 C 200.699219 153.226562 201.105469 152.921875 201.554688 152.878906 L 208.757812 151.8125 C 209.398438 151.71875 209.996094 152.164062 210.089844 152.804688 C 210.097656 152.859375 210.101562 152.917969 210.101562 152.976562 L 210.101562 173.5 C 210.101562 173.886719 209.917969 174.230469 209.628906 174.441406 C 208.636719 182.328125 196.871094 189.304688 178.363281 194.273438 C 159.59375 199.3125 133.75 202.429688 105.234375 202.429688 C 77.386719 202.429688 52.078125 199.453125 33.417969 194.617188 C 15.101562 189.867188 3.074219 183.203125 1.070312 175.640625 C 0.707031 175.484375 0.433594 175.152344 0.371094 174.734375 C 0.367188 174.675781 0.359375 174.617188 0.359375 174.5625 L 0.359375 152.976562 C 0.359375 152.328125 0.886719 151.800781 1.535156 151.800781 C 1.796875 151.800781 2.042969 151.886719 2.238281 152.03125 L 13.429688 159.238281 C 22.261719 154.746094 35.402344 150.984375 51.335938 148.363281 C 67.058594 145.773438 85.511719 144.28125 105.234375 144.28125 Z M 160.75 151.011719 C 144.746094 148.242188 125.691406 146.628906 105.234375 146.628906 C 85.613281 146.628906 67.292969 148.109375 51.714844 150.671875 C 35.707031 153.308594 22.609375 157.085938 14 161.574219 C 13.625 161.816406 13.125 161.832031 12.726562 161.578125 L 12.726562 161.574219 L 2.710938 155.128906 L 2.710938 173.539062 C 2.960938 173.71875 3.140625 173.992188 3.1875 174.320312 L 2.710938 174.390625 L 2.710938 174.394531 L 3.1875 174.324219 C 4.222656 181.265625 15.835938 187.640625 34.007812 192.347656 C 52.46875 197.136719 77.5625 200.078125 105.234375 200.078125 C 133.550781 200.078125 159.175781 196.992188 177.753906 192.003906 C 195.855469 187.148438 207.125 180.617188 207.351562 173.570312 L 207.351562 173.5625 C 207.339844 173.195312 207.496094 172.859375 207.75 172.636719 L 207.75 154.335938 L 202.558594 155.101562 L 200.324219 162.007812 C 200.296875 162.121094 200.253906 162.230469 200.191406 162.335938 C 199.863281 162.894531 199.140625 163.082031 198.585938 162.753906 L 198.585938 162.746094 C 190.421875 157.941406 177.210938 153.867188 160.75 151.011719 Z M 2.238281 152.03125 L 2.710938 152.976562 C 2.710938 152.589844 2.523438 152.246094 2.238281 152.03125 " fill-opacity="1" fill-rule="nonzero"/></g><path fill="#123679" d="M 86.871094 180.4375 L 105.234375 180.4375 L 105.234375 200.078125 L 86.871094 199.636719 L 86.871094 180.4375 " fill-opacity="1" fill-rule="evenodd"/><path fill="#123679" d="M 19.070312 168.503906 L 36.71875 173.308594 L 35.839844 192.824219 L 18.53125 187.296875 L 19.070312 168.503906 " fill-opacity="1" fill-rule="evenodd"/><path fill="#123679" d="M 176.332031 173.355469 L 157.628906 177.113281 L 158.507812 196.082031 L 175.828125 192.511719 L 176.332031 173.355469 " fill-opacity="1" fill-rule="evenodd"/><path fill="#ffffff" d="M 105.230469 180.875 C 162.34375 180.875 208.925781 168.34375 208.925781 152.976562 C 208.925781 137.609375 162.34375 125.078125 105.230469 125.078125 C 48.117188 125.078125 1.535156 137.609375 1.535156 152.976562 C 1.535156 168.34375 48.117188 180.875 105.230469 180.875 " fill-opacity="1" fill-rule="evenodd"/><path fill="#121212" d="M 105.230469 123.902344 C 133.964844 123.902344 160 127.039062 178.859375 132.113281 C 198.164062 137.304688 210.101562 144.671875 210.101562 152.976562 C 210.101562 161.277344 198.164062 168.644531 178.859375 173.835938 C 160 178.910156 133.964844 182.050781 105.230469 182.050781 C 76.496094 182.050781 50.464844 178.910156 31.605469 173.835938 C 12.300781 168.644531 0.359375 161.277344 0.359375 152.976562 C 0.359375 144.671875 12.300781 137.304688 31.605469 132.113281 C 50.464844 127.039062 76.496094 123.902344 105.230469 123.902344 Z M 178.253906 134.382812 C 159.582031 129.359375 133.769531 126.25 105.230469 126.25 C 76.695312 126.25 50.882812 129.359375 32.210938 134.382812 C 13.984375 139.285156 2.710938 145.871094 2.710938 152.976562 C 2.710938 160.082031 13.984375 166.664062 32.210938 171.566406 C 50.882812 176.59375 76.695312 179.699219 105.230469 179.699219 C 133.765625 179.699219 159.582031 176.59375 178.253906 171.566406 C 196.480469 166.664062 207.75 160.082031 207.75 152.976562 C 207.75 145.871094 196.480469 139.285156 178.253906 134.382812 " fill-opacity="1" fill-rule="nonzero"/><path fill="#d1d1d1" d="M 104.886719 168.476562 C 138.691406 168.476562 166.261719 161.511719 166.261719 152.976562 C 166.261719 144.4375 138.691406 137.476562 104.886719 137.476562 C 71.078125 137.476562 43.507812 144.4375 43.507812 152.976562 C 43.507812 161.511719 71.078125 168.476562 104.886719 168.476562 " fill-opacity="1" fill-rule="evenodd"/><path fill="#121212" d="M 104.886719 136.300781 C 121.933594 136.300781 137.398438 138.050781 148.621094 140.886719 C 160.3125 143.839844 167.542969 148.101562 167.542969 152.976562 C 167.542969 157.847656 160.3125 162.109375 148.621094 165.0625 C 137.398438 167.898438 121.933594 169.648438 104.886719 169.648438 C 87.835938 169.648438 72.367188 167.898438 61.148438 165.0625 C 49.457031 162.109375 42.226562 157.847656 42.226562 152.976562 C 42.226562 148.101562 49.457031 143.839844 61.152344 140.886719 C 72.371094 138.050781 87.835938 136.300781 104.886719 136.300781 Z M 147.953125 143.144531 C 136.957031 140.367188 121.730469 138.652344 104.886719 138.652344 C 88.035156 138.652344 72.8125 140.367188 61.816406 143.144531 C 51.292969 145.800781 44.785156 149.289062 44.785156 152.976562 C 44.785156 156.660156 51.292969 160.148438 61.816406 162.804688 C 72.8125 165.582031 88.035156 167.300781 104.886719 167.300781 C 121.730469 167.300781 136.957031 165.582031 147.953125 162.804688 C 158.472656 160.148438 164.984375 156.660156 164.984375 152.976562 C 164.984375 149.289062 158.476562 145.800781 147.953125 143.144531 " fill-opacity="1" fill-rule="nonzero"/><path fill="#123679" d="M 106.15625 125.851562 L 120.175781 131.078125 L 106.15625 136.304688 L 92.132812 131.078125 L 106.15625 125.851562 " fill-opacity="1" fill-rule="evenodd"/><path fill="#123679" d="M 106.15625 168.960938 L 120.175781 174.191406 L 106.15625 179.417969 L 92.132812 174.191406 L 106.15625 168.960938 " fill-opacity="1" fill-rule="evenodd"/><path fill="#123679" d="M 24.898438 146.664062 L 38.921875 152.492188 L 24.898438 158.3125 L 10.878906 152.492188 L 24.898438 146.664062 " fill-opacity="1" fill-rule="evenodd"/><path fill="#123679" d="M 187.195312 146.664062 L 201.214844 152.492188 L 187.195312 158.3125 L 173.171875 152.492188 L 187.195312 146.664062 " fill-opacity="1" fill-rule="evenodd"/><path fill="#d1d1d1" d="M 116.613281 117.859375 C 158.316406 117.859375 194.246094 124.539062 210.558594 134.148438 L 213.046875 126.453125 L 220.304688 125.378906 L 220.304688 145.90625 L 219.90625 145.925781 C 219.578125 161.257812 173.460938 173.660156 116.613281 173.660156 C 60.976562 173.660156 15.617188 161.777344 13.402344 146.898438 L 12.914062 146.96875 L 12.914062 125.378906 L 24.738281 132.996094 C 41.890625 124.007812 76.59375 117.859375 116.613281 117.859375 " fill-opacity="1" fill-rule="evenodd"/><path fill="#121212" d="M 116.613281 116.6875 C 137.191406 116.6875 156.378906 118.308594 172.523438 121.105469 C 188.4375 123.863281 201.417969 127.777344 209.882812 132.417969 L 211.929688 126.09375 L 213.046875 126.453125 L 211.925781 126.089844 C 212.078125 125.632812 212.480469 125.328125 212.933594 125.285156 L 220.136719 124.21875 L 220.132812 124.21875 C 220.777344 124.125 221.371094 124.570312 221.46875 125.210938 C 221.476562 125.265625 221.480469 125.324219 221.480469 125.378906 L 221.480469 145.90625 C 221.480469 146.292969 221.292969 146.632812 221.007812 146.851562 C 220.011719 154.734375 208.246094 161.710938 189.738281 166.679688 C 170.96875 171.71875 145.125 174.835938 116.613281 174.835938 C 88.761719 174.835938 63.453125 171.859375 44.796875 167.023438 C 26.476562 162.273438 14.449219 155.613281 12.445312 148.046875 C 12.082031 147.890625 11.8125 147.554688 11.75 147.136719 C 11.742188 147.082031 11.738281 147.027344 11.738281 146.96875 L 11.738281 125.378906 C 11.738281 124.730469 12.265625 124.203125 12.914062 124.203125 C 13.175781 124.203125 13.417969 124.292969 13.617188 124.4375 L 24.804688 131.644531 C 33.640625 127.15625 46.78125 123.390625 62.714844 120.765625 C 78.4375 118.179688 96.890625 116.6875 116.613281 116.6875 Z M 172.128906 123.417969 C 156.121094 120.644531 137.070312 119.035156 116.613281 119.035156 C 96.988281 119.035156 78.671875 120.511719 63.089844 123.078125 C 47.085938 125.714844 33.988281 129.492188 25.375 133.980469 C 25 134.222656 24.503906 134.238281 24.101562 133.984375 L 24.101562 133.980469 L 14.089844 127.53125 L 14.089844 145.945312 C 14.339844 146.125 14.515625 146.398438 14.5625 146.726562 L 14.089844 146.796875 L 14.5625 146.730469 C 15.597656 153.671875 27.214844 160.042969 45.382812 164.753906 C 63.84375 169.542969 88.941406 172.484375 116.613281 172.484375 C 144.929688 172.484375 170.554688 169.398438 189.132812 164.410156 C 207.230469 159.554688 218.503906 153.023438 218.730469 145.972656 C 218.71875 145.601562 218.875 145.265625 219.128906 145.039062 L 219.128906 126.742188 L 213.9375 127.507812 L 211.703125 134.414062 C 211.675781 134.527344 211.628906 134.636719 211.570312 134.742188 C 211.242188 135.300781 210.519531 135.484375 209.960938 135.160156 L 209.964844 135.152344 C 201.800781 130.34375 188.589844 126.273438 172.128906 123.417969 Z M 13.617188 124.4375 L 14.089844 125.378906 C 14.089844 124.996094 13.902344 124.652344 13.617188 124.4375 " fill-opacity="1" fill-rule="nonzero"/><path fill="#123679" d="M 98.25 152.84375 L 116.613281 152.84375 L 116.613281 172.484375 L 98.25 172.042969 L 98.25 152.84375 " fill-opacity="1" fill-rule="evenodd"/><path fill="#123679" d="M 30.445312 140.910156 L 48.09375 145.71875 L 47.214844 165.234375 L 29.90625 159.703125 L 30.445312 140.910156 " fill-opacity="1" fill-rule="evenodd"/><path fill="#123679" d="M 187.710938 145.761719 L 169.007812 149.519531 L 169.886719 168.488281 L 187.207031 164.917969 L 187.710938 145.761719 " fill-opacity="1" fill-rule="evenodd"/><path fill="#ffffff" d="M 116.609375 153.28125 C 173.722656 153.28125 220.304688 140.75 220.304688 125.378906 C 220.304688 110.015625 173.722656 97.484375 116.609375 97.484375 C 59.496094 97.484375 12.914062 110.015625 12.914062 125.378906 C 12.914062 140.75 59.496094 153.28125 116.609375 153.28125 " fill-opacity="1" fill-rule="evenodd"/><path fill="#121212" d="M 116.609375 96.308594 C 145.34375 96.308594 171.378906 99.445312 190.238281 104.519531 C 209.539062 109.714844 221.480469 117.074219 221.480469 125.378906 C 221.480469 133.6875 209.539062 141.046875 190.238281 146.242188 C 171.378906 151.316406 145.34375 154.453125 116.609375 154.453125 C 87.875 154.453125 61.839844 151.316406 42.980469 146.242188 C 23.679688 141.046875 11.738281 133.6875 11.738281 125.378906 C 11.738281 117.078125 23.679688 109.714844 42.980469 104.519531 C 61.839844 99.445312 87.875 96.308594 116.609375 96.308594 Z M 189.632812 106.789062 C 170.960938 101.765625 145.144531 98.65625 116.609375 98.65625 C 88.074219 98.65625 62.257812 101.765625 43.589844 106.789062 C 25.359375 111.691406 14.089844 118.277344 14.089844 125.378906 C 14.089844 132.484375 25.359375 139.070312 43.589844 143.972656 C 62.257812 149 88.074219 152.105469 116.609375 152.105469 C 145.144531 152.105469 170.960938 149 189.632812 143.972656 C 207.855469 139.070312 219.128906 132.484375 219.128906 125.378906 C 219.128906 118.277344 207.855469 111.691406 189.632812 106.789062 " fill-opacity="1" fill-rule="nonzero"/><path fill="#d1d1d1" d="M 116.261719 140.882812 C 150.070312 140.882812 177.640625 133.917969 177.640625 125.378906 C 177.640625 116.84375 150.070312 109.878906 116.261719 109.878906 C 82.457031 109.878906 54.882812 116.84375 54.882812 125.378906 C 54.882812 133.917969 82.457031 140.882812 116.261719 140.882812 " fill-opacity="1" fill-rule="evenodd"/><path fill="#121212" d="M 116.261719 108.707031 C 133.3125 108.707031 148.777344 110.460938 160 113.292969 C 171.6875 116.246094 178.917969 120.507812 178.917969 125.378906 C 178.917969 130.253906 171.6875 134.515625 160 137.46875 C 148.777344 140.304688 133.3125 142.058594 116.261719 142.058594 C 99.210938 142.058594 83.746094 140.304688 72.523438 137.46875 C 60.835938 134.515625 53.601562 130.253906 53.601562 125.378906 C 53.601562 120.507812 60.835938 116.246094 72.527344 113.292969 C 83.746094 110.460938 99.210938 108.707031 116.261719 108.707031 Z M 159.328125 115.550781 C 148.335938 112.773438 133.109375 111.054688 116.261719 111.054688 C 99.414062 111.054688 84.191406 112.773438 73.195312 115.550781 C 62.671875 118.210938 56.160156 121.695312 56.160156 125.378906 C 56.160156 129.066406 62.671875 132.554688 73.195312 135.210938 C 84.191406 137.988281 99.414062 139.707031 116.261719 139.707031 C 133.109375 139.707031 148.335938 137.988281 159.328125 135.210938 C 169.851562 132.554688 176.359375 129.066406 176.359375 125.378906 C 176.359375 121.695312 169.851562 118.210938 159.328125 115.550781 " fill-opacity="1" fill-rule="nonzero"/><path fill="#123679" d="M 117.53125 98.257812 L 131.554688 103.484375 L 117.53125 108.710938 L 103.511719 103.484375 L 117.53125 98.257812 " fill-opacity="1" fill-rule="evenodd"/><path fill="#123679" d="M 117.53125 141.371094 L 131.554688 146.597656 L 117.53125 151.824219 L 103.511719 146.597656 L 117.53125 141.371094 " fill-opacity="1" fill-rule="evenodd"/><path fill="#123679" d="M 36.277344 119.070312 L 50.300781 124.894531 L 36.277344 130.71875 L 22.253906 124.894531 L 36.277344 119.070312 " fill-opacity="1" fill-rule="evenodd"/><path fill="#123679" d="M 198.570312 119.070312 L 212.59375 124.894531 L 198.570312 130.71875 L 184.546875 124.894531 L 198.570312 119.070312 " fill-opacity="1" fill-rule="evenodd"/><path fill="#d1d1d1" d="M 106.066406 95.558594 C 147.773438 95.558594 183.699219 102.234375 200.015625 111.84375 L 202.503906 104.148438 L 209.761719 103.078125 L 209.761719 123.605469 L 209.363281 123.621094 C 209.035156 138.953125 162.917969 151.355469 106.066406 151.355469 C 50.433594 151.355469 5.074219 139.476562 2.859375 124.597656 L 2.371094 124.664062 L 2.371094 103.078125 L 14.191406 110.691406 C 31.347656 101.703125 66.050781 95.558594 106.066406 95.558594 " fill-opacity="1" fill-rule="evenodd"/><path fill="#121212" d="M 106.066406 94.382812 C 126.648438 94.382812 145.839844 96.003906 161.980469 98.804688 C 177.894531 101.5625 190.875 105.476562 199.34375 110.117188 L 201.386719 103.792969 L 202.503906 104.148438 L 201.386719 103.789062 C 201.53125 103.328125 201.9375 103.023438 202.390625 102.980469 L 209.589844 101.914062 C 210.230469 101.820312 210.832031 102.265625 210.925781 102.90625 C 210.933594 102.964844 210.9375 103.023438 210.9375 103.078125 L 210.9375 123.605469 C 210.9375 123.992188 210.75 124.332031 210.464844 124.546875 C 209.46875 132.429688 197.703125 139.40625 179.195312 144.375 C 160.421875 149.417969 134.582031 152.53125 106.066406 152.53125 C 78.21875 152.53125 52.910156 149.554688 34.253906 144.71875 C 15.933594 139.972656 3.90625 133.308594 1.902344 125.746094 C 1.542969 125.585938 1.269531 125.253906 1.207031 124.835938 C 1.199219 124.777344 1.195312 124.722656 1.195312 124.664062 L 1.195312 103.078125 C 1.195312 102.429688 1.722656 101.902344 2.371094 101.902344 C 2.632812 101.902344 2.875 101.988281 3.070312 102.136719 L 14.261719 109.339844 C 23.097656 104.851562 36.234375 101.089844 52.171875 98.464844 C 67.890625 95.875 86.34375 94.382812 106.066406 94.382812 Z M 161.585938 101.113281 C 145.578125 98.34375 126.527344 96.730469 106.066406 96.730469 C 86.449219 96.730469 68.125 98.210938 52.546875 100.777344 C 36.542969 103.414062 23.445312 107.1875 14.832031 111.675781 C 14.457031 111.921875 13.957031 111.933594 13.558594 111.679688 L 13.558594 111.675781 L 3.546875 105.230469 L 3.546875 123.640625 C 3.792969 123.824219 3.972656 124.09375 4.019531 124.421875 L 3.546875 124.496094 L 4.019531 124.425781 C 5.054688 131.371094 16.671875 137.742188 34.839844 142.453125 C 53.300781 147.238281 78.398438 150.179688 106.066406 150.179688 C 134.382812 150.179688 160.011719 147.097656 178.589844 142.109375 C 196.6875 137.25 207.960938 130.722656 208.1875 123.671875 L 208.1875 123.667969 C 208.171875 123.300781 208.328125 122.960938 208.585938 122.738281 L 208.585938 104.4375 L 203.390625 105.207031 L 201.160156 112.109375 C 201.132812 112.222656 201.089844 112.335938 201.027344 112.4375 C 200.699219 112.996094 199.976562 113.183594 199.417969 112.855469 L 199.421875 112.851562 C 191.253906 108.042969 178.046875 103.96875 161.585938 101.113281 Z M 3.070312 102.136719 L 3.546875 103.078125 C 3.546875 102.691406 3.359375 102.351562 3.070312 102.136719 " fill-opacity="1" fill-rule="nonzero"/><path fill="#123679" d="M 87.707031 130.539062 L 106.066406 130.539062 L 106.066406 150.179688 L 87.707031 149.738281 L 87.707031 130.539062 " fill-opacity="1" fill-rule="evenodd"/><path fill="#123679" d="M 19.902344 118.605469 L 37.550781 123.414062 L 36.671875 142.929688 L 19.363281 137.398438 L 19.902344 118.605469 " fill-opacity="1" fill-rule="evenodd"/><path fill="#123679" d="M 177.164062 123.457031 L 158.464844 127.214844 L 159.34375 146.1875 L 176.660156 142.613281 L 177.164062 123.457031 " fill-opacity="1" fill-rule="evenodd"/><path fill="#ffffff" d="M 106.066406 130.976562 C 163.179688 130.976562 209.761719 118.445312 209.761719 103.078125 C 209.761719 87.710938 163.179688 75.179688 106.066406 75.179688 C 48.953125 75.179688 2.371094 87.710938 2.371094 103.078125 C 2.371094 118.445312 48.953125 130.976562 106.066406 130.976562 " fill-opacity="1" fill-rule="evenodd"/><path fill="#121212" d="M 106.066406 74.003906 C 134.800781 74.003906 160.832031 77.144531 179.691406 82.21875 C 198.996094 87.410156 210.9375 94.773438 210.9375 103.078125 C 210.9375 111.382812 198.996094 118.746094 179.691406 123.9375 C 160.835938 129.011719 134.800781 132.152344 106.066406 132.152344 C 77.332031 132.152344 51.300781 129.011719 32.441406 123.9375 C 13.136719 118.746094 1.195312 111.382812 1.195312 103.078125 C 1.195312 94.773438 13.136719 87.410156 32.441406 82.21875 C 51.300781 77.144531 77.332031 74.003906 106.066406 74.003906 Z M 179.085938 84.484375 C 160.417969 79.460938 134.601562 76.355469 106.066406 76.355469 C 77.53125 76.355469 51.714844 79.460938 33.046875 84.484375 C 14.816406 89.390625 3.546875 95.972656 3.546875 103.078125 C 3.546875 110.183594 14.816406 116.765625 33.046875 121.671875 C 51.714844 126.695312 77.53125 129.800781 106.066406 129.800781 C 134.601562 129.800781 160.417969 126.695312 179.089844 121.671875 C 197.3125 116.765625 208.585938 110.183594 208.585938 103.078125 C 208.585938 95.972656 197.3125 89.390625 179.085938 84.484375 " fill-opacity="1" fill-rule="nonzero"/><path fill="#d1d1d1" d="M 105.71875 118.578125 C 139.527344 118.578125 167.097656 111.613281 167.097656 103.078125 C 167.097656 94.542969 139.527344 87.578125 105.71875 87.578125 C 71.910156 87.578125 44.339844 94.542969 44.339844 103.078125 C 44.339844 111.613281 71.910156 118.578125 105.71875 118.578125 " fill-opacity="1" fill-rule="evenodd"/><path fill="#121212" d="M 105.71875 86.402344 C 122.769531 86.402344 138.234375 88.15625 149.453125 90.992188 C 161.144531 93.941406 168.378906 98.203125 168.378906 103.078125 C 168.378906 107.953125 161.144531 112.214844 149.453125 115.167969 C 138.234375 118 122.769531 119.753906 105.71875 119.753906 C 88.667969 119.753906 73.203125 118 61.980469 115.167969 C 50.292969 112.214844 43.0625 107.953125 43.0625 103.078125 C 43.0625 98.203125 50.292969 93.941406 61.980469 90.992188 C 73.203125 88.15625 88.667969 86.402344 105.71875 86.402344 Z M 148.785156 93.246094 C 137.792969 90.46875 122.566406 88.753906 105.71875 88.753906 C 88.871094 88.753906 73.644531 90.46875 62.652344 93.246094 C 52.128906 95.90625 45.621094 99.390625 45.621094 103.078125 C 45.621094 106.765625 52.128906 110.25 62.652344 112.910156 C 73.644531 115.683594 88.871094 117.402344 105.71875 117.402344 C 122.566406 117.402344 137.792969 115.683594 148.785156 112.910156 C 159.308594 110.25 165.820312 106.765625 165.820312 103.078125 C 165.820312 99.390625 159.308594 95.90625 148.785156 93.246094 " fill-opacity="1" fill-rule="nonzero"/><path fill="#123679" d="M 106.988281 75.953125 L 121.011719 81.183594 L 106.988281 86.40625 L 92.964844 81.183594 L 106.988281 75.953125 " fill-opacity="1" fill-rule="evenodd"/><path fill="#123679" d="M 106.988281 119.066406 L 121.011719 124.296875 L 106.988281 129.519531 L 92.964844 124.296875 L 106.988281 119.066406 " fill-opacity="1" fill-rule="evenodd"/><path fill="#123679" d="M 25.734375 96.769531 L 39.757812 102.59375 L 25.734375 108.414062 L 11.710938 102.59375 L 25.734375 96.769531 " fill-opacity="1" fill-rule="evenodd"/><path fill="#123679" d="M 188.027344 96.769531 L 202.050781 102.59375 L 188.027344 108.414062 L 174.003906 102.59375 L 188.027344 96.769531 " fill-opacity="1" fill-rule="evenodd"/><path fill="#d1d1d1" d="M 119.675781 62.757812 C 161.378906 62.757812 197.304688 69.433594 213.621094 79.042969 L 216.109375 71.347656 L 223.367188 70.277344 L 223.367188 90.800781 L 222.96875 90.820312 C 222.640625 106.152344 176.523438 118.554688 119.675781 118.554688 C 64.039062 118.554688 18.679688 106.671875 16.464844 91.796875 L 15.976562 91.863281 L 15.976562 70.277344 L 27.800781 77.890625 C 44.957031 68.902344 79.65625 62.757812 119.675781 62.757812 " fill-opacity="1" fill-rule="evenodd"/><g clip-path="url(#38b47871de)"><path fill="#121212" d="M 119.675781 61.582031 C 140.253906 61.582031 159.445312 63.203125 175.585938 66.003906 C 191.503906 68.761719 204.480469 72.675781 212.949219 77.3125 L 214.996094 70.992188 L 216.109375 71.347656 L 214.992188 70.984375 C 215.140625 70.527344 215.546875 70.222656 215.996094 70.179688 L 223.195312 69.117188 L 223.195312 69.113281 C 223.839844 69.019531 224.4375 69.464844 224.53125 70.105469 C 224.539062 70.164062 224.542969 70.222656 224.542969 70.277344 L 224.542969 90.800781 C 224.542969 91.191406 224.359375 91.53125 224.070312 91.746094 C 223.074219 99.632812 211.308594 106.605469 192.800781 111.574219 C 174.03125 116.613281 148.191406 119.730469 119.675781 119.730469 C 91.824219 119.730469 66.519531 116.753906 47.859375 111.917969 C 29.542969 107.171875 17.515625 100.507812 15.507812 92.941406 C 15.148438 92.785156 14.871094 92.453125 14.8125 92.03125 C 14.804688 91.976562 14.800781 91.921875 14.800781 91.863281 L 14.800781 70.277344 C 14.800781 69.628906 15.328125 69.101562 15.976562 69.101562 C 16.238281 69.101562 16.484375 69.1875 16.679688 69.335938 L 27.871094 76.539062 C 36.703125 72.050781 49.84375 68.289062 65.777344 65.664062 C 81.5 63.074219 99.953125 61.582031 119.675781 61.582031 Z M 175.191406 68.316406 C 159.1875 65.542969 140.132812 63.933594 119.675781 63.933594 C 100.054688 63.933594 81.730469 65.410156 66.15625 67.976562 C 50.148438 70.613281 37.050781 74.386719 28.4375 78.878906 C 28.0625 79.121094 27.566406 79.136719 27.167969 78.878906 L 27.167969 78.875 L 17.152344 72.429688 L 17.152344 90.839844 C 17.398438 91.019531 17.582031 91.292969 17.628906 91.621094 L 17.152344 91.695312 L 17.628906 91.625 C 18.660156 98.566406 30.277344 104.9375 48.449219 109.648438 C 66.910156 114.4375 92.003906 117.378906 119.675781 117.378906 C 147.992188 117.378906 173.617188 114.296875 192.195312 109.308594 C 210.296875 104.449219 221.566406 97.921875 221.796875 90.867188 L 221.792969 90.867188 C 221.777344 90.5 221.9375 90.160156 222.191406 89.933594 L 222.191406 71.636719 L 217 72.402344 L 214.765625 79.308594 C 214.738281 79.421875 214.695312 79.53125 214.632812 79.636719 C 214.304688 80.195312 213.582031 80.382812 213.023438 80.054688 L 213.027344 80.050781 C 204.863281 75.242188 191.652344 71.167969 175.191406 68.316406 Z M 16.679688 69.335938 L 17.152344 70.277344 C 17.152344 69.890625 16.964844 69.546875 16.679688 69.335938 " fill-opacity="1" fill-rule="nonzero"/></g><path fill="#123679" d="M 101.3125 97.738281 L 119.675781 97.738281 L 119.675781 117.378906 L 101.3125 116.9375 L 101.3125 97.738281 " fill-opacity="1" fill-rule="evenodd"/><path fill="#123679" d="M 33.511719 85.804688 L 51.160156 90.613281 L 50.28125 110.128906 L 32.972656 104.601562 L 33.511719 85.804688 " fill-opacity="1" fill-rule="evenodd"/><path fill="#123679" d="M 190.769531 90.65625 L 172.070312 94.414062 L 172.949219 113.386719 L 190.265625 109.8125 L 190.769531 90.65625 " fill-opacity="1" fill-rule="evenodd"/><path fill="#ffffff" d="M 119.671875 98.175781 C 176.785156 98.175781 223.367188 85.644531 223.367188 70.277344 C 223.367188 54.910156 176.785156 42.378906 119.671875 42.378906 C 62.558594 42.378906 15.976562 54.910156 15.976562 70.277344 C 15.976562 85.644531 62.558594 98.175781 119.671875 98.175781 " fill-opacity="1" fill-rule="evenodd"/><g clip-path="url(#c01b34e52d)"><path fill="#121212" d="M 119.671875 41.203125 C 148.40625 41.203125 174.4375 44.34375 193.296875 49.417969 C 212.605469 54.609375 224.542969 61.972656 224.542969 70.277344 C 224.542969 78.582031 212.605469 85.945312 193.296875 91.136719 C 174.4375 96.210938 148.40625 99.351562 119.671875 99.351562 C 90.9375 99.351562 64.90625 96.210938 46.046875 91.136719 C 26.742188 85.945312 14.800781 78.582031 14.800781 70.277344 C 14.800781 61.972656 26.742188 54.609375 46.046875 49.417969 C 64.90625 44.34375 90.9375 41.203125 119.671875 41.203125 Z M 192.691406 51.683594 C 174.023438 46.660156 148.207031 43.554688 119.671875 43.554688 C 91.136719 43.554688 65.320312 46.660156 46.648438 51.683594 C 28.425781 56.585938 17.152344 63.171875 17.152344 70.277344 C 17.152344 77.378906 28.425781 83.96875 46.648438 88.871094 C 65.320312 93.894531 91.136719 97 119.671875 97 C 148.207031 97 174.023438 93.894531 192.691406 88.871094 C 210.921875 83.96875 222.191406 77.378906 222.191406 70.277344 C 222.191406 63.171875 210.921875 56.585938 192.691406 51.683594 " fill-opacity="1" fill-rule="nonzero"/></g><path fill="#d1d1d1" d="M 119.324219 85.777344 C 153.132812 85.777344 180.703125 78.8125 180.703125 70.277344 C 180.703125 61.742188 153.132812 54.777344 119.324219 54.777344 C 85.519531 54.777344 57.949219 61.742188 57.949219 70.277344 C 57.949219 78.8125 85.519531 85.777344 119.324219 85.777344 " fill-opacity="1" fill-rule="evenodd"/><path fill="#121212" d="M 119.324219 53.601562 C 136.375 53.601562 151.839844 55.355469 163.0625 58.1875 C 174.753906 61.140625 181.984375 65.402344 181.984375 70.277344 C 181.984375 75.148438 174.753906 79.414062 163.0625 82.367188 C 151.839844 85.199219 136.375 86.953125 119.324219 86.953125 C 102.277344 86.953125 86.808594 85.199219 75.589844 82.367188 C 63.898438 79.414062 56.667969 75.148438 56.667969 70.277344 C 56.667969 65.402344 63.898438 61.140625 75.589844 58.1875 C 86.8125 55.355469 102.277344 53.601562 119.324219 53.601562 Z M 162.394531 60.445312 C 151.398438 57.671875 136.171875 55.953125 119.324219 55.953125 C 102.476562 55.953125 87.253906 57.671875 76.257812 60.445312 C 65.734375 63.105469 59.226562 66.589844 59.226562 70.277344 C 59.226562 73.960938 65.734375 77.449219 76.257812 80.109375 C 87.253906 82.882812 102.476562 84.601562 119.324219 84.601562 C 136.175781 84.601562 151.398438 82.882812 162.394531 80.109375 C 172.917969 77.449219 179.425781 73.960938 179.425781 70.277344 C 179.425781 66.589844 172.917969 63.105469 162.394531 60.445312 " fill-opacity="1" fill-rule="nonzero"/><path fill="#123679" d="M 120.59375 43.152344 L 134.617188 48.378906 L 120.59375 53.609375 L 106.574219 48.378906 L 120.59375 43.152344 " fill-opacity="1" fill-rule="evenodd"/><path fill="#123679" d="M 120.59375 86.265625 L 134.617188 91.492188 L 120.59375 96.71875 L 106.574219 91.492188 L 120.59375 86.265625 " fill-opacity="1" fill-rule="evenodd"/><path fill="#123679" d="M 39.339844 63.96875 L 53.363281 69.792969 L 39.339844 75.613281 L 25.316406 69.792969 L 39.339844 63.96875 " fill-opacity="1" fill-rule="evenodd"/><path fill="#123679" d="M 201.632812 63.96875 L 215.65625 69.792969 L 201.632812 75.613281 L 187.613281 69.792969 L 201.632812 63.96875 " fill-opacity="1" fill-rule="evenodd"/><path fill="#d1d1d1" d="M 106.066406 40.164062 C 147.773438 40.164062 183.699219 46.839844 200.015625 56.449219 L 202.503906 48.757812 L 209.761719 47.6875 L 209.761719 68.214844 L 209.363281 68.226562 C 209.035156 83.5625 162.917969 95.964844 106.066406 95.964844 C 50.433594 95.964844 5.074219 84.085938 2.859375 69.203125 L 2.371094 69.277344 L 2.371094 47.6875 L 14.191406 55.296875 C 31.347656 46.3125 66.050781 40.164062 106.066406 40.164062 " fill-opacity="1" fill-rule="evenodd"/><path fill="#121212" d="M 106.066406 38.992188 C 126.648438 38.992188 145.839844 40.613281 161.980469 43.410156 C 177.894531 46.171875 190.875 50.082031 199.34375 54.722656 L 201.386719 48.398438 L 202.503906 48.757812 L 201.386719 48.398438 C 201.53125 47.9375 201.9375 47.632812 202.390625 47.589844 L 209.589844 46.523438 C 210.230469 46.429688 210.832031 46.875 210.925781 47.515625 C 210.933594 47.574219 210.9375 47.628906 210.9375 47.6875 L 210.9375 68.214844 C 210.9375 68.597656 210.75 68.941406 210.464844 69.15625 C 209.46875 77.042969 197.703125 84.015625 179.195312 88.984375 C 160.421875 94.027344 134.582031 97.140625 106.066406 97.140625 C 78.21875 97.140625 52.910156 94.167969 34.253906 89.328125 C 15.933594 84.578125 3.90625 77.914062 1.902344 70.355469 C 1.542969 70.195312 1.269531 69.863281 1.207031 69.445312 C 1.199219 69.386719 1.195312 69.332031 1.195312 69.277344 L 1.195312 47.6875 C 1.195312 47.039062 1.722656 46.511719 2.371094 46.511719 C 2.632812 46.511719 2.875 46.597656 3.070312 46.742188 L 14.261719 53.949219 C 23.097656 49.457031 36.234375 45.695312 52.171875 43.074219 C 67.890625 40.484375 86.34375 38.992188 106.066406 38.992188 Z M 161.585938 45.722656 C 145.578125 42.949219 126.527344 41.339844 106.066406 41.339844 C 86.449219 41.339844 68.125 42.820312 52.546875 45.386719 C 36.542969 48.023438 23.445312 51.796875 14.832031 56.285156 C 14.457031 56.527344 13.957031 56.546875 13.558594 56.285156 L 3.546875 49.839844 L 3.546875 68.25 C 3.792969 68.429688 3.972656 68.707031 4.019531 69.03125 L 3.546875 69.101562 L 3.546875 69.105469 L 4.019531 69.035156 C 5.054688 75.980469 16.671875 82.351562 34.839844 87.0625 C 53.300781 91.847656 78.398438 94.789062 106.066406 94.789062 C 134.382812 94.789062 160.011719 91.707031 178.589844 86.714844 C 196.6875 81.855469 207.960938 75.332031 208.1875 68.28125 L 208.1875 68.277344 C 208.171875 67.90625 208.328125 67.574219 208.585938 67.347656 L 208.585938 49.046875 L 203.390625 49.8125 L 201.160156 56.722656 C 201.132812 56.832031 201.089844 56.941406 201.027344 57.046875 C 200.699219 57.605469 199.976562 57.792969 199.417969 57.464844 L 199.421875 57.460938 C 191.253906 52.652344 178.046875 48.578125 161.585938 45.722656 Z M 3.070312 46.742188 L 3.546875 47.6875 C 3.546875 47.300781 3.359375 46.957031 3.070312 46.742188 " fill-opacity="1" fill-rule="nonzero"/><path fill="#123679" d="M 87.707031 75.148438 L 106.066406 75.148438 L 106.066406 94.789062 L 87.707031 94.347656 L 87.707031 75.148438 " fill-opacity="1" fill-rule="evenodd"/><path fill="#123679" d="M 19.902344 63.214844 L 37.550781 68.019531 L 36.671875 87.535156 L 19.363281 82.007812 L 19.902344 63.214844 " fill-opacity="1" fill-rule="evenodd"/><path fill="#123679" d="M 177.164062 68.066406 L 158.464844 71.824219 L 159.34375 90.796875 L 176.660156 87.21875 L 177.164062 68.066406 " fill-opacity="1" fill-rule="evenodd"/><path fill="#ffffff" d="M 106.066406 75.585938 C 163.179688 75.585938 209.761719 63.050781 209.761719 47.6875 C 209.761719 32.320312 163.179688 19.789062 106.066406 19.789062 C 48.953125 19.789062 2.371094 32.320312 2.371094 47.6875 C 2.371094 63.050781 48.953125 75.585938 106.066406 75.585938 " fill-opacity="1" fill-rule="evenodd"/><g clip-path="url(#1fa0fd487a)"><path fill="#121212" d="M 106.066406 18.613281 C 134.800781 18.613281 160.832031 21.75 179.691406 26.824219 C 198.996094 32.019531 210.9375 39.382812 210.9375 47.6875 C 210.9375 55.988281 198.996094 63.351562 179.691406 68.546875 C 160.835938 73.621094 134.800781 76.761719 106.066406 76.761719 C 77.332031 76.761719 51.300781 73.621094 32.441406 68.546875 C 13.136719 63.351562 1.195312 55.988281 1.195312 47.6875 C 1.195312 39.382812 13.136719 32.019531 32.441406 26.824219 C 51.300781 21.75 77.332031 18.613281 106.066406 18.613281 Z M 179.085938 29.09375 C 160.417969 24.070312 134.601562 20.960938 106.066406 20.960938 C 77.53125 20.960938 51.714844 24.070312 33.046875 29.09375 C 14.816406 33.996094 3.546875 40.582031 3.546875 47.6875 C 3.546875 54.792969 14.816406 61.375 33.046875 66.28125 C 51.714844 71.300781 77.53125 74.410156 106.066406 74.410156 C 134.601562 74.410156 160.417969 71.300781 179.089844 66.28125 C 197.3125 61.375 208.585938 54.792969 208.585938 47.6875 C 208.585938 40.582031 197.3125 33.996094 179.085938 29.09375 " fill-opacity="1" fill-rule="nonzero"/></g><path fill="#d1d1d1" d="M 105.71875 63.1875 C 139.527344 63.1875 167.097656 56.222656 167.097656 47.6875 C 167.097656 39.148438 139.527344 32.1875 105.71875 32.1875 C 71.910156 32.1875 44.339844 39.148438 44.339844 47.6875 C 44.339844 56.222656 71.910156 63.1875 105.71875 63.1875 " fill-opacity="1" fill-rule="evenodd"/><path fill="#121212" d="M 105.71875 31.011719 C 122.769531 31.011719 138.234375 32.761719 149.453125 35.597656 C 161.144531 38.546875 168.378906 42.8125 168.378906 47.6875 C 168.378906 52.558594 161.144531 56.824219 149.453125 59.777344 C 138.234375 62.609375 122.769531 64.359375 105.71875 64.359375 C 88.667969 64.359375 73.203125 62.609375 61.980469 59.777344 C 50.292969 56.824219 43.0625 52.558594 43.0625 47.6875 C 43.0625 42.8125 50.292969 38.546875 61.980469 35.597656 C 73.203125 32.761719 88.667969 31.011719 105.71875 31.011719 Z M 148.785156 37.855469 C 137.792969 35.078125 122.566406 33.363281 105.71875 33.363281 C 88.871094 33.363281 73.644531 35.078125 62.652344 37.855469 C 52.128906 40.511719 45.621094 44 45.621094 47.6875 C 45.621094 51.371094 52.128906 54.859375 62.652344 57.515625 C 73.644531 60.292969 88.871094 62.011719 105.71875 62.011719 C 122.566406 62.011719 137.792969 60.292969 148.785156 57.515625 C 159.308594 54.859375 165.820312 51.371094 165.820312 47.6875 C 165.820312 44 159.308594 40.511719 148.785156 37.855469 " fill-opacity="1" fill-rule="nonzero"/><path fill="#123679" d="M 106.988281 20.5625 L 121.011719 25.789062 L 106.988281 31.019531 L 92.964844 25.789062 L 106.988281 20.5625 " fill-opacity="1" fill-rule="evenodd"/><path fill="#123679" d="M 106.988281 63.675781 L 121.011719 68.902344 L 106.988281 74.132812 L 92.964844 68.902344 L 106.988281 63.675781 " fill-opacity="1" fill-rule="evenodd"/><path fill="#123679" d="M 25.734375 41.378906 L 39.757812 47.203125 L 25.734375 53.023438 L 11.710938 47.203125 L 25.734375 41.378906 " fill-opacity="1" fill-rule="evenodd"/><path fill="#123679" d="M 188.027344 41.378906 L 202.050781 47.203125 L 188.027344 53.023438 L 174.003906 47.203125 L 188.027344 41.378906 " fill-opacity="1" fill-rule="evenodd"/></svg>