<svg xmlns="http://www.w3.org/2000/svg" xmlns:xlink="http://www.w3.org/1999/xlink" width="300" zoomAndPan="magnify" viewBox="0 0 224.87999 225" height="300" preserveAspectRatio="xMidYMid meet" version="1.0"><defs><clipPath id="52526fbfbb"><path d="M 0.359375 146 L 210.167969 146 L 210.167969 204.230469 L 0.359375 204.230469 Z M 0.359375 146 " clip-rule="nonzero"/></clipPath><clipPath id="01b4837acb"><path d="M 14.347656 63.148438 L 224.542969 63.148438 L 224.542969 122 L 14.347656 122 Z M 14.347656 63.148438 " clip-rule="nonzero"/></clipPath><clipPath id="24739f8687"><path d="M 14.347656 43.082031 L 224.542969 43.082031 L 224.542969 101.460938 L 14.347656 101.460938 Z M 14.347656 43.082031 " clip-rule="nonzero"/></clipPath><clipPath id="9c2059b476"><path d="M 1 20.582031 L 211 20.582031 L 211 79 L 1 79 Z M 1 20.582031 " clip-rule="nonzero"/></clipPath></defs><path fill="#004433" d="M 105.234375 147.421875 C 146.9375 147.421875 182.867188 154.097656 199.179688 163.707031 L 201.671875 156.015625 L 208.925781 154.941406 L 208.925781 175.46875 L 208.527344 175.484375 C 208.199219 190.816406 162.082031 203.21875 105.234375 203.21875 C 49.597656 203.21875 4.238281 191.339844 2.027344 176.460938 L 1.535156 176.53125 L 1.535156 154.941406 L 13.359375 162.554688 C 30.515625 153.566406 65.21875 147.421875 105.234375 147.421875 " fill-opacity="1" fill-rule="evenodd"/><g clip-path="url(#52526fbfbb)"><path fill="#121212" d="M 105.234375 146.25 C 125.816406 146.25 145.003906 147.871094 161.144531 150.667969 C 177.0625 153.425781 190.039062 157.339844 198.507812 161.980469 L 200.554688 155.65625 L 201.671875 156.015625 L 200.550781 155.652344 C 200.699219 155.195312 201.105469 154.886719 201.554688 154.84375 L 208.757812 153.78125 C 209.398438 153.6875 209.996094 154.128906 210.089844 154.773438 C 210.097656 154.828125 210.101562 154.886719 210.101562 154.941406 L 210.101562 175.46875 C 210.101562 175.855469 209.917969 176.195312 209.628906 176.410156 C 208.636719 184.296875 196.871094 191.273438 178.363281 196.242188 C 159.59375 201.28125 133.75 204.394531 105.234375 204.394531 C 77.386719 204.394531 52.078125 201.421875 33.417969 196.585938 C 15.101562 191.835938 3.074219 185.171875 1.070312 177.609375 C 0.707031 177.453125 0.433594 177.117188 0.371094 176.699219 C 0.367188 176.644531 0.359375 176.585938 0.359375 176.53125 L 0.359375 154.941406 C 0.359375 154.292969 0.886719 153.765625 1.535156 153.765625 C 1.796875 153.765625 2.042969 153.855469 2.238281 154 L 13.429688 161.203125 C 22.261719 156.714844 35.402344 152.953125 51.335938 150.328125 C 67.058594 147.738281 85.511719 146.25 105.234375 146.25 Z M 160.75 152.980469 C 144.746094 150.207031 125.691406 148.597656 105.234375 148.597656 C 85.613281 148.597656 67.292969 150.074219 51.714844 152.640625 C 35.707031 155.277344 22.609375 159.054688 14 163.542969 C 13.625 163.785156 13.125 163.800781 12.726562 163.542969 L 2.710938 157.09375 L 2.710938 175.507812 C 2.960938 175.6875 3.140625 175.960938 3.1875 176.289062 L 2.710938 176.359375 L 3.1875 176.292969 C 4.222656 183.234375 15.835938 189.605469 34.007812 194.316406 C 52.46875 199.105469 77.5625 202.042969 105.234375 202.042969 C 133.550781 202.042969 159.175781 198.960938 177.753906 193.972656 C 195.855469 189.113281 207.125 182.585938 207.351562 175.535156 L 207.351562 175.53125 C 207.339844 175.164062 207.496094 174.828125 207.75 174.601562 L 207.75 156.304688 L 202.558594 157.070312 L 200.324219 163.976562 C 200.296875 164.089844 200.253906 164.199219 200.191406 164.304688 C 199.863281 164.863281 199.140625 165.046875 198.585938 164.71875 L 198.585938 164.714844 C 190.421875 159.90625 177.210938 155.832031 160.75 152.980469 Z M 2.238281 154 L 2.710938 154.941406 C 2.710938 154.558594 2.523438 154.214844 2.238281 154 " fill-opacity="1" fill-rule="nonzero"/></g><path fill="#ffffff" d="M 86.871094 182.40625 L 105.234375 182.40625 L 105.234375 202.042969 L 86.871094 201.605469 L 86.871094 182.40625 " fill-opacity="1" fill-rule="evenodd"/><path fill="#ffffff" d="M 19.070312 170.472656 L 36.71875 175.277344 L 35.839844 194.792969 L 18.53125 189.265625 L 19.070312 170.472656 " fill-opacity="1" fill-rule="evenodd"/><path fill="#ffffff" d="M 176.332031 175.324219 L 157.628906 179.082031 L 158.507812 198.050781 L 175.828125 194.480469 L 176.332031 175.324219 " fill-opacity="1" fill-rule="evenodd"/><path fill="#00523e" d="M 105.230469 182.839844 C 162.34375 182.839844 208.925781 170.308594 208.925781 154.941406 C 208.925781 139.574219 162.34375 127.042969 105.230469 127.042969 C 48.117188 127.042969 1.535156 139.574219 1.535156 154.941406 C 1.535156 170.308594 48.117188 182.839844 105.230469 182.839844 " fill-opacity="1" fill-rule="evenodd"/><path fill="#121212" d="M 105.230469 125.867188 C 133.964844 125.867188 160 129.007812 178.859375 134.082031 C 198.164062 139.273438 210.101562 146.640625 210.101562 154.941406 C 210.101562 163.246094 198.164062 170.613281 178.859375 175.804688 C 160 180.878906 133.964844 184.015625 105.230469 184.015625 C 76.496094 184.015625 50.464844 180.878906 31.605469 175.804688 C 12.300781 170.613281 0.359375 163.246094 0.359375 154.941406 C 0.359375 146.640625 12.300781 139.273438 31.605469 134.082031 C 50.464844 129.007812 76.496094 125.867188 105.230469 125.867188 Z M 178.253906 136.347656 C 159.582031 131.324219 133.769531 128.21875 105.230469 128.21875 C 76.695312 128.21875 50.882812 131.324219 32.210938 136.347656 C 13.984375 141.253906 2.710938 147.835938 2.710938 154.941406 C 2.710938 162.046875 13.984375 168.632812 32.210938 173.535156 C 50.882812 178.558594 76.695312 181.667969 105.230469 181.667969 C 133.765625 181.667969 159.582031 178.558594 178.253906 173.535156 C 196.480469 168.632812 207.75 162.046875 207.75 154.941406 C 207.75 147.835938 196.480469 141.253906 178.253906 136.347656 " fill-opacity="1" fill-rule="nonzero"/><path fill="#004433" d="M 104.886719 170.441406 C 138.691406 170.441406 166.261719 163.480469 166.261719 154.941406 C 166.261719 146.40625 138.691406 139.441406 104.886719 139.441406 C 71.078125 139.441406 43.507812 146.40625 43.507812 154.941406 C 43.507812 163.480469 71.078125 170.441406 104.886719 170.441406 " fill-opacity="1" fill-rule="evenodd"/><path fill="#121212" d="M 104.886719 138.269531 C 121.933594 138.269531 137.398438 140.019531 148.621094 142.855469 C 160.3125 145.804688 167.542969 150.066406 167.542969 154.941406 C 167.542969 159.816406 160.3125 164.078125 148.621094 167.03125 C 137.398438 169.867188 121.933594 171.617188 104.886719 171.617188 C 87.835938 171.617188 72.367188 169.867188 61.148438 167.03125 C 49.457031 164.078125 42.226562 159.816406 42.226562 154.941406 C 42.226562 150.066406 49.457031 145.804688 61.152344 142.855469 C 72.371094 140.019531 87.835938 138.269531 104.886719 138.269531 Z M 147.953125 145.113281 C 136.957031 142.335938 121.730469 140.617188 104.886719 140.617188 C 88.035156 140.617188 72.8125 142.335938 61.816406 145.113281 C 51.292969 147.769531 44.785156 151.253906 44.785156 154.941406 C 44.785156 158.628906 51.292969 162.117188 61.816406 164.773438 C 72.8125 167.550781 88.035156 169.265625 104.886719 169.265625 C 121.730469 169.265625 136.957031 167.550781 147.953125 164.773438 C 158.472656 162.117188 164.984375 158.628906 164.984375 154.941406 C 164.984375 151.253906 158.476562 147.769531 147.953125 145.113281 " fill-opacity="1" fill-rule="nonzero"/><path fill="#ffffff" d="M 106.15625 127.820312 L 120.175781 133.046875 L 106.15625 138.273438 L 92.132812 133.046875 L 106.15625 127.820312 " fill-opacity="1" fill-rule="evenodd"/><path fill="#ffffff" d="M 106.15625 170.929688 L 120.175781 176.160156 L 106.15625 181.386719 L 92.132812 176.160156 L 106.15625 170.929688 " fill-opacity="1" fill-rule="evenodd"/><path fill="#ffffff" d="M 24.898438 148.632812 L 38.921875 154.457031 L 24.898438 160.28125 L 10.878906 154.457031 L 24.898438 148.632812 " fill-opacity="1" fill-rule="evenodd"/><path fill="#ffffff" d="M 187.195312 148.632812 L 201.214844 154.457031 L 187.195312 160.28125 L 173.171875 154.457031 L 187.195312 148.632812 " fill-opacity="1" fill-rule="evenodd"/><path fill="#004433" d="M 116.613281 119.828125 C 158.316406 119.828125 194.246094 126.503906 210.558594 136.113281 L 213.046875 128.417969 L 220.304688 127.347656 L 220.304688 147.875 L 219.90625 147.890625 C 219.578125 163.222656 173.460938 175.625 116.613281 175.625 C 60.976562 175.625 15.617188 163.746094 13.402344 148.867188 L 12.914062 148.9375 L 12.914062 127.347656 L 24.738281 134.960938 C 41.890625 125.976562 76.59375 119.828125 116.613281 119.828125 " fill-opacity="1" fill-rule="evenodd"/><path fill="#121212" d="M 116.613281 118.652344 C 137.191406 118.652344 156.378906 120.277344 172.523438 123.074219 C 188.4375 125.832031 201.417969 129.746094 209.882812 134.386719 L 211.929688 128.0625 L 213.046875 128.417969 L 211.925781 128.058594 C 212.078125 127.601562 212.480469 127.296875 212.933594 127.25 L 220.136719 126.1875 L 220.132812 126.1875 C 220.777344 126.09375 221.371094 126.535156 221.46875 127.175781 C 221.476562 127.234375 221.480469 127.292969 221.480469 127.347656 L 221.480469 147.875 C 221.480469 148.261719 221.292969 148.601562 221.007812 148.820312 C 220.011719 156.703125 208.246094 163.675781 189.738281 168.648438 C 170.96875 173.6875 145.125 176.800781 116.613281 176.800781 C 88.761719 176.800781 63.453125 173.828125 44.796875 168.992188 C 26.476562 164.242188 14.449219 157.578125 12.445312 150.015625 C 12.082031 149.859375 11.8125 149.523438 11.75 149.105469 C 11.742188 149.050781 11.738281 148.996094 11.738281 148.9375 L 11.738281 127.347656 C 11.738281 126.699219 12.265625 126.171875 12.914062 126.171875 C 13.175781 126.171875 13.417969 126.261719 13.617188 126.40625 L 24.804688 133.609375 C 33.640625 129.121094 46.78125 125.359375 62.714844 122.734375 C 78.4375 120.144531 96.890625 118.652344 116.613281 118.652344 Z M 172.128906 125.386719 C 156.121094 122.613281 137.070312 121.003906 116.613281 121.003906 C 96.988281 121.003906 78.671875 122.480469 63.089844 125.046875 C 47.085938 127.683594 33.988281 131.460938 25.375 135.949219 C 25 136.191406 24.503906 136.207031 24.101562 135.949219 L 14.089844 129.5 L 14.089844 147.914062 C 14.339844 148.089844 14.515625 148.367188 14.5625 148.695312 L 14.089844 148.765625 L 14.5625 148.699219 C 15.597656 155.640625 27.214844 162.011719 45.382812 166.722656 C 63.84375 171.507812 88.941406 174.449219 116.613281 174.449219 C 144.929688 174.449219 170.554688 171.367188 189.132812 166.378906 C 207.230469 161.519531 218.503906 154.992188 218.730469 147.941406 C 218.71875 147.570312 218.875 147.234375 219.128906 147.007812 L 219.128906 128.710938 L 213.9375 129.472656 L 211.703125 136.382812 C 211.675781 136.496094 211.628906 136.605469 211.570312 136.710938 C 211.242188 137.269531 210.519531 137.453125 209.960938 137.125 L 209.964844 137.121094 C 201.800781 132.3125 188.589844 128.238281 172.128906 125.386719 Z M 13.617188 126.40625 L 14.089844 127.347656 C 14.089844 126.964844 13.902344 126.621094 13.617188 126.40625 " fill-opacity="1" fill-rule="nonzero"/><path fill="#ffffff" d="M 98.25 154.8125 L 116.613281 154.8125 L 116.613281 174.449219 L 98.25 174.011719 L 98.25 154.8125 " fill-opacity="1" fill-rule="evenodd"/><path fill="#ffffff" d="M 30.445312 142.878906 L 48.09375 147.683594 L 47.214844 167.199219 L 29.90625 161.671875 L 30.445312 142.878906 " fill-opacity="1" fill-rule="evenodd"/><path fill="#ffffff" d="M 187.710938 147.726562 L 169.007812 151.484375 L 169.886719 170.457031 L 187.207031 166.882812 L 187.710938 147.726562 " fill-opacity="1" fill-rule="evenodd"/><path fill="#00523e" d="M 116.609375 155.25 C 173.722656 155.25 220.304688 142.714844 220.304688 127.347656 C 220.304688 111.984375 173.722656 99.449219 116.609375 99.449219 C 59.496094 99.449219 12.914062 111.984375 12.914062 127.347656 C 12.914062 142.714844 59.496094 155.25 116.609375 155.25 " fill-opacity="1" fill-rule="evenodd"/><path fill="#121212" d="M 116.609375 98.273438 C 145.34375 98.273438 171.378906 101.414062 190.238281 106.488281 C 209.539062 111.683594 221.480469 119.042969 221.480469 127.347656 C 221.480469 135.652344 209.539062 143.015625 190.238281 148.210938 C 171.378906 153.285156 145.34375 156.421875 116.609375 156.421875 C 87.875 156.421875 61.839844 153.285156 42.980469 148.210938 C 23.679688 143.015625 11.738281 135.652344 11.738281 127.347656 C 11.738281 119.046875 23.679688 111.683594 42.980469 106.488281 C 61.839844 101.414062 87.875 98.273438 116.609375 98.273438 Z M 189.632812 108.753906 C 170.960938 103.734375 145.144531 100.625 116.609375 100.625 C 88.074219 100.625 62.257812 103.734375 43.589844 108.753906 C 25.359375 113.660156 14.089844 120.246094 14.089844 127.347656 C 14.089844 134.453125 25.359375 141.039062 43.589844 145.941406 C 62.257812 150.964844 88.074219 154.074219 116.609375 154.074219 C 145.144531 154.074219 170.960938 150.964844 189.632812 145.941406 C 207.855469 141.039062 219.128906 134.453125 219.128906 127.347656 C 219.128906 120.246094 207.855469 113.660156 189.632812 108.753906 " fill-opacity="1" fill-rule="nonzero"/><path fill="#004433" d="M 116.261719 142.847656 C 150.070312 142.847656 177.640625 135.886719 177.640625 127.347656 C 177.640625 118.8125 150.070312 111.847656 116.261719 111.847656 C 82.457031 111.847656 54.882812 118.8125 54.882812 127.347656 C 54.882812 135.886719 82.457031 142.847656 116.261719 142.847656 " fill-opacity="1" fill-rule="evenodd"/><path fill="#121212" d="M 116.261719 110.675781 C 133.3125 110.675781 148.777344 112.429688 160 115.257812 C 171.6875 118.210938 178.917969 122.476562 178.917969 127.347656 C 178.917969 132.222656 171.6875 136.484375 160 139.4375 C 148.777344 142.273438 133.3125 144.023438 116.261719 144.023438 C 99.210938 144.023438 83.746094 142.273438 72.523438 139.4375 C 60.835938 136.484375 53.601562 132.222656 53.601562 127.347656 C 53.601562 122.476562 60.835938 118.210938 72.527344 115.257812 C 83.746094 112.429688 99.210938 110.675781 116.261719 110.675781 Z M 159.328125 117.519531 C 148.335938 114.742188 133.109375 113.023438 116.261719 113.023438 C 99.414062 113.023438 84.191406 114.742188 73.195312 117.519531 C 62.671875 120.175781 56.160156 123.664062 56.160156 127.347656 C 56.160156 131.035156 62.671875 134.523438 73.195312 137.179688 C 84.191406 139.957031 99.414062 141.671875 116.261719 141.671875 C 133.109375 141.671875 148.335938 139.957031 159.328125 137.179688 C 169.851562 134.523438 176.359375 131.035156 176.359375 127.347656 C 176.359375 123.664062 169.851562 120.175781 159.328125 117.519531 " fill-opacity="1" fill-rule="nonzero"/><path fill="#ffffff" d="M 117.53125 100.226562 L 131.554688 105.449219 L 117.53125 110.679688 L 103.511719 105.449219 L 117.53125 100.226562 " fill-opacity="1" fill-rule="evenodd"/><path fill="#ffffff" d="M 117.53125 143.339844 L 131.554688 148.5625 L 117.53125 153.792969 L 103.511719 148.5625 L 117.53125 143.339844 " fill-opacity="1" fill-rule="evenodd"/><path fill="#ffffff" d="M 36.277344 121.039062 L 50.300781 126.863281 L 36.277344 132.6875 L 22.253906 126.863281 L 36.277344 121.039062 " fill-opacity="1" fill-rule="evenodd"/><path fill="#ffffff" d="M 198.570312 121.039062 L 212.59375 126.863281 L 198.570312 132.6875 L 184.546875 126.863281 L 198.570312 121.039062 " fill-opacity="1" fill-rule="evenodd"/><path fill="#004433" d="M 106.066406 97.527344 C 147.773438 97.527344 183.699219 104.203125 200.015625 113.808594 L 202.503906 106.117188 L 209.761719 105.042969 L 209.761719 125.570312 L 209.363281 125.589844 C 209.035156 140.917969 162.917969 153.324219 106.066406 153.324219 C 50.433594 153.324219 5.074219 141.441406 2.859375 126.566406 L 2.371094 126.632812 L 2.371094 105.042969 L 14.191406 112.660156 C 31.347656 103.671875 66.050781 97.527344 106.066406 97.527344 " fill-opacity="1" fill-rule="evenodd"/><path fill="#121212" d="M 106.066406 96.351562 C 126.648438 96.351562 145.839844 97.972656 161.980469 100.769531 C 177.894531 103.527344 190.875 107.445312 199.34375 112.082031 L 201.386719 105.757812 L 202.503906 106.117188 L 201.386719 105.753906 C 201.53125 105.296875 201.9375 104.992188 202.390625 104.945312 L 209.589844 103.882812 C 210.230469 103.789062 210.832031 104.230469 210.925781 104.875 C 210.933594 104.929688 210.9375 104.988281 210.9375 105.042969 L 210.9375 125.570312 C 210.9375 125.957031 210.75 126.300781 210.464844 126.515625 C 209.46875 134.398438 197.703125 141.375 179.195312 146.34375 C 160.421875 151.382812 134.582031 154.5 106.066406 154.5 C 78.21875 154.5 52.910156 151.523438 34.253906 146.6875 C 15.933594 141.9375 3.90625 135.277344 1.902344 127.710938 C 1.542969 127.554688 1.269531 127.21875 1.207031 126.800781 C 1.199219 126.746094 1.195312 126.691406 1.195312 126.632812 L 1.195312 105.042969 C 1.195312 104.394531 1.722656 103.871094 2.371094 103.871094 C 2.632812 103.871094 2.875 103.957031 3.070312 104.105469 L 14.261719 111.304688 C 23.097656 106.820312 36.234375 103.054688 52.171875 100.429688 C 67.890625 97.84375 86.34375 96.351562 106.066406 96.351562 Z M 161.585938 103.082031 C 145.578125 100.308594 126.527344 98.699219 106.066406 98.699219 C 86.449219 98.699219 68.125 100.179688 52.546875 102.746094 C 36.542969 105.382812 23.445312 109.15625 14.832031 113.644531 C 14.457031 113.890625 13.957031 113.902344 13.558594 113.644531 L 3.546875 107.195312 L 3.546875 125.609375 C 3.792969 125.789062 3.972656 126.0625 4.019531 126.390625 L 3.546875 126.460938 L 3.546875 126.464844 L 4.019531 126.394531 C 5.054688 133.335938 16.671875 139.707031 34.839844 144.417969 C 53.300781 149.207031 78.398438 152.148438 106.066406 152.148438 C 134.382812 152.148438 160.011719 149.066406 178.589844 144.078125 C 196.6875 139.214844 207.960938 132.691406 208.1875 125.636719 C 208.171875 125.265625 208.328125 124.929688 208.585938 124.703125 L 208.585938 106.40625 L 203.390625 107.171875 L 201.160156 114.078125 C 201.132812 114.191406 201.089844 114.300781 201.027344 114.40625 C 200.699219 114.964844 199.976562 115.152344 199.417969 114.824219 L 199.421875 114.816406 C 191.253906 110.011719 178.046875 105.9375 161.585938 103.082031 Z M 3.070312 104.105469 L 3.546875 105.042969 C 3.546875 104.660156 3.359375 104.316406 3.070312 104.105469 " fill-opacity="1" fill-rule="nonzero"/><path fill="#ffffff" d="M 87.707031 132.507812 L 106.066406 132.507812 L 106.066406 152.148438 L 87.707031 151.707031 L 87.707031 132.507812 " fill-opacity="1" fill-rule="evenodd"/><path fill="#ffffff" d="M 19.902344 120.574219 L 37.550781 125.382812 L 36.671875 144.898438 L 19.363281 139.367188 L 19.902344 120.574219 " fill-opacity="1" fill-rule="evenodd"/><path fill="#ffffff" d="M 177.164062 125.425781 L 158.464844 129.183594 L 159.34375 148.152344 L 176.660156 144.582031 L 177.164062 125.425781 " fill-opacity="1" fill-rule="evenodd"/><path fill="#00523e" d="M 106.066406 132.945312 C 163.179688 132.945312 209.761719 120.410156 209.761719 105.042969 C 209.761719 89.679688 163.179688 77.144531 106.066406 77.144531 C 48.953125 77.144531 2.371094 89.679688 2.371094 105.042969 C 2.371094 120.410156 48.953125 132.945312 106.066406 132.945312 " fill-opacity="1" fill-rule="evenodd"/><path fill="#121212" d="M 106.066406 75.96875 C 134.800781 75.96875 160.832031 79.109375 179.691406 84.183594 C 198.996094 89.378906 210.9375 96.742188 210.9375 105.042969 C 210.9375 113.347656 198.996094 120.714844 179.691406 125.90625 C 160.835938 130.980469 134.800781 134.117188 106.066406 134.117188 C 77.332031 134.117188 51.300781 130.980469 32.441406 125.90625 C 13.136719 120.714844 1.195312 113.347656 1.195312 105.042969 C 1.195312 96.742188 13.136719 89.378906 32.441406 84.183594 C 51.300781 79.109375 77.332031 75.96875 106.066406 75.96875 Z M 179.085938 86.453125 C 160.417969 81.429688 134.601562 78.324219 106.066406 78.324219 C 77.53125 78.324219 51.714844 81.429688 33.046875 86.453125 C 14.816406 91.355469 3.546875 97.941406 3.546875 105.042969 C 3.546875 112.148438 14.816406 118.734375 33.046875 123.640625 C 51.714844 128.664062 77.53125 131.769531 106.066406 131.769531 C 134.601562 131.769531 160.417969 128.664062 179.089844 123.640625 C 197.3125 118.734375 208.585938 112.148438 208.585938 105.042969 C 208.585938 97.941406 197.3125 91.355469 179.085938 86.453125 " fill-opacity="1" fill-rule="nonzero"/><path fill="#004433" d="M 105.71875 120.546875 C 139.527344 120.546875 167.097656 113.582031 167.097656 105.042969 C 167.097656 96.507812 139.527344 89.546875 105.71875 89.546875 C 71.910156 89.546875 44.339844 96.507812 44.339844 105.042969 C 44.339844 113.582031 71.910156 120.546875 105.71875 120.546875 " fill-opacity="1" fill-rule="evenodd"/><path fill="#121212" d="M 105.71875 88.371094 C 122.769531 88.371094 138.234375 90.125 149.453125 92.957031 C 161.144531 95.910156 168.378906 100.171875 168.378906 105.042969 C 168.378906 109.917969 161.144531 114.179688 149.453125 117.132812 C 138.234375 119.96875 122.769531 121.722656 105.71875 121.722656 C 88.667969 121.722656 73.203125 119.96875 61.980469 117.132812 C 50.292969 114.179688 43.0625 109.917969 43.0625 105.042969 C 43.0625 100.171875 50.292969 95.910156 61.980469 92.957031 C 73.203125 90.125 88.667969 88.371094 105.71875 88.371094 Z M 148.785156 95.214844 C 137.792969 92.4375 122.566406 90.722656 105.71875 90.722656 C 88.871094 90.722656 73.644531 92.4375 62.652344 95.214844 C 52.128906 97.871094 45.621094 101.359375 45.621094 105.042969 C 45.621094 108.730469 52.128906 112.21875 62.652344 114.878906 C 73.644531 117.652344 88.871094 119.367188 105.71875 119.367188 C 122.566406 119.367188 137.792969 117.652344 148.785156 114.878906 C 159.308594 112.21875 165.820312 108.730469 165.820312 105.042969 C 165.820312 101.359375 159.308594 97.871094 148.785156 95.214844 " fill-opacity="1" fill-rule="nonzero"/><path fill="#ffffff" d="M 106.988281 77.921875 L 121.011719 83.148438 L 106.988281 88.375 L 92.964844 83.148438 L 106.988281 77.921875 " fill-opacity="1" fill-rule="evenodd"/><path fill="#ffffff" d="M 106.988281 121.035156 L 121.011719 126.261719 L 106.988281 131.488281 L 92.964844 126.261719 L 106.988281 121.035156 " fill-opacity="1" fill-rule="evenodd"/><path fill="#ffffff" d="M 25.734375 98.738281 L 39.757812 104.558594 L 25.734375 110.382812 L 11.710938 104.558594 L 25.734375 98.738281 " fill-opacity="1" fill-rule="evenodd"/><path fill="#ffffff" d="M 188.027344 98.738281 L 202.050781 104.558594 L 188.027344 110.382812 L 174.003906 104.558594 L 188.027344 98.738281 " fill-opacity="1" fill-rule="evenodd"/><path fill="#004433" d="M 119.675781 64.726562 C 161.378906 64.726562 197.304688 71.398438 213.621094 81.007812 L 216.109375 73.316406 L 223.367188 72.242188 L 223.367188 92.769531 L 222.96875 92.785156 C 222.640625 108.117188 176.523438 120.519531 119.675781 120.519531 C 64.039062 120.519531 18.679688 108.640625 16.464844 93.761719 L 15.976562 93.832031 L 15.976562 72.242188 L 27.800781 79.855469 C 44.957031 70.871094 79.65625 64.726562 119.675781 64.726562 " fill-opacity="1" fill-rule="evenodd"/><g clip-path="url(#01b4837acb)"><path fill="#121212" d="M 119.675781 63.550781 C 140.253906 63.550781 159.445312 65.171875 175.585938 67.96875 C 191.503906 70.726562 204.480469 74.644531 212.949219 79.28125 L 214.996094 72.957031 L 216.109375 73.316406 L 214.992188 72.953125 C 215.140625 72.496094 215.546875 72.191406 215.996094 72.144531 L 223.195312 71.085938 L 223.195312 71.082031 C 223.839844 70.988281 224.4375 71.429688 224.53125 72.074219 C 224.539062 72.132812 224.542969 72.1875 224.542969 72.242188 L 224.542969 92.769531 C 224.542969 93.15625 224.359375 93.5 224.070312 93.714844 C 223.074219 101.601562 211.308594 108.574219 192.800781 113.542969 C 174.03125 118.582031 148.191406 121.695312 119.675781 121.695312 C 91.824219 121.695312 66.519531 118.722656 47.859375 113.886719 C 29.542969 109.136719 17.515625 102.472656 15.507812 94.910156 C 15.148438 94.753906 14.871094 94.417969 14.8125 94 C 14.804688 93.945312 14.800781 93.890625 14.800781 93.832031 L 14.800781 72.242188 C 14.800781 71.59375 15.328125 71.070312 15.976562 71.070312 C 16.238281 71.070312 16.484375 71.15625 16.679688 71.300781 L 27.871094 78.507812 C 36.703125 74.019531 49.84375 70.253906 65.777344 67.628906 C 81.5 65.039062 99.953125 63.550781 119.675781 63.550781 Z M 175.191406 70.285156 C 159.1875 67.507812 140.132812 65.902344 119.675781 65.902344 C 100.054688 65.902344 81.730469 67.378906 66.15625 69.945312 C 50.148438 72.582031 37.050781 76.355469 28.4375 80.84375 C 28.0625 81.085938 27.566406 81.105469 27.167969 80.84375 L 17.152344 74.394531 L 17.152344 92.808594 C 17.398438 92.988281 17.582031 93.261719 17.628906 93.589844 L 17.152344 93.660156 L 17.152344 93.664062 L 17.628906 93.59375 C 18.660156 100.535156 30.277344 106.90625 48.449219 111.617188 C 66.910156 116.40625 92.003906 119.34375 119.675781 119.34375 C 147.992188 119.34375 173.617188 116.265625 192.195312 111.277344 C 210.296875 106.414062 221.566406 99.890625 221.796875 92.835938 L 221.792969 92.835938 C 221.777344 92.464844 221.9375 92.128906 222.191406 91.902344 L 222.191406 73.605469 L 217 74.371094 L 214.765625 81.277344 C 214.738281 81.390625 214.695312 81.5 214.632812 81.605469 C 214.304688 82.164062 213.582031 82.351562 213.023438 82.019531 L 213.027344 82.019531 C 204.863281 77.210938 191.652344 73.136719 175.191406 70.285156 Z M 16.679688 71.300781 L 17.152344 72.242188 C 17.152344 71.859375 16.964844 71.515625 16.679688 71.300781 " fill-opacity="1" fill-rule="nonzero"/></g><path fill="#ffffff" d="M 101.3125 99.707031 L 119.675781 99.707031 L 119.675781 119.34375 L 101.3125 118.90625 L 101.3125 99.707031 " fill-opacity="1" fill-rule="evenodd"/><path fill="#ffffff" d="M 33.511719 87.773438 L 51.160156 92.582031 L 50.28125 112.09375 L 32.972656 106.566406 L 33.511719 87.773438 " fill-opacity="1" fill-rule="evenodd"/><path fill="#ffffff" d="M 190.769531 92.621094 L 172.070312 96.382812 L 172.949219 115.355469 L 190.265625 111.777344 L 190.769531 92.621094 " fill-opacity="1" fill-rule="evenodd"/><path fill="#00523e" d="M 119.671875 100.144531 C 176.785156 100.144531 223.367188 87.609375 223.367188 72.242188 C 223.367188 56.878906 176.785156 44.34375 119.671875 44.34375 C 62.558594 44.34375 15.976562 56.878906 15.976562 72.242188 C 15.976562 87.609375 62.558594 100.144531 119.671875 100.144531 " fill-opacity="1" fill-rule="evenodd"/><g clip-path="url(#24739f8687)"><path fill="#121212" d="M 119.671875 43.167969 C 148.40625 43.167969 174.4375 46.308594 193.296875 51.382812 C 212.605469 56.578125 224.542969 63.941406 224.542969 72.242188 C 224.542969 80.546875 212.605469 87.914062 193.296875 93.105469 C 174.4375 98.179688 148.40625 101.320312 119.671875 101.320312 C 90.9375 101.320312 64.90625 98.179688 46.046875 93.105469 C 26.742188 87.914062 14.800781 80.546875 14.800781 72.242188 C 14.800781 63.941406 26.742188 56.578125 46.046875 51.382812 C 64.90625 46.308594 90.9375 43.167969 119.671875 43.167969 Z M 192.691406 53.652344 C 174.023438 48.628906 148.207031 45.519531 119.671875 45.519531 C 91.136719 45.519531 65.320312 48.628906 46.648438 53.652344 C 28.425781 58.554688 17.152344 65.140625 17.152344 72.242188 C 17.152344 79.347656 28.425781 85.9375 46.648438 90.839844 C 65.320312 95.859375 91.136719 98.96875 119.671875 98.96875 C 148.207031 98.96875 174.023438 95.859375 192.691406 90.839844 C 210.921875 85.9375 222.191406 79.347656 222.191406 72.242188 C 222.191406 65.140625 210.921875 58.554688 192.691406 53.652344 " fill-opacity="1" fill-rule="nonzero"/></g><path fill="#004433" d="M 119.324219 87.742188 C 153.132812 87.742188 180.703125 80.78125 180.703125 72.242188 C 180.703125 63.707031 153.132812 56.746094 119.324219 56.746094 C 85.519531 56.746094 57.949219 63.707031 57.949219 72.242188 C 57.949219 80.78125 85.519531 87.742188 119.324219 87.742188 " fill-opacity="1" fill-rule="evenodd"/><path fill="#121212" d="M 119.324219 55.570312 C 136.375 55.570312 151.839844 57.324219 163.0625 60.152344 C 174.753906 63.105469 181.984375 67.371094 181.984375 72.242188 C 181.984375 77.117188 174.753906 81.382812 163.0625 84.335938 C 151.839844 87.167969 136.375 88.917969 119.324219 88.917969 C 102.277344 88.917969 86.808594 87.167969 75.589844 84.335938 C 63.898438 81.382812 56.667969 77.117188 56.667969 72.242188 C 56.667969 67.371094 63.898438 63.105469 75.589844 60.152344 C 86.8125 57.324219 102.277344 55.570312 119.324219 55.570312 Z M 162.394531 62.414062 C 151.398438 59.640625 136.171875 57.921875 119.324219 57.921875 C 102.476562 57.921875 87.253906 59.640625 76.257812 62.414062 C 65.734375 65.070312 59.226562 68.558594 59.226562 72.242188 C 59.226562 75.929688 65.734375 79.417969 76.257812 82.074219 C 87.253906 84.851562 102.476562 86.570312 119.324219 86.570312 C 136.175781 86.570312 151.398438 84.851562 162.394531 82.074219 C 172.917969 79.417969 179.425781 75.929688 179.425781 72.242188 C 179.425781 68.558594 172.917969 65.070312 162.394531 62.414062 " fill-opacity="1" fill-rule="nonzero"/><path fill="#ffffff" d="M 120.59375 45.121094 L 134.617188 50.347656 L 120.59375 55.578125 L 106.574219 50.347656 L 120.59375 45.121094 " fill-opacity="1" fill-rule="evenodd"/><path fill="#ffffff" d="M 120.59375 88.234375 L 134.617188 93.460938 L 120.59375 98.6875 L 106.574219 93.460938 L 120.59375 88.234375 " fill-opacity="1" fill-rule="evenodd"/><path fill="#ffffff" d="M 39.339844 65.9375 L 53.363281 71.757812 L 39.339844 77.582031 L 25.316406 71.757812 L 39.339844 65.9375 " fill-opacity="1" fill-rule="evenodd"/><path fill="#ffffff" d="M 201.632812 65.9375 L 215.65625 71.757812 L 201.632812 77.582031 L 187.613281 71.757812 L 201.632812 65.9375 " fill-opacity="1" fill-rule="evenodd"/><path fill="#004433" d="M 106.066406 42.132812 C 147.773438 42.132812 183.699219 48.808594 200.015625 58.417969 L 202.503906 50.726562 L 209.761719 49.65625 L 209.761719 70.179688 L 209.363281 70.195312 C 209.035156 85.53125 162.917969 97.933594 106.066406 97.933594 C 50.433594 97.933594 5.074219 86.050781 2.859375 71.171875 L 2.371094 71.242188 L 2.371094 49.65625 L 14.191406 57.265625 C 31.347656 48.277344 66.050781 42.132812 106.066406 42.132812 " fill-opacity="1" fill-rule="evenodd"/><path fill="#121212" d="M 106.066406 40.960938 C 126.648438 40.960938 145.839844 42.582031 161.980469 45.378906 C 177.894531 48.140625 190.875 52.050781 199.34375 56.691406 L 201.386719 50.367188 L 202.503906 50.726562 L 201.386719 50.363281 C 201.53125 49.90625 201.9375 49.601562 202.390625 49.558594 L 209.589844 48.492188 C 210.230469 48.398438 210.832031 48.84375 210.925781 49.484375 C 210.933594 49.539062 210.9375 49.597656 210.9375 49.65625 L 210.9375 70.179688 C 210.9375 70.566406 210.75 70.910156 210.464844 71.121094 C 209.46875 79.007812 197.703125 85.984375 179.195312 90.953125 C 160.421875 95.992188 134.582031 99.109375 106.066406 99.109375 C 78.21875 99.109375 52.910156 96.132812 34.253906 91.296875 C 15.933594 86.546875 3.90625 79.882812 1.902344 72.320312 C 1.542969 72.164062 1.269531 71.828125 1.207031 71.410156 C 1.199219 71.355469 1.195312 71.296875 1.195312 71.242188 L 1.195312 49.65625 C 1.195312 49.007812 1.722656 48.480469 2.371094 48.480469 C 2.632812 48.480469 2.875 48.566406 3.070312 48.710938 L 14.261719 55.917969 C 23.097656 51.425781 36.234375 47.664062 52.171875 45.042969 C 67.890625 42.453125 86.34375 40.960938 106.066406 40.960938 Z M 161.585938 47.691406 C 145.578125 44.917969 126.527344 43.308594 106.066406 43.308594 C 86.449219 43.308594 68.125 44.785156 52.546875 47.351562 C 36.542969 49.988281 23.445312 53.765625 14.832031 58.253906 C 14.457031 58.496094 13.957031 58.511719 13.558594 58.253906 L 13.558594 58.25 L 3.546875 51.808594 L 3.546875 70.21875 C 3.792969 70.398438 3.972656 70.671875 4.019531 71 L 3.546875 71.070312 L 4.019531 71.003906 C 5.054688 77.945312 16.671875 84.316406 34.839844 89.027344 C 53.300781 93.816406 78.398438 96.757812 106.066406 96.757812 C 134.382812 96.757812 160.011719 93.671875 178.589844 88.683594 C 196.6875 83.824219 207.960938 77.296875 208.1875 70.246094 L 208.1875 70.242188 C 208.171875 69.875 208.328125 69.539062 208.585938 69.3125 L 208.585938 51.015625 L 203.390625 51.78125 L 201.160156 58.6875 C 201.132812 58.800781 201.089844 58.910156 201.027344 59.015625 C 200.699219 59.574219 199.976562 59.761719 199.417969 59.433594 L 199.421875 59.425781 C 191.253906 54.621094 178.046875 50.546875 161.585938 47.691406 Z M 3.070312 48.710938 L 3.546875 49.65625 C 3.546875 49.269531 3.359375 48.925781 3.070312 48.710938 " fill-opacity="1" fill-rule="nonzero"/><path fill="#ffffff" d="M 87.707031 77.117188 L 106.066406 77.117188 L 106.066406 96.757812 L 87.707031 96.316406 L 87.707031 77.117188 " fill-opacity="1" fill-rule="evenodd"/><path fill="#ffffff" d="M 19.902344 65.183594 L 37.550781 69.988281 L 36.671875 89.503906 L 19.363281 83.976562 L 19.902344 65.183594 " fill-opacity="1" fill-rule="evenodd"/><path fill="#ffffff" d="M 177.164062 70.035156 L 158.464844 73.792969 L 159.34375 92.761719 L 176.660156 89.1875 L 177.164062 70.035156 " fill-opacity="1" fill-rule="evenodd"/><path fill="#00523e" d="M 106.066406 77.550781 C 163.179688 77.550781 209.761719 65.019531 209.761719 49.65625 C 209.761719 34.289062 163.179688 21.757812 106.066406 21.757812 C 48.953125 21.757812 2.371094 34.289062 2.371094 49.65625 C 2.371094 65.019531 48.953125 77.550781 106.066406 77.550781 " fill-opacity="1" fill-rule="evenodd"/><g clip-path="url(#9c2059b476)"><path fill="#121212" d="M 106.066406 20.582031 C 134.800781 20.582031 160.832031 23.71875 179.691406 28.792969 C 198.996094 33.988281 210.9375 41.347656 210.9375 49.65625 C 210.9375 57.957031 198.996094 65.320312 179.691406 70.515625 C 160.835938 75.589844 134.800781 78.730469 106.066406 78.730469 C 77.332031 78.730469 51.300781 75.589844 32.441406 70.515625 C 13.136719 65.320312 1.195312 57.957031 1.195312 49.65625 C 1.195312 41.351562 13.136719 33.988281 32.441406 28.792969 C 51.300781 23.71875 77.332031 20.582031 106.066406 20.582031 Z M 179.085938 31.0625 C 160.417969 26.035156 134.601562 22.929688 106.066406 22.929688 C 77.53125 22.929688 51.714844 26.035156 33.046875 31.0625 C 14.816406 35.964844 3.546875 42.550781 3.546875 49.65625 C 3.546875 56.757812 14.816406 63.34375 33.046875 68.246094 C 51.714844 73.269531 77.53125 76.378906 106.066406 76.378906 C 134.601562 76.378906 160.417969 73.269531 179.089844 68.246094 C 197.3125 63.34375 208.585938 56.757812 208.585938 49.65625 C 208.585938 42.550781 197.3125 35.964844 179.085938 31.0625 " fill-opacity="1" fill-rule="nonzero"/></g><path fill="#004433" d="M 105.71875 65.15625 C 139.527344 65.15625 167.097656 58.191406 167.097656 49.65625 C 167.097656 41.117188 139.527344 34.152344 105.71875 34.152344 C 71.910156 34.152344 44.339844 41.117188 44.339844 49.65625 C 44.339844 58.191406 71.910156 65.15625 105.71875 65.15625 " fill-opacity="1" fill-rule="evenodd"/><path fill="#121212" d="M 105.71875 32.980469 C 122.769531 32.980469 138.234375 34.730469 149.453125 37.566406 C 161.144531 40.515625 168.378906 44.78125 168.378906 49.65625 C 168.378906 54.527344 161.144531 58.789062 149.453125 61.742188 C 138.234375 64.578125 122.769531 66.328125 105.71875 66.328125 C 88.667969 66.328125 73.203125 64.578125 61.980469 61.742188 C 50.292969 58.789062 43.0625 54.527344 43.0625 49.65625 C 43.0625 44.78125 50.292969 40.515625 61.980469 37.566406 C 73.203125 34.730469 88.667969 32.980469 105.71875 32.980469 Z M 148.785156 39.824219 C 137.792969 37.046875 122.566406 35.328125 105.71875 35.328125 C 88.871094 35.328125 73.644531 37.046875 62.652344 39.824219 C 52.128906 42.480469 45.621094 45.96875 45.621094 49.65625 C 45.621094 53.339844 52.128906 56.828125 62.652344 59.484375 C 73.644531 62.261719 88.871094 63.980469 105.71875 63.980469 C 122.566406 63.980469 137.792969 62.261719 148.785156 59.484375 C 159.308594 56.828125 165.820312 53.339844 165.820312 49.65625 C 165.820312 45.96875 159.308594 42.480469 148.785156 39.824219 " fill-opacity="1" fill-rule="nonzero"/><path fill="#ffffff" d="M 106.988281 22.527344 L 121.011719 27.757812 L 106.988281 32.984375 L 92.964844 27.757812 L 106.988281 22.527344 " fill-opacity="1" fill-rule="evenodd"/><path fill="#ffffff" d="M 106.988281 65.640625 L 121.011719 70.871094 L 106.988281 76.097656 L 92.964844 70.871094 L 106.988281 65.640625 " fill-opacity="1" fill-rule="evenodd"/><path fill="#ffffff" d="M 25.734375 43.34375 L 39.757812 49.167969 L 25.734375 54.992188 L 11.710938 49.167969 L 25.734375 43.34375 " fill-opacity="1" fill-rule="evenodd"/><path fill="#ffffff" d="M 188.027344 43.34375 L 202.050781 49.167969 L 188.027344 54.992188 L 174.003906 49.167969 L 188.027344 43.34375 " fill-opacity="1" fill-rule="evenodd"/></svg>