<svg xmlns="http://www.w3.org/2000/svg" xmlns:xlink="http://www.w3.org/1999/xlink" width="300" zoomAndPan="magnify" viewBox="0 0 224.87999 225" height="300" preserveAspectRatio="xMidYMid meet" version="1.0"><defs><clipPath id="15dc157280"><path d="M 33.730469 92.207031 L 196 92.207031 L 196 224.886719 L 33.730469 224.886719 Z M 33.730469 92.207031 " clip-rule="nonzero"/></clipPath><clipPath id="8e69b7a35b"><path d="M 12 91 L 162 91 L 162 132.886719 L 12 132.886719 Z M 12 91 " clip-rule="nonzero"/></clipPath><clipPath id="af62890bb2"><path d="M 11.351562 90.652344 L 162.824219 90.652344 L 162.824219 132.886719 L 11.351562 132.886719 Z M 11.351562 90.652344 " clip-rule="nonzero"/></clipPath><clipPath id="90fa650d72"><path d="M 11 76 L 162.976562 76 L 162.976562 119 L 11 119 Z M 11 76 " clip-rule="nonzero"/></clipPath><clipPath id="dd9192145c"><path d="M 10 54 L 162.976562 54 L 162.976562 97 L 10 97 Z M 10 54 " clip-rule="nonzero"/></clipPath><clipPath id="a7db5a9935"><path d="M 10 40 L 162.976562 40 L 162.976562 83 L 10 83 Z M 10 40 " clip-rule="nonzero"/></clipPath><clipPath id="c9361e3407"><path d="M 0.972656 31 L 152.726562 31 L 152.726562 73.53125 L 0.972656 73.53125 Z M 0.972656 31 " clip-rule="nonzero"/></clipPath><clipPath id="b064c14901"><path d="M 0.972656 16.453125 L 152.726562 16.453125 L 152.726562 58.601562 L 0.972656 58.601562 Z M 0.972656 16.453125 " clip-rule="nonzero"/></clipPath><clipPath id="d6b2c26285"><path d="M 10 14 L 162.976562 14 L 162.976562 57 L 10 57 Z M 10 14 " clip-rule="nonzero"/></clipPath><clipPath id="db4ce67d78"><path d="M 10 0.207031 L 162.976562 0.207031 L 162.976562 43 L 10 43 Z M 10 0.207031 " clip-rule="nonzero"/></clipPath><clipPath id="287aca8b89"><rect x="0" width="163" y="0" height="133"/></clipPath><clipPath id="16cc43b339"><path d="M 35.792969 90.503906 L 187.265625 90.503906 L 187.265625 132.738281 L 35.792969 132.738281 Z M 35.792969 90.503906 " clip-rule="nonzero"/></clipPath><clipPath id="77feed449b"><path d="M 35.53125 76 L 188 76 L 188 119 L 35.53125 119 Z M 35.53125 76 " clip-rule="nonzero"/></clipPath><clipPath id="973b7eac6a"><path d="M 46 31 L 197.644531 31 L 197.644531 73.382812 L 46 73.382812 Z M 46 31 " clip-rule="nonzero"/></clipPath><clipPath id="f55fe1fafe"><path d="M 46 16.304688 L 197.644531 16.304688 L 197.644531 58.453125 L 46 58.453125 Z M 46 16.304688 " clip-rule="nonzero"/></clipPath><clipPath id="aeb6ffd061"><path d="M 37 0.0585938 L 187 0.0585938 L 187 42 L 37 42 Z M 37 0.0585938 " clip-rule="nonzero"/></clipPath><clipPath id="09d0faab6d"><path d="M 36 0.0585938 L 188 0.0585938 L 188 43 L 36 43 Z M 36 0.0585938 " clip-rule="nonzero"/></clipPath><clipPath id="19d570577f"><path d="M 35.792969 90.503906 L 187.265625 90.503906 L 187.265625 132.492188 L 35.792969 132.492188 Z M 35.792969 90.503906 " clip-rule="nonzero"/></clipPath><clipPath id="3f15f446a7"><path d="M 35.53125 76 L 188 76 L 188 119 L 35.53125 119 Z M 35.53125 76 " clip-rule="nonzero"/></clipPath><clipPath id="3ec5cb42f3"><path d="M 44 73.273438 L 195 73.273438 L 195 112 L 44 112 Z M 44 73.273438 " clip-rule="nonzero"/></clipPath><clipPath id="b78988204f"><path d="M 44 73.273438 L 196 73.273438 L 196 113 L 44 113 Z M 44 73.273438 " clip-rule="nonzero"/></clipPath><clipPath id="0e3597bd1d"><path d="M 44 73.273438 L 195 73.273438 L 195 98 L 44 98 Z M 44 73.273438 " clip-rule="nonzero"/></clipPath><clipPath id="645c057b9a"><path d="M 44 73.273438 L 196 73.273438 L 196 99 L 44 99 Z M 44 73.273438 " clip-rule="nonzero"/></clipPath><clipPath id="6785c46a19"><path d="M 75 73.273438 L 164 73.273438 L 164 89 L 75 89 Z M 75 73.273438 " clip-rule="nonzero"/></clipPath><clipPath id="4400bd45f5"><path d="M 74 73.273438 L 165 73.273438 L 165 90 L 74 90 Z M 74 73.273438 " clip-rule="nonzero"/></clipPath><clipPath id="b22c6e9799"><path d="M 51 73.273438 L 72 73.273438 L 72 81 L 51 81 Z M 51 73.273438 " clip-rule="nonzero"/></clipPath><clipPath id="34ac94f49f"><path d="M 168 73.273438 L 190 73.273438 L 190 81 L 168 81 Z M 168 73.273438 " clip-rule="nonzero"/></clipPath><clipPath id="a7f20ce600"><path d="M 37 73.273438 L 187 73.273438 L 187 96 L 37 96 Z M 37 73.273438 " clip-rule="nonzero"/></clipPath><clipPath id="4f6962d0c5"><path d="M 36 73.273438 L 188 73.273438 L 188 97 L 36 97 Z M 36 73.273438 " clip-rule="nonzero"/></clipPath><clipPath id="611e416ed8"><path d="M 49 73.273438 L 63 73.273438 L 63 90 L 49 90 Z M 49 73.273438 " clip-rule="nonzero"/></clipPath><clipPath id="5444b471ac"><path d="M 37 73.273438 L 187 73.273438 L 187 82 L 37 82 Z M 37 73.273438 " clip-rule="nonzero"/></clipPath><clipPath id="dc456a25b9"><path d="M 36 73.273438 L 188 73.273438 L 188 83 L 36 83 Z M 36 73.273438 " clip-rule="nonzero"/></clipPath><clipPath id="a5381366f9"><path d="M 66 73.273438 L 158 73.273438 L 158 74 L 66 74 Z M 66 73.273438 " clip-rule="nonzero"/></clipPath><clipPath id="1eb3c0874e"><path d="M 102 73.273438 L 123 73.273438 L 123 81 L 102 81 Z M 102 73.273438 " clip-rule="nonzero"/></clipPath><clipPath id="e55b08b00f"><path d="M 46 73.273438 L 197.644531 73.273438 L 197.644531 73.382812 L 46 73.382812 Z M 46 73.273438 " clip-rule="nonzero"/></clipPath></defs><g clip-path="url(#15dc157280)"><g transform="matrix(1, 0, 0, 1, 33, 92)"><g clip-path="url(#287aca8b89)"><g clip-path="url(#8e69b7a35b)"><path fill="#d1d1d1" d="M 87.109375 91.78125 C 57 91.78125 31.0625 96.601562 19.285156 103.539062 L 17.488281 97.988281 L 12.246094 97.210938 L 12.246094 112.03125 L 12.535156 112.042969 C 12.773438 123.113281 46.066406 132.066406 87.109375 132.066406 C 127.277344 132.066406 160.023438 123.492188 161.625 112.746094 L 161.976562 112.800781 L 161.976562 97.210938 L 153.441406 102.710938 C 141.054688 96.21875 116 91.78125 87.109375 91.78125 " fill-opacity="1" fill-rule="evenodd"/></g><g clip-path="url(#af62890bb2)"><path fill="#121212" d="M 87.109375 90.9375 C 72.25 90.9375 58.398438 92.105469 46.742188 94.125 C 35.253906 96.117188 25.882812 98.941406 19.769531 102.292969 L 18.292969 97.726562 L 17.488281 97.988281 L 18.292969 97.726562 C 18.1875 97.394531 17.894531 97.171875 17.570312 97.140625 L 12.371094 96.375 C 11.90625 96.304688 11.476562 96.625 11.410156 97.089844 C 11.402344 97.128906 11.398438 97.171875 11.398438 97.210938 L 11.398438 112.03125 C 11.398438 112.308594 11.53125 112.558594 11.738281 112.710938 C 12.457031 118.40625 20.953125 123.441406 34.316406 127.027344 C 47.867188 130.667969 66.523438 132.917969 87.109375 132.917969 C 107.214844 132.917969 125.488281 130.769531 138.957031 127.277344 C 152.183594 123.847656 160.867188 119.035156 162.3125 113.578125 C 162.574219 113.464844 162.773438 113.222656 162.816406 112.921875 C 162.820312 112.878906 162.824219 112.839844 162.824219 112.800781 L 162.824219 97.210938 C 162.824219 96.746094 162.445312 96.363281 161.976562 96.363281 C 161.789062 96.363281 161.609375 96.425781 161.46875 96.53125 L 153.390625 101.734375 C 147.015625 98.492188 137.527344 95.777344 126.023438 93.882812 C 114.671875 92.011719 101.347656 90.9375 87.109375 90.9375 Z M 47.027344 95.796875 C 58.585938 93.792969 72.339844 92.632812 87.109375 92.632812 C 101.277344 92.632812 114.503906 93.699219 125.75 95.550781 C 137.308594 97.453125 146.761719 100.179688 152.980469 103.421875 C 153.25 103.597656 153.609375 103.609375 153.898438 103.421875 L 161.128906 98.765625 L 161.128906 112.058594 C 160.949219 112.1875 160.820312 112.386719 160.785156 112.625 L 161.128906 112.675781 L 160.785156 112.625 C 160.039062 117.640625 151.652344 122.238281 138.535156 125.640625 C 125.207031 129.097656 107.089844 131.21875 87.109375 131.21875 C 66.667969 131.21875 48.164062 128.992188 34.753906 125.390625 C 21.683594 121.882812 13.550781 117.171875 13.382812 112.082031 L 13.382812 112.078125 C 13.394531 111.8125 13.28125 111.570312 13.097656 111.40625 L 13.097656 98.195312 L 16.84375 98.746094 L 18.457031 103.734375 C 18.476562 103.816406 18.507812 103.894531 18.554688 103.972656 C 18.789062 104.375 19.3125 104.507812 19.714844 104.273438 L 19.714844 104.269531 C 25.605469 100.796875 35.144531 97.855469 47.027344 95.796875 Z M 161.46875 96.53125 L 161.128906 97.210938 C 161.128906 96.933594 161.261719 96.6875 161.46875 96.53125 " fill-opacity="1" fill-rule="nonzero"/></g><path fill="#004433" d="M 100.367188 117.039062 L 87.109375 117.039062 L 87.109375 131.21875 L 100.367188 130.902344 L 100.367188 117.039062 " fill-opacity="1" fill-rule="evenodd"/><path fill="#004433" d="M 149.316406 108.425781 L 136.578125 111.894531 L 137.210938 125.984375 L 149.707031 121.992188 L 149.316406 108.425781 " fill-opacity="1" fill-rule="evenodd"/><path fill="#004433" d="M 35.78125 111.925781 L 49.28125 114.640625 L 48.648438 128.335938 L 36.144531 125.757812 L 35.78125 111.925781 " fill-opacity="1" fill-rule="evenodd"/><path fill="#ffffff" d="M 87.113281 117.355469 C 45.878906 117.355469 12.246094 108.308594 12.246094 97.210938 C 12.246094 86.117188 45.878906 77.070312 87.113281 77.070312 C 128.347656 77.070312 161.976562 86.117188 161.976562 97.210938 C 161.976562 108.308594 128.347656 117.355469 87.113281 117.355469 " fill-opacity="1" fill-rule="evenodd"/><g clip-path="url(#90fa650d72)"><path fill="#121212" d="M 87.113281 76.222656 C 66.367188 76.222656 47.570312 78.488281 33.957031 82.152344 C 20.019531 85.898438 11.398438 91.21875 11.398438 97.210938 C 11.398438 103.207031 20.019531 108.523438 33.957031 112.273438 C 47.570312 115.9375 66.367188 118.203125 87.113281 118.203125 C 107.859375 118.203125 126.652344 115.9375 140.265625 112.273438 C 154.207031 108.523438 162.824219 103.207031 162.824219 97.210938 C 162.824219 91.21875 154.207031 85.898438 140.265625 82.152344 C 126.652344 78.488281 107.859375 76.222656 87.113281 76.222656 Z M 34.394531 83.789062 C 47.871094 80.160156 66.507812 77.917969 87.113281 77.917969 C 107.714844 77.917969 126.351562 80.160156 139.832031 83.789062 C 152.988281 87.328125 161.128906 92.082031 161.128906 97.210938 C 161.128906 102.34375 152.988281 107.097656 139.832031 110.636719 C 126.351562 114.265625 107.714844 116.507812 87.113281 116.507812 C 66.511719 116.507812 47.871094 114.265625 34.394531 110.636719 C 21.234375 107.097656 13.097656 102.34375 13.097656 97.210938 C 13.097656 92.082031 21.234375 87.328125 34.394531 83.789062 " fill-opacity="1" fill-rule="nonzero"/></g><path fill="#d1d1d1" d="M 87.363281 108.402344 C 62.953125 108.402344 43.050781 103.375 43.050781 97.210938 C 43.050781 91.050781 62.953125 86.023438 87.363281 86.023438 C 111.769531 86.023438 131.675781 91.050781 131.675781 97.210938 C 131.675781 103.375 111.769531 108.402344 87.363281 108.402344 " fill-opacity="1" fill-rule="evenodd"/><path fill="#121212" d="M 87.363281 85.175781 C 75.050781 85.175781 63.886719 86.4375 55.785156 88.484375 C 47.347656 90.617188 42.125 93.695312 42.125 97.210938 C 42.125 100.730469 47.347656 103.808594 55.785156 105.941406 C 63.886719 107.988281 75.050781 109.25 87.363281 109.25 C 99.671875 109.25 110.839844 107.988281 118.9375 105.941406 C 127.378906 103.808594 132.597656 100.730469 132.597656 97.210938 C 132.597656 93.695312 127.378906 90.617188 118.9375 88.484375 C 110.835938 86.4375 99.671875 85.175781 87.363281 85.175781 Z M 56.269531 90.117188 C 64.207031 88.109375 75.199219 86.871094 87.363281 86.871094 C 99.527344 86.871094 110.519531 88.109375 118.457031 90.117188 C 126.054688 92.035156 130.753906 94.550781 130.753906 97.210938 C 130.753906 99.875 126.054688 102.390625 118.457031 104.308594 C 110.519531 106.316406 99.527344 107.554688 87.363281 107.554688 C 75.199219 107.554688 64.207031 106.316406 56.269531 104.308594 C 48.671875 102.390625 43.972656 99.875 43.972656 97.210938 C 43.972656 94.550781 48.671875 92.035156 56.269531 90.117188 " fill-opacity="1" fill-rule="nonzero"/><path fill="#004433" d="M 86.445312 77.628906 L 76.320312 81.402344 L 86.445312 85.179688 L 96.570312 81.402344 L 86.445312 77.628906 " fill-opacity="1" fill-rule="evenodd"/><path fill="#004433" d="M 86.445312 108.753906 L 76.320312 112.53125 L 86.445312 116.304688 L 96.570312 112.53125 L 86.445312 108.753906 " fill-opacity="1" fill-rule="evenodd"/><path fill="#004433" d="M 145.109375 92.65625 L 134.984375 96.863281 L 145.109375 101.066406 L 155.234375 96.863281 L 145.109375 92.65625 " fill-opacity="1" fill-rule="evenodd"/><path fill="#004433" d="M 27.9375 92.65625 L 17.8125 96.863281 L 27.9375 101.066406 L 38.0625 96.863281 L 27.9375 92.65625 " fill-opacity="1" fill-rule="evenodd"/><path fill="#d1d1d1" d="M 78.894531 71.859375 C 48.785156 71.859375 22.847656 76.683594 11.070312 83.621094 L 9.273438 78.0625 L 4.03125 77.289062 L 4.03125 92.109375 L 4.320312 92.121094 C 4.558594 103.191406 37.851562 112.144531 78.894531 112.144531 C 119.0625 112.144531 151.808594 103.570312 153.410156 92.824219 L 153.761719 92.878906 L 153.761719 77.289062 L 145.226562 82.789062 C 132.839844 76.300781 107.789062 71.859375 78.894531 71.859375 " fill-opacity="1" fill-rule="evenodd"/><path fill="#121212" d="M 78.894531 71.015625 C 64.039062 71.015625 50.183594 72.183594 38.527344 74.203125 C 27.039062 76.195312 17.667969 79.019531 11.554688 82.371094 L 10.078125 77.804688 L 9.273438 78.0625 L 10.082031 77.804688 C 9.972656 77.472656 9.679688 77.253906 9.355469 77.21875 L 4.15625 76.453125 C 3.691406 76.382812 3.261719 76.703125 3.191406 77.167969 C 3.1875 77.207031 3.183594 77.25 3.183594 77.289062 L 3.183594 92.109375 C 3.183594 92.386719 3.320312 92.636719 3.527344 92.792969 C 4.246094 98.484375 12.738281 103.519531 26.101562 107.105469 C 39.652344 110.746094 58.308594 112.996094 78.894531 112.996094 C 99.003906 112.996094 117.273438 110.847656 130.742188 107.355469 C 143.96875 103.925781 152.652344 99.117188 154.101562 93.65625 C 154.363281 93.542969 154.558594 93.300781 154.601562 93 C 154.609375 92.957031 154.609375 92.917969 154.609375 92.878906 L 154.609375 77.289062 C 154.609375 76.824219 154.230469 76.441406 153.761719 76.441406 C 153.574219 76.441406 153.398438 76.503906 153.253906 76.609375 L 145.175781 81.8125 C 138.800781 78.570312 129.3125 75.855469 117.808594 73.960938 C 106.457031 72.089844 93.132812 71.015625 78.894531 71.015625 Z M 38.816406 75.875 C 50.371094 73.871094 64.125 72.710938 78.894531 72.710938 C 93.0625 72.710938 106.289062 73.777344 117.535156 75.628906 C 129.09375 77.53125 138.546875 80.257812 144.765625 83.5 C 145.035156 83.675781 145.394531 83.6875 145.683594 83.5 L 152.914062 78.84375 L 152.914062 92.136719 C 152.734375 92.265625 152.605469 92.464844 152.570312 92.703125 L 152.914062 92.753906 L 152.570312 92.703125 C 151.824219 97.71875 143.4375 102.316406 130.320312 105.71875 C 116.992188 109.171875 98.871094 111.296875 78.894531 111.296875 C 58.453125 111.296875 39.953125 109.070312 26.539062 105.46875 C 13.472656 101.960938 5.332031 97.25 5.167969 92.160156 L 5.167969 92.15625 C 5.179688 91.890625 5.066406 91.648438 4.882812 91.484375 L 4.882812 78.273438 L 8.628906 78.824219 L 10.242188 83.8125 C 10.261719 83.894531 10.296875 83.972656 10.339844 84.050781 C 10.578125 84.453125 11.097656 84.585938 11.5 84.351562 L 11.5 84.347656 C 17.390625 80.875 26.929688 77.933594 38.816406 75.875 Z M 153.253906 76.609375 L 152.914062 77.289062 C 152.914062 77.011719 153.046875 76.765625 153.253906 76.609375 " fill-opacity="1" fill-rule="nonzero"/><path fill="#004433" d="M 92.152344 97.117188 L 78.894531 97.117188 L 78.894531 111.296875 L 92.152344 110.980469 L 92.152344 97.117188 " fill-opacity="1" fill-rule="evenodd"/><path fill="#004433" d="M 141.105469 88.503906 L 128.363281 91.972656 L 128.996094 106.0625 L 141.492188 102.070312 L 141.105469 88.503906 " fill-opacity="1" fill-rule="evenodd"/><path fill="#004433" d="M 27.566406 92.003906 L 41.070312 94.71875 L 40.433594 108.414062 L 27.929688 105.835938 L 27.566406 92.003906 " fill-opacity="1" fill-rule="evenodd"/><path fill="#ffffff" d="M 78.898438 97.433594 C 37.664062 97.433594 4.03125 88.386719 4.03125 77.289062 C 4.03125 66.199219 37.664062 57.148438 78.898438 57.148438 C 120.132812 57.148438 153.761719 66.199219 153.761719 77.289062 C 153.761719 88.386719 120.132812 97.433594 78.898438 97.433594 " fill-opacity="1" fill-rule="evenodd"/><path fill="#121212" d="M 78.898438 56.300781 C 58.152344 56.300781 39.355469 58.566406 25.742188 62.230469 C 11.804688 65.980469 3.183594 71.296875 3.183594 77.289062 C 3.183594 83.285156 11.804688 88.601562 25.742188 92.351562 C 39.355469 96.015625 58.152344 98.28125 78.898438 98.28125 C 99.644531 98.28125 118.4375 96.015625 132.054688 92.351562 C 145.992188 88.601562 154.609375 83.285156 154.609375 77.289062 C 154.609375 71.296875 145.992188 65.980469 132.054688 62.230469 C 118.4375 58.566406 99.644531 56.300781 78.898438 56.300781 Z M 26.179688 63.867188 C 39.65625 60.242188 58.296875 57.996094 78.898438 57.996094 C 99.5 57.996094 118.136719 60.242188 131.617188 63.867188 C 144.777344 67.40625 152.914062 72.164062 152.914062 77.289062 C 152.914062 82.421875 144.777344 87.175781 131.617188 90.714844 C 118.136719 94.34375 99.5 96.585938 78.898438 96.585938 C 58.296875 96.585938 39.65625 94.34375 26.179688 90.714844 C 13.019531 87.175781 4.882812 82.421875 4.882812 77.289062 C 4.882812 72.164062 13.019531 67.40625 26.179688 63.867188 " fill-opacity="1" fill-rule="nonzero"/><path fill="#d1d1d1" d="M 79.148438 88.480469 C 54.742188 88.480469 34.835938 83.453125 34.835938 77.289062 C 34.835938 71.128906 54.742188 66.101562 79.148438 66.101562 C 103.554688 66.101562 123.460938 71.128906 123.460938 77.289062 C 123.460938 83.453125 103.554688 88.480469 79.148438 88.480469 " fill-opacity="1" fill-rule="evenodd"/><path fill="#121212" d="M 79.148438 65.253906 C 66.839844 65.253906 55.671875 66.519531 47.570312 68.5625 C 39.132812 70.695312 33.910156 73.773438 33.910156 77.289062 C 33.910156 80.808594 39.132812 83.886719 47.570312 86.019531 C 55.671875 88.066406 66.839844 89.332031 79.148438 89.332031 C 91.457031 89.332031 102.625 88.066406 110.726562 86.019531 C 119.164062 83.886719 124.386719 80.808594 124.386719 77.289062 C 124.386719 73.773438 119.164062 70.695312 110.722656 68.5625 C 102.625 66.519531 91.457031 65.253906 79.148438 65.253906 Z M 48.054688 70.195312 C 55.992188 68.1875 66.984375 66.949219 79.148438 66.949219 C 91.3125 66.949219 102.304688 68.1875 110.238281 70.195312 C 117.839844 72.113281 122.539062 74.628906 122.539062 77.289062 C 122.539062 79.953125 117.839844 82.46875 110.238281 84.386719 C 102.304688 86.390625 91.3125 87.632812 79.148438 87.632812 C 66.984375 87.632812 55.992188 86.390625 48.054688 84.386719 C 40.457031 82.46875 35.757812 79.953125 35.757812 77.289062 C 35.757812 74.628906 40.457031 72.113281 48.054688 70.195312 " fill-opacity="1" fill-rule="nonzero"/><path fill="#004433" d="M 78.230469 57.707031 L 68.109375 61.480469 L 78.230469 65.257812 L 88.355469 61.480469 L 78.230469 57.707031 " fill-opacity="1" fill-rule="evenodd"/><path fill="#004433" d="M 78.230469 88.835938 L 68.109375 92.609375 L 78.230469 96.382812 L 88.355469 92.609375 L 78.230469 88.835938 " fill-opacity="1" fill-rule="evenodd"/><path fill="#004433" d="M 136.894531 72.734375 L 126.773438 76.941406 L 136.894531 81.144531 L 147.019531 76.941406 L 136.894531 72.734375 " fill-opacity="1" fill-rule="evenodd"/><path fill="#004433" d="M 19.726562 72.734375 L 9.601562 76.941406 L 19.726562 81.144531 L 29.847656 76.941406 L 19.726562 72.734375 " fill-opacity="1" fill-rule="evenodd"/><path fill="#d1d1d1" d="M 86.507812 55.761719 C 56.398438 55.761719 30.460938 60.578125 18.683594 67.515625 L 16.882812 61.960938 L 11.644531 61.1875 L 11.644531 76.007812 L 11.933594 76.019531 C 12.171875 87.089844 45.464844 96.042969 86.507812 96.042969 C 126.675781 96.042969 159.421875 87.464844 161.019531 76.726562 L 161.375 76.773438 L 161.375 61.1875 L 152.839844 66.683594 C 140.453125 60.195312 115.398438 55.761719 86.507812 55.761719 " fill-opacity="1" fill-rule="evenodd"/><g clip-path="url(#dd9192145c)"><path fill="#121212" d="M 86.507812 54.910156 C 71.648438 54.910156 57.796875 56.082031 46.140625 58.101562 C 34.652344 60.09375 25.28125 62.921875 19.167969 66.269531 L 17.691406 61.703125 L 16.882812 61.960938 L 17.691406 61.699219 C 17.585938 61.371094 17.292969 61.152344 16.96875 61.117188 L 11.769531 60.347656 C 11.304688 60.28125 10.875 60.601562 10.804688 61.066406 C 10.800781 61.105469 10.796875 61.148438 10.796875 61.1875 L 10.796875 76.007812 C 10.796875 76.289062 10.929688 76.535156 11.136719 76.6875 C 11.855469 82.382812 20.351562 87.417969 33.710938 91.003906 C 47.265625 94.644531 65.921875 96.890625 86.507812 96.890625 C 106.613281 96.890625 124.886719 94.746094 138.355469 91.253906 C 151.582031 87.824219 160.265625 83.015625 161.710938 77.554688 C 161.972656 77.441406 162.171875 77.199219 162.214844 76.894531 C 162.21875 76.855469 162.222656 76.816406 162.222656 76.773438 L 162.222656 61.1875 C 162.222656 60.71875 161.84375 60.339844 161.375 60.339844 C 161.183594 60.339844 161.007812 60.402344 160.867188 60.507812 L 152.789062 65.710938 C 146.410156 62.46875 136.925781 59.753906 125.417969 57.859375 C 114.070312 55.988281 100.746094 54.910156 86.507812 54.910156 Z M 46.425781 59.773438 C 57.984375 57.769531 71.738281 56.605469 86.507812 56.605469 C 100.671875 56.605469 113.902344 57.675781 125.148438 59.527344 C 136.703125 61.433594 146.160156 64.15625 152.378906 67.398438 C 152.648438 67.574219 153.007812 67.582031 153.296875 67.398438 L 160.527344 62.742188 L 160.527344 76.035156 C 160.347656 76.164062 160.21875 76.363281 160.183594 76.601562 L 160.527344 76.652344 L 160.183594 76.601562 C 159.4375 81.613281 151.050781 86.214844 137.929688 89.613281 C 124.605469 93.070312 106.484375 95.195312 86.507812 95.195312 C 66.066406 95.195312 47.5625 92.96875 34.148438 89.367188 C 21.082031 85.859375 12.945312 81.148438 12.78125 76.054688 C 12.792969 75.789062 12.679688 75.542969 12.492188 75.382812 L 12.492188 62.171875 L 16.242188 62.726562 L 17.855469 67.710938 C 17.875 67.792969 17.90625 67.871094 17.953125 67.945312 C 18.1875 68.351562 18.710938 68.484375 19.113281 68.246094 L 19.109375 68.242188 C 25.003906 64.773438 34.542969 61.832031 46.425781 59.773438 Z M 160.867188 60.507812 L 160.527344 61.1875 C 160.527344 60.910156 160.660156 60.664062 160.867188 60.507812 " fill-opacity="1" fill-rule="nonzero"/></g><path fill="#004433" d="M 99.765625 81.015625 L 86.507812 81.015625 L 86.507812 95.195312 L 99.765625 94.875 L 99.765625 81.015625 " fill-opacity="1" fill-rule="evenodd"/><path fill="#004433" d="M 148.714844 72.398438 L 135.972656 75.871094 L 136.609375 89.960938 L 149.105469 85.96875 L 148.714844 72.398438 " fill-opacity="1" fill-rule="evenodd"/><path fill="#004433" d="M 35.179688 75.902344 L 48.679688 78.613281 L 48.046875 92.3125 L 35.542969 89.730469 L 35.179688 75.902344 " fill-opacity="1" fill-rule="evenodd"/><path fill="#ffffff" d="M 86.507812 81.332031 C 45.277344 81.332031 11.644531 72.28125 11.644531 61.1875 C 11.644531 50.09375 45.277344 41.046875 86.507812 41.046875 C 127.742188 41.046875 161.375 50.09375 161.375 61.1875 C 161.375 72.28125 127.742188 81.332031 86.507812 81.332031 " fill-opacity="1" fill-rule="evenodd"/><g clip-path="url(#a7db5a9935)"><path fill="#121212" d="M 86.507812 40.199219 C 65.765625 40.199219 46.96875 42.464844 33.355469 46.128906 C 19.417969 49.878906 10.796875 55.195312 10.796875 61.1875 C 10.796875 67.183594 19.417969 72.5 33.355469 76.25 C 46.96875 79.914062 65.765625 82.179688 86.507812 82.179688 C 107.253906 82.179688 126.050781 79.914062 139.664062 76.25 C 153.601562 72.5 162.222656 67.183594 162.222656 61.1875 C 162.222656 55.195312 153.601562 49.878906 139.664062 46.128906 C 126.050781 42.464844 107.253906 40.199219 86.507812 40.199219 Z M 33.792969 47.765625 C 47.269531 44.140625 65.90625 41.894531 86.507812 41.894531 C 107.113281 41.894531 125.75 44.140625 139.226562 47.765625 C 152.386719 51.304688 160.527344 56.058594 160.527344 61.1875 C 160.527344 66.316406 152.386719 71.070312 139.226562 74.613281 C 125.75 78.238281 107.113281 80.484375 86.507812 80.484375 C 65.90625 80.484375 47.269531 78.238281 33.789062 74.613281 C 20.632812 71.070312 12.492188 66.316406 12.492188 61.1875 C 12.492188 56.058594 20.632812 51.304688 33.792969 47.765625 " fill-opacity="1" fill-rule="nonzero"/></g><path fill="#d1d1d1" d="M 86.761719 72.378906 C 62.351562 72.378906 42.449219 67.351562 42.449219 61.1875 C 42.449219 55.027344 62.351562 50 86.761719 50 C 111.167969 50 131.074219 55.027344 131.074219 61.1875 C 131.074219 67.351562 111.167969 72.378906 86.761719 72.378906 " fill-opacity="1" fill-rule="evenodd"/><path fill="#121212" d="M 86.761719 49.148438 C 74.449219 49.148438 63.285156 50.414062 55.183594 52.460938 C 46.742188 54.59375 41.523438 57.671875 41.523438 61.1875 C 41.523438 64.707031 46.742188 67.785156 55.183594 69.917969 C 63.285156 71.960938 74.449219 73.226562 86.761719 73.226562 C 99.070312 73.226562 110.234375 71.960938 118.335938 69.917969 C 126.777344 67.785156 131.996094 64.707031 131.996094 61.1875 C 131.996094 57.671875 126.777344 54.59375 118.335938 52.460938 C 110.234375 50.414062 99.070312 49.148438 86.761719 49.148438 Z M 55.667969 54.089844 C 63.605469 52.085938 74.597656 50.847656 86.761719 50.847656 C 98.921875 50.847656 109.917969 52.085938 117.851562 54.089844 C 125.449219 56.011719 130.148438 58.527344 130.148438 61.1875 C 130.148438 63.851562 125.449219 66.367188 117.851562 68.285156 C 109.917969 70.289062 98.921875 71.53125 86.761719 71.53125 C 74.597656 71.53125 63.605469 70.289062 55.667969 68.285156 C 48.070312 66.367188 43.371094 63.851562 43.371094 61.1875 C 43.371094 58.527344 48.070312 56.011719 55.667969 54.089844 " fill-opacity="1" fill-rule="nonzero"/><path fill="#004433" d="M 85.84375 41.605469 L 75.71875 45.378906 L 85.84375 49.152344 L 95.96875 45.378906 L 85.84375 41.605469 " fill-opacity="1" fill-rule="evenodd"/><path fill="#004433" d="M 85.84375 72.730469 L 75.71875 76.507812 L 85.84375 80.28125 L 95.96875 76.507812 L 85.84375 72.730469 " fill-opacity="1" fill-rule="evenodd"/><path fill="#004433" d="M 144.507812 56.632812 L 134.382812 60.839844 L 144.507812 65.042969 L 154.632812 60.839844 L 144.507812 56.632812 " fill-opacity="1" fill-rule="evenodd"/><path fill="#004433" d="M 27.335938 56.632812 L 17.210938 60.839844 L 27.335938 65.042969 L 37.460938 60.839844 L 27.335938 56.632812 " fill-opacity="1" fill-rule="evenodd"/><path fill="#d1d1d1" d="M 76.683594 32.078125 C 46.574219 32.078125 20.636719 36.898438 8.859375 43.835938 L 7.0625 38.28125 L 1.820312 37.507812 L 1.820312 52.328125 L 2.109375 52.339844 C 2.347656 63.40625 35.640625 72.363281 76.683594 72.363281 C 116.851562 72.363281 149.597656 63.785156 151.199219 53.042969 L 151.550781 53.09375 L 151.550781 37.507812 L 143.015625 43.003906 C 130.628906 36.515625 105.574219 32.078125 76.683594 32.078125 " fill-opacity="1" fill-rule="evenodd"/><g clip-path="url(#c9361e3407)"><path fill="#121212" d="M 76.683594 31.230469 C 61.824219 31.230469 47.972656 32.402344 36.316406 34.421875 C 24.828125 36.414062 15.457031 39.238281 9.34375 42.589844 L 7.867188 38.023438 L 7.0625 38.28125 L 7.867188 38.019531 C 7.761719 37.6875 7.46875 37.46875 7.144531 37.4375 L 1.945312 36.667969 C 1.480469 36.597656 1.050781 36.921875 0.984375 37.382812 C 0.976562 37.425781 0.972656 37.46875 0.972656 37.507812 L 0.972656 52.328125 C 0.972656 52.605469 1.105469 52.851562 1.3125 53.007812 C 2.03125 58.703125 10.527344 63.738281 23.890625 67.324219 C 37.441406 70.960938 56.097656 73.210938 76.683594 73.210938 C 96.789062 73.210938 115.0625 71.0625 128.53125 67.570312 C 141.757812 64.144531 150.441406 59.332031 151.886719 53.871094 C 152.148438 53.757812 152.347656 53.515625 152.390625 53.214844 C 152.394531 53.171875 152.398438 53.132812 152.398438 53.09375 L 152.398438 37.507812 C 152.398438 37.039062 152.019531 36.660156 151.550781 36.660156 C 151.363281 36.660156 151.183594 36.722656 151.042969 36.828125 L 142.964844 42.027344 C 136.589844 38.789062 127.101562 36.070312 115.597656 34.175781 C 104.246094 32.304688 90.921875 31.230469 76.683594 31.230469 Z M 36.601562 36.089844 C 48.160156 34.089844 61.914062 32.925781 76.683594 32.925781 C 90.851562 32.925781 104.078125 33.996094 115.324219 35.847656 C 126.882812 37.75 136.335938 40.476562 142.554688 43.71875 C 142.824219 43.890625 143.183594 43.902344 143.472656 43.71875 L 143.472656 43.714844 L 150.703125 39.058594 L 150.703125 52.355469 C 150.523438 52.484375 150.394531 52.679688 150.359375 52.917969 L 150.703125 52.96875 L 150.703125 52.972656 L 150.359375 52.917969 C 149.613281 57.933594 141.226562 62.53125 128.109375 65.933594 C 114.78125 69.390625 96.664062 71.511719 76.683594 71.511719 C 56.242188 71.511719 37.738281 69.289062 24.328125 65.6875 C 11.257812 62.175781 3.121094 57.464844 2.957031 52.375 L 2.957031 52.371094 C 2.96875 52.105469 2.855469 51.863281 2.671875 51.699219 L 2.671875 38.488281 L 6.417969 39.042969 L 8.03125 44.027344 C 8.050781 44.109375 8.082031 44.191406 8.128906 44.265625 C 8.363281 44.667969 8.886719 44.804688 9.289062 44.566406 L 9.285156 44.5625 C 15.179688 41.09375 24.71875 38.152344 36.601562 36.089844 Z M 151.042969 36.828125 L 150.703125 37.507812 C 150.703125 37.230469 150.835938 36.980469 151.042969 36.828125 " fill-opacity="1" fill-rule="nonzero"/></g><path fill="#004433" d="M 89.941406 57.335938 L 76.683594 57.335938 L 76.683594 71.511719 L 89.941406 71.195312 L 89.941406 57.335938 " fill-opacity="1" fill-rule="evenodd"/><path fill="#004433" d="M 138.890625 48.71875 L 126.152344 52.1875 L 126.785156 66.277344 L 139.28125 62.289062 L 138.890625 48.71875 " fill-opacity="1" fill-rule="evenodd"/><path fill="#004433" d="M 25.355469 52.21875 L 38.855469 54.933594 L 38.222656 68.632812 L 25.71875 66.050781 L 25.355469 52.21875 " fill-opacity="1" fill-rule="evenodd"/><path fill="#ffffff" d="M 76.6875 57.648438 C 35.453125 57.648438 1.820312 48.601562 1.820312 37.507812 C 1.820312 26.414062 35.453125 17.363281 76.6875 17.363281 C 117.921875 17.363281 151.550781 26.414062 151.550781 37.507812 C 151.550781 48.601562 117.921875 57.648438 76.6875 57.648438 " fill-opacity="1" fill-rule="evenodd"/><g clip-path="url(#b064c14901)"><path fill="#121212" d="M 76.6875 16.515625 C 55.941406 16.515625 37.144531 18.785156 23.53125 22.445312 C 9.59375 26.195312 0.972656 31.511719 0.972656 37.507812 C 0.972656 43.503906 9.59375 48.820312 23.53125 52.566406 C 37.144531 56.230469 55.941406 58.5 76.6875 58.5 C 97.433594 58.5 116.226562 56.230469 129.839844 52.566406 C 143.78125 48.820312 152.398438 43.503906 152.398438 37.507812 C 152.398438 31.511719 143.78125 26.195312 129.839844 22.445312 C 116.226562 18.785156 97.433594 16.515625 76.6875 16.515625 Z M 23.96875 24.085938 C 37.445312 20.457031 56.082031 18.214844 76.6875 18.214844 C 97.289062 18.214844 115.925781 20.457031 129.40625 24.085938 C 142.5625 27.625 150.703125 32.378906 150.703125 37.507812 C 150.703125 42.636719 142.5625 47.390625 129.40625 50.933594 C 115.925781 54.558594 97.289062 56.800781 76.6875 56.800781 C 56.082031 56.800781 37.445312 54.558594 23.96875 50.933594 C 10.808594 47.390625 2.671875 42.636719 2.671875 37.507812 C 2.671875 32.378906 10.808594 27.625 23.96875 24.085938 " fill-opacity="1" fill-rule="nonzero"/></g><path fill="#d1d1d1" d="M 76.9375 48.699219 C 52.527344 48.699219 32.625 43.671875 32.625 37.507812 C 32.625 31.34375 52.527344 26.316406 76.9375 26.316406 C 101.34375 26.316406 121.25 31.34375 121.25 37.507812 C 121.25 43.671875 101.34375 48.699219 76.9375 48.699219 " fill-opacity="1" fill-rule="evenodd"/><path fill="#121212" d="M 76.9375 25.46875 C 64.625 25.46875 53.460938 26.734375 45.363281 28.777344 C 36.917969 30.910156 31.699219 33.988281 31.699219 37.507812 C 31.699219 41.027344 36.917969 44.105469 45.363281 46.234375 C 53.460938 48.28125 64.625 49.546875 76.9375 49.546875 C 89.246094 49.546875 100.414062 48.28125 108.511719 46.234375 C 116.953125 44.105469 122.171875 41.027344 122.171875 37.507812 C 122.171875 33.988281 116.953125 30.910156 108.511719 28.777344 C 100.410156 26.734375 89.246094 25.46875 76.9375 25.46875 Z M 45.84375 30.410156 C 53.78125 28.40625 64.773438 27.167969 76.9375 27.167969 C 89.101562 27.167969 100.09375 28.40625 108.03125 30.410156 C 115.628906 32.328125 120.328125 34.847656 120.328125 37.507812 C 120.328125 40.167969 115.628906 42.6875 108.03125 44.605469 C 100.09375 46.609375 89.101562 47.851562 76.9375 47.851562 C 64.773438 47.851562 53.78125 46.609375 45.84375 44.605469 C 38.246094 42.6875 33.546875 40.167969 33.546875 37.507812 C 33.546875 34.847656 38.246094 32.328125 45.84375 30.410156 " fill-opacity="1" fill-rule="nonzero"/><path fill="#004433" d="M 76.019531 17.925781 L 65.894531 21.699219 L 76.019531 25.472656 L 86.144531 21.699219 L 76.019531 17.925781 " fill-opacity="1" fill-rule="evenodd"/><path fill="#004433" d="M 76.019531 49.050781 L 65.894531 52.824219 L 76.019531 56.597656 L 86.144531 52.824219 L 76.019531 49.050781 " fill-opacity="1" fill-rule="evenodd"/><path fill="#004433" d="M 134.683594 32.953125 L 124.558594 37.15625 L 134.683594 41.359375 L 144.808594 37.15625 L 134.683594 32.953125 " fill-opacity="1" fill-rule="evenodd"/><path fill="#004433" d="M 17.511719 32.953125 L 7.386719 37.15625 L 17.511719 41.359375 L 27.636719 37.15625 L 17.511719 32.953125 " fill-opacity="1" fill-rule="evenodd"/><path fill="#d1d1d1" d="M 86.507812 15.769531 C 56.398438 15.769531 30.460938 20.585938 18.683594 27.523438 L 16.882812 21.972656 L 11.644531 21.199219 L 11.644531 36.019531 L 11.933594 36.027344 C 12.171875 47.097656 45.464844 56.054688 86.507812 56.054688 C 126.675781 56.054688 159.421875 47.476562 161.019531 36.734375 L 161.375 36.785156 L 161.375 21.199219 L 152.839844 26.691406 C 140.453125 20.207031 115.398438 15.769531 86.507812 15.769531 " fill-opacity="1" fill-rule="evenodd"/><g clip-path="url(#d6b2c26285)"><path fill="#121212" d="M 86.507812 14.921875 C 71.648438 14.921875 57.796875 16.09375 46.140625 18.109375 C 34.652344 20.105469 25.28125 22.929688 19.167969 26.277344 L 17.691406 21.710938 L 16.882812 21.972656 L 17.691406 21.710938 C 17.585938 21.378906 17.292969 21.160156 16.96875 21.128906 L 11.769531 20.359375 C 11.304688 20.289062 10.875 20.613281 10.804688 21.074219 C 10.800781 21.117188 10.796875 21.15625 10.796875 21.199219 L 10.796875 36.019531 C 10.796875 36.296875 10.929688 36.542969 11.136719 36.695312 C 11.855469 42.390625 20.351562 47.425781 33.710938 51.015625 C 47.265625 54.652344 65.921875 56.902344 86.507812 56.902344 C 106.613281 56.902344 124.886719 54.753906 138.355469 51.261719 C 151.582031 47.832031 160.265625 43.023438 161.710938 37.5625 C 161.972656 37.449219 162.171875 37.207031 162.214844 36.90625 C 162.21875 36.863281 162.222656 36.824219 162.222656 36.785156 L 162.222656 21.199219 C 162.222656 20.730469 161.84375 20.347656 161.375 20.347656 C 161.183594 20.347656 161.007812 20.414062 160.867188 20.515625 L 152.789062 25.71875 C 146.410156 22.476562 136.925781 19.761719 125.417969 17.867188 C 114.070312 16 100.746094 14.921875 86.507812 14.921875 Z M 46.425781 19.78125 C 57.984375 17.777344 71.738281 16.617188 86.507812 16.617188 C 100.671875 16.617188 113.902344 17.683594 125.148438 19.535156 C 136.703125 21.441406 146.160156 24.167969 152.378906 27.40625 C 152.648438 27.582031 153.007812 27.59375 153.296875 27.40625 L 160.527344 22.753906 L 160.527344 36.046875 C 160.347656 36.175781 160.21875 36.371094 160.183594 36.609375 L 160.527344 36.660156 L 160.183594 36.613281 C 159.4375 41.625 151.050781 46.222656 137.929688 49.625 C 124.605469 53.082031 106.484375 55.203125 86.507812 55.203125 C 66.066406 55.203125 47.5625 52.976562 34.148438 49.375 C 21.082031 45.867188 12.945312 41.15625 12.78125 36.066406 L 12.78125 36.0625 C 12.792969 35.796875 12.679688 35.554688 12.492188 35.390625 L 12.492188 22.179688 L 16.242188 22.734375 L 17.855469 27.71875 C 17.875 27.800781 17.90625 27.878906 17.953125 27.957031 C 18.1875 28.359375 18.710938 28.492188 19.113281 28.257812 L 19.109375 28.253906 C 25.003906 24.78125 34.542969 21.839844 46.425781 19.78125 Z M 160.867188 20.515625 L 160.527344 21.199219 C 160.527344 20.921875 160.660156 20.671875 160.867188 20.515625 " fill-opacity="1" fill-rule="nonzero"/></g><path fill="#004433" d="M 99.765625 41.027344 L 86.507812 41.027344 L 86.507812 55.203125 L 99.765625 54.886719 L 99.765625 41.027344 " fill-opacity="1" fill-rule="evenodd"/><path fill="#004433" d="M 148.714844 32.410156 L 135.972656 35.878906 L 136.609375 49.96875 L 149.105469 45.976562 L 148.714844 32.410156 " fill-opacity="1" fill-rule="evenodd"/><path fill="#004433" d="M 35.179688 35.910156 L 48.679688 38.625 L 48.046875 52.320312 L 35.542969 49.738281 L 35.179688 35.910156 " fill-opacity="1" fill-rule="evenodd"/><path fill="#ffffff" d="M 86.507812 41.339844 C 45.277344 41.339844 11.644531 32.292969 11.644531 21.199219 C 11.644531 10.101562 45.277344 1.054688 86.507812 1.054688 C 127.742188 1.054688 161.375 10.101562 161.375 21.199219 C 161.375 32.292969 127.742188 41.339844 86.507812 41.339844 " fill-opacity="1" fill-rule="evenodd"/><g clip-path="url(#db4ce67d78)"><path fill="#121212" d="M 86.507812 0.207031 C 65.765625 0.207031 46.96875 2.472656 33.355469 6.136719 C 19.417969 9.886719 10.796875 15.203125 10.796875 21.199219 C 10.796875 27.191406 19.417969 32.507812 33.355469 36.261719 C 46.96875 39.921875 65.765625 42.1875 86.507812 42.1875 C 107.253906 42.1875 126.050781 39.921875 139.664062 36.261719 C 153.601562 32.507812 162.222656 27.191406 162.222656 21.199219 C 162.222656 15.203125 153.601562 9.886719 139.664062 6.136719 C 126.050781 2.472656 107.253906 0.207031 86.507812 0.207031 Z M 33.792969 7.773438 C 47.269531 4.148438 65.90625 1.902344 86.507812 1.902344 C 107.113281 1.902344 125.75 4.148438 139.226562 7.773438 C 152.386719 11.3125 160.527344 16.070312 160.527344 21.199219 C 160.527344 26.328125 152.386719 31.082031 139.226562 34.621094 C 125.75 38.246094 107.113281 40.492188 86.507812 40.492188 C 65.90625 40.492188 47.269531 38.246094 33.789062 34.621094 C 20.632812 31.082031 12.492188 26.328125 12.492188 21.199219 C 12.492188 16.070312 20.632812 11.3125 33.792969 7.773438 " fill-opacity="1" fill-rule="nonzero"/></g><path fill="#d1d1d1" d="M 86.761719 32.390625 C 62.351562 32.390625 42.449219 27.363281 42.449219 21.199219 C 42.449219 15.035156 62.351562 10.007812 86.761719 10.007812 C 111.167969 10.007812 131.074219 15.035156 131.074219 21.199219 C 131.074219 27.363281 111.167969 32.390625 86.761719 32.390625 " fill-opacity="1" fill-rule="evenodd"/><path fill="#121212" d="M 86.761719 9.160156 C 74.449219 9.160156 63.285156 10.425781 55.183594 12.46875 C 46.742188 14.601562 41.523438 17.679688 41.523438 21.199219 C 41.523438 24.714844 46.742188 27.792969 55.183594 29.925781 C 63.285156 31.972656 74.449219 33.234375 86.761719 33.234375 C 99.070312 33.234375 110.234375 31.972656 118.335938 29.925781 C 126.777344 27.792969 131.996094 24.714844 131.996094 21.199219 C 131.996094 17.679688 126.777344 14.601562 118.335938 12.46875 C 110.234375 10.425781 99.070312 9.160156 86.761719 9.160156 Z M 55.667969 14.101562 C 63.605469 12.097656 74.597656 10.855469 86.761719 10.855469 C 98.921875 10.855469 109.917969 12.097656 117.851562 14.101562 C 125.449219 16.019531 130.148438 18.535156 130.148438 21.199219 C 130.148438 23.859375 125.449219 26.378906 117.851562 28.296875 C 109.917969 30.300781 98.921875 31.539062 86.761719 31.539062 C 74.597656 31.539062 63.605469 30.300781 55.667969 28.296875 C 48.070312 26.378906 43.371094 23.859375 43.371094 21.199219 C 43.371094 18.535156 48.070312 16.019531 55.667969 14.101562 " fill-opacity="1" fill-rule="nonzero"/><path fill="#004433" d="M 85.84375 1.613281 L 75.71875 5.390625 L 85.84375 9.164062 L 95.96875 5.390625 L 85.84375 1.613281 " fill-opacity="1" fill-rule="evenodd"/><path fill="#004433" d="M 85.84375 32.742188 L 75.71875 36.515625 L 85.84375 40.289062 L 95.96875 36.515625 L 85.84375 32.742188 " fill-opacity="1" fill-rule="evenodd"/><path fill="#004433" d="M 144.507812 16.644531 L 134.382812 20.847656 L 144.507812 25.050781 L 154.632812 20.847656 L 144.507812 16.644531 " fill-opacity="1" fill-rule="evenodd"/><path fill="#004433" d="M 27.335938 16.644531 L 17.210938 20.847656 L 27.335938 25.050781 L 37.460938 20.847656 L 27.335938 16.644531 " fill-opacity="1" fill-rule="evenodd"/></g></g></g><path fill="#d1d1d1" d="M 111.507812 91.636719 C 141.617188 91.636719 167.554688 96.453125 179.332031 103.390625 L 181.132812 97.839844 L 186.371094 97.066406 L 186.371094 111.886719 L 186.082031 111.894531 C 185.847656 122.964844 152.550781 131.921875 111.507812 131.921875 C 71.339844 131.921875 38.59375 123.34375 36.996094 112.601562 L 36.640625 112.652344 L 36.640625 97.066406 L 45.175781 102.5625 C 57.5625 96.070312 82.617188 91.636719 111.507812 91.636719 " fill-opacity="1" fill-rule="evenodd"/><g clip-path="url(#16cc43b339)"><path fill="#121212" d="M 111.507812 90.789062 C 126.367188 90.789062 140.21875 91.960938 151.875 93.976562 C 163.363281 95.972656 172.734375 98.796875 178.847656 102.144531 L 180.324219 97.578125 L 181.132812 97.839844 L 180.324219 97.578125 C 180.429688 97.246094 180.722656 97.027344 181.046875 96.996094 L 186.246094 96.226562 C 186.710938 96.15625 187.140625 96.480469 187.210938 96.941406 C 187.214844 96.984375 187.21875 97.023438 187.21875 97.066406 L 187.21875 111.886719 C 187.21875 112.164062 187.085938 112.410156 186.878906 112.5625 C 186.160156 118.257812 177.664062 123.292969 164.304688 126.882812 C 150.753906 130.519531 132.09375 132.769531 111.507812 132.769531 C 91.402344 132.769531 73.128906 130.621094 59.660156 127.128906 C 46.433594 123.699219 37.75 118.890625 36.304688 113.429688 C 36.042969 113.316406 35.84375 113.074219 35.800781 112.773438 C 35.796875 112.730469 35.792969 112.691406 35.792969 112.652344 L 35.792969 97.066406 C 35.792969 96.597656 36.171875 96.214844 36.640625 96.214844 C 36.828125 96.214844 37.007812 96.28125 37.148438 96.382812 L 45.226562 101.585938 C 51.601562 98.34375 61.089844 95.628906 72.59375 93.734375 C 83.945312 91.863281 97.269531 90.789062 111.507812 90.789062 Z M 151.589844 95.648438 C 140.035156 93.648438 126.277344 92.484375 111.507812 92.484375 C 97.34375 92.484375 84.113281 93.550781 72.867188 95.402344 C 61.308594 97.308594 51.855469 100.035156 45.636719 103.273438 C 45.367188 103.449219 45.007812 103.460938 44.71875 103.277344 L 44.71875 103.273438 L 37.488281 98.617188 L 37.488281 111.914062 C 37.667969 112.042969 37.800781 112.238281 37.832031 112.476562 L 37.488281 112.527344 L 37.832031 112.476562 C 38.578125 117.492188 46.964844 122.089844 60.085938 125.492188 C 73.410156 128.949219 91.53125 131.070312 111.507812 131.070312 C 131.949219 131.070312 150.453125 128.84375 163.867188 125.242188 C 176.933594 121.734375 185.070312 117.023438 185.234375 111.933594 L 185.234375 111.929688 C 185.222656 111.664062 185.335938 111.421875 185.523438 111.257812 L 185.523438 98.046875 L 181.773438 98.601562 L 180.160156 103.585938 C 180.140625 103.667969 180.109375 103.746094 180.0625 103.824219 C 179.828125 104.226562 179.304688 104.359375 178.902344 104.125 L 178.902344 104.121094 C 173.011719 100.648438 163.472656 97.707031 151.589844 95.648438 Z M 37.148438 96.382812 L 37.488281 97.066406 C 37.488281 96.789062 37.355469 96.539062 37.148438 96.382812 " fill-opacity="1" fill-rule="nonzero"/></g><path fill="#02002b" d="M 98.25 116.894531 L 111.507812 116.894531 L 111.507812 131.070312 L 98.25 130.753906 L 98.25 116.894531 " fill-opacity="1" fill-rule="evenodd"/><path fill="#02002b" d="M 49.300781 108.277344 L 62.042969 111.746094 L 61.40625 125.835938 L 48.910156 121.84375 L 49.300781 108.277344 " fill-opacity="1" fill-rule="evenodd"/><path fill="#02002b" d="M 162.835938 111.777344 L 149.335938 114.492188 L 149.96875 128.1875 L 162.472656 125.609375 L 162.835938 111.777344 " fill-opacity="1" fill-rule="evenodd"/><path fill="#ffffff" d="M 111.503906 117.207031 C 152.738281 117.207031 186.371094 108.160156 186.371094 97.066406 C 186.371094 85.96875 152.738281 76.921875 111.503906 76.921875 C 70.273438 76.921875 36.640625 85.96875 36.640625 97.066406 C 36.640625 108.160156 70.273438 117.207031 111.503906 117.207031 " fill-opacity="1" fill-rule="evenodd"/><g clip-path="url(#77feed449b)"><path fill="#121212" d="M 111.503906 76.074219 C 132.25 76.074219 151.046875 78.339844 164.660156 82.003906 C 178.601562 85.753906 187.21875 91.070312 187.21875 97.066406 C 187.21875 103.058594 178.601562 108.378906 164.660156 112.125 C 151.046875 115.789062 132.25 118.054688 111.503906 118.054688 C 90.757812 118.054688 71.964844 115.789062 58.351562 112.125 C 44.410156 108.378906 35.792969 103.058594 35.792969 97.066406 C 35.792969 91.070312 44.410156 85.753906 58.351562 82.003906 C 71.964844 78.339844 90.757812 76.074219 111.503906 76.074219 Z M 164.222656 83.640625 C 150.746094 80.015625 132.109375 77.769531 111.503906 77.769531 C 90.902344 77.769531 72.265625 80.015625 58.785156 83.640625 C 45.628906 87.179688 37.488281 91.933594 37.488281 97.066406 C 37.488281 102.195312 45.628906 106.949219 58.785156 110.488281 C 72.265625 114.117188 90.902344 116.359375 111.503906 116.359375 C 132.105469 116.359375 150.746094 114.117188 164.222656 110.488281 C 177.382812 106.949219 185.523438 102.195312 185.523438 97.066406 C 185.523438 91.933594 177.382812 87.179688 164.222656 83.640625 " fill-opacity="1" fill-rule="nonzero"/></g><path fill="#d1d1d1" d="M 111.257812 108.257812 C 135.664062 108.257812 155.566406 103.230469 155.566406 97.066406 C 155.566406 90.902344 135.664062 85.875 111.257812 85.875 C 86.847656 85.875 66.941406 90.902344 66.941406 97.066406 C 66.941406 103.230469 86.847656 108.257812 111.257812 108.257812 " fill-opacity="1" fill-rule="evenodd"/><path fill="#121212" d="M 111.257812 85.027344 C 123.566406 85.027344 134.730469 86.292969 142.832031 88.335938 C 151.273438 90.46875 156.492188 93.546875 156.492188 97.066406 C 156.492188 100.585938 151.273438 103.660156 142.832031 105.792969 C 134.730469 107.839844 123.566406 109.101562 111.257812 109.101562 C 98.945312 109.101562 87.777344 107.839844 79.679688 105.792969 C 71.238281 103.660156 66.019531 100.585938 66.019531 97.066406 C 66.019531 93.546875 71.238281 90.46875 79.679688 88.335938 C 87.78125 86.292969 98.945312 85.027344 111.257812 85.027344 Z M 142.347656 89.96875 C 134.410156 87.964844 123.417969 86.722656 111.257812 86.722656 C 99.089844 86.722656 88.101562 87.964844 80.164062 89.96875 C 72.566406 91.886719 67.867188 94.402344 67.867188 97.066406 C 67.867188 99.726562 72.566406 102.246094 80.164062 104.164062 C 88.101562 106.167969 99.089844 107.40625 111.257812 107.40625 C 123.417969 107.40625 134.410156 106.167969 142.347656 104.164062 C 149.945312 102.246094 154.644531 99.726562 154.644531 97.066406 C 154.644531 94.402344 149.945312 91.886719 142.347656 89.96875 " fill-opacity="1" fill-rule="nonzero"/><path fill="#02002b" d="M 112.171875 77.484375 L 122.296875 81.257812 L 112.171875 85.03125 L 102.046875 81.257812 L 112.171875 77.484375 " fill-opacity="1" fill-rule="evenodd"/><path fill="#02002b" d="M 112.171875 108.609375 L 122.296875 112.382812 L 112.171875 116.15625 L 102.046875 112.382812 L 112.171875 108.609375 " fill-opacity="1" fill-rule="evenodd"/><path fill="#02002b" d="M 53.507812 92.511719 L 63.632812 96.714844 L 53.507812 100.917969 L 43.386719 96.714844 L 53.507812 92.511719 " fill-opacity="1" fill-rule="evenodd"/><path fill="#02002b" d="M 170.679688 92.511719 L 180.804688 96.714844 L 170.679688 100.917969 L 160.554688 96.714844 L 170.679688 92.511719 " fill-opacity="1" fill-rule="evenodd"/><path fill="#d1d1d1" d="M 119.722656 71.714844 C 149.832031 71.714844 175.769531 76.535156 187.546875 83.472656 L 189.34375 77.917969 L 194.585938 77.144531 L 194.585938 91.964844 L 194.296875 91.976562 C 194.058594 103.042969 160.765625 112 119.722656 112 C 79.554688 112 46.808594 103.421875 45.207031 92.679688 L 44.855469 92.730469 L 44.855469 77.144531 L 53.390625 82.640625 C 65.777344 76.152344 90.828125 71.714844 119.722656 71.714844 " fill-opacity="1" fill-rule="evenodd"/><path fill="#121212" d="M 119.722656 70.867188 C 134.578125 70.867188 148.433594 72.039062 160.089844 74.054688 C 171.578125 76.050781 180.949219 78.875 187.0625 82.222656 L 188.539062 77.65625 L 189.34375 77.917969 L 188.535156 77.65625 C 188.644531 77.324219 188.9375 77.105469 189.261719 77.074219 L 194.460938 76.304688 C 194.925781 76.234375 195.355469 76.554688 195.425781 77.019531 C 195.429688 77.0625 195.433594 77.101562 195.433594 77.144531 L 195.433594 91.964844 C 195.433594 92.242188 195.300781 92.488281 195.089844 92.644531 C 194.375 98.335938 185.878906 103.371094 172.515625 106.960938 C 158.964844 110.597656 140.308594 112.847656 119.722656 112.847656 C 99.613281 112.847656 81.34375 110.699219 67.875 107.207031 C 54.648438 103.777344 45.964844 98.96875 44.515625 93.507812 C 44.257812 93.394531 44.058594 93.152344 44.015625 92.851562 C 44.007812 92.808594 44.007812 92.769531 44.007812 92.730469 L 44.007812 77.144531 C 44.007812 76.675781 44.386719 76.292969 44.855469 76.292969 C 45.046875 76.292969 45.21875 76.359375 45.363281 76.460938 L 53.441406 81.664062 C 59.820312 78.425781 69.304688 75.707031 80.8125 73.8125 C 92.160156 71.941406 105.484375 70.867188 119.722656 70.867188 Z M 159.800781 75.726562 C 148.246094 73.726562 134.492188 72.5625 119.722656 72.5625 C 105.554688 72.5625 92.328125 73.628906 81.082031 75.480469 C 69.527344 77.386719 60.070312 80.113281 53.851562 83.351562 C 53.582031 83.527344 53.222656 83.539062 52.933594 83.351562 L 45.703125 78.695312 L 45.703125 91.992188 C 45.882812 92.117188 46.011719 92.316406 46.046875 92.554688 L 45.703125 92.605469 L 46.046875 92.554688 C 46.792969 97.570312 55.179688 102.167969 68.296875 105.570312 C 81.625 109.027344 99.746094 111.148438 119.722656 111.148438 C 140.164062 111.148438 158.664062 108.921875 172.078125 105.320312 C 185.144531 101.8125 193.285156 97.101562 193.449219 92.011719 L 193.449219 92.007812 C 193.4375 91.742188 193.550781 91.5 193.738281 91.335938 L 193.738281 78.125 L 189.988281 78.679688 L 188.375 83.664062 C 188.355469 83.746094 188.324219 83.824219 188.28125 83.902344 C 188.042969 84.304688 187.519531 84.4375 187.117188 84.203125 L 187.117188 84.199219 C 181.226562 80.726562 171.6875 77.785156 159.800781 75.726562 Z M 45.363281 76.460938 L 45.703125 77.144531 C 45.703125 76.867188 45.570312 76.617188 45.363281 76.460938 " fill-opacity="1" fill-rule="nonzero"/><path fill="#02002b" d="M 106.464844 96.972656 L 119.722656 96.972656 L 119.722656 111.148438 L 106.464844 110.832031 L 106.464844 96.972656 " fill-opacity="1" fill-rule="evenodd"/><path fill="#02002b" d="M 57.511719 88.355469 L 70.253906 91.824219 L 69.621094 105.914062 L 57.125 101.925781 L 57.511719 88.355469 " fill-opacity="1" fill-rule="evenodd"/><path fill="#02002b" d="M 171.050781 91.855469 L 157.550781 94.570312 L 158.183594 108.265625 L 170.6875 105.6875 L 171.050781 91.855469 " fill-opacity="1" fill-rule="evenodd"/><path fill="#ffffff" d="M 119.71875 97.285156 C 160.953125 97.285156 194.585938 88.238281 194.585938 77.144531 C 194.585938 66.050781 160.953125 57 119.71875 57 C 78.484375 57 44.855469 66.050781 44.855469 77.144531 C 44.855469 88.238281 78.484375 97.285156 119.71875 97.285156 " fill-opacity="1" fill-rule="evenodd"/><path fill="#121212" d="M 119.71875 56.152344 C 140.464844 56.152344 159.261719 58.417969 172.875 62.082031 C 186.8125 65.832031 195.433594 71.148438 195.433594 77.144531 C 195.433594 83.140625 186.8125 88.453125 172.875 92.203125 C 159.261719 95.867188 140.464844 98.132812 119.71875 98.132812 C 98.976562 98.132812 80.179688 95.867188 66.5625 92.203125 C 52.628906 88.453125 44.007812 83.140625 44.007812 77.144531 C 44.007812 71.148438 52.628906 65.832031 66.5625 62.082031 C 80.179688 58.417969 98.976562 56.152344 119.71875 56.152344 Z M 172.4375 63.71875 C 158.960938 60.09375 140.320312 57.847656 119.71875 57.847656 C 99.117188 57.847656 80.480469 60.09375 67 63.71875 C 53.839844 67.257812 45.703125 72.015625 45.703125 77.144531 C 45.703125 82.273438 53.839844 87.027344 67 90.566406 C 80.480469 94.195312 99.117188 96.4375 119.71875 96.4375 C 140.320312 96.4375 158.960938 94.195312 172.4375 90.566406 C 185.597656 87.027344 193.738281 82.273438 193.738281 77.144531 C 193.738281 72.015625 185.597656 67.257812 172.4375 63.71875 " fill-opacity="1" fill-rule="nonzero"/><path fill="#d1d1d1" d="M 119.46875 88.332031 C 143.875 88.332031 163.785156 83.308594 163.785156 77.144531 C 163.785156 70.980469 143.875 65.953125 119.46875 65.953125 C 95.0625 65.953125 75.15625 70.980469 75.15625 77.144531 C 75.15625 83.308594 95.0625 88.332031 119.46875 88.332031 " fill-opacity="1" fill-rule="evenodd"/><path fill="#121212" d="M 119.46875 65.105469 C 131.777344 65.105469 142.945312 66.371094 151.046875 68.414062 C 159.484375 70.546875 164.707031 73.625 164.707031 77.144531 C 164.707031 80.664062 159.484375 83.738281 151.046875 85.871094 C 142.945312 87.917969 131.777344 89.183594 119.46875 89.183594 C 107.160156 89.183594 95.992188 87.917969 87.890625 85.871094 C 79.453125 83.738281 74.230469 80.664062 74.230469 77.144531 C 74.230469 73.625 79.453125 70.546875 87.894531 68.414062 C 95.992188 66.371094 107.160156 65.105469 119.46875 65.105469 Z M 150.5625 70.046875 C 142.625 68.042969 131.632812 66.800781 119.46875 66.800781 C 107.304688 66.800781 96.316406 68.042969 88.378906 70.046875 C 80.78125 71.964844 76.078125 74.484375 76.078125 77.144531 C 76.078125 79.804688 80.78125 82.324219 88.378906 84.238281 C 96.316406 86.246094 107.304688 87.484375 119.46875 87.484375 C 131.632812 87.484375 142.625 86.246094 150.5625 84.238281 C 158.160156 82.324219 162.859375 79.804688 162.859375 77.144531 C 162.859375 74.484375 158.160156 71.964844 150.5625 70.046875 " fill-opacity="1" fill-rule="nonzero"/><path fill="#02002b" d="M 120.386719 57.5625 L 130.507812 61.332031 L 120.386719 65.109375 L 110.261719 61.332031 L 120.386719 57.5625 " fill-opacity="1" fill-rule="evenodd"/><path fill="#02002b" d="M 120.386719 88.6875 L 130.507812 92.460938 L 120.386719 96.234375 L 110.261719 92.460938 L 120.386719 88.6875 " fill-opacity="1" fill-rule="evenodd"/><path fill="#02002b" d="M 61.722656 72.589844 L 71.847656 76.792969 L 61.722656 80.996094 L 51.601562 76.792969 L 61.722656 72.589844 " fill-opacity="1" fill-rule="evenodd"/><path fill="#02002b" d="M 178.894531 72.589844 L 189.015625 76.792969 L 178.894531 80.996094 L 168.769531 76.792969 L 178.894531 72.589844 " fill-opacity="1" fill-rule="evenodd"/><path fill="#d1d1d1" d="M 112.109375 55.613281 C 142.21875 55.613281 168.15625 60.433594 179.9375 67.367188 L 181.734375 61.8125 L 186.972656 61.039062 L 186.972656 75.859375 L 186.683594 75.871094 C 186.449219 86.941406 153.152344 95.894531 112.109375 95.894531 C 71.941406 95.894531 39.195312 87.320312 37.597656 76.578125 L 37.242188 76.625 L 37.242188 61.039062 L 45.777344 66.539062 C 58.164062 60.050781 83.21875 55.613281 112.109375 55.613281 " fill-opacity="1" fill-rule="evenodd"/><path fill="#121212" d="M 112.109375 54.761719 C 126.96875 54.761719 140.820312 55.933594 152.476562 57.957031 C 163.96875 59.945312 173.335938 62.773438 179.449219 66.121094 L 180.925781 61.558594 L 181.734375 61.8125 L 180.925781 61.554688 C 181.03125 61.222656 181.324219 61.003906 181.652344 60.96875 L 186.847656 60.203125 C 187.3125 60.132812 187.746094 60.453125 187.8125 60.917969 C 187.816406 60.957031 187.820312 61 187.820312 61.039062 L 187.820312 75.859375 C 187.820312 76.140625 187.6875 76.386719 187.480469 76.542969 C 186.761719 82.234375 178.265625 87.269531 164.90625 90.855469 C 151.351562 94.496094 132.695312 96.746094 112.109375 96.746094 C 92.003906 96.746094 73.734375 94.597656 60.261719 91.105469 C 47.035156 87.675781 38.351562 82.867188 36.90625 77.40625 C 36.644531 77.292969 36.449219 77.050781 36.402344 76.75 C 36.398438 76.707031 36.394531 76.667969 36.394531 76.625 L 36.394531 61.039062 C 36.394531 60.574219 36.773438 60.191406 37.242188 60.191406 C 37.433594 60.191406 37.609375 60.253906 37.75 60.363281 L 45.828125 65.5625 C 52.207031 62.320312 61.691406 59.605469 73.199219 57.710938 C 84.546875 55.839844 97.871094 54.761719 112.109375 54.761719 Z M 152.191406 59.625 C 140.636719 57.621094 126.878906 56.460938 112.109375 56.460938 C 97.945312 56.460938 84.714844 57.527344 73.46875 59.378906 C 61.914062 61.285156 52.457031 64.007812 46.242188 67.25 C 45.96875 67.425781 45.609375 67.4375 45.320312 67.25 L 38.09375 62.59375 L 38.09375 75.886719 C 38.269531 76.019531 38.402344 76.214844 38.433594 76.453125 L 38.09375 76.503906 L 38.433594 76.453125 C 39.179688 81.46875 47.566406 86.066406 60.6875 89.46875 C 74.015625 92.921875 92.132812 95.046875 112.109375 95.046875 C 132.550781 95.046875 151.054688 92.820312 164.46875 89.21875 C 177.535156 85.710938 185.671875 81 185.835938 75.910156 L 185.835938 75.90625 C 185.824219 75.640625 185.9375 75.398438 186.125 75.234375 L 186.125 62.023438 L 182.375 62.578125 L 180.761719 67.5625 C 180.742188 67.644531 180.710938 67.722656 180.667969 67.800781 C 180.429688 68.203125 179.910156 68.339844 179.503906 68.101562 L 179.507812 68.097656 C 173.613281 64.625 164.074219 61.683594 152.191406 59.625 Z M 37.75 60.363281 L 38.09375 61.039062 C 38.09375 60.761719 37.957031 60.515625 37.75 60.363281 " fill-opacity="1" fill-rule="nonzero"/><path fill="#02002b" d="M 98.851562 80.867188 L 112.109375 80.867188 L 112.109375 95.046875 L 98.851562 94.730469 L 98.851562 80.867188 " fill-opacity="1" fill-rule="evenodd"/><path fill="#02002b" d="M 49.902344 72.25 L 62.644531 75.722656 L 62.007812 89.8125 L 49.511719 85.820312 L 49.902344 72.25 " fill-opacity="1" fill-rule="evenodd"/><path fill="#02002b" d="M 163.4375 75.753906 L 149.9375 78.46875 L 150.574219 92.164062 L 163.074219 89.585938 L 163.4375 75.753906 " fill-opacity="1" fill-rule="evenodd"/><path fill="#ffffff" d="M 112.109375 81.183594 C 153.34375 81.183594 186.972656 72.136719 186.972656 61.039062 C 186.972656 49.949219 153.34375 40.898438 112.109375 40.898438 C 70.875 40.898438 37.242188 49.949219 37.242188 61.039062 C 37.242188 72.136719 70.875 81.183594 112.109375 81.183594 " fill-opacity="1" fill-rule="evenodd"/><path fill="#121212" d="M 112.109375 40.050781 C 132.851562 40.050781 151.648438 42.316406 165.261719 45.980469 C 179.203125 49.730469 187.820312 55.046875 187.820312 61.039062 C 187.820312 67.035156 179.203125 72.351562 165.261719 76.101562 C 151.648438 79.765625 132.851562 82.03125 112.109375 82.03125 C 91.363281 82.03125 72.566406 79.765625 58.953125 76.101562 C 45.015625 72.351562 36.394531 67.035156 36.394531 61.039062 C 36.394531 55.046875 45.015625 49.730469 58.953125 45.980469 C 72.566406 42.316406 91.363281 40.050781 112.109375 40.050781 Z M 164.824219 47.617188 C 151.347656 43.992188 132.710938 41.746094 112.109375 41.746094 C 91.503906 41.746094 72.867188 43.992188 59.390625 47.617188 C 46.230469 51.160156 38.09375 55.914062 38.09375 61.039062 C 38.09375 66.171875 46.230469 70.925781 59.390625 74.464844 C 72.867188 78.089844 91.503906 80.335938 112.109375 80.335938 C 132.710938 80.335938 151.347656 78.089844 164.828125 74.464844 C 177.984375 70.925781 186.125 66.171875 186.125 61.039062 C 186.125 55.914062 177.984375 51.160156 164.824219 47.617188 " fill-opacity="1" fill-rule="nonzero"/><path fill="#d1d1d1" d="M 111.855469 72.230469 C 136.265625 72.230469 156.171875 67.203125 156.171875 61.039062 C 156.171875 54.878906 136.265625 49.851562 111.855469 49.851562 C 87.449219 49.851562 67.542969 54.878906 67.542969 61.039062 C 67.542969 67.203125 87.449219 72.230469 111.855469 72.230469 " fill-opacity="1" fill-rule="evenodd"/><path fill="#121212" d="M 111.855469 49.003906 C 124.167969 49.003906 135.332031 50.269531 143.433594 52.3125 C 151.875 54.445312 157.09375 57.523438 157.09375 61.039062 C 157.09375 64.558594 151.875 67.636719 143.433594 69.769531 C 135.332031 71.816406 124.167969 73.082031 111.855469 73.082031 C 99.546875 73.082031 88.382812 71.816406 80.28125 69.769531 C 71.839844 67.636719 66.621094 64.558594 66.621094 61.039062 C 66.621094 57.523438 71.839844 54.445312 80.28125 52.3125 C 88.382812 50.269531 99.546875 49.003906 111.855469 49.003906 Z M 142.949219 53.945312 C 135.011719 51.9375 124.023438 50.699219 111.855469 50.699219 C 99.695312 50.699219 88.703125 51.9375 80.765625 53.945312 C 73.167969 55.863281 68.46875 58.378906 68.46875 61.039062 C 68.46875 63.703125 73.167969 66.21875 80.765625 68.140625 C 88.703125 70.140625 99.695312 71.382812 111.855469 71.382812 C 124.023438 71.382812 135.011719 70.140625 142.949219 68.140625 C 150.546875 66.21875 155.246094 63.703125 155.246094 61.039062 C 155.246094 58.378906 150.546875 55.863281 142.949219 53.945312 " fill-opacity="1" fill-rule="nonzero"/><path fill="#02002b" d="M 112.773438 41.457031 L 122.898438 45.234375 L 112.773438 49.007812 L 102.648438 45.234375 L 112.773438 41.457031 " fill-opacity="1" fill-rule="evenodd"/><path fill="#02002b" d="M 112.773438 72.585938 L 122.898438 76.359375 L 112.773438 80.132812 L 102.648438 76.359375 L 112.773438 72.585938 " fill-opacity="1" fill-rule="evenodd"/><path fill="#02002b" d="M 54.109375 56.488281 L 64.234375 60.691406 L 54.109375 64.894531 L 43.988281 60.691406 L 54.109375 56.488281 " fill-opacity="1" fill-rule="evenodd"/><path fill="#02002b" d="M 171.28125 56.488281 L 181.40625 60.691406 L 171.28125 64.894531 L 161.15625 60.691406 L 171.28125 56.488281 " fill-opacity="1" fill-rule="evenodd"/><path fill="#d1d1d1" d="M 121.933594 31.929688 C 152.042969 31.929688 177.980469 36.75 189.757812 43.6875 L 191.558594 38.132812 L 196.796875 37.359375 L 196.796875 52.179688 L 196.507812 52.191406 C 196.273438 63.261719 162.976562 72.214844 121.933594 72.214844 C 81.765625 72.214844 49.019531 63.636719 47.421875 52.894531 L 47.066406 52.945312 L 47.066406 37.359375 L 55.601562 42.855469 C 67.988281 36.367188 93.042969 31.929688 121.933594 31.929688 " fill-opacity="1" fill-rule="evenodd"/><g clip-path="url(#973b7eac6a)"><path fill="#121212" d="M 121.933594 31.082031 C 136.792969 31.082031 150.644531 32.253906 162.300781 34.273438 C 173.789062 36.265625 183.160156 39.089844 189.273438 42.441406 L 190.75 37.875 L 191.558594 38.132812 L 190.75 37.871094 C 190.855469 37.539062 191.148438 37.320312 191.476562 37.289062 L 196.671875 36.523438 L 196.671875 36.519531 C 197.136719 36.453125 197.566406 36.773438 197.636719 37.234375 C 197.640625 37.277344 197.644531 37.320312 197.644531 37.359375 L 197.644531 52.179688 C 197.644531 52.457031 197.511719 52.707031 197.304688 52.859375 C 196.585938 58.554688 188.089844 63.589844 174.730469 67.175781 C 161.175781 70.816406 142.519531 73.0625 121.933594 73.0625 C 101.828125 73.0625 83.554688 70.914062 70.085938 67.425781 C 56.859375 63.996094 48.175781 59.183594 46.730469 53.722656 C 46.46875 53.609375 46.269531 53.367188 46.226562 53.066406 C 46.222656 53.027344 46.21875 52.988281 46.21875 52.945312 L 46.21875 37.359375 C 46.21875 36.890625 46.597656 36.511719 47.066406 36.511719 C 47.253906 36.511719 47.433594 36.574219 47.574219 36.679688 L 55.652344 41.882812 C 62.027344 38.640625 71.515625 35.921875 83.019531 34.027344 C 94.371094 32.160156 107.695312 31.082031 121.933594 31.082031 Z M 162.015625 35.945312 C 150.460938 33.941406 136.703125 32.78125 121.933594 32.78125 C 107.769531 32.78125 94.539062 33.847656 83.292969 35.699219 C 71.738281 37.601562 62.28125 40.328125 56.0625 43.570312 C 55.792969 43.746094 55.433594 43.757812 55.144531 43.570312 L 55.144531 43.566406 L 47.914062 38.914062 L 47.914062 52.207031 C 48.09375 52.335938 48.226562 52.535156 48.257812 52.769531 L 47.914062 52.820312 L 47.914062 52.824219 L 48.257812 52.773438 C 49.003906 57.785156 57.390625 62.386719 70.511719 65.785156 C 83.835938 69.242188 101.957031 71.363281 121.933594 71.363281 C 142.375 71.363281 160.878906 69.140625 174.292969 65.539062 C 187.359375 62.03125 195.496094 57.320312 195.660156 52.226562 C 195.648438 51.960938 195.761719 51.714844 195.949219 51.554688 L 195.949219 38.339844 L 192.199219 38.894531 L 190.585938 43.882812 C 190.566406 43.960938 190.535156 44.042969 190.488281 44.117188 C 190.253906 44.519531 189.730469 44.65625 189.328125 44.417969 L 189.332031 44.417969 C 183.4375 40.945312 173.898438 38.003906 162.015625 35.945312 Z M 47.574219 36.679688 L 47.914062 37.359375 C 47.914062 37.082031 47.78125 36.835938 47.574219 36.679688 " fill-opacity="1" fill-rule="nonzero"/></g><path fill="#02002b" d="M 108.675781 57.1875 L 121.933594 57.1875 L 121.933594 71.363281 L 108.675781 71.046875 L 108.675781 57.1875 " fill-opacity="1" fill-rule="evenodd"/><path fill="#02002b" d="M 59.726562 48.570312 L 72.46875 52.042969 L 71.832031 66.128906 L 59.335938 62.140625 L 59.726562 48.570312 " fill-opacity="1" fill-rule="evenodd"/><path fill="#02002b" d="M 173.261719 52.074219 L 159.761719 54.789062 L 160.394531 68.484375 L 172.898438 65.902344 L 173.261719 52.074219 " fill-opacity="1" fill-rule="evenodd"/><path fill="#ffffff" d="M 121.929688 57.503906 C 163.164062 57.503906 196.796875 48.453125 196.796875 37.359375 C 196.796875 26.265625 163.164062 17.21875 121.929688 17.21875 C 80.699219 17.21875 47.066406 26.265625 47.066406 37.359375 C 47.066406 48.453125 80.699219 57.503906 121.929688 57.503906 " fill-opacity="1" fill-rule="evenodd"/><g clip-path="url(#f55fe1fafe)"><path fill="#121212" d="M 121.929688 16.367188 C 142.675781 16.367188 161.472656 18.636719 175.085938 22.300781 C 189.027344 26.046875 197.644531 31.363281 197.644531 37.359375 C 197.644531 43.355469 189.027344 48.671875 175.085938 52.421875 C 161.472656 56.085938 142.675781 58.351562 121.929688 58.351562 C 101.1875 58.351562 82.390625 56.085938 68.777344 52.421875 C 54.839844 48.671875 46.21875 43.355469 46.21875 37.359375 C 46.21875 31.363281 54.839844 26.046875 68.777344 22.300781 C 82.390625 18.636719 101.1875 16.367188 121.929688 16.367188 Z M 174.648438 23.9375 C 161.171875 20.308594 142.535156 18.066406 121.929688 18.066406 C 101.328125 18.066406 82.691406 20.308594 69.210938 23.9375 C 56.054688 27.476562 47.914062 32.230469 47.914062 37.359375 C 47.914062 42.488281 56.054688 47.246094 69.210938 50.785156 C 82.691406 54.410156 101.328125 56.652344 121.929688 56.652344 C 142.535156 56.652344 161.171875 54.410156 174.648438 50.785156 C 187.808594 47.246094 195.949219 42.488281 195.949219 37.359375 C 195.949219 32.230469 187.808594 27.476562 174.648438 23.9375 " fill-opacity="1" fill-rule="nonzero"/></g><path fill="#d1d1d1" d="M 121.679688 48.550781 C 146.089844 48.550781 165.992188 43.523438 165.992188 37.359375 C 165.992188 31.195312 146.089844 26.171875 121.679688 26.171875 C 97.273438 26.171875 77.367188 31.195312 77.367188 37.359375 C 77.367188 43.523438 97.273438 48.550781 121.679688 48.550781 " fill-opacity="1" fill-rule="evenodd"/><path fill="#121212" d="M 121.679688 25.320312 C 133.992188 25.320312 145.15625 26.585938 153.257812 28.632812 C 161.699219 30.761719 166.917969 33.839844 166.917969 37.359375 C 166.917969 40.878906 161.699219 43.957031 153.257812 46.089844 C 145.15625 48.132812 133.992188 49.398438 121.679688 49.398438 C 109.371094 49.398438 98.203125 48.132812 90.105469 46.089844 C 81.664062 43.957031 76.445312 40.878906 76.445312 37.359375 C 76.445312 33.839844 81.664062 30.761719 90.105469 28.632812 C 98.207031 26.585938 109.371094 25.320312 121.679688 25.320312 Z M 152.773438 30.261719 C 144.835938 28.257812 133.84375 27.019531 121.679688 27.019531 C 109.515625 27.019531 98.527344 28.257812 90.589844 30.261719 C 82.992188 32.179688 78.292969 34.699219 78.292969 37.359375 C 78.292969 40.019531 82.992188 42.539062 90.589844 44.457031 C 98.527344 46.460938 109.515625 47.703125 121.679688 47.703125 C 133.84375 47.703125 144.835938 46.460938 152.773438 44.457031 C 160.371094 42.539062 165.070312 40.019531 165.070312 37.359375 C 165.070312 34.699219 160.371094 32.179688 152.773438 30.261719 " fill-opacity="1" fill-rule="nonzero"/><path fill="#02002b" d="M 122.597656 17.777344 L 132.722656 21.550781 L 122.597656 25.328125 L 112.472656 21.550781 L 122.597656 17.777344 " fill-opacity="1" fill-rule="evenodd"/><path fill="#02002b" d="M 122.597656 48.902344 L 132.722656 52.679688 L 122.597656 56.449219 L 112.472656 52.679688 L 122.597656 48.902344 " fill-opacity="1" fill-rule="evenodd"/><path fill="#02002b" d="M 63.933594 32.804688 L 74.058594 37.007812 L 63.933594 41.210938 L 53.8125 37.007812 L 63.933594 32.804688 " fill-opacity="1" fill-rule="evenodd"/><path fill="#02002b" d="M 181.105469 32.804688 L 191.230469 37.007812 L 181.105469 41.210938 L 170.980469 37.007812 L 181.105469 32.804688 " fill-opacity="1" fill-rule="evenodd"/><path fill="#d1d1d1" d="M 112.109375 15.621094 C 142.21875 15.621094 168.15625 20.441406 179.9375 27.378906 L 181.734375 21.824219 L 186.972656 21.050781 L 186.972656 35.871094 L 186.683594 35.878906 C 186.449219 46.953125 153.152344 55.90625 112.109375 55.90625 C 71.941406 55.90625 39.195312 47.328125 37.597656 36.585938 L 37.242188 36.636719 L 37.242188 21.050781 L 45.777344 26.546875 C 58.164062 20.058594 83.21875 15.621094 112.109375 15.621094 " fill-opacity="1" fill-rule="evenodd"/><path fill="#121212" d="M 112.109375 14.773438 C 126.96875 14.773438 140.820312 15.945312 152.476562 17.964844 C 163.96875 19.957031 173.335938 22.78125 179.449219 26.128906 L 180.925781 21.566406 L 181.734375 21.824219 L 180.925781 21.5625 C 181.03125 21.230469 181.324219 21.011719 181.652344 20.980469 L 186.847656 20.210938 C 187.3125 20.144531 187.746094 20.464844 187.8125 20.925781 C 187.816406 20.96875 187.820312 21.007812 187.820312 21.050781 L 187.820312 35.871094 C 187.820312 36.148438 187.6875 36.394531 187.480469 36.550781 C 186.761719 42.242188 178.265625 47.277344 164.90625 50.867188 C 151.351562 54.507812 132.695312 56.753906 112.109375 56.753906 C 92.003906 56.753906 73.734375 54.605469 60.261719 51.113281 C 47.035156 47.683594 38.351562 42.875 36.90625 37.414062 C 36.644531 37.300781 36.449219 37.0625 36.402344 36.757812 C 36.398438 36.71875 36.394531 36.675781 36.394531 36.636719 L 36.394531 21.050781 C 36.394531 20.582031 36.773438 20.203125 37.242188 20.203125 C 37.433594 20.203125 37.609375 20.265625 37.75 20.371094 L 45.828125 25.570312 C 52.207031 22.328125 61.691406 19.613281 73.199219 17.71875 C 84.546875 15.851562 97.871094 14.773438 112.109375 14.773438 Z M 152.191406 19.632812 C 140.636719 17.628906 126.878906 16.46875 112.109375 16.46875 C 97.945312 16.46875 84.714844 17.535156 73.46875 19.390625 C 61.914062 21.292969 52.457031 24.019531 46.242188 27.257812 C 45.96875 27.433594 45.609375 27.445312 45.320312 27.257812 L 38.09375 22.605469 L 38.09375 35.898438 C 38.269531 36.027344 38.402344 36.226562 38.433594 36.460938 L 38.09375 36.511719 L 38.433594 36.464844 C 39.179688 41.476562 47.566406 46.078125 60.6875 49.476562 C 74.015625 52.933594 92.132812 55.058594 112.109375 55.058594 C 132.550781 55.058594 151.054688 52.832031 164.46875 49.230469 C 177.535156 45.71875 185.671875 41.007812 185.835938 35.917969 L 185.835938 35.914062 C 185.824219 35.648438 185.9375 35.40625 186.125 35.246094 L 186.125 22.035156 L 182.375 22.585938 L 180.761719 27.574219 C 180.742188 27.652344 180.710938 27.734375 180.667969 27.808594 C 180.429688 28.210938 179.910156 28.347656 179.503906 28.109375 L 179.507812 28.105469 C 173.613281 24.636719 164.074219 21.695312 152.191406 19.632812 Z M 37.75 20.371094 L 38.09375 21.050781 C 38.09375 20.773438 37.957031 20.523438 37.75 20.371094 " fill-opacity="1" fill-rule="nonzero"/><path fill="#02002b" d="M 98.851562 40.878906 L 112.109375 40.878906 L 112.109375 55.058594 L 98.851562 54.738281 L 98.851562 40.878906 " fill-opacity="1" fill-rule="evenodd"/><path fill="#02002b" d="M 49.902344 32.261719 L 62.644531 35.730469 L 62.007812 49.820312 L 49.511719 45.828125 L 49.902344 32.261719 " fill-opacity="1" fill-rule="evenodd"/><path fill="#02002b" d="M 163.4375 35.765625 L 149.9375 38.476562 L 150.574219 52.171875 L 163.074219 49.59375 L 163.4375 35.765625 " fill-opacity="1" fill-rule="evenodd"/><g clip-path="url(#aeb6ffd061)"><path fill="#ffffff" d="M 112.109375 41.191406 C 153.34375 41.191406 186.972656 32.144531 186.972656 21.050781 C 186.972656 9.957031 153.34375 0.910156 112.109375 0.910156 C 70.875 0.910156 37.242188 9.957031 37.242188 21.050781 C 37.242188 32.144531 70.875 41.191406 112.109375 41.191406 " fill-opacity="1" fill-rule="evenodd"/></g><g clip-path="url(#09d0faab6d)"><path fill="#121212" d="M 112.109375 0.0585938 C 132.851562 0.0585938 151.648438 2.324219 165.261719 5.988281 C 179.203125 9.738281 187.820312 15.054688 187.820312 21.050781 C 187.820312 27.042969 179.203125 32.363281 165.261719 36.113281 C 151.648438 39.777344 132.851562 42.042969 112.109375 42.042969 C 91.363281 42.042969 72.566406 39.777344 58.953125 36.113281 C 45.015625 32.363281 36.394531 27.042969 36.394531 21.050781 C 36.394531 15.054688 45.015625 9.738281 58.953125 5.988281 C 72.566406 2.324219 91.363281 0.0585938 112.109375 0.0585938 Z M 164.824219 7.625 C 151.347656 4 132.710938 1.757812 112.109375 1.757812 C 91.503906 1.757812 72.867188 4 59.390625 7.625 C 46.230469 11.167969 38.09375 15.921875 38.09375 21.050781 C 38.09375 26.179688 46.230469 30.933594 59.390625 34.472656 C 72.867188 38.101562 91.503906 40.34375 112.109375 40.34375 C 132.710938 40.34375 151.347656 38.101562 164.828125 34.472656 C 177.984375 30.933594 186.125 26.179688 186.125 21.050781 C 186.125 15.921875 177.984375 11.167969 164.824219 7.625 " fill-opacity="1" fill-rule="nonzero"/></g><path fill="#d1d1d1" d="M 111.855469 32.242188 C 136.265625 32.242188 156.171875 27.214844 156.171875 21.050781 C 156.171875 14.886719 136.265625 9.859375 111.855469 9.859375 C 87.449219 9.859375 67.542969 14.886719 67.542969 21.050781 C 67.542969 27.214844 87.449219 32.242188 111.855469 32.242188 " fill-opacity="1" fill-rule="evenodd"/><path fill="#121212" d="M 111.855469 9.011719 C 124.167969 9.011719 135.332031 10.277344 143.433594 12.324219 C 151.875 14.453125 157.09375 17.53125 157.09375 21.050781 C 157.09375 24.566406 151.875 27.648438 143.433594 29.777344 C 135.332031 31.824219 124.167969 33.089844 111.855469 33.089844 C 99.546875 33.089844 88.382812 31.824219 80.28125 29.777344 C 71.839844 27.648438 66.621094 24.566406 66.621094 21.050781 C 66.621094 17.53125 71.839844 14.453125 80.28125 12.324219 C 88.382812 10.277344 99.546875 9.011719 111.855469 9.011719 Z M 142.949219 13.953125 C 135.011719 11.949219 124.023438 10.707031 111.855469 10.707031 C 99.695312 10.707031 88.703125 11.949219 80.765625 13.953125 C 73.167969 15.871094 68.46875 18.390625 68.46875 21.050781 C 68.46875 23.710938 73.167969 26.230469 80.765625 28.148438 C 88.703125 30.152344 99.695312 31.390625 111.855469 31.390625 C 124.023438 31.390625 135.011719 30.152344 142.949219 28.148438 C 150.546875 26.230469 155.246094 23.710938 155.246094 21.050781 C 155.246094 18.390625 150.546875 15.871094 142.949219 13.953125 " fill-opacity="1" fill-rule="nonzero"/><path fill="#02002b" d="M 112.773438 1.464844 L 122.898438 5.242188 L 112.773438 9.015625 L 102.648438 5.242188 L 112.773438 1.464844 " fill-opacity="1" fill-rule="evenodd"/><path fill="#02002b" d="M 112.773438 32.59375 L 122.898438 36.367188 L 112.773438 40.140625 L 102.648438 36.367188 L 112.773438 32.59375 " fill-opacity="1" fill-rule="evenodd"/><path fill="#02002b" d="M 54.109375 16.496094 L 64.234375 20.699219 L 54.109375 24.90625 L 43.988281 20.699219 L 54.109375 16.496094 " fill-opacity="1" fill-rule="evenodd"/><path fill="#02002b" d="M 171.28125 16.496094 L 181.40625 20.699219 L 171.28125 24.90625 L 161.15625 20.699219 L 171.28125 16.496094 " fill-opacity="1" fill-rule="evenodd"/><path fill="#d1d1d1" d="M 111.507812 91.636719 C 141.617188 91.636719 167.554688 96.453125 179.332031 103.390625 L 181.132812 97.839844 L 186.371094 97.066406 L 186.371094 111.886719 L 186.082031 111.894531 C 185.847656 122.964844 152.550781 131.921875 111.507812 131.921875 C 71.339844 131.921875 38.59375 123.34375 36.996094 112.601562 L 36.640625 112.652344 L 36.640625 97.066406 L 45.175781 102.5625 C 57.5625 96.070312 82.617188 91.636719 111.507812 91.636719 " fill-opacity="1" fill-rule="evenodd"/><g clip-path="url(#19d570577f)"><path fill="#121212" d="M 111.507812 90.789062 C 126.367188 90.789062 140.21875 91.960938 151.875 93.976562 C 163.363281 95.972656 172.734375 98.796875 178.847656 102.144531 L 180.324219 97.578125 L 181.132812 97.839844 L 180.324219 97.578125 C 180.429688 97.246094 180.722656 97.027344 181.046875 96.996094 L 186.246094 96.226562 C 186.710938 96.15625 187.140625 96.480469 187.210938 96.941406 C 187.214844 96.984375 187.21875 97.023438 187.21875 97.066406 L 187.21875 111.886719 C 187.21875 112.164062 187.085938 112.410156 186.878906 112.5625 C 186.160156 118.257812 177.664062 123.292969 164.304688 126.882812 C 150.753906 130.519531 132.09375 132.769531 111.507812 132.769531 C 91.402344 132.769531 73.128906 130.621094 59.660156 127.128906 C 46.433594 123.699219 37.75 118.890625 36.304688 113.429688 C 36.042969 113.316406 35.84375 113.074219 35.800781 112.773438 C 35.796875 112.730469 35.792969 112.691406 35.792969 112.652344 L 35.792969 97.066406 C 35.792969 96.597656 36.171875 96.214844 36.640625 96.214844 C 36.828125 96.214844 37.007812 96.28125 37.148438 96.382812 L 45.226562 101.585938 C 51.601562 98.34375 61.089844 95.628906 72.59375 93.734375 C 83.945312 91.863281 97.269531 90.789062 111.507812 90.789062 Z M 151.589844 95.648438 C 140.035156 93.648438 126.277344 92.484375 111.507812 92.484375 C 97.34375 92.484375 84.113281 93.550781 72.867188 95.402344 C 61.308594 97.308594 51.855469 100.035156 45.636719 103.273438 C 45.367188 103.449219 45.007812 103.460938 44.71875 103.277344 L 44.71875 103.273438 L 37.488281 98.617188 L 37.488281 111.914062 C 37.667969 112.042969 37.800781 112.238281 37.832031 112.476562 L 37.488281 112.527344 L 37.832031 112.476562 C 38.578125 117.492188 46.964844 122.089844 60.085938 125.492188 C 73.410156 128.949219 91.53125 131.070312 111.507812 131.070312 C 131.949219 131.070312 150.453125 128.84375 163.867188 125.242188 C 176.933594 121.734375 185.070312 117.023438 185.234375 111.933594 L 185.234375 111.929688 C 185.222656 111.664062 185.335938 111.421875 185.523438 111.257812 L 185.523438 98.046875 L 181.773438 98.601562 L 180.160156 103.585938 C 180.140625 103.667969 180.109375 103.746094 180.0625 103.824219 C 179.828125 104.226562 179.304688 104.359375 178.902344 104.125 L 178.902344 104.121094 C 173.011719 100.648438 163.472656 97.707031 151.589844 95.648438 Z M 37.148438 96.382812 L 37.488281 97.066406 C 37.488281 96.789062 37.355469 96.539062 37.148438 96.382812 " fill-opacity="1" fill-rule="nonzero"/></g><path fill="#ff0000" d="M 98.25 116.894531 L 111.507812 116.894531 L 111.507812 131.070312 L 98.25 130.753906 L 98.25 116.894531 " fill-opacity="1" fill-rule="evenodd"/><path fill="#ff0000" d="M 49.300781 108.277344 L 62.042969 111.746094 L 61.40625 125.835938 L 48.910156 121.84375 L 49.300781 108.277344 " fill-opacity="1" fill-rule="evenodd"/><path fill="#ff0000" d="M 162.835938 111.777344 L 149.335938 114.492188 L 149.96875 128.1875 L 162.472656 125.609375 L 162.835938 111.777344 " fill-opacity="1" fill-rule="evenodd"/><path fill="#ffffff" d="M 111.503906 117.207031 C 152.738281 117.207031 186.371094 108.160156 186.371094 97.066406 C 186.371094 85.96875 152.738281 76.921875 111.503906 76.921875 C 70.273438 76.921875 36.640625 85.96875 36.640625 97.066406 C 36.640625 108.160156 70.273438 117.207031 111.503906 117.207031 " fill-opacity="1" fill-rule="evenodd"/><g clip-path="url(#3f15f446a7)"><path fill="#121212" d="M 111.503906 76.074219 C 132.25 76.074219 151.046875 78.339844 164.660156 82.003906 C 178.601562 85.753906 187.21875 91.070312 187.21875 97.066406 C 187.21875 103.058594 178.601562 108.378906 164.660156 112.125 C 151.046875 115.789062 132.25 118.054688 111.503906 118.054688 C 90.757812 118.054688 71.964844 115.789062 58.351562 112.125 C 44.410156 108.378906 35.792969 103.058594 35.792969 97.066406 C 35.792969 91.070312 44.410156 85.753906 58.351562 82.003906 C 71.964844 78.339844 90.757812 76.074219 111.503906 76.074219 Z M 164.222656 83.640625 C 150.746094 80.015625 132.109375 77.769531 111.503906 77.769531 C 90.902344 77.769531 72.265625 80.015625 58.785156 83.640625 C 45.628906 87.179688 37.488281 91.933594 37.488281 97.066406 C 37.488281 102.195312 45.628906 106.949219 58.785156 110.488281 C 72.265625 114.117188 90.902344 116.359375 111.503906 116.359375 C 132.105469 116.359375 150.746094 114.117188 164.222656 110.488281 C 177.382812 106.949219 185.523438 102.195312 185.523438 97.066406 C 185.523438 91.933594 177.382812 87.179688 164.222656 83.640625 " fill-opacity="1" fill-rule="nonzero"/></g><path fill="#d1d1d1" d="M 111.257812 108.257812 C 135.664062 108.257812 155.566406 103.230469 155.566406 97.066406 C 155.566406 90.902344 135.664062 85.875 111.257812 85.875 C 86.847656 85.875 66.941406 90.902344 66.941406 97.066406 C 66.941406 103.230469 86.847656 108.257812 111.257812 108.257812 " fill-opacity="1" fill-rule="evenodd"/><path fill="#121212" d="M 111.257812 85.027344 C 123.566406 85.027344 134.730469 86.292969 142.832031 88.335938 C 151.273438 90.46875 156.492188 93.546875 156.492188 97.066406 C 156.492188 100.585938 151.273438 103.660156 142.832031 105.792969 C 134.730469 107.839844 123.566406 109.101562 111.257812 109.101562 C 98.945312 109.101562 87.777344 107.839844 79.679688 105.792969 C 71.238281 103.660156 66.019531 100.585938 66.019531 97.066406 C 66.019531 93.546875 71.238281 90.46875 79.679688 88.335938 C 87.78125 86.292969 98.945312 85.027344 111.257812 85.027344 Z M 142.347656 89.96875 C 134.410156 87.964844 123.417969 86.722656 111.257812 86.722656 C 99.089844 86.722656 88.101562 87.964844 80.164062 89.96875 C 72.566406 91.886719 67.867188 94.402344 67.867188 97.066406 C 67.867188 99.726562 72.566406 102.246094 80.164062 104.164062 C 88.101562 106.167969 99.089844 107.40625 111.257812 107.40625 C 123.417969 107.40625 134.410156 106.167969 142.347656 104.164062 C 149.945312 102.246094 154.644531 99.726562 154.644531 97.066406 C 154.644531 94.402344 149.945312 91.886719 142.347656 89.96875 " fill-opacity="1" fill-rule="nonzero"/><path fill="#ff0000" d="M 112.171875 77.484375 L 122.296875 81.257812 L 112.171875 85.03125 L 102.046875 81.257812 L 112.171875 77.484375 " fill-opacity="1" fill-rule="evenodd"/><path fill="#ff0000" d="M 112.171875 108.609375 L 122.296875 112.382812 L 112.171875 116.15625 L 102.046875 112.382812 L 112.171875 108.609375 " fill-opacity="1" fill-rule="evenodd"/><path fill="#ff0000" d="M 53.507812 92.511719 L 63.632812 96.714844 L 53.507812 100.917969 L 43.386719 96.714844 L 53.507812 92.511719 " fill-opacity="1" fill-rule="evenodd"/><path fill="#ff0000" d="M 170.679688 92.511719 L 180.804688 96.714844 L 170.679688 100.917969 L 160.554688 96.714844 L 170.679688 92.511719 " fill-opacity="1" fill-rule="evenodd"/><g clip-path="url(#3ec5cb42f3)"><path fill="#d1d1d1" d="M 119.722656 71.714844 C 149.832031 71.714844 175.769531 76.535156 187.546875 83.472656 L 189.34375 77.917969 L 194.585938 77.144531 L 194.585938 91.964844 L 194.296875 91.976562 C 194.058594 103.042969 160.765625 112 119.722656 112 C 79.554688 112 46.808594 103.421875 45.207031 92.679688 L 44.855469 92.730469 L 44.855469 77.144531 L 53.390625 82.640625 C 65.777344 76.152344 90.828125 71.714844 119.722656 71.714844 " fill-opacity="1" fill-rule="evenodd"/></g><g clip-path="url(#b78988204f)"><path fill="#121212" d="M 119.722656 70.867188 C 134.578125 70.867188 148.433594 72.039062 160.089844 74.054688 C 171.578125 76.050781 180.949219 78.875 187.0625 82.222656 L 188.539062 77.65625 L 189.34375 77.917969 L 188.535156 77.65625 C 188.644531 77.324219 188.9375 77.105469 189.261719 77.074219 L 194.460938 76.304688 C 194.925781 76.234375 195.355469 76.554688 195.425781 77.019531 C 195.429688 77.0625 195.433594 77.101562 195.433594 77.144531 L 195.433594 91.964844 C 195.433594 92.242188 195.300781 92.488281 195.089844 92.644531 C 194.375 98.335938 185.878906 103.371094 172.515625 106.960938 C 158.964844 110.597656 140.308594 112.847656 119.722656 112.847656 C 99.613281 112.847656 81.34375 110.699219 67.875 107.207031 C 54.648438 103.777344 45.964844 98.96875 44.515625 93.507812 C 44.257812 93.394531 44.058594 93.152344 44.015625 92.851562 C 44.007812 92.808594 44.007812 92.769531 44.007812 92.730469 L 44.007812 77.144531 C 44.007812 76.675781 44.386719 76.292969 44.855469 76.292969 C 45.046875 76.292969 45.21875 76.359375 45.363281 76.460938 L 53.441406 81.664062 C 59.820312 78.425781 69.304688 75.707031 80.8125 73.8125 C 92.160156 71.941406 105.484375 70.867188 119.722656 70.867188 Z M 159.800781 75.726562 C 148.246094 73.726562 134.492188 72.5625 119.722656 72.5625 C 105.554688 72.5625 92.328125 73.628906 81.082031 75.480469 C 69.527344 77.386719 60.070312 80.113281 53.851562 83.351562 C 53.582031 83.527344 53.222656 83.539062 52.933594 83.351562 L 45.703125 78.695312 L 45.703125 91.992188 C 45.882812 92.117188 46.011719 92.316406 46.046875 92.554688 L 45.703125 92.605469 L 46.046875 92.554688 C 46.792969 97.570312 55.179688 102.167969 68.296875 105.570312 C 81.625 109.027344 99.746094 111.148438 119.722656 111.148438 C 140.164062 111.148438 158.664062 108.921875 172.078125 105.320312 C 185.144531 101.8125 193.285156 97.101562 193.449219 92.011719 L 193.449219 92.007812 C 193.4375 91.742188 193.550781 91.5 193.738281 91.335938 L 193.738281 78.125 L 189.988281 78.679688 L 188.375 83.664062 C 188.355469 83.746094 188.324219 83.824219 188.28125 83.902344 C 188.042969 84.304688 187.519531 84.4375 187.117188 84.203125 L 187.117188 84.199219 C 181.226562 80.726562 171.6875 77.785156 159.800781 75.726562 Z M 45.363281 76.460938 L 45.703125 77.144531 C 45.703125 76.867188 45.570312 76.617188 45.363281 76.460938 " fill-opacity="1" fill-rule="nonzero"/></g><path fill="#ff0000" d="M 106.464844 96.972656 L 119.722656 96.972656 L 119.722656 111.148438 L 106.464844 110.832031 L 106.464844 96.972656 " fill-opacity="1" fill-rule="evenodd"/><path fill="#ff0000" d="M 57.511719 88.355469 L 70.253906 91.824219 L 69.621094 105.914062 L 57.125 101.925781 L 57.511719 88.355469 " fill-opacity="1" fill-rule="evenodd"/><path fill="#ff0000" d="M 171.050781 91.855469 L 157.550781 94.570312 L 158.183594 108.265625 L 170.6875 105.6875 L 171.050781 91.855469 " fill-opacity="1" fill-rule="evenodd"/><g clip-path="url(#0e3597bd1d)"><path fill="#ffffff" d="M 119.71875 97.285156 C 160.953125 97.285156 194.585938 88.238281 194.585938 77.144531 C 194.585938 66.050781 160.953125 57 119.71875 57 C 78.484375 57 44.855469 66.050781 44.855469 77.144531 C 44.855469 88.238281 78.484375 97.285156 119.71875 97.285156 " fill-opacity="1" fill-rule="evenodd"/></g><g clip-path="url(#645c057b9a)"><path fill="#121212" d="M 119.71875 56.152344 C 140.464844 56.152344 159.261719 58.417969 172.875 62.082031 C 186.8125 65.832031 195.433594 71.148438 195.433594 77.144531 C 195.433594 83.140625 186.8125 88.453125 172.875 92.203125 C 159.261719 95.867188 140.464844 98.132812 119.71875 98.132812 C 98.976562 98.132812 80.179688 95.867188 66.5625 92.203125 C 52.628906 88.453125 44.007812 83.140625 44.007812 77.144531 C 44.007812 71.148438 52.628906 65.832031 66.5625 62.082031 C 80.179688 58.417969 98.976562 56.152344 119.71875 56.152344 Z M 172.4375 63.71875 C 158.960938 60.09375 140.320312 57.847656 119.71875 57.847656 C 99.117188 57.847656 80.480469 60.09375 67 63.71875 C 53.839844 67.257812 45.703125 72.015625 45.703125 77.144531 C 45.703125 82.273438 53.839844 87.027344 67 90.566406 C 80.480469 94.195312 99.117188 96.4375 119.71875 96.4375 C 140.320312 96.4375 158.960938 94.195312 172.4375 90.566406 C 185.597656 87.027344 193.738281 82.273438 193.738281 77.144531 C 193.738281 72.015625 185.597656 67.257812 172.4375 63.71875 " fill-opacity="1" fill-rule="nonzero"/></g><g clip-path="url(#6785c46a19)"><path fill="#d1d1d1" d="M 119.46875 88.332031 C 143.875 88.332031 163.785156 83.308594 163.785156 77.144531 C 163.785156 70.980469 143.875 65.953125 119.46875 65.953125 C 95.0625 65.953125 75.15625 70.980469 75.15625 77.144531 C 75.15625 83.308594 95.0625 88.332031 119.46875 88.332031 " fill-opacity="1" fill-rule="evenodd"/></g><g clip-path="url(#4400bd45f5)"><path fill="#121212" d="M 119.46875 65.105469 C 131.777344 65.105469 142.945312 66.371094 151.046875 68.414062 C 159.484375 70.546875 164.707031 73.625 164.707031 77.144531 C 164.707031 80.664062 159.484375 83.738281 151.046875 85.871094 C 142.945312 87.917969 131.777344 89.183594 119.46875 89.183594 C 107.160156 89.183594 95.992188 87.917969 87.890625 85.871094 C 79.453125 83.738281 74.230469 80.664062 74.230469 77.144531 C 74.230469 73.625 79.453125 70.546875 87.894531 68.414062 C 95.992188 66.371094 107.160156 65.105469 119.46875 65.105469 Z M 150.5625 70.046875 C 142.625 68.042969 131.632812 66.800781 119.46875 66.800781 C 107.304688 66.800781 96.316406 68.042969 88.378906 70.046875 C 80.78125 71.964844 76.078125 74.484375 76.078125 77.144531 C 76.078125 79.804688 80.78125 82.324219 88.378906 84.238281 C 96.316406 86.246094 107.304688 87.484375 119.46875 87.484375 C 131.632812 87.484375 142.625 86.246094 150.5625 84.238281 C 158.160156 82.324219 162.859375 79.804688 162.859375 77.144531 C 162.859375 74.484375 158.160156 71.964844 150.5625 70.046875 " fill-opacity="1" fill-rule="nonzero"/></g><path fill="#ff0000" d="M 120.386719 88.6875 L 130.507812 92.460938 L 120.386719 96.234375 L 110.261719 92.460938 L 120.386719 88.6875 " fill-opacity="1" fill-rule="evenodd"/><g clip-path="url(#b22c6e9799)"><path fill="#ff0000" d="M 61.722656 72.589844 L 71.847656 76.792969 L 61.722656 80.996094 L 51.601562 76.792969 L 61.722656 72.589844 " fill-opacity="1" fill-rule="evenodd"/></g><g clip-path="url(#34ac94f49f)"><path fill="#ff0000" d="M 178.894531 72.589844 L 189.015625 76.792969 L 178.894531 80.996094 L 168.769531 76.792969 L 178.894531 72.589844 " fill-opacity="1" fill-rule="evenodd"/></g><g clip-path="url(#a7f20ce600)"><path fill="#d1d1d1" d="M 112.109375 55.613281 C 142.21875 55.613281 168.15625 60.433594 179.9375 67.367188 L 181.734375 61.8125 L 186.972656 61.039062 L 186.972656 75.859375 L 186.683594 75.871094 C 186.449219 86.941406 153.152344 95.894531 112.109375 95.894531 C 71.941406 95.894531 39.195312 87.320312 37.597656 76.578125 L 37.242188 76.625 L 37.242188 61.039062 L 45.777344 66.539062 C 58.164062 60.050781 83.21875 55.613281 112.109375 55.613281 " fill-opacity="1" fill-rule="evenodd"/></g><g clip-path="url(#4f6962d0c5)"><path fill="#121212" d="M 112.109375 54.761719 C 126.96875 54.761719 140.820312 55.933594 152.476562 57.957031 C 163.96875 59.945312 173.335938 62.773438 179.449219 66.121094 L 180.925781 61.558594 L 181.734375 61.8125 L 180.925781 61.554688 C 181.03125 61.222656 181.324219 61.003906 181.652344 60.96875 L 186.847656 60.203125 C 187.3125 60.132812 187.746094 60.453125 187.8125 60.917969 C 187.816406 60.957031 187.820312 61 187.820312 61.039062 L 187.820312 75.859375 C 187.820312 76.140625 187.6875 76.386719 187.480469 76.542969 C 186.761719 82.234375 178.265625 87.269531 164.90625 90.855469 C 151.351562 94.496094 132.695312 96.746094 112.109375 96.746094 C 92.003906 96.746094 73.734375 94.597656 60.261719 91.105469 C 47.035156 87.675781 38.351562 82.867188 36.90625 77.40625 C 36.644531 77.292969 36.449219 77.050781 36.402344 76.75 C 36.398438 76.707031 36.394531 76.667969 36.394531 76.625 L 36.394531 61.039062 C 36.394531 60.574219 36.773438 60.191406 37.242188 60.191406 C 37.433594 60.191406 37.609375 60.253906 37.75 60.363281 L 45.828125 65.5625 C 52.207031 62.320312 61.691406 59.605469 73.199219 57.710938 C 84.546875 55.839844 97.871094 54.761719 112.109375 54.761719 Z M 152.191406 59.625 C 140.636719 57.621094 126.878906 56.460938 112.109375 56.460938 C 97.945312 56.460938 84.714844 57.527344 73.46875 59.378906 C 61.914062 61.285156 52.457031 64.007812 46.242188 67.25 C 45.96875 67.425781 45.609375 67.4375 45.320312 67.25 L 38.09375 62.59375 L 38.09375 75.886719 C 38.269531 76.019531 38.402344 76.214844 38.433594 76.453125 L 38.09375 76.503906 L 38.433594 76.453125 C 39.179688 81.46875 47.566406 86.066406 60.6875 89.46875 C 74.015625 92.921875 92.132812 95.046875 112.109375 95.046875 C 132.550781 95.046875 151.054688 92.820312 164.46875 89.21875 C 177.535156 85.710938 185.671875 81 185.835938 75.910156 L 185.835938 75.90625 C 185.824219 75.640625 185.9375 75.398438 186.125 75.234375 L 186.125 62.023438 L 182.375 62.578125 L 180.761719 67.5625 C 180.742188 67.644531 180.710938 67.722656 180.667969 67.800781 C 180.429688 68.203125 179.910156 68.339844 179.503906 68.101562 L 179.507812 68.097656 C 173.613281 64.625 164.074219 61.683594 152.191406 59.625 Z M 37.75 60.363281 L 38.09375 61.039062 C 38.09375 60.761719 37.957031 60.515625 37.75 60.363281 " fill-opacity="1" fill-rule="nonzero"/></g><path fill="#ff0000" d="M 98.851562 80.867188 L 112.109375 80.867188 L 112.109375 95.046875 L 98.851562 94.730469 L 98.851562 80.867188 " fill-opacity="1" fill-rule="evenodd"/><g clip-path="url(#611e416ed8)"><path fill="#ff0000" d="M 49.902344 72.25 L 62.644531 75.722656 L 62.007812 89.8125 L 49.511719 85.820312 L 49.902344 72.25 " fill-opacity="1" fill-rule="evenodd"/></g><path fill="#ff0000" d="M 163.4375 75.753906 L 149.9375 78.46875 L 150.574219 92.164062 L 163.074219 89.585938 L 163.4375 75.753906 " fill-opacity="1" fill-rule="evenodd"/><g clip-path="url(#5444b471ac)"><path fill="#ffffff" d="M 112.109375 81.183594 C 153.34375 81.183594 186.972656 72.136719 186.972656 61.039062 C 186.972656 49.949219 153.34375 40.898438 112.109375 40.898438 C 70.875 40.898438 37.242188 49.949219 37.242188 61.039062 C 37.242188 72.136719 70.875 81.183594 112.109375 81.183594 " fill-opacity="1" fill-rule="evenodd"/></g><g clip-path="url(#dc456a25b9)"><path fill="#121212" d="M 112.109375 40.050781 C 132.851562 40.050781 151.648438 42.316406 165.261719 45.980469 C 179.203125 49.730469 187.820312 55.046875 187.820312 61.039062 C 187.820312 67.035156 179.203125 72.351562 165.261719 76.101562 C 151.648438 79.765625 132.851562 82.03125 112.109375 82.03125 C 91.363281 82.03125 72.566406 79.765625 58.953125 76.101562 C 45.015625 72.351562 36.394531 67.035156 36.394531 61.039062 C 36.394531 55.046875 45.015625 49.730469 58.953125 45.980469 C 72.566406 42.316406 91.363281 40.050781 112.109375 40.050781 Z M 164.824219 47.617188 C 151.347656 43.992188 132.710938 41.746094 112.109375 41.746094 C 91.503906 41.746094 72.867188 43.992188 59.390625 47.617188 C 46.230469 51.160156 38.09375 55.914062 38.09375 61.039062 C 38.09375 66.171875 46.230469 70.925781 59.390625 74.464844 C 72.867188 78.089844 91.503906 80.335938 112.109375 80.335938 C 132.710938 80.335938 151.347656 78.089844 164.828125 74.464844 C 177.984375 70.925781 186.125 66.171875 186.125 61.039062 C 186.125 55.914062 177.984375 51.160156 164.824219 47.617188 " fill-opacity="1" fill-rule="nonzero"/></g><g clip-path="url(#a5381366f9)"><path fill="#121212" d="M 111.855469 49.003906 C 124.167969 49.003906 135.332031 50.269531 143.433594 52.3125 C 151.875 54.445312 157.09375 57.523438 157.09375 61.039062 C 157.09375 64.558594 151.875 67.636719 143.433594 69.769531 C 135.332031 71.816406 124.167969 73.082031 111.855469 73.082031 C 99.546875 73.082031 88.382812 71.816406 80.28125 69.769531 C 71.839844 67.636719 66.621094 64.558594 66.621094 61.039062 C 66.621094 57.523438 71.839844 54.445312 80.28125 52.3125 C 88.382812 50.269531 99.546875 49.003906 111.855469 49.003906 Z M 142.949219 53.945312 C 135.011719 51.9375 124.023438 50.699219 111.855469 50.699219 C 99.695312 50.699219 88.703125 51.9375 80.765625 53.945312 C 73.167969 55.863281 68.46875 58.378906 68.46875 61.039062 C 68.46875 63.703125 73.167969 66.21875 80.765625 68.140625 C 88.703125 70.140625 99.695312 71.382812 111.855469 71.382812 C 124.023438 71.382812 135.011719 70.140625 142.949219 68.140625 C 150.546875 66.21875 155.246094 63.703125 155.246094 61.039062 C 155.246094 58.378906 150.546875 55.863281 142.949219 53.945312 " fill-opacity="1" fill-rule="nonzero"/></g><g clip-path="url(#1eb3c0874e)"><path fill="#ff0000" d="M 112.773438 72.585938 L 122.898438 76.359375 L 112.773438 80.132812 L 102.648438 76.359375 L 112.773438 72.585938 " fill-opacity="1" fill-rule="evenodd"/></g><g clip-path="url(#e55b08b00f)"><path fill="#121212" d="M 121.933594 31.082031 C 136.792969 31.082031 150.644531 32.253906 162.300781 34.273438 C 173.789062 36.265625 183.160156 39.089844 189.273438 42.441406 L 190.75 37.875 L 191.558594 38.132812 L 190.75 37.871094 C 190.855469 37.539062 191.148438 37.320312 191.476562 37.289062 L 196.671875 36.523438 L 196.671875 36.519531 C 197.136719 36.453125 197.566406 36.773438 197.636719 37.234375 C 197.640625 37.277344 197.644531 37.320312 197.644531 37.359375 L 197.644531 52.179688 C 197.644531 52.457031 197.511719 52.707031 197.304688 52.859375 C 196.585938 58.554688 188.089844 63.589844 174.730469 67.175781 C 161.175781 70.816406 142.519531 73.0625 121.933594 73.0625 C 101.828125 73.0625 83.554688 70.914062 70.085938 67.425781 C 56.859375 63.996094 48.175781 59.183594 46.730469 53.722656 C 46.46875 53.609375 46.269531 53.367188 46.226562 53.066406 C 46.222656 53.027344 46.21875 52.988281 46.21875 52.945312 L 46.21875 37.359375 C 46.21875 36.890625 46.597656 36.511719 47.066406 36.511719 C 47.253906 36.511719 47.433594 36.574219 47.574219 36.679688 L 55.652344 41.882812 C 62.027344 38.640625 71.515625 35.921875 83.019531 34.027344 C 94.371094 32.160156 107.695312 31.082031 121.933594 31.082031 Z M 162.015625 35.945312 C 150.460938 33.941406 136.703125 32.78125 121.933594 32.78125 C 107.769531 32.78125 94.539062 33.847656 83.292969 35.699219 C 71.738281 37.601562 62.28125 40.328125 56.0625 43.570312 C 55.792969 43.746094 55.433594 43.757812 55.144531 43.570312 L 55.144531 43.566406 L 47.914062 38.914062 L 47.914062 52.207031 C 48.09375 52.335938 48.226562 52.535156 48.257812 52.769531 L 47.914062 52.820312 L 47.914062 52.824219 L 48.257812 52.773438 C 49.003906 57.785156 57.390625 62.386719 70.511719 65.785156 C 83.835938 69.242188 101.957031 71.363281 121.933594 71.363281 C 142.375 71.363281 160.878906 69.140625 174.292969 65.539062 C 187.359375 62.03125 195.496094 57.320312 195.660156 52.226562 C 195.648438 51.960938 195.761719 51.714844 195.949219 51.554688 L 195.949219 38.339844 L 192.199219 38.894531 L 190.585938 43.882812 C 190.566406 43.960938 190.535156 44.042969 190.488281 44.117188 C 190.253906 44.519531 189.730469 44.65625 189.328125 44.417969 L 189.332031 44.417969 C 183.4375 40.945312 173.898438 38.003906 162.015625 35.945312 Z M 47.574219 36.679688 L 47.914062 37.359375 C 47.914062 37.082031 47.78125 36.835938 47.574219 36.679688 " fill-opacity="1" fill-rule="nonzero"/></g></svg>