<svg xmlns="http://www.w3.org/2000/svg" xmlns:xlink="http://www.w3.org/1999/xlink" width="300" zoomAndPan="magnify" viewBox="0 0 224.87999 225" height="300" preserveAspectRatio="xMidYMid meet" version="1.0"><defs><clipPath id="4f1deb0117"><path d="M 33 0.0585938 L 198 0.0585938 L 198 224.9375 L 33 224.9375 Z M 33 0.0585938 " clip-rule="nonzero"/></clipPath><clipPath id="11ba97a98e"><path d="M 0.730469 92.207031 L 162.914062 92.207031 L 162.914062 224.660156 L 0.730469 224.660156 Z M 0.730469 92.207031 " clip-rule="nonzero"/></clipPath><clipPath id="3ea029a7ca"><path d="M 12 91 L 162 91 L 162 132.660156 L 12 132.660156 Z M 12 91 " clip-rule="nonzero"/></clipPath><clipPath id="7a47119b50"><path d="M 11.347656 90.65625 L 162.828125 90.65625 L 162.828125 132.660156 L 11.347656 132.660156 Z M 11.347656 90.65625 " clip-rule="nonzero"/></clipPath><clipPath id="1d8a33e0af"><path d="M 11 76 L 162.914062 76 L 162.914062 119 L 11 119 Z M 11 76 " clip-rule="nonzero"/></clipPath><clipPath id="42cabc474a"><path d="M 10 54 L 162.914062 54 L 162.914062 97 L 10 97 Z M 10 54 " clip-rule="nonzero"/></clipPath><clipPath id="1c881a96bf"><path d="M 10 40 L 162.914062 40 L 162.914062 83 L 10 83 Z M 10 40 " clip-rule="nonzero"/></clipPath><clipPath id="ed96a350a6"><path d="M 0.964844 31 L 152.726562 31 L 152.726562 73.53125 L 0.964844 73.53125 Z M 0.964844 31 " clip-rule="nonzero"/></clipPath><clipPath id="c4e4fac0a9"><path d="M 0.964844 16.453125 L 152.726562 16.453125 L 152.726562 58.605469 L 0.964844 58.605469 Z M 0.964844 16.453125 " clip-rule="nonzero"/></clipPath><clipPath id="f7086fcfbf"><path d="M 10 14 L 162.914062 14 L 162.914062 57 L 10 57 Z M 10 14 " clip-rule="nonzero"/></clipPath><clipPath id="01dc8f840a"><path d="M 10 0.207031 L 162.914062 0.207031 L 162.914062 43 L 10 43 Z M 10 0.207031 " clip-rule="nonzero"/></clipPath><clipPath id="c49fa7775a"><rect x="0" width="163" y="0" height="133"/></clipPath><clipPath id="80111025e1"><path d="M 2.785156 90.507812 L 154.265625 90.507812 L 154.265625 132.511719 L 2.785156 132.511719 Z M 2.785156 90.507812 " clip-rule="nonzero"/></clipPath><clipPath id="63af585cb7"><path d="M 2.53125 76 L 155 76 L 155 119 L 2.53125 119 Z M 2.53125 76 " clip-rule="nonzero"/></clipPath><clipPath id="3a9b0d837f"><path d="M 13 31 L 164.648438 31 L 164.648438 73.386719 L 13 73.386719 Z M 13 31 " clip-rule="nonzero"/></clipPath><clipPath id="7391649514"><path d="M 13 16.304688 L 164.648438 16.304688 L 164.648438 58.457031 L 13 58.457031 Z M 13 16.304688 " clip-rule="nonzero"/></clipPath><clipPath id="1959187bf9"><path d="M 4 0.0585938 L 154 0.0585938 L 154 42 L 4 42 Z M 4 0.0585938 " clip-rule="nonzero"/></clipPath><clipPath id="c857a127b0"><path d="M 3 0.0585938 L 155 0.0585938 L 155 43 L 3 43 Z M 3 0.0585938 " clip-rule="nonzero"/></clipPath><clipPath id="cd2fdf9778"><path d="M 2.785156 90.507812 L 154.265625 90.507812 L 154.265625 132.511719 L 2.785156 132.511719 Z M 2.785156 90.507812 " clip-rule="nonzero"/></clipPath><clipPath id="d37005eae9"><path d="M 2.53125 76 L 155 76 L 155 119 L 2.53125 119 Z M 2.53125 76 " clip-rule="nonzero"/></clipPath><clipPath id="6512bb6a13"><path d="M 11 73.273438 L 162 73.273438 L 162 113 L 11 113 Z M 11 73.273438 " clip-rule="nonzero"/></clipPath><clipPath id="d5fa9f8fde"><path d="M 11 73.273438 L 163 73.273438 L 163 113 L 11 113 Z M 11 73.273438 " clip-rule="nonzero"/></clipPath><clipPath id="2c0a00d7ee"><path d="M 11 73.273438 L 162 73.273438 L 162 98 L 11 98 Z M 11 73.273438 " clip-rule="nonzero"/></clipPath><clipPath id="a7a40faad8"><path d="M 11 73.273438 L 163 73.273438 L 163 99 L 11 99 Z M 11 73.273438 " clip-rule="nonzero"/></clipPath><clipPath id="d133b4a820"><path d="M 42 73.273438 L 131 73.273438 L 131 89 L 42 89 Z M 42 73.273438 " clip-rule="nonzero"/></clipPath><clipPath id="007c4c60c6"><path d="M 41 73.273438 L 132 73.273438 L 132 90 L 41 90 Z M 41 73.273438 " clip-rule="nonzero"/></clipPath><clipPath id="4828c54017"><path d="M 18 73.273438 L 39 73.273438 L 39 81 L 18 81 Z M 18 73.273438 " clip-rule="nonzero"/></clipPath><clipPath id="6fac39950e"><path d="M 135 73.273438 L 157 73.273438 L 157 81 L 135 81 Z M 135 73.273438 " clip-rule="nonzero"/></clipPath><clipPath id="bd19ad19ab"><path d="M 4 73.273438 L 154 73.273438 L 154 96 L 4 96 Z M 4 73.273438 " clip-rule="nonzero"/></clipPath><clipPath id="f212b373eb"><path d="M 3 73.273438 L 155 73.273438 L 155 97 L 3 97 Z M 3 73.273438 " clip-rule="nonzero"/></clipPath><clipPath id="95a1ba996f"><path d="M 16 73.273438 L 30 73.273438 L 30 90 L 16 90 Z M 16 73.273438 " clip-rule="nonzero"/></clipPath><clipPath id="e77a906abe"><path d="M 4 73.273438 L 154 73.273438 L 154 82 L 4 82 Z M 4 73.273438 " clip-rule="nonzero"/></clipPath><clipPath id="cad4040957"><path d="M 3 73.273438 L 155 73.273438 L 155 83 L 3 83 Z M 3 73.273438 " clip-rule="nonzero"/></clipPath><clipPath id="c2eafecdfd"><path d="M 33 73.273438 L 125 73.273438 L 125 74 L 33 74 Z M 33 73.273438 " clip-rule="nonzero"/></clipPath><clipPath id="8af7c8c639"><path d="M 69 73.273438 L 90 73.273438 L 90 81 L 69 81 Z M 69 73.273438 " clip-rule="nonzero"/></clipPath><clipPath id="93fd8b6832"><path d="M 13 73.273438 L 164.648438 73.273438 L 164.648438 73.386719 L 13 73.386719 Z M 13 73.273438 " clip-rule="nonzero"/></clipPath><clipPath id="4f9a030a9a"><rect x="0" width="165" y="0" height="225"/></clipPath></defs><g clip-path="url(#4f1deb0117)"><g transform="matrix(1, 0, 0, 1, 33, -0.000000000000003234)"><g clip-path="url(#4f9a030a9a)"><g clip-path="url(#11ba97a98e)"><g transform="matrix(1, 0, 0, 1, 0.000000000000007105, 92)"><g clip-path="url(#c49fa7775a)"><g clip-path="url(#3ea029a7ca)"><path fill="#d1d1d1" d="M 87.109375 91.789062 C 56.996094 91.789062 31.058594 96.605469 19.277344 103.542969 L 17.480469 97.992188 L 12.242188 97.21875 L 12.242188 112.039062 L 12.53125 112.046875 C 12.765625 123.121094 46.0625 132.074219 87.109375 132.074219 C 127.277344 132.074219 160.027344 123.496094 161.625 112.753906 L 161.976562 112.804688 L 161.976562 97.21875 L 153.441406 102.714844 C 141.054688 96.222656 116 91.789062 87.109375 91.789062 " fill-opacity="1" fill-rule="evenodd"/></g><g clip-path="url(#7a47119b50)"><path fill="#121212" d="M 87.109375 90.941406 C 72.25 90.941406 58.394531 92.113281 46.738281 94.128906 C 35.25 96.125 25.878906 98.949219 19.765625 102.296875 L 18.285156 97.730469 L 17.480469 97.992188 L 18.289062 97.730469 C 18.183594 97.398438 17.890625 97.179688 17.5625 97.148438 L 12.363281 96.378906 C 11.902344 96.308594 11.46875 96.632812 11.402344 97.09375 C 11.394531 97.136719 11.390625 97.175781 11.390625 97.21875 L 11.390625 112.039062 C 11.390625 112.316406 11.527344 112.5625 11.734375 112.71875 C 12.453125 118.410156 20.949219 123.445312 34.308594 127.035156 C 47.859375 130.675781 66.519531 132.921875 87.109375 132.921875 C 107.214844 132.921875 125.488281 130.777344 138.957031 127.285156 C 152.183594 123.855469 160.867188 119.042969 162.316406 113.582031 C 162.578125 113.46875 162.773438 113.226562 162.816406 112.925781 C 162.824219 112.886719 162.828125 112.84375 162.828125 112.804688 L 162.828125 97.21875 C 162.828125 96.75 162.445312 96.367188 161.976562 96.367188 C 161.789062 96.367188 161.613281 96.433594 161.472656 96.535156 L 153.390625 101.738281 C 147.015625 98.496094 137.527344 95.78125 126.023438 93.886719 C 114.671875 92.015625 101.347656 90.941406 87.109375 90.941406 Z M 47.023438 95.800781 C 58.582031 93.800781 72.339844 92.636719 87.109375 92.636719 C 101.273438 92.636719 114.503906 93.703125 125.75 95.554688 C 137.308594 97.460938 146.761719 100.1875 152.980469 103.425781 C 153.25 103.601562 153.609375 103.613281 153.898438 103.429688 L 153.898438 103.425781 L 161.128906 98.769531 L 161.128906 112.066406 C 160.949219 112.195312 160.820312 112.394531 160.785156 112.628906 L 161.128906 112.679688 L 160.785156 112.632812 C 160.039062 117.644531 151.652344 122.246094 138.535156 125.644531 C 125.207031 129.101562 107.085938 131.226562 87.109375 131.226562 C 66.664062 131.226562 48.160156 129 34.746094 125.398438 C 21.679688 121.890625 13.542969 117.175781 13.378906 112.085938 L 13.378906 112.082031 C 13.386719 111.816406 13.277344 111.574219 13.089844 111.410156 L 13.089844 98.199219 L 16.839844 98.753906 L 18.453125 103.738281 C 18.472656 103.820312 18.503906 103.898438 18.546875 103.976562 C 18.785156 104.378906 19.304688 104.511719 19.707031 104.277344 L 19.707031 104.273438 C 25.601562 100.800781 35.140625 97.859375 47.023438 95.800781 Z M 161.472656 96.535156 L 161.128906 97.21875 C 161.128906 96.941406 161.265625 96.691406 161.472656 96.535156 " fill-opacity="1" fill-rule="nonzero"/></g><path fill="#121212" d="M 100.363281 117.046875 L 87.109375 117.046875 L 87.109375 131.226562 L 100.363281 130.90625 L 100.363281 117.046875 " fill-opacity="1" fill-rule="evenodd"/><path fill="#121212" d="M 149.316406 108.429688 L 136.578125 111.898438 L 137.210938 125.988281 L 149.707031 121.996094 L 149.316406 108.429688 " fill-opacity="1" fill-rule="evenodd"/><path fill="#121212" d="M 35.777344 111.929688 L 49.277344 114.644531 L 48.644531 128.34375 L 36.140625 125.761719 L 35.777344 111.929688 " fill-opacity="1" fill-rule="evenodd"/><path fill="#ffffff" d="M 87.109375 117.359375 C 45.875 117.359375 12.242188 108.3125 12.242188 97.21875 C 12.242188 86.121094 45.875 77.074219 87.109375 77.074219 C 128.34375 77.074219 161.976562 86.121094 161.976562 97.21875 C 161.976562 108.3125 128.34375 117.359375 87.109375 117.359375 " fill-opacity="1" fill-rule="evenodd"/><g clip-path="url(#1d8a33e0af)"><path fill="#121212" d="M 87.109375 76.226562 C 66.363281 76.226562 47.566406 78.492188 33.953125 82.15625 C 20.011719 85.90625 11.390625 91.222656 11.390625 97.21875 C 11.390625 103.210938 20.011719 108.53125 33.953125 112.28125 C 47.566406 115.941406 66.363281 118.210938 87.109375 118.210938 C 107.855469 118.210938 126.652344 115.941406 140.265625 112.28125 C 154.207031 108.53125 162.828125 103.210938 162.828125 97.21875 C 162.828125 91.222656 154.207031 85.90625 140.265625 82.15625 C 126.652344 78.492188 107.855469 76.226562 87.109375 76.226562 Z M 34.390625 83.792969 C 47.867188 80.164062 66.507812 77.921875 87.109375 77.921875 C 107.710938 77.921875 126.351562 80.164062 139.832031 83.792969 C 152.992188 87.332031 161.128906 92.085938 161.128906 97.21875 C 161.128906 102.347656 152.992188 107.101562 139.832031 110.640625 C 126.351562 114.269531 107.710938 116.511719 87.109375 116.511719 C 66.507812 116.511719 47.867188 114.269531 34.390625 110.640625 C 21.230469 107.101562 13.089844 102.347656 13.089844 97.21875 C 13.089844 92.085938 21.230469 87.332031 34.390625 83.792969 " fill-opacity="1" fill-rule="nonzero"/></g><path fill="#d1d1d1" d="M 87.359375 108.410156 C 62.949219 108.410156 43.046875 103.382812 43.046875 97.21875 C 43.046875 91.054688 62.949219 86.027344 87.359375 86.027344 C 111.769531 86.027344 131.675781 91.054688 131.675781 97.21875 C 131.675781 103.382812 111.769531 108.410156 87.359375 108.410156 " fill-opacity="1" fill-rule="evenodd"/><path fill="#121212" d="M 87.359375 85.179688 C 75.050781 85.179688 63.882812 86.441406 55.78125 88.488281 C 47.339844 90.621094 42.121094 93.699219 42.121094 97.21875 C 42.121094 100.738281 47.339844 103.8125 55.78125 105.945312 C 63.882812 107.992188 75.050781 109.257812 87.359375 109.257812 C 99.671875 109.257812 110.835938 107.992188 118.9375 105.945312 C 127.378906 103.8125 132.597656 100.738281 132.597656 97.21875 C 132.597656 93.699219 127.378906 90.621094 118.9375 88.488281 C 110.835938 86.441406 99.671875 85.179688 87.359375 85.179688 Z M 56.265625 90.121094 C 64.203125 88.117188 75.195312 86.875 87.359375 86.875 C 99.523438 86.875 110.515625 88.117188 118.453125 90.121094 C 126.050781 92.039062 130.753906 94.554688 130.753906 97.21875 C 130.753906 99.878906 126.050781 102.398438 118.453125 104.316406 C 110.515625 106.320312 99.523438 107.558594 87.359375 107.558594 C 75.195312 107.558594 64.203125 106.320312 56.265625 104.316406 C 48.667969 102.398438 43.96875 99.878906 43.96875 97.21875 C 43.96875 94.554688 48.667969 92.039062 56.265625 90.121094 " fill-opacity="1" fill-rule="nonzero"/><path fill="#121212" d="M 86.441406 77.632812 L 76.320312 81.40625 L 86.441406 85.183594 L 96.566406 81.40625 L 86.441406 77.632812 " fill-opacity="1" fill-rule="evenodd"/><path fill="#121212" d="M 86.441406 108.761719 L 76.320312 112.535156 L 86.441406 116.308594 L 96.566406 112.535156 L 86.441406 108.761719 " fill-opacity="1" fill-rule="evenodd"/><path fill="#121212" d="M 145.109375 92.660156 L 134.984375 96.867188 L 145.109375 101.070312 L 155.234375 96.867188 L 145.109375 92.660156 " fill-opacity="1" fill-rule="evenodd"/><path fill="#121212" d="M 27.933594 92.660156 L 17.808594 96.867188 L 27.933594 101.070312 L 38.058594 96.867188 L 27.933594 92.660156 " fill-opacity="1" fill-rule="evenodd"/><path fill="#d1d1d1" d="M 78.894531 71.863281 C 48.78125 71.863281 22.84375 76.6875 11.066406 83.625 L 9.265625 78.066406 L 4.027344 77.292969 L 4.027344 92.113281 L 4.316406 92.125 C 4.550781 103.195312 37.847656 112.152344 78.894531 112.152344 C 119.0625 112.152344 151.808594 103.574219 153.410156 92.832031 L 153.765625 92.882812 L 153.765625 77.292969 L 145.226562 82.792969 C 132.839844 76.304688 107.785156 71.863281 78.894531 71.863281 " fill-opacity="1" fill-rule="evenodd"/><path fill="#121212" d="M 78.894531 71.015625 C 64.035156 71.015625 50.179688 72.1875 38.523438 74.207031 C 27.035156 76.199219 17.664062 79.023438 11.550781 82.375 L 10.074219 77.808594 L 9.265625 78.066406 L 10.074219 77.808594 C 9.96875 77.476562 9.675781 77.257812 9.347656 77.222656 L 4.148438 76.457031 L 4.152344 76.457031 C 3.6875 76.386719 3.253906 76.707031 3.1875 77.171875 C 3.179688 77.210938 3.179688 77.253906 3.179688 77.292969 L 3.179688 92.113281 C 3.179688 92.394531 3.3125 92.640625 3.519531 92.796875 C 4.238281 98.488281 12.734375 103.523438 26.097656 107.113281 C 39.648438 110.75 58.304688 113 78.894531 113 C 99 113 117.273438 110.851562 130.742188 107.359375 C 143.96875 103.929688 152.652344 99.121094 154.101562 93.660156 C 154.363281 93.546875 154.558594 93.304688 154.601562 93.003906 C 154.609375 92.960938 154.609375 92.921875 154.609375 92.882812 L 154.609375 77.292969 C 154.609375 76.828125 154.230469 76.445312 153.765625 76.445312 C 153.574219 76.445312 153.398438 76.507812 153.257812 76.613281 L 145.179688 81.816406 C 138.800781 78.574219 129.3125 75.859375 117.804688 73.964844 C 106.457031 72.09375 93.132812 71.015625 78.894531 71.015625 Z M 38.808594 75.878906 C 50.367188 73.875 64.121094 72.714844 78.894531 72.714844 C 93.058594 72.714844 106.289062 73.78125 117.535156 75.632812 C 129.089844 77.535156 138.546875 80.261719 144.765625 83.503906 C 145.039062 83.679688 145.394531 83.691406 145.6875 83.503906 L 152.914062 78.847656 L 152.914062 92.140625 C 152.734375 92.269531 152.605469 92.46875 152.570312 92.707031 L 152.914062 92.757812 L 152.570312 92.707031 C 151.824219 97.722656 143.4375 102.320312 130.320312 105.722656 C 116.992188 109.179688 98.871094 111.300781 78.894531 111.300781 C 58.449219 111.300781 39.949219 109.074219 26.535156 105.472656 C 13.464844 101.964844 5.328125 97.253906 5.164062 92.164062 L 5.164062 92.160156 C 5.171875 91.894531 5.058594 91.652344 4.875 91.488281 L 4.875 78.277344 L 8.625 78.828125 L 10.238281 83.816406 C 10.257812 83.898438 10.289062 83.976562 10.332031 84.054688 C 10.570312 84.457031 11.09375 84.589844 11.496094 84.355469 L 11.492188 84.351562 C 17.386719 80.878906 26.925781 77.9375 38.808594 75.878906 Z M 153.257812 76.613281 L 152.914062 77.292969 C 152.914062 77.015625 153.046875 76.769531 153.257812 76.613281 " fill-opacity="1" fill-rule="nonzero"/><path fill="#121212" d="M 92.148438 97.125 L 78.894531 97.125 L 78.894531 111.300781 L 92.148438 110.984375 L 92.148438 97.125 " fill-opacity="1" fill-rule="evenodd"/><path fill="#121212" d="M 141.105469 88.507812 L 128.363281 91.976562 L 128.996094 106.066406 L 141.492188 102.078125 L 141.105469 88.507812 " fill-opacity="1" fill-rule="evenodd"/><path fill="#121212" d="M 27.5625 92.007812 L 41.0625 94.722656 L 40.429688 108.417969 L 27.925781 105.839844 L 27.5625 92.007812 " fill-opacity="1" fill-rule="evenodd"/><path fill="#ffffff" d="M 78.894531 97.4375 C 37.660156 97.4375 4.027344 88.390625 4.027344 77.292969 C 4.027344 66.199219 37.660156 57.152344 78.894531 57.152344 C 120.132812 57.152344 153.765625 66.199219 153.765625 77.292969 C 153.765625 88.390625 120.132812 97.4375 78.894531 97.4375 " fill-opacity="1" fill-rule="evenodd"/><path fill="#121212" d="M 78.894531 56.304688 C 58.148438 56.304688 39.351562 58.570312 25.734375 62.230469 C 11.796875 65.984375 3.179688 71.296875 3.179688 77.292969 C 3.179688 83.289062 11.796875 88.605469 25.734375 92.355469 C 39.351562 96.019531 58.148438 98.285156 78.894531 98.285156 C 99.640625 98.285156 118.4375 96.019531 132.054688 92.355469 C 145.992188 88.605469 154.609375 83.289062 154.609375 77.292969 C 154.609375 71.300781 145.992188 65.984375 132.054688 62.230469 C 118.4375 58.570312 99.640625 56.304688 78.894531 56.304688 Z M 26.171875 63.871094 C 39.652344 60.246094 58.292969 58 78.894531 58 C 99.496094 58 118.136719 60.246094 131.617188 63.871094 C 144.777344 67.410156 152.914062 72.167969 152.914062 77.292969 C 152.914062 82.425781 144.777344 87.179688 131.617188 90.71875 C 118.136719 94.347656 99.496094 96.589844 78.894531 96.589844 C 58.292969 96.589844 39.652344 94.347656 26.171875 90.71875 C 13.015625 87.179688 4.875 82.425781 4.875 77.292969 C 4.875 72.167969 13.015625 67.410156 26.171875 63.871094 " fill-opacity="1" fill-rule="nonzero"/><path fill="#d1d1d1" d="M 79.144531 88.484375 C 54.738281 88.484375 34.828125 83.457031 34.828125 77.292969 C 34.828125 71.132812 54.738281 66.101562 79.144531 66.101562 C 103.554688 66.101562 123.460938 71.132812 123.460938 77.292969 C 123.460938 83.457031 103.554688 88.484375 79.144531 88.484375 " fill-opacity="1" fill-rule="evenodd"/><path fill="#121212" d="M 79.144531 65.257812 C 66.835938 65.257812 55.667969 66.523438 47.566406 68.566406 C 39.128906 70.699219 33.90625 73.777344 33.90625 77.292969 C 33.90625 80.8125 39.128906 83.890625 47.566406 86.023438 C 55.667969 88.070312 66.835938 89.335938 79.144531 89.335938 C 91.457031 89.335938 102.621094 88.070312 110.722656 86.023438 C 119.164062 83.890625 124.386719 80.8125 124.386719 77.292969 C 124.386719 73.777344 119.164062 70.699219 110.722656 68.566406 C 102.621094 66.523438 91.457031 65.257812 79.144531 65.257812 Z M 48.050781 70.195312 C 55.988281 68.191406 66.980469 66.953125 79.144531 66.953125 C 91.308594 66.953125 102.300781 68.191406 110.238281 70.195312 C 117.835938 72.117188 122.539062 74.632812 122.539062 77.292969 C 122.539062 79.957031 117.835938 82.472656 110.238281 84.390625 C 102.300781 86.398438 91.308594 87.636719 79.144531 87.636719 C 66.980469 87.636719 55.988281 86.398438 48.050781 84.390625 C 40.453125 82.472656 35.753906 79.957031 35.753906 77.292969 C 35.753906 74.632812 40.453125 72.117188 48.050781 70.195312 " fill-opacity="1" fill-rule="nonzero"/><path fill="#121212" d="M 78.230469 57.710938 L 68.105469 61.484375 L 78.230469 65.257812 L 88.351562 61.484375 L 78.230469 57.710938 " fill-opacity="1" fill-rule="evenodd"/><path fill="#121212" d="M 78.230469 88.839844 L 68.105469 92.613281 L 78.230469 96.386719 L 88.351562 92.613281 L 78.230469 88.839844 " fill-opacity="1" fill-rule="evenodd"/><path fill="#121212" d="M 136.894531 72.738281 L 126.769531 76.945312 L 136.894531 81.148438 L 147.019531 76.945312 L 136.894531 72.738281 " fill-opacity="1" fill-rule="evenodd"/><path fill="#121212" d="M 19.71875 72.738281 L 9.59375 76.945312 L 19.71875 81.148438 L 29.84375 76.945312 L 19.71875 72.738281 " fill-opacity="1" fill-rule="evenodd"/><path fill="#d1d1d1" d="M 86.507812 55.761719 C 56.394531 55.761719 30.457031 60.582031 18.675781 67.519531 L 16.878906 61.964844 L 11.636719 61.191406 L 11.636719 76.011719 L 11.925781 76.023438 C 12.164062 87.09375 45.460938 96.046875 86.507812 96.046875 C 126.675781 96.046875 159.425781 87.46875 161.023438 76.726562 L 161.375 76.777344 L 161.375 61.191406 L 152.839844 66.6875 C 140.453125 60.199219 115.398438 55.761719 86.507812 55.761719 " fill-opacity="1" fill-rule="evenodd"/><g clip-path="url(#42cabc474a)"><path fill="#121212" d="M 86.507812 54.914062 C 71.648438 54.914062 57.792969 56.085938 46.136719 58.105469 C 34.644531 60.097656 25.277344 62.921875 19.160156 66.273438 L 17.683594 61.707031 L 16.878906 61.964844 L 17.6875 61.703125 C 17.582031 61.371094 17.289062 61.152344 16.960938 61.121094 L 11.761719 60.351562 C 11.300781 60.285156 10.867188 60.605469 10.796875 61.066406 C 10.792969 61.109375 10.789062 61.152344 10.789062 61.191406 L 10.789062 76.011719 C 10.789062 76.292969 10.925781 76.539062 11.132812 76.691406 C 11.851562 82.386719 20.34375 87.421875 33.707031 91.007812 C 47.261719 94.648438 65.917969 96.898438 86.507812 96.898438 C 106.613281 96.898438 124.882812 94.75 138.355469 91.257812 C 151.582031 87.828125 160.265625 83.019531 161.714844 77.558594 C 161.972656 77.445312 162.171875 77.203125 162.214844 76.898438 C 162.222656 76.859375 162.226562 76.820312 162.226562 76.777344 L 162.226562 61.191406 C 162.226562 60.722656 161.84375 60.34375 161.375 60.34375 C 161.183594 60.34375 161.011719 60.40625 160.871094 60.511719 L 152.789062 65.710938 C 146.410156 62.472656 136.925781 59.753906 125.417969 57.859375 C 114.070312 55.992188 100.746094 54.914062 86.507812 54.914062 Z M 46.421875 59.773438 C 57.980469 57.773438 71.734375 56.609375 86.507812 56.609375 C 100.671875 56.609375 113.902344 57.679688 125.148438 59.53125 C 136.703125 61.433594 146.160156 64.160156 152.378906 67.398438 C 152.648438 67.578125 153.007812 67.585938 153.296875 67.402344 L 153.296875 67.398438 L 160.527344 62.746094 L 160.527344 76.039062 C 160.347656 76.167969 160.21875 76.367188 160.183594 76.601562 L 160.527344 76.65625 L 160.183594 76.605469 C 159.4375 81.617188 151.050781 86.21875 137.929688 89.621094 C 124.601562 93.074219 106.484375 95.199219 86.507812 95.199219 C 66.0625 95.199219 47.558594 92.972656 34.144531 89.371094 C 21.078125 85.863281 12.9375 81.152344 12.773438 76.058594 C 12.785156 75.792969 12.671875 75.546875 12.488281 75.386719 L 12.488281 62.171875 L 16.238281 62.726562 L 17.851562 67.714844 C 17.867188 67.792969 17.902344 67.875 17.945312 67.949219 C 18.183594 68.351562 18.703125 68.488281 19.105469 68.25 L 19.105469 68.246094 C 25 64.777344 34.539062 61.835938 46.421875 59.773438 Z M 160.871094 60.511719 L 160.527344 61.191406 C 160.527344 60.914062 160.664062 60.667969 160.871094 60.511719 " fill-opacity="1" fill-rule="nonzero"/></g><path fill="#121212" d="M 99.761719 81.019531 L 86.507812 81.019531 L 86.507812 95.199219 L 99.761719 94.882812 L 99.761719 81.019531 " fill-opacity="1" fill-rule="evenodd"/><path fill="#121212" d="M 148.714844 72.402344 L 135.972656 75.875 L 136.609375 89.964844 L 149.105469 85.972656 L 148.714844 72.402344 " fill-opacity="1" fill-rule="evenodd"/><path fill="#121212" d="M 35.175781 75.90625 L 48.675781 78.617188 L 48.042969 92.316406 L 35.539062 89.734375 L 35.175781 75.90625 " fill-opacity="1" fill-rule="evenodd"/><path fill="#ffffff" d="M 86.507812 81.335938 C 45.269531 81.335938 11.636719 72.285156 11.636719 61.191406 C 11.636719 50.097656 45.269531 41.046875 86.507812 41.046875 C 127.742188 41.046875 161.375 50.097656 161.375 61.191406 C 161.375 72.285156 127.742188 81.335938 86.507812 81.335938 " fill-opacity="1" fill-rule="evenodd"/><g clip-path="url(#1c881a96bf)"><path fill="#121212" d="M 86.507812 40.199219 C 65.761719 40.199219 46.964844 42.46875 33.347656 46.128906 C 19.410156 49.878906 10.789062 55.195312 10.789062 61.191406 C 10.789062 67.1875 19.410156 72.503906 33.347656 76.253906 C 46.964844 79.917969 65.761719 82.183594 86.507812 82.183594 C 107.253906 82.183594 126.050781 79.917969 139.664062 76.253906 C 153.601562 72.503906 162.226562 67.1875 162.226562 61.191406 C 162.226562 55.195312 153.601562 49.878906 139.664062 46.128906 C 126.050781 42.46875 107.253906 40.199219 86.507812 40.199219 Z M 33.785156 47.765625 C 47.265625 44.140625 65.90625 41.898438 86.507812 41.898438 C 107.109375 41.898438 125.75 44.140625 139.226562 47.765625 C 152.386719 51.308594 160.527344 56.0625 160.527344 61.191406 C 160.527344 66.320312 152.386719 71.074219 139.226562 74.617188 C 125.75 78.242188 107.109375 80.484375 86.507812 80.484375 C 65.90625 80.484375 47.265625 78.242188 33.785156 74.617188 C 20.625 71.074219 12.488281 66.320312 12.488281 61.191406 C 12.488281 56.0625 20.625 51.308594 33.785156 47.765625 " fill-opacity="1" fill-rule="nonzero"/></g><path fill="#d1d1d1" d="M 86.757812 72.382812 C 62.347656 72.382812 42.441406 67.355469 42.441406 61.191406 C 42.441406 55.027344 62.347656 50 86.757812 50 C 111.167969 50 131.074219 55.027344 131.074219 61.191406 C 131.074219 67.355469 111.167969 72.382812 86.757812 72.382812 " fill-opacity="1" fill-rule="evenodd"/><path fill="#121212" d="M 86.757812 49.152344 C 74.449219 49.152344 63.28125 50.417969 55.179688 52.464844 C 46.738281 54.59375 41.519531 57.671875 41.519531 61.191406 C 41.519531 64.710938 46.738281 67.789062 55.179688 69.917969 C 63.28125 71.964844 74.449219 73.230469 86.757812 73.230469 C 99.066406 73.230469 110.234375 71.964844 118.335938 69.917969 C 126.777344 67.789062 131.996094 64.710938 131.996094 61.191406 C 131.996094 57.671875 126.777344 54.59375 118.335938 52.464844 C 110.234375 50.417969 99.066406 49.152344 86.757812 49.152344 Z M 55.664062 54.09375 C 63.601562 52.089844 74.59375 50.851562 86.757812 50.851562 C 98.921875 50.851562 109.914062 52.089844 117.851562 54.09375 C 125.449219 56.011719 130.148438 58.53125 130.148438 61.191406 C 130.148438 63.851562 125.449219 66.371094 117.851562 68.289062 C 109.914062 70.292969 98.921875 71.535156 86.757812 71.535156 C 74.59375 71.535156 63.601562 70.292969 55.664062 68.289062 C 48.066406 66.371094 43.367188 63.851562 43.367188 61.191406 C 43.367188 58.53125 48.066406 56.011719 55.664062 54.09375 " fill-opacity="1" fill-rule="nonzero"/><path fill="#121212" d="M 85.839844 41.609375 L 75.714844 45.382812 L 85.839844 49.15625 L 95.964844 45.382812 L 85.839844 41.609375 " fill-opacity="1" fill-rule="evenodd"/><path fill="#121212" d="M 85.839844 72.734375 L 75.714844 76.511719 L 85.839844 80.285156 L 95.964844 76.511719 L 85.839844 72.734375 " fill-opacity="1" fill-rule="evenodd"/><path fill="#121212" d="M 144.507812 56.636719 L 134.382812 60.839844 L 144.507812 65.046875 L 154.632812 60.839844 L 144.507812 56.636719 " fill-opacity="1" fill-rule="evenodd"/><path fill="#121212" d="M 27.332031 56.636719 L 17.207031 60.839844 L 27.332031 65.046875 L 37.457031 60.839844 L 27.332031 56.636719 " fill-opacity="1" fill-rule="evenodd"/><path fill="#d1d1d1" d="M 76.683594 32.078125 C 46.570312 32.078125 20.632812 36.898438 8.851562 43.835938 L 7.054688 38.285156 L 1.816406 37.507812 L 1.816406 52.328125 L 2.101562 52.339844 C 2.339844 63.410156 35.636719 72.363281 76.683594 72.363281 C 116.851562 72.363281 149.601562 63.789062 151.199219 53.046875 L 151.550781 53.09375 L 151.550781 37.507812 L 143.015625 43.003906 C 130.628906 36.515625 105.574219 32.078125 76.683594 32.078125 " fill-opacity="1" fill-rule="evenodd"/><g clip-path="url(#ed96a350a6)"><path fill="#121212" d="M 76.683594 31.230469 C 61.824219 31.230469 47.96875 32.402344 36.3125 34.421875 C 24.820312 36.414062 15.453125 39.242188 9.335938 42.589844 L 7.859375 38.023438 L 7.054688 38.285156 L 7.863281 38.019531 C 7.757812 37.691406 7.460938 37.472656 7.136719 37.4375 L 1.9375 36.671875 L 1.9375 36.667969 C 1.476562 36.601562 1.042969 36.921875 0.976562 37.386719 C 0.96875 37.429688 0.964844 37.46875 0.964844 37.507812 L 0.964844 52.328125 C 0.964844 52.609375 1.101562 52.855469 1.308594 53.011719 C 2.027344 58.703125 10.519531 63.738281 23.882812 67.324219 C 37.4375 70.964844 56.09375 73.214844 76.683594 73.214844 C 96.789062 73.214844 115.058594 71.066406 128.53125 67.574219 C 141.757812 64.144531 150.441406 59.335938 151.890625 53.875 C 152.148438 53.761719 152.347656 53.519531 152.390625 53.21875 C 152.398438 53.175781 152.402344 53.136719 152.402344 53.09375 L 152.402344 37.507812 C 152.402344 37.039062 152.019531 36.660156 151.550781 36.660156 C 151.363281 36.660156 151.1875 36.722656 151.046875 36.828125 L 142.964844 42.03125 C 136.589844 38.789062 127.101562 36.074219 115.59375 34.175781 C 104.246094 32.308594 90.921875 31.230469 76.683594 31.230469 Z M 36.597656 36.09375 C 48.15625 34.089844 61.910156 32.929688 76.683594 32.929688 C 90.847656 32.929688 104.078125 33.996094 115.324219 35.847656 C 126.882812 37.753906 136.335938 40.476562 142.554688 43.71875 C 142.824219 43.894531 143.183594 43.90625 143.472656 43.71875 L 150.703125 39.0625 L 150.703125 52.355469 C 150.523438 52.488281 150.394531 52.683594 150.359375 52.921875 L 150.703125 52.972656 L 150.359375 52.921875 C 149.613281 57.9375 141.226562 62.535156 128.105469 65.9375 C 114.777344 69.394531 96.660156 71.515625 76.683594 71.515625 C 56.238281 71.515625 37.734375 69.292969 24.320312 65.691406 C 11.253906 62.179688 3.113281 57.46875 2.949219 52.378906 L 2.953125 52.375 C 2.960938 52.109375 2.847656 51.867188 2.664062 51.703125 L 2.664062 38.492188 L 6.414062 39.046875 L 8.027344 44.03125 C 8.046875 44.113281 8.078125 44.191406 8.121094 44.269531 C 8.359375 44.671875 8.878906 44.804688 9.28125 44.566406 C 15.175781 41.09375 24.714844 38.152344 36.597656 36.09375 Z M 151.046875 36.828125 L 150.703125 37.507812 C 150.703125 37.230469 150.839844 36.984375 151.046875 36.828125 " fill-opacity="1" fill-rule="nonzero"/></g><path fill="#121212" d="M 89.9375 57.335938 L 76.683594 57.335938 L 76.683594 71.515625 L 89.9375 71.199219 L 89.9375 57.335938 " fill-opacity="1" fill-rule="evenodd"/><path fill="#121212" d="M 138.890625 48.71875 L 126.148438 52.191406 L 126.785156 66.28125 L 139.28125 62.289062 L 138.890625 48.71875 " fill-opacity="1" fill-rule="evenodd"/><path fill="#121212" d="M 25.351562 52.222656 L 38.851562 54.9375 L 38.21875 68.632812 L 25.714844 66.054688 L 25.351562 52.222656 " fill-opacity="1" fill-rule="evenodd"/><path fill="#ffffff" d="M 76.683594 57.652344 C 35.445312 57.652344 1.816406 48.605469 1.816406 37.507812 C 1.816406 26.414062 35.445312 17.367188 76.683594 17.367188 C 117.917969 17.367188 151.550781 26.414062 151.550781 37.507812 C 151.550781 48.605469 117.917969 57.652344 76.683594 57.652344 " fill-opacity="1" fill-rule="evenodd"/><g clip-path="url(#c4e4fac0a9)"><path fill="#121212" d="M 76.683594 16.515625 C 55.9375 16.515625 37.140625 18.785156 23.523438 22.449219 C 9.585938 26.195312 0.964844 31.515625 0.964844 37.507812 C 0.964844 43.503906 9.585938 48.820312 23.523438 52.570312 C 37.140625 56.234375 55.9375 58.5 76.683594 58.5 C 97.429688 58.5 116.226562 56.234375 129.839844 52.570312 C 143.78125 48.820312 152.402344 43.503906 152.402344 37.507812 C 152.402344 31.515625 143.78125 26.195312 129.839844 22.449219 C 116.226562 18.785156 97.429688 16.515625 76.683594 16.515625 Z M 23.960938 24.085938 C 37.441406 20.457031 56.082031 18.214844 76.683594 18.214844 C 97.285156 18.214844 115.925781 20.457031 129.40625 24.085938 C 142.5625 27.625 150.703125 32.378906 150.703125 37.507812 C 150.703125 42.636719 142.5625 47.394531 129.40625 50.933594 C 115.925781 54.558594 97.285156 56.804688 76.683594 56.804688 C 56.082031 56.804688 37.441406 54.558594 23.960938 50.933594 C 10.800781 47.394531 2.664062 42.636719 2.664062 37.507812 C 2.664062 32.378906 10.800781 27.625 23.960938 24.085938 " fill-opacity="1" fill-rule="nonzero"/></g><path fill="#d1d1d1" d="M 76.933594 48.699219 C 52.523438 48.699219 32.617188 43.671875 32.617188 37.507812 C 32.617188 31.347656 52.523438 26.320312 76.933594 26.320312 C 101.34375 26.320312 121.25 31.347656 121.25 37.507812 C 121.25 43.671875 101.34375 48.699219 76.933594 48.699219 " fill-opacity="1" fill-rule="evenodd"/><path fill="#121212" d="M 76.933594 25.46875 C 64.625 25.46875 53.457031 26.734375 45.355469 28.78125 C 36.914062 30.910156 31.695312 33.992188 31.695312 37.507812 C 31.695312 41.027344 36.914062 44.105469 45.355469 46.238281 C 53.457031 48.28125 64.625 49.546875 76.933594 49.546875 C 89.242188 49.546875 100.410156 48.28125 108.511719 46.238281 C 116.953125 44.105469 122.171875 41.027344 122.171875 37.507812 C 122.171875 33.992188 116.953125 30.910156 108.511719 28.78125 C 100.410156 26.734375 89.242188 25.46875 76.933594 25.46875 Z M 45.839844 30.410156 C 53.777344 28.40625 64.769531 27.167969 76.933594 27.167969 C 89.097656 27.167969 100.089844 28.40625 108.027344 30.410156 C 115.625 32.332031 120.324219 34.847656 120.324219 37.507812 C 120.324219 40.171875 115.625 42.6875 108.027344 44.605469 C 100.089844 46.609375 89.097656 47.851562 76.933594 47.851562 C 64.769531 47.851562 53.777344 46.609375 45.839844 44.605469 C 38.242188 42.6875 33.542969 40.171875 33.542969 37.507812 C 33.542969 34.847656 38.242188 32.332031 45.839844 30.410156 " fill-opacity="1" fill-rule="nonzero"/><path fill="#121212" d="M 76.015625 17.925781 L 65.890625 21.699219 L 76.015625 25.476562 L 86.140625 21.699219 L 76.015625 17.925781 " fill-opacity="1" fill-rule="evenodd"/><path fill="#121212" d="M 76.015625 49.054688 L 65.890625 52.828125 L 76.015625 56.601562 L 86.140625 52.828125 L 76.015625 49.054688 " fill-opacity="1" fill-rule="evenodd"/><path fill="#121212" d="M 134.683594 32.953125 L 124.558594 37.160156 L 134.683594 41.363281 L 144.808594 37.160156 L 134.683594 32.953125 " fill-opacity="1" fill-rule="evenodd"/><path fill="#121212" d="M 17.507812 32.953125 L 7.382812 37.160156 L 17.507812 41.363281 L 27.632812 37.160156 L 17.507812 32.953125 " fill-opacity="1" fill-rule="evenodd"/><path fill="#d1d1d1" d="M 86.507812 15.769531 C 56.394531 15.769531 30.457031 20.589844 18.675781 27.527344 L 16.878906 21.972656 L 11.636719 21.199219 L 11.636719 36.019531 L 11.925781 36.03125 C 12.164062 47.101562 45.460938 56.054688 86.507812 56.054688 C 126.675781 56.054688 159.425781 47.480469 161.023438 36.734375 L 161.375 36.785156 L 161.375 21.199219 L 152.839844 26.695312 C 140.453125 20.207031 115.398438 15.769531 86.507812 15.769531 " fill-opacity="1" fill-rule="evenodd"/><g clip-path="url(#f7086fcfbf)"><path fill="#121212" d="M 86.507812 14.921875 C 71.648438 14.921875 57.792969 16.09375 46.136719 18.113281 C 34.644531 20.105469 25.277344 22.929688 19.160156 26.28125 L 17.683594 21.714844 L 16.878906 21.972656 L 17.6875 21.710938 C 17.582031 21.382812 17.289062 21.160156 16.960938 21.128906 L 11.761719 20.359375 C 11.300781 20.292969 10.867188 20.613281 10.796875 21.074219 C 10.792969 21.117188 10.789062 21.15625 10.789062 21.199219 L 10.789062 36.019531 C 10.789062 36.296875 10.925781 36.542969 11.132812 36.699219 C 11.851562 42.394531 20.34375 47.429688 33.707031 51.015625 C 47.261719 54.65625 65.917969 56.90625 86.507812 56.90625 C 106.613281 56.90625 124.882812 54.757812 138.355469 51.265625 C 151.582031 47.835938 160.265625 43.023438 161.714844 37.566406 C 161.972656 37.449219 162.171875 37.210938 162.214844 36.90625 C 162.222656 36.867188 162.226562 36.824219 162.226562 36.785156 L 162.226562 21.199219 C 162.226562 20.730469 161.84375 20.351562 161.375 20.351562 C 161.183594 20.351562 161.011719 20.414062 160.871094 20.519531 L 152.789062 25.71875 C 146.410156 22.480469 136.925781 19.761719 125.417969 17.867188 C 114.070312 16 100.746094 14.921875 86.507812 14.921875 Z M 46.421875 19.78125 C 57.980469 17.777344 71.734375 16.617188 86.507812 16.617188 C 100.671875 16.617188 113.902344 17.683594 125.148438 19.539062 C 136.703125 21.441406 146.160156 24.167969 152.378906 27.40625 C 152.648438 27.582031 153.007812 27.59375 153.296875 27.40625 L 160.527344 22.753906 L 160.527344 36.046875 C 160.347656 36.175781 160.21875 36.375 160.183594 36.609375 L 160.527344 36.660156 L 160.527344 36.664062 L 160.183594 36.613281 C 159.4375 41.625 151.050781 46.226562 137.929688 49.628906 C 124.601562 53.082031 106.484375 55.207031 86.507812 55.207031 C 66.0625 55.207031 47.558594 52.980469 34.144531 49.378906 C 21.078125 45.871094 12.9375 41.160156 12.773438 36.066406 L 12.773438 36.0625 C 12.785156 35.796875 12.671875 35.554688 12.488281 35.394531 L 12.488281 22.183594 L 16.238281 22.734375 L 17.851562 27.722656 C 17.867188 27.800781 17.902344 27.882812 17.945312 27.957031 C 18.183594 28.363281 18.703125 28.496094 19.105469 28.257812 L 19.105469 28.253906 C 25 24.785156 34.539062 21.84375 46.421875 19.78125 Z M 160.871094 20.519531 L 160.527344 21.199219 C 160.527344 20.921875 160.664062 20.671875 160.871094 20.519531 " fill-opacity="1" fill-rule="nonzero"/></g><path fill="#121212" d="M 99.761719 41.027344 L 86.507812 41.027344 L 86.507812 55.207031 L 99.761719 54.890625 L 99.761719 41.027344 " fill-opacity="1" fill-rule="evenodd"/><path fill="#121212" d="M 148.714844 32.410156 L 135.972656 35.878906 L 136.609375 49.96875 L 149.105469 45.980469 L 148.714844 32.410156 " fill-opacity="1" fill-rule="evenodd"/><path fill="#121212" d="M 35.175781 35.914062 L 48.675781 38.625 L 48.042969 52.324219 L 35.539062 49.742188 L 35.175781 35.914062 " fill-opacity="1" fill-rule="evenodd"/><path fill="#ffffff" d="M 86.507812 41.339844 C 45.269531 41.339844 11.636719 32.292969 11.636719 21.199219 C 11.636719 10.105469 45.269531 1.058594 86.507812 1.058594 C 127.742188 1.058594 161.375 10.105469 161.375 21.199219 C 161.375 32.292969 127.742188 41.339844 86.507812 41.339844 " fill-opacity="1" fill-rule="evenodd"/><g clip-path="url(#01dc8f840a)"><path fill="#121212" d="M 86.507812 0.207031 C 65.761719 0.207031 46.964844 2.472656 33.347656 6.136719 C 19.410156 9.886719 10.789062 15.203125 10.789062 21.199219 C 10.789062 27.195312 19.410156 32.511719 33.347656 36.261719 C 46.964844 39.925781 65.761719 42.191406 86.507812 42.191406 C 107.253906 42.191406 126.050781 39.925781 139.664062 36.261719 C 153.601562 32.511719 162.226562 27.195312 162.226562 21.199219 C 162.226562 15.203125 153.601562 9.886719 139.664062 6.136719 C 126.050781 2.472656 107.253906 0.207031 86.507812 0.207031 Z M 33.785156 7.773438 C 47.265625 4.148438 65.90625 1.902344 86.507812 1.902344 C 107.109375 1.902344 125.75 4.148438 139.226562 7.773438 C 152.386719 11.316406 160.527344 16.070312 160.527344 21.199219 C 160.527344 26.328125 152.386719 31.082031 139.226562 34.625 C 125.75 38.25 107.109375 40.496094 86.507812 40.496094 C 65.90625 40.496094 47.265625 38.25 33.785156 34.625 C 20.625 31.082031 12.488281 26.328125 12.488281 21.199219 C 12.488281 16.070312 20.625 11.316406 33.785156 7.773438 " fill-opacity="1" fill-rule="nonzero"/></g><path fill="#d1d1d1" d="M 86.757812 32.390625 C 62.347656 32.390625 42.441406 27.363281 42.441406 21.199219 C 42.441406 15.035156 62.347656 10.007812 86.757812 10.007812 C 111.167969 10.007812 131.074219 15.035156 131.074219 21.199219 C 131.074219 27.363281 111.167969 32.390625 86.757812 32.390625 " fill-opacity="1" fill-rule="evenodd"/><path fill="#121212" d="M 86.757812 9.160156 C 74.449219 9.160156 63.28125 10.425781 55.179688 12.472656 C 46.738281 14.601562 41.519531 17.679688 41.519531 21.199219 C 41.519531 24.71875 46.738281 27.796875 55.179688 29.925781 C 63.28125 31.972656 74.449219 33.238281 86.757812 33.238281 C 99.066406 33.238281 110.234375 31.972656 118.335938 29.925781 C 126.777344 27.796875 131.996094 24.71875 131.996094 21.199219 C 131.996094 17.679688 126.777344 14.601562 118.335938 12.472656 C 110.234375 10.425781 99.066406 9.160156 86.757812 9.160156 Z M 55.664062 14.101562 C 63.601562 12.097656 74.59375 10.855469 86.757812 10.855469 C 98.921875 10.855469 109.914062 12.097656 117.851562 14.101562 C 125.449219 16.019531 130.148438 18.539062 130.148438 21.199219 C 130.148438 23.859375 125.449219 26.378906 117.851562 28.296875 C 109.914062 30.300781 98.921875 31.542969 86.757812 31.542969 C 74.59375 31.542969 63.601562 30.300781 55.664062 28.296875 C 48.066406 26.378906 43.367188 23.859375 43.367188 21.199219 C 43.367188 18.539062 48.066406 16.019531 55.664062 14.101562 " fill-opacity="1" fill-rule="nonzero"/><path fill="#121212" d="M 85.839844 1.613281 L 75.714844 5.390625 L 85.839844 9.164062 L 95.964844 5.390625 L 85.839844 1.613281 " fill-opacity="1" fill-rule="evenodd"/><path fill="#121212" d="M 85.839844 32.742188 L 75.714844 36.515625 L 85.839844 40.292969 L 95.964844 36.515625 L 85.839844 32.742188 " fill-opacity="1" fill-rule="evenodd"/><path fill="#121212" d="M 144.507812 16.644531 L 134.382812 20.847656 L 144.507812 25.054688 L 154.632812 20.847656 L 144.507812 16.644531 " fill-opacity="1" fill-rule="evenodd"/><path fill="#121212" d="M 27.332031 16.644531 L 17.207031 20.847656 L 27.332031 25.054688 L 37.457031 20.847656 L 27.332031 16.644531 " fill-opacity="1" fill-rule="evenodd"/></g></g></g><path fill="#d1d1d1" d="M 78.503906 91.640625 C 108.613281 91.640625 134.554688 96.460938 146.335938 103.398438 L 148.132812 97.84375 L 153.371094 97.070312 L 153.371094 111.890625 L 153.082031 111.902344 C 152.847656 122.972656 119.550781 131.925781 78.503906 131.925781 C 38.332031 131.925781 5.585938 123.347656 3.988281 112.605469 L 3.636719 112.65625 L 3.636719 97.070312 L 12.171875 102.566406 C 24.558594 96.078125 49.613281 91.640625 78.503906 91.640625 " fill-opacity="1" fill-rule="evenodd"/><g clip-path="url(#80111025e1)"><path fill="#121212" d="M 78.503906 90.792969 C 93.363281 90.792969 107.21875 91.964844 118.875 93.984375 C 130.363281 95.976562 139.734375 98.800781 145.847656 102.148438 L 147.324219 97.585938 L 148.132812 97.84375 L 147.324219 97.582031 C 147.429688 97.25 147.722656 97.03125 148.050781 97 L 153.246094 96.230469 C 153.710938 96.164062 154.144531 96.484375 154.210938 96.945312 C 154.21875 96.988281 154.21875 97.027344 154.21875 97.070312 L 154.21875 111.890625 C 154.21875 112.167969 154.085938 112.414062 153.878906 112.570312 C 153.160156 118.265625 144.664062 123.300781 131.300781 126.886719 C 117.75 130.527344 99.09375 132.777344 78.503906 132.777344 C 58.398438 132.777344 40.125 130.628906 26.652344 127.136719 C 13.429688 123.707031 4.746094 118.894531 3.296875 113.4375 C 3.035156 113.324219 2.839844 113.082031 2.792969 112.777344 C 2.789062 112.738281 2.785156 112.695312 2.785156 112.65625 L 2.785156 97.070312 C 2.785156 96.601562 3.167969 96.222656 3.636719 96.222656 C 3.824219 96.222656 4 96.285156 4.140625 96.390625 L 12.222656 101.589844 C 18.597656 98.347656 28.085938 95.632812 39.589844 93.738281 C 50.941406 91.871094 64.265625 90.792969 78.503906 90.792969 Z M 118.589844 95.652344 C 107.03125 93.652344 93.273438 92.488281 78.503906 92.488281 C 64.339844 92.488281 51.109375 93.554688 39.863281 95.40625 C 28.304688 97.3125 18.851562 100.039062 12.632812 103.277344 C 12.363281 103.453125 12 103.464844 11.714844 103.28125 L 11.714844 103.277344 L 4.480469 98.625 L 4.480469 111.917969 C 4.664062 112.046875 4.792969 112.246094 4.828125 112.480469 L 4.480469 112.53125 L 4.480469 112.535156 L 4.828125 112.484375 C 5.574219 117.496094 13.960938 122.097656 27.078125 125.5 C 40.40625 128.953125 58.527344 131.078125 78.503906 131.078125 C 98.949219 131.078125 117.453125 128.851562 130.867188 125.25 C 143.933594 121.742188 152.070312 117.027344 152.234375 111.9375 L 152.234375 111.933594 C 152.222656 111.667969 152.335938 111.425781 152.523438 111.265625 L 152.523438 98.050781 L 148.773438 98.605469 L 147.160156 103.59375 C 147.140625 103.671875 147.109375 103.753906 147.066406 103.828125 C 146.828125 104.230469 146.308594 104.367188 145.902344 104.128906 L 145.902344 104.125 C 140.011719 100.65625 130.472656 97.714844 118.589844 95.652344 Z M 4.140625 96.390625 L 4.480469 97.070312 C 4.480469 96.792969 4.347656 96.542969 4.140625 96.390625 " fill-opacity="1" fill-rule="nonzero"/></g><path fill="#00d4aa" d="M 65.246094 116.898438 L 78.503906 116.898438 L 78.503906 131.078125 L 65.246094 130.761719 L 65.246094 116.898438 " fill-opacity="1" fill-rule="evenodd"/><path fill="#00d4aa" d="M 16.292969 108.28125 L 29.035156 111.75 L 28.402344 125.839844 L 15.90625 121.851562 L 16.292969 108.28125 " fill-opacity="1" fill-rule="evenodd"/><path fill="#00d4aa" d="M 129.835938 111.785156 L 116.335938 114.496094 L 116.96875 128.195312 L 129.472656 125.613281 L 129.835938 111.785156 " fill-opacity="1" fill-rule="evenodd"/><path fill="#ffffff" d="M 78.503906 117.210938 C 119.738281 117.210938 153.371094 108.164062 153.371094 97.070312 C 153.371094 85.972656 119.738281 76.925781 78.503906 76.925781 C 37.265625 76.925781 3.636719 85.972656 3.636719 97.070312 C 3.636719 108.164062 37.265625 117.210938 78.503906 117.210938 " fill-opacity="1" fill-rule="evenodd"/><g clip-path="url(#63af585cb7)"><path fill="#121212" d="M 78.503906 76.078125 C 99.25 76.078125 118.042969 78.34375 131.660156 82.007812 C 145.601562 85.757812 154.21875 91.074219 154.21875 97.070312 C 154.21875 103.0625 145.601562 108.382812 131.660156 112.132812 C 118.042969 115.796875 99.25 118.0625 78.503906 118.0625 C 57.757812 118.0625 38.960938 115.796875 25.34375 112.132812 C 11.40625 108.382812 2.785156 103.0625 2.785156 97.070312 C 2.785156 91.074219 11.40625 85.757812 25.34375 82.007812 C 38.960938 78.34375 57.757812 76.078125 78.503906 76.078125 Z M 131.222656 83.644531 C 117.746094 80.019531 99.105469 77.773438 78.503906 77.773438 C 57.898438 77.773438 39.261719 80.019531 25.78125 83.644531 C 12.621094 87.183594 4.480469 91.941406 4.480469 97.070312 C 4.480469 102.199219 12.621094 106.953125 25.78125 110.496094 C 39.261719 114.121094 57.898438 116.363281 78.503906 116.363281 C 99.105469 116.363281 117.746094 114.121094 131.222656 110.496094 C 144.382812 106.953125 152.523438 102.199219 152.523438 97.070312 C 152.523438 91.941406 144.382812 87.183594 131.222656 83.644531 " fill-opacity="1" fill-rule="nonzero"/></g><path fill="#d1d1d1" d="M 78.253906 108.261719 C 102.660156 108.261719 122.566406 103.234375 122.566406 97.070312 C 122.566406 90.90625 102.660156 85.878906 78.253906 85.878906 C 53.84375 85.878906 33.9375 90.90625 33.9375 97.070312 C 33.9375 103.234375 53.84375 108.261719 78.253906 108.261719 " fill-opacity="1" fill-rule="evenodd"/><path fill="#121212" d="M 78.253906 85.03125 C 90.5625 85.03125 101.730469 86.296875 109.832031 88.339844 C 118.269531 90.472656 123.492188 93.550781 123.492188 97.070312 C 123.492188 100.589844 118.269531 103.667969 109.832031 105.796875 C 101.730469 107.84375 90.5625 109.109375 78.253906 109.109375 C 65.941406 109.109375 54.773438 107.84375 46.675781 105.796875 C 38.234375 103.667969 33.011719 100.589844 33.011719 97.070312 C 33.011719 93.550781 38.234375 90.472656 46.675781 88.339844 C 54.777344 86.296875 65.941406 85.03125 78.253906 85.03125 Z M 109.347656 89.972656 C 101.40625 87.96875 90.414062 86.726562 78.253906 86.726562 C 66.089844 86.726562 55.097656 87.96875 47.15625 89.972656 C 39.558594 91.890625 34.859375 94.40625 34.859375 97.070312 C 34.859375 99.730469 39.558594 102.25 47.15625 104.167969 C 55.097656 106.171875 66.089844 107.410156 78.253906 107.410156 C 90.414062 107.410156 101.40625 106.171875 109.347656 104.167969 C 116.945312 102.25 121.644531 99.730469 121.644531 97.070312 C 121.644531 94.40625 116.945312 91.890625 109.347656 89.972656 " fill-opacity="1" fill-rule="nonzero"/><path fill="#00d4aa" d="M 79.167969 77.488281 L 89.292969 81.257812 L 79.167969 85.035156 L 69.046875 81.257812 L 79.167969 77.488281 " fill-opacity="1" fill-rule="evenodd"/><path fill="#00d4aa" d="M 79.167969 108.613281 L 89.292969 112.386719 L 79.167969 116.164062 L 69.046875 112.386719 L 79.167969 108.613281 " fill-opacity="1" fill-rule="evenodd"/><path fill="#00d4aa" d="M 20.503906 92.515625 L 30.628906 96.71875 L 20.503906 100.921875 L 10.378906 96.71875 L 20.503906 92.515625 " fill-opacity="1" fill-rule="evenodd"/><path fill="#00d4aa" d="M 137.679688 92.515625 L 147.804688 96.71875 L 137.679688 100.921875 L 127.554688 96.71875 L 137.679688 92.515625 " fill-opacity="1" fill-rule="evenodd"/><path fill="#d1d1d1" d="M 86.71875 71.714844 C 116.832031 71.714844 142.769531 76.539062 154.546875 83.476562 L 156.34375 77.921875 L 161.585938 77.148438 L 161.585938 91.96875 L 161.296875 91.980469 C 161.058594 103.046875 127.765625 112.003906 86.71875 112.003906 C 46.550781 112.003906 13.800781 103.425781 12.203125 92.683594 L 11.847656 92.734375 L 11.847656 77.148438 L 20.386719 82.644531 C 32.773438 76.15625 57.828125 71.714844 86.71875 71.714844 " fill-opacity="1" fill-rule="evenodd"/><path fill="#121212" d="M 86.71875 70.871094 C 101.578125 70.871094 115.433594 72.039062 127.089844 74.058594 C 138.578125 76.050781 147.949219 78.878906 154.0625 82.226562 L 155.539062 77.660156 L 156.34375 77.921875 L 155.539062 77.660156 C 155.644531 77.328125 155.9375 77.109375 156.261719 77.078125 L 161.464844 76.308594 L 161.460938 76.308594 C 161.925781 76.238281 162.355469 76.558594 162.425781 77.023438 C 162.433594 77.066406 162.433594 77.105469 162.433594 77.148438 L 162.433594 91.96875 C 162.433594 92.246094 162.300781 92.492188 162.09375 92.648438 C 161.375 98.339844 152.878906 103.375 139.515625 106.964844 C 125.964844 110.605469 107.304688 112.851562 86.71875 112.851562 C 66.609375 112.851562 48.339844 110.707031 34.871094 107.214844 C 21.640625 103.78125 12.957031 98.972656 11.511719 93.511719 C 11.25 93.398438 11.054688 93.15625 11.011719 92.855469 C 11.003906 92.816406 11 92.773438 11 92.734375 L 11 77.148438 C 11 76.679688 11.378906 76.296875 11.847656 76.296875 C 12.039062 76.296875 12.214844 76.359375 12.355469 76.464844 L 20.433594 81.667969 C 26.8125 78.429688 36.300781 75.710938 47.804688 73.816406 C 59.15625 71.945312 72.480469 70.871094 86.71875 70.871094 Z M 126.800781 75.730469 C 115.246094 73.730469 101.488281 72.566406 86.71875 72.566406 C 72.550781 72.566406 59.324219 73.632812 48.078125 75.484375 C 36.519531 77.386719 27.066406 80.117188 20.847656 83.355469 C 20.574219 83.53125 20.214844 83.542969 19.925781 83.355469 L 12.699219 78.699219 L 12.699219 91.996094 C 12.878906 92.125 13.007812 92.324219 13.039062 92.558594 L 12.699219 92.609375 L 13.039062 92.5625 C 13.785156 97.574219 22.171875 102.175781 35.292969 105.574219 C 48.621094 109.03125 66.742188 111.15625 86.71875 111.15625 C 107.164062 111.15625 125.664062 108.929688 139.078125 105.328125 C 152.148438 101.820312 160.285156 97.105469 160.449219 92.015625 L 160.449219 92.011719 C 160.4375 91.746094 160.550781 91.503906 160.738281 91.339844 L 160.738281 78.128906 L 156.988281 78.683594 L 155.375 83.667969 C 155.355469 83.75 155.324219 83.828125 155.28125 83.90625 C 155.042969 84.308594 154.519531 84.441406 154.117188 84.207031 L 154.121094 84.203125 C 148.226562 80.730469 138.6875 77.789062 126.800781 75.730469 Z M 12.355469 76.464844 L 12.699219 77.148438 C 12.699219 76.867188 12.5625 76.621094 12.355469 76.464844 " fill-opacity="1" fill-rule="nonzero"/><path fill="#00d4aa" d="M 73.464844 96.976562 L 86.71875 96.976562 L 86.71875 111.15625 L 73.464844 110.835938 L 73.464844 96.976562 " fill-opacity="1" fill-rule="evenodd"/><path fill="#00d4aa" d="M 24.507812 88.359375 L 37.25 91.828125 L 36.613281 105.917969 L 24.117188 101.929688 L 24.507812 88.359375 " fill-opacity="1" fill-rule="evenodd"/><path fill="#00d4aa" d="M 138.050781 91.859375 L 124.546875 94.574219 L 125.183594 108.269531 L 137.6875 105.691406 L 138.050781 91.859375 " fill-opacity="1" fill-rule="evenodd"/><path fill="#ffffff" d="M 86.71875 97.292969 C 127.953125 97.292969 161.585938 88.242188 161.585938 77.148438 C 161.585938 66.054688 127.953125 57.003906 86.71875 57.003906 C 45.480469 57.003906 11.847656 66.054688 11.847656 77.148438 C 11.847656 88.242188 45.480469 97.292969 86.71875 97.292969 " fill-opacity="1" fill-rule="evenodd"/><path fill="#121212" d="M 86.71875 56.15625 C 107.464844 56.15625 126.261719 58.421875 139.875 62.085938 C 153.8125 65.835938 162.433594 71.152344 162.433594 77.148438 C 162.433594 83.144531 153.8125 88.457031 139.875 92.210938 C 126.261719 95.871094 107.464844 98.136719 86.71875 98.136719 C 65.972656 98.136719 47.175781 95.871094 33.558594 92.210938 C 19.621094 88.457031 11 83.144531 11 77.148438 C 11 71.152344 19.621094 65.835938 33.558594 62.085938 C 47.175781 58.421875 65.972656 56.15625 86.71875 56.15625 Z M 139.4375 63.722656 C 125.960938 60.097656 107.320312 57.851562 86.71875 57.851562 C 66.117188 57.851562 47.476562 60.097656 33.996094 63.722656 C 20.835938 67.261719 12.699219 72.019531 12.699219 77.148438 C 12.699219 82.277344 20.835938 87.03125 33.996094 90.570312 C 47.476562 94.199219 66.117188 96.441406 86.71875 96.441406 C 107.320312 96.441406 125.960938 94.199219 139.4375 90.570312 C 152.597656 87.03125 160.738281 82.277344 160.738281 77.148438 C 160.738281 72.019531 152.597656 67.261719 139.4375 63.722656 " fill-opacity="1" fill-rule="nonzero"/><path fill="#d1d1d1" d="M 86.46875 88.339844 C 110.875 88.339844 130.78125 83.3125 130.78125 77.148438 C 130.78125 70.984375 110.875 65.957031 86.46875 65.957031 C 62.058594 65.957031 42.152344 70.984375 42.152344 77.148438 C 42.152344 83.3125 62.058594 88.339844 86.46875 88.339844 " fill-opacity="1" fill-rule="evenodd"/><path fill="#121212" d="M 86.46875 65.109375 C 98.777344 65.109375 109.945312 66.375 118.042969 68.417969 C 126.484375 70.550781 131.707031 73.628906 131.707031 77.148438 C 131.707031 80.667969 126.484375 83.742188 118.042969 85.875 C 109.945312 87.921875 98.777344 89.1875 86.46875 89.1875 C 74.15625 89.1875 62.992188 87.921875 54.886719 85.875 C 46.449219 83.742188 41.226562 80.667969 41.226562 77.148438 C 41.226562 73.628906 46.449219 70.550781 54.890625 68.417969 C 62.992188 66.375 74.15625 65.109375 86.46875 65.109375 Z M 117.5625 70.050781 C 109.625 68.042969 98.632812 66.804688 86.46875 66.804688 C 74.304688 66.804688 63.3125 68.042969 55.375 70.050781 C 47.777344 71.96875 43.074219 74.488281 43.074219 77.148438 C 43.074219 79.808594 47.777344 82.328125 55.375 84.242188 C 63.3125 86.25 74.304688 87.488281 86.46875 87.488281 C 98.632812 87.488281 109.625 86.25 117.5625 84.242188 C 125.160156 82.328125 129.859375 79.808594 129.859375 77.148438 C 129.859375 74.488281 125.160156 71.96875 117.5625 70.050781 " fill-opacity="1" fill-rule="nonzero"/><path fill="#00d4aa" d="M 87.382812 57.5625 L 97.507812 61.335938 L 87.382812 65.113281 L 77.261719 61.335938 L 87.382812 57.5625 " fill-opacity="1" fill-rule="evenodd"/><path fill="#00d4aa" d="M 87.382812 88.691406 L 97.507812 92.464844 L 87.382812 96.238281 L 77.261719 92.464844 L 87.382812 88.691406 " fill-opacity="1" fill-rule="evenodd"/><path fill="#00d4aa" d="M 28.71875 72.589844 L 38.839844 76.796875 L 28.71875 81 L 18.59375 76.796875 L 28.71875 72.589844 " fill-opacity="1" fill-rule="evenodd"/><path fill="#00d4aa" d="M 145.894531 72.589844 L 156.019531 76.796875 L 145.894531 81 L 135.769531 76.796875 L 145.894531 72.589844 " fill-opacity="1" fill-rule="evenodd"/><path fill="#d1d1d1" d="M 79.105469 55.613281 C 109.21875 55.613281 135.15625 60.433594 146.9375 67.371094 L 148.734375 61.816406 L 153.976562 61.042969 L 153.976562 75.863281 L 153.683594 75.875 C 153.449219 86.945312 120.152344 95.898438 79.105469 95.898438 C 38.9375 95.898438 6.1875 87.324219 4.589844 76.582031 L 4.238281 76.628906 L 4.238281 61.042969 L 12.773438 66.539062 C 25.160156 60.050781 50.214844 55.613281 79.105469 55.613281 " fill-opacity="1" fill-rule="evenodd"/><path fill="#121212" d="M 79.105469 54.765625 C 93.964844 54.765625 107.820312 55.9375 119.476562 57.957031 C 130.964844 59.949219 140.335938 62.777344 146.449219 66.125 L 147.925781 61.558594 L 148.734375 61.816406 L 147.925781 61.554688 C 148.03125 61.226562 148.324219 61.003906 148.652344 60.972656 L 153.851562 60.203125 C 154.3125 60.136719 154.746094 60.457031 154.8125 60.917969 C 154.820312 60.960938 154.824219 61.003906 154.824219 61.042969 L 154.824219 75.863281 C 154.824219 76.144531 154.6875 76.390625 154.480469 76.542969 C 153.761719 82.238281 145.265625 87.273438 131.90625 90.859375 C 118.351562 94.5 99.695312 96.75 79.105469 96.75 C 59 96.75 40.726562 94.601562 27.253906 91.109375 C 14.03125 87.679688 5.347656 82.871094 3.898438 77.410156 C 3.636719 77.296875 3.441406 77.054688 3.394531 76.753906 C 3.390625 76.710938 3.386719 76.671875 3.386719 76.628906 L 3.386719 61.042969 C 3.386719 60.574219 3.769531 60.195312 4.238281 60.195312 C 4.425781 60.195312 4.601562 60.257812 4.742188 60.363281 L 12.824219 65.566406 C 19.203125 62.324219 28.6875 59.609375 40.195312 57.710938 C 51.542969 55.84375 64.867188 54.765625 79.105469 54.765625 Z M 119.191406 59.625 C 107.632812 57.625 93.878906 56.460938 79.105469 56.460938 C 64.941406 56.460938 51.710938 57.53125 40.464844 59.382812 C 28.910156 61.285156 19.453125 64.011719 13.234375 67.253906 C 12.964844 67.429688 12.601562 67.4375 12.316406 67.253906 L 5.085938 62.597656 L 5.085938 75.890625 C 5.265625 76.023438 5.394531 76.21875 5.429688 76.457031 L 5.085938 76.507812 L 5.429688 76.457031 C 6.175781 81.46875 14.5625 86.070312 27.679688 89.472656 C 41.007812 92.929688 59.128906 95.054688 79.105469 95.054688 C 99.550781 95.054688 118.054688 92.828125 131.46875 89.226562 C 144.535156 85.714844 152.671875 81.003906 152.839844 75.910156 C 152.824219 75.644531 152.9375 75.402344 153.125 75.238281 L 153.125 62.027344 L 149.375 62.582031 L 147.761719 67.566406 C 147.742188 67.648438 147.710938 67.726562 147.667969 67.804688 C 147.429688 68.207031 146.910156 68.339844 146.503906 68.101562 L 146.507812 68.097656 C 140.613281 64.628906 131.074219 61.6875 119.191406 59.625 Z M 4.742188 60.363281 L 5.085938 61.042969 C 5.085938 60.765625 4.949219 60.519531 4.742188 60.363281 " fill-opacity="1" fill-rule="nonzero"/><path fill="#00d4aa" d="M 65.851562 80.871094 L 79.105469 80.871094 L 79.105469 95.054688 L 65.851562 94.734375 L 65.851562 80.871094 " fill-opacity="1" fill-rule="evenodd"/><path fill="#00d4aa" d="M 16.894531 72.253906 L 29.636719 75.726562 L 29.003906 89.816406 L 16.507812 85.824219 L 16.894531 72.253906 " fill-opacity="1" fill-rule="evenodd"/><path fill="#00d4aa" d="M 130.4375 75.757812 L 116.9375 78.472656 L 117.570312 92.167969 L 130.074219 89.589844 L 130.4375 75.757812 " fill-opacity="1" fill-rule="evenodd"/><path fill="#ffffff" d="M 79.105469 81.1875 C 120.339844 81.1875 153.976562 72.136719 153.976562 61.042969 C 153.976562 49.949219 120.339844 40.902344 79.105469 40.902344 C 37.867188 40.902344 4.238281 49.949219 4.238281 61.042969 C 4.238281 72.136719 37.867188 81.1875 79.105469 81.1875 " fill-opacity="1" fill-rule="evenodd"/><path fill="#121212" d="M 79.105469 40.050781 C 99.851562 40.050781 118.648438 42.320312 132.261719 45.984375 C 146.203125 49.730469 154.824219 55.050781 154.824219 61.042969 C 154.824219 67.039062 146.203125 72.355469 132.261719 76.105469 C 118.648438 79.769531 99.851562 82.035156 79.105469 82.035156 C 58.359375 82.035156 39.5625 79.769531 25.945312 76.105469 C 12.011719 72.355469 3.386719 67.039062 3.386719 61.042969 C 3.386719 55.050781 12.011719 49.730469 25.945312 45.984375 C 39.5625 42.320312 58.359375 40.050781 79.105469 40.050781 Z M 131.824219 47.617188 C 118.347656 43.992188 99.707031 41.75 79.105469 41.75 C 58.503906 41.75 39.863281 43.992188 26.382812 47.617188 C 13.222656 51.160156 5.085938 55.914062 5.085938 61.042969 C 5.085938 66.171875 13.222656 70.925781 26.382812 74.46875 C 39.863281 78.09375 58.503906 80.339844 79.105469 80.339844 C 99.707031 80.339844 118.347656 78.09375 131.828125 74.46875 C 144.984375 70.925781 153.125 66.171875 153.125 61.042969 C 153.125 55.914062 144.984375 51.160156 131.824219 47.617188 " fill-opacity="1" fill-rule="nonzero"/><path fill="#d1d1d1" d="M 78.855469 72.234375 C 103.261719 72.234375 123.167969 67.207031 123.167969 61.042969 C 123.167969 54.882812 103.261719 49.855469 78.855469 49.855469 C 54.445312 49.855469 34.539062 54.882812 34.539062 61.042969 C 34.539062 67.207031 54.445312 72.234375 78.855469 72.234375 " fill-opacity="1" fill-rule="evenodd"/><path fill="#121212" d="M 78.855469 49.003906 C 91.164062 49.003906 102.332031 50.269531 110.429688 52.316406 C 118.875 54.445312 124.09375 57.527344 124.09375 61.042969 C 124.09375 64.5625 118.875 67.640625 110.429688 69.773438 C 102.332031 71.816406 91.164062 73.082031 78.855469 73.082031 C 66.542969 73.082031 55.378906 71.816406 47.277344 69.773438 C 38.835938 67.640625 33.617188 64.5625 33.617188 61.042969 C 33.617188 57.527344 38.835938 54.445312 47.277344 52.316406 C 55.378906 50.269531 66.542969 49.003906 78.855469 49.003906 Z M 109.949219 53.945312 C 102.011719 51.941406 91.019531 50.703125 78.855469 50.703125 C 66.691406 50.703125 55.699219 51.941406 47.761719 53.945312 C 40.160156 55.867188 35.460938 58.382812 35.460938 61.042969 C 35.460938 63.707031 40.160156 66.222656 47.761719 68.140625 C 55.699219 70.144531 66.691406 71.386719 78.855469 71.386719 C 91.019531 71.386719 102.011719 70.144531 109.949219 68.140625 C 117.546875 66.222656 122.246094 63.707031 122.246094 61.042969 C 122.246094 58.382812 117.546875 55.867188 109.949219 53.945312 " fill-opacity="1" fill-rule="nonzero"/><path fill="#00d4aa" d="M 79.769531 41.460938 L 89.894531 45.234375 L 79.769531 49.007812 L 69.648438 45.234375 L 79.769531 41.460938 " fill-opacity="1" fill-rule="evenodd"/><path fill="#00d4aa" d="M 79.769531 72.589844 L 89.894531 76.363281 L 79.769531 80.136719 L 69.648438 76.363281 L 79.769531 72.589844 " fill-opacity="1" fill-rule="evenodd"/><path fill="#00d4aa" d="M 21.105469 56.488281 L 31.230469 60.695312 L 21.105469 64.898438 L 10.980469 60.695312 L 21.105469 56.488281 " fill-opacity="1" fill-rule="evenodd"/><path fill="#00d4aa" d="M 138.28125 56.488281 L 148.40625 60.695312 L 138.28125 64.898438 L 128.15625 60.695312 L 138.28125 56.488281 " fill-opacity="1" fill-rule="evenodd"/><path fill="#d1d1d1" d="M 88.929688 31.933594 C 119.042969 31.933594 144.980469 36.75 156.761719 43.691406 L 158.558594 38.136719 L 163.796875 37.359375 L 163.796875 52.179688 L 163.507812 52.191406 C 163.273438 63.261719 129.976562 72.21875 88.929688 72.21875 C 48.761719 72.21875 16.011719 63.640625 14.414062 52.898438 L 14.0625 52.949219 L 14.0625 37.359375 L 22.597656 42.859375 C 34.984375 36.371094 60.039062 31.933594 88.929688 31.933594 " fill-opacity="1" fill-rule="evenodd"/><g clip-path="url(#3a9b0d837f)"><path fill="#121212" d="M 88.929688 31.082031 C 103.789062 31.082031 117.644531 32.253906 129.300781 34.273438 C 140.789062 36.265625 150.160156 39.09375 156.273438 42.441406 L 157.75 37.878906 L 158.558594 38.136719 L 157.75 37.875 C 157.855469 37.542969 158.148438 37.324219 158.476562 37.289062 L 163.675781 36.523438 C 164.136719 36.453125 164.570312 36.773438 164.636719 37.238281 C 164.644531 37.28125 164.648438 37.320312 164.648438 37.359375 L 164.648438 52.179688 C 164.648438 52.460938 164.511719 52.707031 164.304688 52.863281 C 163.585938 58.554688 155.089844 63.59375 141.730469 67.179688 C 128.175781 70.816406 109.519531 73.066406 88.929688 73.066406 C 68.824219 73.066406 50.550781 70.917969 37.078125 67.425781 C 23.855469 64 15.171875 59.1875 13.722656 53.726562 C 13.460938 53.613281 13.261719 53.371094 13.222656 53.070312 C 13.214844 53.027344 13.210938 52.988281 13.210938 52.949219 L 13.210938 37.359375 C 13.210938 36.890625 13.59375 36.511719 14.0625 36.511719 C 14.25 36.511719 14.425781 36.574219 14.566406 36.679688 L 22.648438 41.882812 C 29.023438 38.640625 38.511719 35.925781 50.015625 34.03125 C 61.367188 32.160156 74.691406 31.082031 88.929688 31.082031 Z M 129.015625 35.945312 C 117.457031 33.941406 103.703125 32.78125 88.929688 32.78125 C 74.765625 32.78125 61.535156 33.847656 50.289062 35.699219 C 38.730469 37.605469 29.277344 40.328125 23.058594 43.570312 C 22.789062 43.746094 22.425781 43.757812 22.140625 43.570312 L 14.910156 38.914062 L 14.910156 52.207031 C 15.089844 52.339844 15.21875 52.535156 15.253906 52.773438 L 14.910156 52.824219 L 15.253906 52.773438 C 16 57.789062 24.386719 62.386719 37.503906 65.789062 C 50.832031 69.246094 68.953125 71.367188 88.929688 71.367188 C 109.375 71.367188 127.878906 69.144531 141.292969 65.542969 C 154.359375 62.03125 162.496094 57.320312 162.664062 52.230469 L 162.660156 52.226562 C 162.648438 51.960938 162.761719 51.71875 162.949219 51.554688 L 162.949219 38.34375 L 159.199219 38.898438 L 157.585938 43.882812 C 157.566406 43.964844 157.535156 44.042969 157.492188 44.121094 C 157.253906 44.523438 156.734375 44.660156 156.328125 44.421875 L 156.332031 44.417969 C 150.4375 40.945312 140.898438 38.003906 129.015625 35.945312 Z M 14.566406 36.679688 L 14.910156 37.359375 C 14.910156 37.082031 14.773438 36.835938 14.566406 36.679688 " fill-opacity="1" fill-rule="nonzero"/></g><path fill="#00d4aa" d="M 75.675781 57.191406 L 88.929688 57.191406 L 88.929688 71.367188 L 75.675781 71.050781 L 75.675781 57.191406 " fill-opacity="1" fill-rule="evenodd"/><path fill="#00d4aa" d="M 26.71875 48.574219 L 39.460938 52.042969 L 38.828125 66.132812 L 26.332031 62.144531 L 26.71875 48.574219 " fill-opacity="1" fill-rule="evenodd"/><path fill="#00d4aa" d="M 140.261719 52.074219 L 126.761719 54.789062 L 127.394531 68.488281 L 139.898438 65.90625 L 140.261719 52.074219 " fill-opacity="1" fill-rule="evenodd"/><path fill="#ffffff" d="M 88.929688 57.503906 C 130.164062 57.503906 163.796875 48.457031 163.796875 37.359375 C 163.796875 26.265625 130.164062 17.21875 88.929688 17.21875 C 47.691406 17.21875 14.0625 26.265625 14.0625 37.359375 C 14.0625 48.457031 47.691406 57.503906 88.929688 57.503906 " fill-opacity="1" fill-rule="evenodd"/><g clip-path="url(#7391649514)"><path fill="#121212" d="M 88.929688 16.371094 C 109.675781 16.371094 128.472656 18.636719 142.085938 22.300781 C 156.027344 26.050781 164.648438 31.367188 164.648438 37.359375 C 164.648438 43.355469 156.027344 48.671875 142.085938 52.421875 C 128.472656 56.085938 109.675781 58.355469 88.929688 58.355469 C 68.183594 58.355469 49.386719 56.085938 35.769531 52.421875 C 21.832031 48.671875 13.210938 43.355469 13.210938 37.359375 C 13.210938 31.367188 21.832031 26.050781 35.769531 22.300781 C 49.386719 18.636719 68.183594 16.371094 88.929688 16.371094 Z M 141.648438 23.9375 C 128.171875 20.3125 109.53125 18.066406 88.929688 18.066406 C 68.328125 18.066406 49.6875 20.3125 36.207031 23.9375 C 23.046875 27.476562 14.910156 32.234375 14.910156 37.359375 C 14.910156 42.492188 23.046875 47.246094 36.207031 50.785156 C 49.6875 54.414062 68.328125 56.65625 88.929688 56.65625 C 109.53125 56.65625 128.171875 54.414062 141.648438 50.785156 C 154.808594 47.246094 162.949219 42.492188 162.949219 37.359375 C 162.949219 32.234375 154.808594 27.476562 141.648438 23.9375 " fill-opacity="1" fill-rule="nonzero"/></g><path fill="#d1d1d1" d="M 88.679688 48.550781 C 113.089844 48.550781 132.992188 43.523438 132.992188 37.359375 C 132.992188 31.199219 113.089844 26.171875 88.679688 26.171875 C 64.269531 26.171875 44.363281 31.199219 44.363281 37.359375 C 44.363281 43.523438 64.269531 48.550781 88.679688 48.550781 " fill-opacity="1" fill-rule="evenodd"/><path fill="#121212" d="M 88.679688 25.320312 C 100.988281 25.320312 112.15625 26.589844 120.253906 28.632812 C 128.699219 30.765625 133.917969 33.84375 133.917969 37.359375 C 133.917969 40.878906 128.699219 43.957031 120.253906 46.089844 C 112.15625 48.136719 100.988281 49.402344 88.679688 49.402344 C 76.367188 49.402344 65.203125 48.136719 57.101562 46.089844 C 48.660156 43.957031 43.441406 40.878906 43.441406 37.359375 C 43.441406 33.84375 48.660156 30.765625 57.101562 28.632812 C 65.203125 26.589844 76.367188 25.320312 88.679688 25.320312 Z M 119.773438 30.261719 C 111.835938 28.261719 100.84375 27.019531 88.679688 27.019531 C 76.515625 27.019531 65.523438 28.261719 57.585938 30.261719 C 49.988281 32.183594 45.285156 34.699219 45.285156 37.359375 C 45.285156 40.023438 49.988281 42.539062 57.585938 44.460938 C 65.523438 46.464844 76.515625 47.703125 88.679688 47.703125 C 100.84375 47.703125 111.835938 46.464844 119.773438 44.460938 C 127.371094 42.539062 132.070312 40.023438 132.070312 37.359375 C 132.070312 34.699219 127.371094 32.183594 119.773438 30.261719 " fill-opacity="1" fill-rule="nonzero"/><path fill="#00d4aa" d="M 89.597656 17.777344 L 99.71875 21.550781 L 89.597656 25.328125 L 79.472656 21.550781 L 89.597656 17.777344 " fill-opacity="1" fill-rule="evenodd"/><path fill="#00d4aa" d="M 89.597656 48.90625 L 99.71875 52.679688 L 89.597656 56.453125 L 79.472656 52.679688 L 89.597656 48.90625 " fill-opacity="1" fill-rule="evenodd"/><path fill="#00d4aa" d="M 30.929688 32.808594 L 41.054688 37.011719 L 30.929688 41.214844 L 20.804688 37.011719 L 30.929688 32.808594 " fill-opacity="1" fill-rule="evenodd"/><path fill="#00d4aa" d="M 148.105469 32.808594 L 158.230469 37.011719 L 148.105469 41.214844 L 137.980469 37.011719 L 148.105469 32.808594 " fill-opacity="1" fill-rule="evenodd"/><path fill="#d1d1d1" d="M 79.105469 15.621094 C 109.21875 15.621094 135.15625 20.441406 146.9375 27.378906 L 148.734375 21.824219 L 153.976562 21.050781 L 153.976562 35.871094 L 153.683594 35.882812 C 153.449219 46.953125 120.152344 55.910156 79.105469 55.910156 C 38.9375 55.910156 6.1875 47.332031 4.589844 36.585938 L 4.238281 36.640625 L 4.238281 21.050781 L 12.773438 26.546875 C 25.160156 20.058594 50.214844 15.621094 79.105469 15.621094 " fill-opacity="1" fill-rule="evenodd"/><path fill="#121212" d="M 79.105469 14.773438 C 93.964844 14.773438 107.820312 15.945312 119.476562 17.964844 C 130.964844 19.957031 140.335938 22.78125 146.449219 26.132812 L 147.925781 21.566406 L 148.734375 21.824219 L 147.925781 21.5625 C 148.03125 21.234375 148.324219 21.011719 148.652344 20.980469 L 153.851562 20.210938 C 154.3125 20.144531 154.746094 20.464844 154.8125 20.929688 C 154.820312 20.96875 154.824219 21.011719 154.824219 21.050781 L 154.824219 35.871094 C 154.824219 36.148438 154.6875 36.398438 154.480469 36.550781 C 153.761719 42.246094 145.265625 47.28125 131.90625 50.871094 C 118.351562 54.507812 99.695312 56.757812 79.105469 56.757812 C 59 56.757812 40.726562 54.609375 27.253906 51.117188 C 14.03125 47.6875 5.347656 42.875 3.898438 37.417969 C 3.636719 37.300781 3.441406 37.0625 3.394531 36.761719 C 3.390625 36.71875 3.386719 36.679688 3.386719 36.640625 L 3.386719 21.050781 C 3.386719 20.582031 3.769531 20.203125 4.238281 20.203125 C 4.425781 20.203125 4.601562 20.265625 4.742188 20.371094 L 12.824219 25.574219 C 19.203125 22.332031 28.6875 19.613281 40.195312 17.722656 C 51.542969 15.851562 64.867188 14.773438 79.105469 14.773438 Z M 119.191406 19.636719 C 107.632812 17.632812 93.878906 16.46875 79.105469 16.46875 C 64.941406 16.46875 51.710938 17.539062 40.464844 19.390625 C 28.910156 21.292969 19.453125 24.019531 13.234375 27.261719 C 12.964844 27.433594 12.601562 27.449219 12.316406 27.261719 L 12.316406 27.257812 L 5.085938 22.605469 L 5.085938 35.898438 C 5.265625 36.027344 5.394531 36.226562 5.429688 36.460938 L 5.085938 36.511719 L 5.085938 36.515625 L 5.429688 36.464844 C 6.175781 41.480469 14.5625 46.078125 27.679688 49.480469 C 41.007812 52.9375 59.128906 55.058594 79.105469 55.058594 C 99.550781 55.058594 118.054688 52.832031 131.46875 49.230469 C 144.535156 45.722656 152.671875 41.011719 152.839844 35.921875 L 152.839844 35.917969 C 152.824219 35.652344 152.9375 35.410156 153.125 35.246094 L 153.125 22.035156 L 149.375 22.585938 L 147.761719 27.574219 C 147.742188 27.65625 147.710938 27.734375 147.667969 27.808594 C 147.429688 28.214844 146.910156 28.347656 146.503906 28.109375 L 146.507812 28.109375 C 140.613281 24.636719 131.074219 21.695312 119.191406 19.636719 Z M 4.742188 20.371094 L 5.085938 21.050781 C 5.085938 20.773438 4.949219 20.523438 4.742188 20.371094 " fill-opacity="1" fill-rule="nonzero"/><path fill="#00d4aa" d="M 65.851562 40.878906 L 79.105469 40.878906 L 79.105469 55.058594 L 65.851562 54.742188 L 65.851562 40.878906 " fill-opacity="1" fill-rule="evenodd"/><path fill="#00d4aa" d="M 16.894531 32.261719 L 29.636719 35.734375 L 29.003906 49.824219 L 16.507812 45.832031 L 16.894531 32.261719 " fill-opacity="1" fill-rule="evenodd"/><path fill="#00d4aa" d="M 130.4375 35.765625 L 116.9375 38.480469 L 117.570312 52.175781 L 130.074219 49.59375 L 130.4375 35.765625 " fill-opacity="1" fill-rule="evenodd"/><g clip-path="url(#1959187bf9)"><path fill="#ffffff" d="M 79.105469 41.195312 C 120.339844 41.195312 153.976562 32.144531 153.976562 21.050781 C 153.976562 9.957031 120.339844 0.910156 79.105469 0.910156 C 37.867188 0.910156 4.238281 9.957031 4.238281 21.050781 C 4.238281 32.144531 37.867188 41.195312 79.105469 41.195312 " fill-opacity="1" fill-rule="evenodd"/></g><g clip-path="url(#c857a127b0)"><path fill="#121212" d="M 79.105469 0.0585938 C 99.851562 0.0585938 118.648438 2.324219 132.261719 5.988281 C 146.203125 9.742188 154.824219 15.054688 154.824219 21.050781 C 154.824219 27.046875 146.203125 32.363281 132.261719 36.113281 C 118.648438 39.777344 99.851562 42.042969 79.105469 42.042969 C 58.359375 42.042969 39.5625 39.777344 25.945312 36.113281 C 12.011719 32.363281 3.386719 27.046875 3.386719 21.050781 C 3.386719 15.058594 12.011719 9.742188 25.945312 5.988281 C 39.5625 2.324219 58.359375 0.0585938 79.105469 0.0585938 Z M 131.824219 7.628906 C 118.347656 4 99.707031 1.757812 79.105469 1.757812 C 58.503906 1.757812 39.863281 4 26.382812 7.628906 C 13.222656 11.167969 5.085938 15.921875 5.085938 21.050781 C 5.085938 26.179688 13.222656 30.9375 26.382812 34.476562 C 39.863281 38.101562 58.503906 40.347656 79.105469 40.347656 C 99.707031 40.347656 118.347656 38.101562 131.828125 34.476562 C 144.984375 30.9375 153.125 26.179688 153.125 21.050781 C 153.125 15.921875 144.984375 11.167969 131.824219 7.628906 " fill-opacity="1" fill-rule="nonzero"/></g><path fill="#d1d1d1" d="M 78.855469 32.242188 C 103.261719 32.242188 123.167969 27.214844 123.167969 21.050781 C 123.167969 14.886719 103.261719 9.859375 78.855469 9.859375 C 54.445312 9.859375 34.539062 14.886719 34.539062 21.050781 C 34.539062 27.214844 54.445312 32.242188 78.855469 32.242188 " fill-opacity="1" fill-rule="evenodd"/><path fill="#121212" d="M 78.855469 9.011719 C 91.164062 9.011719 102.332031 10.277344 110.429688 12.324219 C 118.875 14.453125 124.09375 17.53125 124.09375 21.050781 C 124.09375 24.570312 118.875 27.648438 110.429688 29.78125 C 102.332031 31.824219 91.164062 33.089844 78.855469 33.089844 C 66.542969 33.089844 55.378906 31.824219 47.277344 29.78125 C 38.835938 27.648438 33.617188 24.570312 33.617188 21.050781 C 33.617188 17.53125 38.835938 14.453125 47.277344 12.324219 C 55.378906 10.277344 66.542969 9.011719 78.855469 9.011719 Z M 109.949219 13.953125 C 102.011719 11.949219 91.019531 10.710938 78.855469 10.710938 C 66.691406 10.710938 55.699219 11.949219 47.761719 13.953125 C 40.160156 15.871094 35.460938 18.390625 35.460938 21.050781 C 35.460938 23.710938 40.160156 26.230469 47.761719 28.148438 C 55.699219 30.152344 66.691406 31.394531 78.855469 31.394531 C 91.019531 31.394531 102.011719 30.152344 109.949219 28.148438 C 117.546875 26.230469 122.246094 23.710938 122.246094 21.050781 C 122.246094 18.390625 117.546875 15.871094 109.949219 13.953125 " fill-opacity="1" fill-rule="nonzero"/><path fill="#00d4aa" d="M 79.769531 1.464844 L 89.894531 5.242188 L 79.769531 9.015625 L 69.648438 5.242188 L 79.769531 1.464844 " fill-opacity="1" fill-rule="evenodd"/><path fill="#00d4aa" d="M 79.769531 32.59375 L 89.894531 36.371094 L 79.769531 40.144531 L 69.648438 36.371094 L 79.769531 32.59375 " fill-opacity="1" fill-rule="evenodd"/><path fill="#00d4aa" d="M 21.105469 16.496094 L 31.230469 20.703125 L 21.105469 24.90625 L 10.980469 20.703125 L 21.105469 16.496094 " fill-opacity="1" fill-rule="evenodd"/><path fill="#00d4aa" d="M 138.28125 16.496094 L 148.40625 20.703125 L 138.28125 24.90625 L 128.15625 20.703125 L 138.28125 16.496094 " fill-opacity="1" fill-rule="evenodd"/><path fill="#d1d1d1" d="M 78.503906 91.640625 C 108.613281 91.640625 134.554688 96.460938 146.335938 103.398438 L 148.132812 97.84375 L 153.371094 97.070312 L 153.371094 111.890625 L 153.082031 111.902344 C 152.847656 122.972656 119.550781 131.925781 78.503906 131.925781 C 38.332031 131.925781 5.585938 123.347656 3.988281 112.605469 L 3.636719 112.65625 L 3.636719 97.070312 L 12.171875 102.566406 C 24.558594 96.078125 49.613281 91.640625 78.503906 91.640625 " fill-opacity="1" fill-rule="evenodd"/><g clip-path="url(#cd2fdf9778)"><path fill="#121212" d="M 78.503906 90.792969 C 93.363281 90.792969 107.21875 91.964844 118.875 93.984375 C 130.363281 95.976562 139.734375 98.800781 145.847656 102.148438 L 147.324219 97.585938 L 148.132812 97.84375 L 147.324219 97.582031 C 147.429688 97.25 147.722656 97.03125 148.050781 97 L 153.246094 96.230469 C 153.710938 96.164062 154.144531 96.484375 154.210938 96.945312 C 154.21875 96.988281 154.21875 97.027344 154.21875 97.070312 L 154.21875 111.890625 C 154.21875 112.167969 154.085938 112.414062 153.878906 112.570312 C 153.160156 118.265625 144.664062 123.300781 131.300781 126.886719 C 117.75 130.527344 99.09375 132.777344 78.503906 132.777344 C 58.398438 132.777344 40.125 130.628906 26.652344 127.136719 C 13.429688 123.707031 4.746094 118.894531 3.296875 113.4375 C 3.035156 113.324219 2.839844 113.082031 2.792969 112.777344 C 2.789062 112.738281 2.785156 112.695312 2.785156 112.65625 L 2.785156 97.070312 C 2.785156 96.601562 3.167969 96.222656 3.636719 96.222656 C 3.824219 96.222656 4 96.285156 4.140625 96.390625 L 12.222656 101.589844 C 18.597656 98.347656 28.085938 95.632812 39.589844 93.738281 C 50.941406 91.871094 64.265625 90.792969 78.503906 90.792969 Z M 118.589844 95.652344 C 107.03125 93.652344 93.273438 92.488281 78.503906 92.488281 C 64.339844 92.488281 51.109375 93.554688 39.863281 95.40625 C 28.304688 97.3125 18.851562 100.039062 12.632812 103.277344 C 12.363281 103.453125 12 103.464844 11.714844 103.28125 L 11.714844 103.277344 L 4.480469 98.625 L 4.480469 111.917969 C 4.664062 112.046875 4.792969 112.246094 4.828125 112.480469 L 4.480469 112.53125 L 4.480469 112.535156 L 4.828125 112.484375 C 5.574219 117.496094 13.960938 122.097656 27.078125 125.5 C 40.40625 128.953125 58.527344 131.078125 78.503906 131.078125 C 98.949219 131.078125 117.453125 128.851562 130.867188 125.25 C 143.933594 121.742188 152.070312 117.027344 152.234375 111.9375 L 152.234375 111.933594 C 152.222656 111.667969 152.335938 111.425781 152.523438 111.265625 L 152.523438 98.050781 L 148.773438 98.605469 L 147.160156 103.59375 C 147.140625 103.671875 147.109375 103.753906 147.066406 103.828125 C 146.828125 104.230469 146.308594 104.367188 145.902344 104.128906 L 145.902344 104.125 C 140.011719 100.65625 130.472656 97.714844 118.589844 95.652344 Z M 4.140625 96.390625 L 4.480469 97.070312 C 4.480469 96.792969 4.347656 96.542969 4.140625 96.390625 " fill-opacity="1" fill-rule="nonzero"/></g><path fill="#ff4e00" d="M 65.246094 116.898438 L 78.503906 116.898438 L 78.503906 131.078125 L 65.246094 130.761719 L 65.246094 116.898438 " fill-opacity="1" fill-rule="evenodd"/><path fill="#ff4e00" d="M 16.292969 108.28125 L 29.035156 111.75 L 28.402344 125.839844 L 15.90625 121.851562 L 16.292969 108.28125 " fill-opacity="1" fill-rule="evenodd"/><path fill="#ff4e00" d="M 129.835938 111.785156 L 116.335938 114.496094 L 116.96875 128.195312 L 129.472656 125.613281 L 129.835938 111.785156 " fill-opacity="1" fill-rule="evenodd"/><path fill="#ffffff" d="M 78.503906 117.210938 C 119.738281 117.210938 153.371094 108.164062 153.371094 97.070312 C 153.371094 85.972656 119.738281 76.925781 78.503906 76.925781 C 37.265625 76.925781 3.636719 85.972656 3.636719 97.070312 C 3.636719 108.164062 37.265625 117.210938 78.503906 117.210938 " fill-opacity="1" fill-rule="evenodd"/><g clip-path="url(#d37005eae9)"><path fill="#121212" d="M 78.503906 76.078125 C 99.25 76.078125 118.042969 78.34375 131.660156 82.007812 C 145.601562 85.757812 154.21875 91.074219 154.21875 97.070312 C 154.21875 103.0625 145.601562 108.382812 131.660156 112.132812 C 118.042969 115.796875 99.25 118.0625 78.503906 118.0625 C 57.757812 118.0625 38.960938 115.796875 25.34375 112.132812 C 11.40625 108.382812 2.785156 103.0625 2.785156 97.070312 C 2.785156 91.074219 11.40625 85.757812 25.34375 82.007812 C 38.960938 78.34375 57.757812 76.078125 78.503906 76.078125 Z M 131.222656 83.644531 C 117.746094 80.019531 99.105469 77.773438 78.503906 77.773438 C 57.898438 77.773438 39.261719 80.019531 25.78125 83.644531 C 12.621094 87.183594 4.480469 91.941406 4.480469 97.070312 C 4.480469 102.199219 12.621094 106.953125 25.78125 110.496094 C 39.261719 114.121094 57.898438 116.363281 78.503906 116.363281 C 99.105469 116.363281 117.746094 114.121094 131.222656 110.496094 C 144.382812 106.953125 152.523438 102.199219 152.523438 97.070312 C 152.523438 91.941406 144.382812 87.183594 131.222656 83.644531 " fill-opacity="1" fill-rule="nonzero"/></g><path fill="#d1d1d1" d="M 78.253906 108.261719 C 102.660156 108.261719 122.566406 103.234375 122.566406 97.070312 C 122.566406 90.90625 102.660156 85.878906 78.253906 85.878906 C 53.84375 85.878906 33.9375 90.90625 33.9375 97.070312 C 33.9375 103.234375 53.84375 108.261719 78.253906 108.261719 " fill-opacity="1" fill-rule="evenodd"/><path fill="#121212" d="M 78.253906 85.03125 C 90.5625 85.03125 101.730469 86.296875 109.832031 88.339844 C 118.269531 90.472656 123.492188 93.550781 123.492188 97.070312 C 123.492188 100.589844 118.269531 103.667969 109.832031 105.796875 C 101.730469 107.84375 90.5625 109.109375 78.253906 109.109375 C 65.941406 109.109375 54.773438 107.84375 46.675781 105.796875 C 38.234375 103.667969 33.011719 100.589844 33.011719 97.070312 C 33.011719 93.550781 38.234375 90.472656 46.675781 88.339844 C 54.777344 86.296875 65.941406 85.03125 78.253906 85.03125 Z M 109.347656 89.972656 C 101.40625 87.96875 90.414062 86.726562 78.253906 86.726562 C 66.089844 86.726562 55.097656 87.96875 47.15625 89.972656 C 39.558594 91.890625 34.859375 94.40625 34.859375 97.070312 C 34.859375 99.730469 39.558594 102.25 47.15625 104.167969 C 55.097656 106.171875 66.089844 107.410156 78.253906 107.410156 C 90.414062 107.410156 101.40625 106.171875 109.347656 104.167969 C 116.945312 102.25 121.644531 99.730469 121.644531 97.070312 C 121.644531 94.40625 116.945312 91.890625 109.347656 89.972656 " fill-opacity="1" fill-rule="nonzero"/><path fill="#ff4e00" d="M 79.167969 77.488281 L 89.292969 81.257812 L 79.167969 85.035156 L 69.046875 81.257812 L 79.167969 77.488281 " fill-opacity="1" fill-rule="evenodd"/><path fill="#ff4e00" d="M 79.167969 108.613281 L 89.292969 112.386719 L 79.167969 116.164062 L 69.046875 112.386719 L 79.167969 108.613281 " fill-opacity="1" fill-rule="evenodd"/><path fill="#ff4e00" d="M 20.503906 92.515625 L 30.628906 96.71875 L 20.503906 100.921875 L 10.378906 96.71875 L 20.503906 92.515625 " fill-opacity="1" fill-rule="evenodd"/><path fill="#ff4e00" d="M 137.679688 92.515625 L 147.804688 96.71875 L 137.679688 100.921875 L 127.554688 96.71875 L 137.679688 92.515625 " fill-opacity="1" fill-rule="evenodd"/><g clip-path="url(#6512bb6a13)"><path fill="#d1d1d1" d="M 86.71875 71.714844 C 116.832031 71.714844 142.769531 76.539062 154.546875 83.476562 L 156.34375 77.921875 L 161.585938 77.148438 L 161.585938 91.96875 L 161.296875 91.980469 C 161.058594 103.046875 127.765625 112.003906 86.71875 112.003906 C 46.550781 112.003906 13.800781 103.425781 12.203125 92.683594 L 11.847656 92.734375 L 11.847656 77.148438 L 20.386719 82.644531 C 32.773438 76.15625 57.828125 71.714844 86.71875 71.714844 " fill-opacity="1" fill-rule="evenodd"/></g><g clip-path="url(#d5fa9f8fde)"><path fill="#121212" d="M 86.71875 70.871094 C 101.578125 70.871094 115.433594 72.039062 127.089844 74.058594 C 138.578125 76.050781 147.949219 78.878906 154.0625 82.226562 L 155.539062 77.660156 L 156.34375 77.921875 L 155.539062 77.660156 C 155.644531 77.328125 155.9375 77.109375 156.261719 77.078125 L 161.464844 76.308594 L 161.460938 76.308594 C 161.925781 76.238281 162.355469 76.558594 162.425781 77.023438 C 162.433594 77.066406 162.433594 77.105469 162.433594 77.148438 L 162.433594 91.96875 C 162.433594 92.246094 162.300781 92.492188 162.09375 92.648438 C 161.375 98.339844 152.878906 103.375 139.515625 106.964844 C 125.964844 110.605469 107.304688 112.851562 86.71875 112.851562 C 66.609375 112.851562 48.339844 110.707031 34.871094 107.214844 C 21.640625 103.78125 12.957031 98.972656 11.511719 93.511719 C 11.25 93.398438 11.054688 93.15625 11.011719 92.855469 C 11.003906 92.816406 11 92.773438 11 92.734375 L 11 77.148438 C 11 76.679688 11.378906 76.296875 11.847656 76.296875 C 12.039062 76.296875 12.214844 76.359375 12.355469 76.464844 L 20.433594 81.667969 C 26.8125 78.429688 36.300781 75.710938 47.804688 73.816406 C 59.15625 71.945312 72.480469 70.871094 86.71875 70.871094 Z M 126.800781 75.730469 C 115.246094 73.730469 101.488281 72.566406 86.71875 72.566406 C 72.550781 72.566406 59.324219 73.632812 48.078125 75.484375 C 36.519531 77.386719 27.066406 80.117188 20.847656 83.355469 C 20.574219 83.53125 20.214844 83.542969 19.925781 83.355469 L 12.699219 78.699219 L 12.699219 91.996094 C 12.878906 92.125 13.007812 92.324219 13.039062 92.558594 L 12.699219 92.609375 L 13.039062 92.5625 C 13.785156 97.574219 22.171875 102.175781 35.292969 105.574219 C 48.621094 109.03125 66.742188 111.15625 86.71875 111.15625 C 107.164062 111.15625 125.664062 108.929688 139.078125 105.328125 C 152.148438 101.820312 160.285156 97.105469 160.449219 92.015625 L 160.449219 92.011719 C 160.4375 91.746094 160.550781 91.503906 160.738281 91.339844 L 160.738281 78.128906 L 156.988281 78.683594 L 155.375 83.667969 C 155.355469 83.75 155.324219 83.828125 155.28125 83.90625 C 155.042969 84.308594 154.519531 84.441406 154.117188 84.207031 L 154.121094 84.203125 C 148.226562 80.730469 138.6875 77.789062 126.800781 75.730469 Z M 12.355469 76.464844 L 12.699219 77.148438 C 12.699219 76.867188 12.5625 76.621094 12.355469 76.464844 " fill-opacity="1" fill-rule="nonzero"/></g><path fill="#ff4e00" d="M 73.464844 96.976562 L 86.71875 96.976562 L 86.71875 111.15625 L 73.464844 110.835938 L 73.464844 96.976562 " fill-opacity="1" fill-rule="evenodd"/><path fill="#ff4e00" d="M 24.507812 88.359375 L 37.25 91.828125 L 36.613281 105.917969 L 24.117188 101.929688 L 24.507812 88.359375 " fill-opacity="1" fill-rule="evenodd"/><path fill="#ff4e00" d="M 138.050781 91.859375 L 124.546875 94.574219 L 125.183594 108.269531 L 137.6875 105.691406 L 138.050781 91.859375 " fill-opacity="1" fill-rule="evenodd"/><g clip-path="url(#2c0a00d7ee)"><path fill="#ffffff" d="M 86.71875 97.292969 C 127.953125 97.292969 161.585938 88.242188 161.585938 77.148438 C 161.585938 66.054688 127.953125 57.003906 86.71875 57.003906 C 45.480469 57.003906 11.847656 66.054688 11.847656 77.148438 C 11.847656 88.242188 45.480469 97.292969 86.71875 97.292969 " fill-opacity="1" fill-rule="evenodd"/></g><g clip-path="url(#a7a40faad8)"><path fill="#121212" d="M 86.71875 56.15625 C 107.464844 56.15625 126.261719 58.421875 139.875 62.085938 C 153.8125 65.835938 162.433594 71.152344 162.433594 77.148438 C 162.433594 83.144531 153.8125 88.457031 139.875 92.210938 C 126.261719 95.871094 107.464844 98.136719 86.71875 98.136719 C 65.972656 98.136719 47.175781 95.871094 33.558594 92.210938 C 19.621094 88.457031 11 83.144531 11 77.148438 C 11 71.152344 19.621094 65.835938 33.558594 62.085938 C 47.175781 58.421875 65.972656 56.15625 86.71875 56.15625 Z M 139.4375 63.722656 C 125.960938 60.097656 107.320312 57.851562 86.71875 57.851562 C 66.117188 57.851562 47.476562 60.097656 33.996094 63.722656 C 20.835938 67.261719 12.699219 72.019531 12.699219 77.148438 C 12.699219 82.277344 20.835938 87.03125 33.996094 90.570312 C 47.476562 94.199219 66.117188 96.441406 86.71875 96.441406 C 107.320312 96.441406 125.960938 94.199219 139.4375 90.570312 C 152.597656 87.03125 160.738281 82.277344 160.738281 77.148438 C 160.738281 72.019531 152.597656 67.261719 139.4375 63.722656 " fill-opacity="1" fill-rule="nonzero"/></g><g clip-path="url(#d133b4a820)"><path fill="#d1d1d1" d="M 86.46875 88.339844 C 110.875 88.339844 130.78125 83.3125 130.78125 77.148438 C 130.78125 70.984375 110.875 65.957031 86.46875 65.957031 C 62.058594 65.957031 42.152344 70.984375 42.152344 77.148438 C 42.152344 83.3125 62.058594 88.339844 86.46875 88.339844 " fill-opacity="1" fill-rule="evenodd"/></g><g clip-path="url(#007c4c60c6)"><path fill="#121212" d="M 86.46875 65.109375 C 98.777344 65.109375 109.945312 66.375 118.042969 68.417969 C 126.484375 70.550781 131.707031 73.628906 131.707031 77.148438 C 131.707031 80.667969 126.484375 83.742188 118.042969 85.875 C 109.945312 87.921875 98.777344 89.1875 86.46875 89.1875 C 74.15625 89.1875 62.992188 87.921875 54.886719 85.875 C 46.449219 83.742188 41.226562 80.667969 41.226562 77.148438 C 41.226562 73.628906 46.449219 70.550781 54.890625 68.417969 C 62.992188 66.375 74.15625 65.109375 86.46875 65.109375 Z M 117.5625 70.050781 C 109.625 68.042969 98.632812 66.804688 86.46875 66.804688 C 74.304688 66.804688 63.3125 68.042969 55.375 70.050781 C 47.777344 71.96875 43.074219 74.488281 43.074219 77.148438 C 43.074219 79.808594 47.777344 82.328125 55.375 84.242188 C 63.3125 86.25 74.304688 87.488281 86.46875 87.488281 C 98.632812 87.488281 109.625 86.25 117.5625 84.242188 C 125.160156 82.328125 129.859375 79.808594 129.859375 77.148438 C 129.859375 74.488281 125.160156 71.96875 117.5625 70.050781 " fill-opacity="1" fill-rule="nonzero"/></g><path fill="#ff4e00" d="M 87.382812 88.691406 L 97.507812 92.464844 L 87.382812 96.238281 L 77.261719 92.464844 L 87.382812 88.691406 " fill-opacity="1" fill-rule="evenodd"/><g clip-path="url(#4828c54017)"><path fill="#ff4e00" d="M 28.71875 72.589844 L 38.839844 76.796875 L 28.71875 81 L 18.59375 76.796875 L 28.71875 72.589844 " fill-opacity="1" fill-rule="evenodd"/></g><g clip-path="url(#6fac39950e)"><path fill="#ff4e00" d="M 145.894531 72.589844 L 156.019531 76.796875 L 145.894531 81 L 135.769531 76.796875 L 145.894531 72.589844 " fill-opacity="1" fill-rule="evenodd"/></g><g clip-path="url(#bd19ad19ab)"><path fill="#d1d1d1" d="M 79.105469 55.613281 C 109.21875 55.613281 135.15625 60.433594 146.9375 67.371094 L 148.734375 61.816406 L 153.976562 61.042969 L 153.976562 75.863281 L 153.683594 75.875 C 153.449219 86.945312 120.152344 95.898438 79.105469 95.898438 C 38.9375 95.898438 6.1875 87.324219 4.589844 76.582031 L 4.238281 76.628906 L 4.238281 61.042969 L 12.773438 66.539062 C 25.160156 60.050781 50.214844 55.613281 79.105469 55.613281 " fill-opacity="1" fill-rule="evenodd"/></g><g clip-path="url(#f212b373eb)"><path fill="#121212" d="M 79.105469 54.765625 C 93.964844 54.765625 107.820312 55.9375 119.476562 57.957031 C 130.964844 59.949219 140.335938 62.777344 146.449219 66.125 L 147.925781 61.558594 L 148.734375 61.816406 L 147.925781 61.554688 C 148.03125 61.226562 148.324219 61.003906 148.652344 60.972656 L 153.851562 60.203125 C 154.3125 60.136719 154.746094 60.457031 154.8125 60.917969 C 154.820312 60.960938 154.824219 61.003906 154.824219 61.042969 L 154.824219 75.863281 C 154.824219 76.144531 154.6875 76.390625 154.480469 76.542969 C 153.761719 82.238281 145.265625 87.273438 131.90625 90.859375 C 118.351562 94.5 99.695312 96.75 79.105469 96.75 C 59 96.75 40.726562 94.601562 27.253906 91.109375 C 14.03125 87.679688 5.347656 82.871094 3.898438 77.410156 C 3.636719 77.296875 3.441406 77.054688 3.394531 76.753906 C 3.390625 76.710938 3.386719 76.671875 3.386719 76.628906 L 3.386719 61.042969 C 3.386719 60.574219 3.769531 60.195312 4.238281 60.195312 C 4.425781 60.195312 4.601562 60.257812 4.742188 60.363281 L 12.824219 65.566406 C 19.203125 62.324219 28.6875 59.609375 40.195312 57.710938 C 51.542969 55.84375 64.867188 54.765625 79.105469 54.765625 Z M 119.191406 59.625 C 107.632812 57.625 93.878906 56.460938 79.105469 56.460938 C 64.941406 56.460938 51.710938 57.53125 40.464844 59.382812 C 28.910156 61.285156 19.453125 64.011719 13.234375 67.253906 C 12.964844 67.429688 12.601562 67.4375 12.316406 67.253906 L 5.085938 62.597656 L 5.085938 75.890625 C 5.265625 76.023438 5.394531 76.21875 5.429688 76.457031 L 5.085938 76.507812 L 5.429688 76.457031 C 6.175781 81.46875 14.5625 86.070312 27.679688 89.472656 C 41.007812 92.929688 59.128906 95.054688 79.105469 95.054688 C 99.550781 95.054688 118.054688 92.828125 131.46875 89.226562 C 144.535156 85.714844 152.671875 81.003906 152.839844 75.910156 C 152.824219 75.644531 152.9375 75.402344 153.125 75.238281 L 153.125 62.027344 L 149.375 62.582031 L 147.761719 67.566406 C 147.742188 67.648438 147.710938 67.726562 147.667969 67.804688 C 147.429688 68.207031 146.910156 68.339844 146.503906 68.101562 L 146.507812 68.097656 C 140.613281 64.628906 131.074219 61.6875 119.191406 59.625 Z M 4.742188 60.363281 L 5.085938 61.042969 C 5.085938 60.765625 4.949219 60.519531 4.742188 60.363281 " fill-opacity="1" fill-rule="nonzero"/></g><path fill="#ff4e00" d="M 65.851562 80.871094 L 79.105469 80.871094 L 79.105469 95.054688 L 65.851562 94.734375 L 65.851562 80.871094 " fill-opacity="1" fill-rule="evenodd"/><g clip-path="url(#95a1ba996f)"><path fill="#ff4e00" d="M 16.894531 72.253906 L 29.636719 75.726562 L 29.003906 89.816406 L 16.507812 85.824219 L 16.894531 72.253906 " fill-opacity="1" fill-rule="evenodd"/></g><path fill="#ff4e00" d="M 130.4375 75.757812 L 116.9375 78.472656 L 117.570312 92.167969 L 130.074219 89.589844 L 130.4375 75.757812 " fill-opacity="1" fill-rule="evenodd"/><g clip-path="url(#e77a906abe)"><path fill="#ffffff" d="M 79.105469 81.1875 C 120.339844 81.1875 153.976562 72.136719 153.976562 61.042969 C 153.976562 49.949219 120.339844 40.902344 79.105469 40.902344 C 37.867188 40.902344 4.238281 49.949219 4.238281 61.042969 C 4.238281 72.136719 37.867188 81.1875 79.105469 81.1875 " fill-opacity="1" fill-rule="evenodd"/></g><g clip-path="url(#cad4040957)"><path fill="#121212" d="M 79.105469 40.050781 C 99.851562 40.050781 118.648438 42.320312 132.261719 45.984375 C 146.203125 49.730469 154.824219 55.050781 154.824219 61.042969 C 154.824219 67.039062 146.203125 72.355469 132.261719 76.105469 C 118.648438 79.769531 99.851562 82.035156 79.105469 82.035156 C 58.359375 82.035156 39.5625 79.769531 25.945312 76.105469 C 12.011719 72.355469 3.386719 67.039062 3.386719 61.042969 C 3.386719 55.050781 12.011719 49.730469 25.945312 45.984375 C 39.5625 42.320312 58.359375 40.050781 79.105469 40.050781 Z M 131.824219 47.617188 C 118.347656 43.992188 99.707031 41.75 79.105469 41.75 C 58.503906 41.75 39.863281 43.992188 26.382812 47.617188 C 13.222656 51.160156 5.085938 55.914062 5.085938 61.042969 C 5.085938 66.171875 13.222656 70.925781 26.382812 74.46875 C 39.863281 78.09375 58.503906 80.339844 79.105469 80.339844 C 99.707031 80.339844 118.347656 78.09375 131.828125 74.46875 C 144.984375 70.925781 153.125 66.171875 153.125 61.042969 C 153.125 55.914062 144.984375 51.160156 131.824219 47.617188 " fill-opacity="1" fill-rule="nonzero"/></g><g clip-path="url(#c2eafecdfd)"><path fill="#121212" d="M 78.855469 49.003906 C 91.164062 49.003906 102.332031 50.269531 110.429688 52.316406 C 118.875 54.445312 124.09375 57.527344 124.09375 61.042969 C 124.09375 64.5625 118.875 67.640625 110.429688 69.773438 C 102.332031 71.816406 91.164062 73.082031 78.855469 73.082031 C 66.542969 73.082031 55.378906 71.816406 47.277344 69.773438 C 38.835938 67.640625 33.617188 64.5625 33.617188 61.042969 C 33.617188 57.527344 38.835938 54.445312 47.277344 52.316406 C 55.378906 50.269531 66.542969 49.003906 78.855469 49.003906 Z M 109.949219 53.945312 C 102.011719 51.941406 91.019531 50.703125 78.855469 50.703125 C 66.691406 50.703125 55.699219 51.941406 47.761719 53.945312 C 40.160156 55.867188 35.460938 58.382812 35.460938 61.042969 C 35.460938 63.707031 40.160156 66.222656 47.761719 68.140625 C 55.699219 70.144531 66.691406 71.386719 78.855469 71.386719 C 91.019531 71.386719 102.011719 70.144531 109.949219 68.140625 C 117.546875 66.222656 122.246094 63.707031 122.246094 61.042969 C 122.246094 58.382812 117.546875 55.867188 109.949219 53.945312 " fill-opacity="1" fill-rule="nonzero"/></g><g clip-path="url(#8af7c8c639)"><path fill="#ff4e00" d="M 79.769531 72.589844 L 89.894531 76.363281 L 79.769531 80.136719 L 69.648438 76.363281 L 79.769531 72.589844 " fill-opacity="1" fill-rule="evenodd"/></g><g clip-path="url(#93fd8b6832)"><path fill="#121212" d="M 88.929688 31.082031 C 103.789062 31.082031 117.644531 32.253906 129.300781 34.273438 C 140.789062 36.265625 150.160156 39.09375 156.273438 42.441406 L 157.75 37.878906 L 158.558594 38.136719 L 157.75 37.875 C 157.855469 37.542969 158.148438 37.324219 158.476562 37.289062 L 163.675781 36.523438 C 164.136719 36.453125 164.570312 36.773438 164.636719 37.238281 C 164.644531 37.28125 164.648438 37.320312 164.648438 37.359375 L 164.648438 52.179688 C 164.648438 52.460938 164.511719 52.707031 164.304688 52.863281 C 163.585938 58.554688 155.089844 63.59375 141.730469 67.179688 C 128.175781 70.816406 109.519531 73.066406 88.929688 73.066406 C 68.824219 73.066406 50.550781 70.917969 37.078125 67.425781 C 23.855469 64 15.171875 59.1875 13.722656 53.726562 C 13.460938 53.613281 13.261719 53.371094 13.222656 53.070312 C 13.214844 53.027344 13.210938 52.988281 13.210938 52.949219 L 13.210938 37.359375 C 13.210938 36.890625 13.59375 36.511719 14.0625 36.511719 C 14.25 36.511719 14.425781 36.574219 14.566406 36.679688 L 22.648438 41.882812 C 29.023438 38.640625 38.511719 35.925781 50.015625 34.03125 C 61.367188 32.160156 74.691406 31.082031 88.929688 31.082031 Z M 129.015625 35.945312 C 117.457031 33.941406 103.703125 32.78125 88.929688 32.78125 C 74.765625 32.78125 61.535156 33.847656 50.289062 35.699219 C 38.730469 37.605469 29.277344 40.328125 23.058594 43.570312 C 22.789062 43.746094 22.425781 43.757812 22.140625 43.570312 L 14.910156 38.914062 L 14.910156 52.207031 C 15.089844 52.339844 15.21875 52.535156 15.253906 52.773438 L 14.910156 52.824219 L 15.253906 52.773438 C 16 57.789062 24.386719 62.386719 37.503906 65.789062 C 50.832031 69.246094 68.953125 71.367188 88.929688 71.367188 C 109.375 71.367188 127.878906 69.144531 141.292969 65.542969 C 154.359375 62.03125 162.496094 57.320312 162.664062 52.230469 L 162.660156 52.226562 C 162.648438 51.960938 162.761719 51.71875 162.949219 51.554688 L 162.949219 38.34375 L 159.199219 38.898438 L 157.585938 43.882812 C 157.566406 43.964844 157.535156 44.042969 157.492188 44.121094 C 157.253906 44.523438 156.734375 44.660156 156.328125 44.421875 L 156.332031 44.417969 C 150.4375 40.945312 140.898438 38.003906 129.015625 35.945312 Z M 14.566406 36.679688 L 14.910156 37.359375 C 14.910156 37.082031 14.773438 36.835938 14.566406 36.679688 " fill-opacity="1" fill-rule="nonzero"/></g></g></g></g></svg>