<svg xmlns="http://www.w3.org/2000/svg" xmlns:xlink="http://www.w3.org/1999/xlink" width="300" zoomAndPan="magnify" viewBox="0 0 224.87999 225" height="300" preserveAspectRatio="xMidYMid meet" version="1.0"><defs><g/><clipPath id="1fcd793afd"><path d="M 58 56 L 168 56 L 168 166 L 58 166 Z M 58 56 " clip-rule="nonzero"/></clipPath><clipPath id="01f2fdf85e"><path d="M 113.023438 33.449219 L 190.941406 111.363281 L 113.023438 189.28125 L 35.105469 111.363281 Z M 113.023438 33.449219 " clip-rule="nonzero"/></clipPath><clipPath id="58317d9d10"><path d="M 113.023438 33.449219 L 190.941406 111.363281 L 113.023438 189.28125 L 35.105469 111.363281 Z M 113.023438 33.449219 " clip-rule="nonzero"/></clipPath><clipPath id="eccd3622f2"><path d="M 58 56 L 168 56 L 168 167 L 58 167 Z M 58 56 " clip-rule="nonzero"/></clipPath><clipPath id="d2cf2185da"><path d="M 113.023438 33.449219 L 190.941406 111.363281 L 113.023438 189.28125 L 35.105469 111.363281 Z M 113.023438 33.449219 " clip-rule="nonzero"/></clipPath><clipPath id="b3ce4a9166"><path d="M 113.023438 33.449219 L 190.941406 111.363281 L 113.023438 189.28125 L 35.105469 111.363281 Z M 113.023438 33.449219 " clip-rule="nonzero"/></clipPath><clipPath id="f6f0f21a45"><path d="M 134 65 L 159 65 L 159 90 L 134 90 Z M 134 65 " clip-rule="nonzero"/></clipPath><clipPath id="1d7b0cfbaf"><path d="M 113.023438 33.449219 L 190.941406 111.363281 L 113.023438 189.28125 L 35.105469 111.363281 Z M 113.023438 33.449219 " clip-rule="nonzero"/></clipPath><clipPath id="a344428e6f"><path d="M 113.023438 33.449219 L 190.941406 111.363281 L 113.023438 189.28125 L 35.105469 111.363281 Z M 113.023438 33.449219 " clip-rule="nonzero"/></clipPath><clipPath id="3e311a7366"><path d="M 67 132 L 92 132 L 92 157 L 67 157 Z M 67 132 " clip-rule="nonzero"/></clipPath><clipPath id="52ee44885c"><path d="M 113.023438 33.449219 L 190.941406 111.363281 L 113.023438 189.28125 L 35.105469 111.363281 Z M 113.023438 33.449219 " clip-rule="nonzero"/></clipPath><clipPath id="48e153241c"><path d="M 113.023438 33.449219 L 190.941406 111.363281 L 113.023438 189.28125 L 35.105469 111.363281 Z M 113.023438 33.449219 " clip-rule="nonzero"/></clipPath><clipPath id="7561490c4b"><path d="M 67 65 L 92 65 L 92 90 L 67 90 Z M 67 65 " clip-rule="nonzero"/></clipPath><clipPath id="cd2e4fb635"><path d="M 113.023438 33.449219 L 190.941406 111.363281 L 113.023438 189.28125 L 35.105469 111.363281 Z M 113.023438 33.449219 " clip-rule="nonzero"/></clipPath><clipPath id="466e88b86d"><path d="M 113.023438 33.449219 L 190.941406 111.363281 L 113.023438 189.28125 L 35.105469 111.363281 Z M 113.023438 33.449219 " clip-rule="nonzero"/></clipPath><clipPath id="59a18dc47e"><path d="M 134 132 L 159 132 L 159 157 L 134 157 Z M 134 132 " clip-rule="nonzero"/></clipPath><clipPath id="5cd79605a6"><path d="M 113.023438 33.449219 L 190.941406 111.363281 L 113.023438 189.28125 L 35.105469 111.363281 Z M 113.023438 33.449219 " clip-rule="nonzero"/></clipPath><clipPath id="49bc606729"><path d="M 113.023438 33.449219 L 190.941406 111.363281 L 113.023438 189.28125 L 35.105469 111.363281 Z M 113.023438 33.449219 " clip-rule="nonzero"/></clipPath><clipPath id="2482c7b0f4"><path d="M 102 56 L 124 56 L 124 73 L 102 73 Z M 102 56 " clip-rule="nonzero"/></clipPath><clipPath id="d07b6f39b5"><path d="M 113.023438 33.449219 L 190.941406 111.363281 L 113.023438 189.28125 L 35.105469 111.363281 Z M 113.023438 33.449219 " clip-rule="nonzero"/></clipPath><clipPath id="e6d21d58c2"><path d="M 113.023438 33.449219 L 190.941406 111.363281 L 113.023438 189.28125 L 35.105469 111.363281 Z M 113.023438 33.449219 " clip-rule="nonzero"/></clipPath><clipPath id="90d0ec835c"><path d="M 102 149 L 124 149 L 124 166 L 102 166 Z M 102 149 " clip-rule="nonzero"/></clipPath><clipPath id="c90679ca1d"><path d="M 113.023438 33.449219 L 190.941406 111.363281 L 113.023438 189.28125 L 35.105469 111.363281 Z M 113.023438 33.449219 " clip-rule="nonzero"/></clipPath><clipPath id="76345f1e5a"><path d="M 113.023438 33.449219 L 190.941406 111.363281 L 113.023438 189.28125 L 35.105469 111.363281 Z M 113.023438 33.449219 " clip-rule="nonzero"/></clipPath><clipPath id="afeb62b8a5"><path d="M 58 100 L 75 100 L 75 122 L 58 122 Z M 58 100 " clip-rule="nonzero"/></clipPath><clipPath id="0310fd5ee4"><path d="M 113.023438 33.449219 L 190.941406 111.363281 L 113.023438 189.28125 L 35.105469 111.363281 Z M 113.023438 33.449219 " clip-rule="nonzero"/></clipPath><clipPath id="fc98eb1abe"><path d="M 113.023438 33.449219 L 190.941406 111.363281 L 113.023438 189.28125 L 35.105469 111.363281 Z M 113.023438 33.449219 " clip-rule="nonzero"/></clipPath><clipPath id="79824748d0"><path d="M 151 100 L 168 100 L 168 122 L 151 122 Z M 151 100 " clip-rule="nonzero"/></clipPath><clipPath id="be44e519c5"><path d="M 113.023438 33.449219 L 190.941406 111.363281 L 113.023438 189.28125 L 35.105469 111.363281 Z M 113.023438 33.449219 " clip-rule="nonzero"/></clipPath><clipPath id="347b0723b6"><path d="M 113.023438 33.449219 L 190.941406 111.363281 L 113.023438 189.28125 L 35.105469 111.363281 Z M 113.023438 33.449219 " clip-rule="nonzero"/></clipPath><clipPath id="a172893663"><path d="M 74 73 L 152 73 L 152 150 L 74 150 Z M 74 73 " clip-rule="nonzero"/></clipPath><clipPath id="b21c940530"><path d="M 113.023438 33.449219 L 190.941406 111.363281 L 113.023438 189.28125 L 35.105469 111.363281 Z M 113.023438 33.449219 " clip-rule="nonzero"/></clipPath><clipPath id="c78281c6a9"><path d="M 113.023438 33.449219 L 190.941406 111.363281 L 113.023438 189.28125 L 35.105469 111.363281 Z M 113.023438 33.449219 " clip-rule="nonzero"/></clipPath><clipPath id="5c953b7060"><path d="M 74 72 L 152 72 L 152 151 L 74 151 Z M 74 72 " clip-rule="nonzero"/></clipPath><clipPath id="cc6203e111"><path d="M 113.023438 33.449219 L 190.941406 111.363281 L 113.023438 189.28125 L 35.105469 111.363281 Z M 113.023438 33.449219 " clip-rule="nonzero"/></clipPath><clipPath id="8ed067e543"><path d="M 113.023438 33.449219 L 190.941406 111.363281 L 113.023438 189.28125 L 35.105469 111.363281 Z M 113.023438 33.449219 " clip-rule="nonzero"/></clipPath><clipPath id="17d54571dd"><path d="M 79 77 L 147 77 L 147 145 L 79 145 Z M 79 77 " clip-rule="nonzero"/></clipPath><clipPath id="ba7035bbae"><path d="M 113.023438 33.449219 L 190.941406 111.363281 L 113.023438 189.28125 L 35.105469 111.363281 Z M 113.023438 33.449219 " clip-rule="nonzero"/></clipPath><clipPath id="22d5b65e32"><path d="M 113.023438 33.449219 L 190.941406 111.363281 L 113.023438 189.28125 L 35.105469 111.363281 Z M 113.023438 33.449219 " clip-rule="nonzero"/></clipPath></defs><path stroke-linecap="butt" transform="matrix(0, 0.7496, -0.7496, 0, 114.046132, 22.550356)" fill="none" stroke-linejoin="miter" d="M 11.251361 1.49981 L 54.925699 1.49981 " stroke="#ff4e00" stroke-width="3" stroke-opacity="1" stroke-miterlimit="4"/><path stroke-linecap="round" transform="matrix(0, 0.7496, -0.7496, 0, 114.046132, 22.550356)" fill="none" stroke-linejoin="round" d="M 1.501368 1.49981 C 1.501368 -0.985891 3.512858 -3.002592 5.998559 -3.002592 C 8.48426 -3.002592 10.500961 -0.985891 10.500961 1.49981 C 10.500961 3.985511 8.48426 6.002211 5.998559 6.002211 C 3.512858 6.002211 1.501368 3.985511 1.501368 1.49981 " stroke="#ff4e00" stroke-width="3" stroke-opacity="1" stroke-miterlimit="4"/><path stroke-linecap="butt" transform="matrix(-0.0025174, -0.749596, 0.749596, -0.0025174, 111.947003, 202.450388)" fill="none" stroke-linejoin="miter" d="M 11.25259 1.499866 L 59.142991 1.499153 " stroke="#ff4e00" stroke-width="3" stroke-opacity="1" stroke-miterlimit="4"/><path stroke-linecap="round" transform="matrix(-0.0025174, -0.749596, 0.749596, -0.0025174, 111.947003, 202.450388)" fill-opacity="1" fill="#ff4e00" fill-rule="nonzero" stroke-linejoin="round" d="M 1.502548 1.498389 C 1.500474 -0.987333 3.513531 -3.002496 5.999235 -2.999359 C 8.484957 -3.001434 10.500102 -0.983165 10.502177 1.502557 C 10.499058 3.98305 8.486 5.998213 6.000278 6.000287 C 3.514556 6.002362 1.499411 3.984093 1.502548 1.498389 " stroke="#ff4e00" stroke-width="3" stroke-opacity="1" stroke-miterlimit="4"/><path stroke-linecap="butt" transform="matrix(0.7496, -0.000000000000000372, 0.000000000000000372, 0.7496, 22.487998, 108.947693)" fill="none" stroke-linejoin="miter" d="M 11.251171 1.497625 L 61.861501 1.497625 " stroke="#ff4e00" stroke-width="3" stroke-opacity="1" stroke-miterlimit="4"/><path stroke-linecap="round" transform="matrix(0.7496, -0.000000000000000372, 0.000000000000000372, 0.7496, 22.487998, 108.947693)" fill-opacity="1" fill="#ff4e00" fill-rule="nonzero" stroke-linejoin="round" d="M 1.501178 1.497625 C 1.501178 -0.982865 3.512668 -2.999566 5.998369 -2.999566 C 8.48407 -2.999566 10.500771 -0.982865 10.500771 1.497625 C 10.500771 3.983326 8.48407 6.000026 5.998369 6.000026 C 3.512668 6.000026 1.501178 3.983326 1.501178 1.497625 " stroke="#ff4e00" stroke-width="3" stroke-opacity="1" stroke-miterlimit="4"/><path stroke-linecap="butt" transform="matrix(-0.524446, -0.53559, 0.53559, -0.524446, 170.63868, 158.845543)" fill="none" stroke-linejoin="miter" d="M 0.000882951 1.499634 L 36.161948 1.499015 " stroke="#ff4e00" stroke-width="3" stroke-opacity="1" stroke-miterlimit="4"/><path stroke-linecap="butt" transform="matrix(-0.0312878, -0.748947, 0.748947, -0.0312878, 170.737476, 174.080108)" fill="none" stroke-linejoin="miter" d="M 0.00265181 1.49808 L 22.466509 1.497707 " stroke="#ff4e00" stroke-width="3" stroke-opacity="1" stroke-miterlimit="4"/><path stroke-linecap="butt" transform="matrix(-0.530047, -0.530047, 0.530047, -0.530047, 188.696075, 192.462877)" fill="none" stroke-linejoin="miter" d="M 11.252283 1.50083 L 34.061278 1.50083 " stroke="#ff4e00" stroke-width="3" stroke-opacity="1" stroke-miterlimit="4"/><path stroke-linecap="round" transform="matrix(-0.530047, -0.530047, 0.530047, -0.530047, 188.696075, 192.462877)" fill="none" stroke-linejoin="round" d="M 1.502267 1.50083 C 1.498582 -0.986419 3.514175 -3.002012 6.001424 -2.998328 C 8.484989 -2.998328 10.500581 -0.982735 10.500581 1.50083 C 10.500581 3.984394 8.484989 5.999987 6.001424 5.999987 C 3.51786 5.999987 1.502267 3.984394 1.502267 1.50083 " stroke="#ff4e00" stroke-width="3" stroke-opacity="1" stroke-miterlimit="4"/><path stroke-linecap="butt" transform="matrix(-0.7496, 0.0000000013083, -0.0000000013083, -0.7496, 202.387415, 112.275624)" fill="none" stroke-linejoin="miter" d="M 11.251722 1.498507 L 55.801528 1.498507 " stroke="#ff4e00" stroke-width="3" stroke-opacity="1" stroke-miterlimit="4"/><path stroke-linecap="round" transform="matrix(-0.7496, 0.0000000013083, -0.0000000013083, -0.7496, 202.387415, 112.275624)" fill-opacity="1" fill="#ff4e00" fill-rule="nonzero" stroke-linejoin="round" d="M 1.50173 1.498507 C 1.50173 -0.987194 3.51322 -2.998684 5.99892 -2.998684 C 8.484621 -2.998684 10.501322 -0.987194 10.501322 1.498507 C 10.501322 3.984208 8.484621 6.000908 5.99892 6.000908 C 3.51322 6.000908 1.50173 3.984208 1.50173 1.498507 " stroke="#ff4e00" stroke-width="3" stroke-opacity="1" stroke-miterlimit="4"/><path stroke-linecap="butt" transform="matrix(0.532977, 0.527101, -0.527101, 0.532977, 61.632071, 66.221871)" fill="none" stroke-linejoin="miter" d="M -0.00318745 1.499765 L 32.574749 1.499771 " stroke="#ff4e00" stroke-width="3" stroke-opacity="1" stroke-miterlimit="4"/><path stroke-linecap="butt" transform="matrix(0.0312878, 0.748947, -0.748947, 0.0312878, 61.914047, 50.999137)" fill="none" stroke-linejoin="miter" d="M 0.000986978 1.502131 L 22.470051 1.501975 " stroke="#ff4e00" stroke-width="3" stroke-opacity="1" stroke-miterlimit="4"/><path stroke-linecap="butt" transform="matrix(0.530047, 0.530047, -0.530047, 0.530047, 43.957452, 32.61637)" fill="none" stroke-linejoin="miter" d="M 11.25011 1.500887 L 34.059104 1.500887 " stroke="#ff4e00" stroke-width="3" stroke-opacity="1" stroke-miterlimit="4"/><path stroke-linecap="round" transform="matrix(0.530047, 0.530047, -0.530047, 0.530047, 43.957452, 32.61637)" fill="none" stroke-linejoin="round" d="M 1.500094 1.500887 C 1.500094 -0.982677 3.515686 -2.99827 5.999251 -2.99827 C 8.4865 -3.001955 10.502093 -0.986362 10.498408 1.500887 C 10.498408 3.984451 8.482815 6.000044 5.999251 6.000044 C 3.515686 6.000044 1.500094 3.984451 1.500094 1.500887 " stroke="#ff4e00" stroke-width="3" stroke-opacity="1" stroke-miterlimit="4"/><path stroke-linecap="butt" transform="matrix(0.518047, 0.541781, -0.541781, 0.518047, 69.232575, 53.673158)" fill="none" stroke-linejoin="miter" d="M 11.24985 1.503259 L 36.559742 1.500389 " stroke="#ff4e00" stroke-width="3" stroke-opacity="1" stroke-miterlimit="4"/><path stroke-linecap="round" transform="matrix(0.518047, 0.541781, -0.541781, 0.518047, 69.232575, 53.673158)" fill="none" stroke-linejoin="round" d="M 1.497328 1.500512 C 1.500667 -0.983749 3.515826 -3.000746 6.000087 -2.997407 C 8.484184 -3.001435 10.501181 -0.986276 10.501607 1.501587 C 10.498268 3.985848 8.486711 5.999079 5.998848 5.999506 C 3.514751 6.003534 1.501356 3.984609 1.497328 1.500512 " stroke="#ff4e00" stroke-width="3" stroke-opacity="1" stroke-miterlimit="4"/><g clip-path="url(#1fcd793afd)"><g clip-path="url(#01f2fdf85e)"><g clip-path="url(#58317d9d10)"><path fill="#020015" d="M 151.625 149.703125 C 130.335938 170.996094 95.8125 170.996094 74.519531 149.703125 C 53.226562 128.410156 53.226562 93.886719 74.519531 72.59375 C 95.8125 51.300781 130.335938 51.300781 151.628906 72.59375 C 172.917969 93.886719 172.921875 128.410156 151.625 149.703125 " fill-opacity="1" fill-rule="nonzero"/></g></g></g><g clip-path="url(#eccd3622f2)"><g clip-path="url(#d2cf2185da)"><g clip-path="url(#b3ce4a9166)"><path fill="#ff4e00" d="M 151.625 149.703125 L 151.359375 149.433594 C 140.785156 160.007812 126.929688 165.292969 113.074219 165.292969 C 99.214844 165.292969 85.359375 160.007812 74.789062 149.433594 C 64.214844 138.863281 58.929688 125.007812 58.929688 111.148438 C 58.929688 97.292969 64.214844 83.4375 74.785156 72.863281 C 85.359375 62.292969 99.214844 57.007812 113.074219 57.003906 C 126.929688 57.007812 140.785156 62.292969 151.359375 72.863281 C 161.929688 83.4375 167.214844 97.292969 167.21875 111.148438 C 167.214844 125.007812 161.929688 138.863281 151.359375 149.433594 L 151.894531 149.972656 C 173.339844 128.53125 173.335938 93.765625 151.898438 72.328125 C 130.453125 50.886719 95.691406 50.886719 74.25 72.328125 C 52.808594 93.769531 52.808594 128.53125 74.25 149.972656 C 95.691406 171.414062 130.453125 171.414062 151.894531 149.972656 L 151.625 149.703125 " fill-opacity="1" fill-rule="nonzero"/></g></g></g><g clip-path="url(#f6f0f21a45)"><g clip-path="url(#1d7b0cfbaf)"><g clip-path="url(#a344428e6f)"><path fill="#ff4e00" d="M 134.660156 78.683594 L 145.539062 89.5625 L 158.484375 80.960938 C 156.515625 78.007812 154.234375 75.199219 151.628906 72.59375 C 149.019531 69.988281 146.214844 67.707031 143.261719 65.738281 L 134.660156 78.683594 " fill-opacity="1" fill-rule="nonzero"/></g></g></g><g clip-path="url(#3e311a7366)"><g clip-path="url(#52ee44885c)"><g clip-path="url(#48e153241c)"><path fill="#ff4e00" d="M 91.484375 143.617188 L 80.605469 132.734375 L 67.660156 141.339844 C 69.628906 144.292969 71.910156 147.097656 74.519531 149.703125 C 77.125 152.308594 79.929688 154.589844 82.882812 156.558594 L 91.484375 143.617188 " fill-opacity="1" fill-rule="nonzero"/></g></g></g><g clip-path="url(#7561490c4b)"><g clip-path="url(#cd2e4fb635)"><g clip-path="url(#466e88b86d)"><path fill="#ff4e00" d="M 80.605469 89.5625 L 91.484375 78.683594 L 82.886719 65.738281 C 79.929688 67.707031 77.125 69.988281 74.519531 72.59375 C 71.914062 75.199219 69.628906 78.007812 67.664062 80.960938 L 80.605469 89.5625 " fill-opacity="1" fill-rule="nonzero"/></g></g></g><g clip-path="url(#59a18dc47e)"><g clip-path="url(#5cd79605a6)"><g clip-path="url(#49bc606729)"><path fill="#ff4e00" d="M 145.539062 132.738281 L 134.660156 143.617188 L 143.257812 156.558594 C 146.214844 154.59375 149.019531 152.308594 151.625 149.703125 C 154.234375 147.097656 156.515625 144.292969 158.480469 141.335938 L 145.539062 132.738281 " fill-opacity="1" fill-rule="nonzero"/></g></g></g><g clip-path="url(#2482c7b0f4)"><g clip-path="url(#d07b6f39b5)"><g clip-path="url(#e6d21d58c2)"><path fill="#ff4e00" d="M 102.308594 57.699219 L 105.378906 72.929688 L 120.765625 72.929688 L 123.835938 57.699219 C 116.738281 56.277344 109.410156 56.277344 102.308594 57.699219 " fill-opacity="1" fill-rule="nonzero"/></g></g></g><g clip-path="url(#90d0ec835c)"><g clip-path="url(#c90679ca1d)"><g clip-path="url(#76345f1e5a)"><path fill="#ff4e00" d="M 123.835938 164.597656 L 120.765625 149.371094 L 105.378906 149.371094 L 102.3125 164.601562 C 109.410156 166.023438 116.734375 166.023438 123.835938 164.597656 " fill-opacity="1" fill-rule="nonzero"/></g></g></g><g clip-path="url(#afeb62b8a5)"><g clip-path="url(#0310fd5ee4)"><g clip-path="url(#fc98eb1abe)"><path fill="#ff4e00" d="M 59.621094 100.386719 C 58.199219 107.488281 58.203125 114.8125 59.621094 121.910156 L 74.851562 118.84375 L 74.851562 103.457031 L 59.621094 100.386719 " fill-opacity="1" fill-rule="nonzero"/></g></g></g><g clip-path="url(#79824748d0)"><g clip-path="url(#be44e519c5)"><g clip-path="url(#347b0723b6)"><path fill="#ff4e00" d="M 166.523438 100.386719 L 151.292969 103.457031 L 151.292969 118.84375 L 166.523438 121.914062 C 167.945312 114.8125 167.945312 107.488281 166.523438 100.386719 " fill-opacity="1" fill-rule="nonzero"/></g></g></g><g clip-path="url(#a172893663)"><g clip-path="url(#b21c940530)"><g clip-path="url(#c78281c6a9)"><path fill="#020015" d="M 140.011719 138.089844 C 125.132812 152.96875 101.011719 152.964844 86.136719 138.089844 C 71.253906 123.207031 71.257812 99.089844 86.136719 84.210938 C 101.011719 69.335938 125.132812 69.332031 140.011719 84.210938 C 154.890625 99.089844 154.890625 123.210938 140.011719 138.089844 " fill-opacity="1" fill-rule="nonzero"/></g></g></g><g clip-path="url(#5c953b7060)"><g clip-path="url(#cc6203e111)"><g clip-path="url(#8ed067e543)"><path fill="#ff4e00" d="M 140.011719 138.089844 L 139.441406 137.519531 C 132.15625 144.800781 122.617188 148.4375 113.074219 148.441406 C 103.527344 148.4375 93.988281 144.800781 86.707031 137.519531 C 79.421875 130.234375 75.785156 120.695312 75.785156 111.148438 C 75.785156 101.605469 79.421875 92.066406 86.707031 84.78125 C 93.988281 77.5 103.527344 73.859375 113.074219 73.859375 C 122.617188 73.859375 132.15625 77.496094 139.441406 84.78125 C 146.726562 92.066406 150.363281 101.605469 150.363281 111.152344 C 150.363281 120.695312 146.722656 130.234375 139.441406 137.519531 L 140.582031 138.660156 C 155.773438 123.464844 155.777344 98.835938 140.582031 83.640625 C 125.386719 68.445312 100.757812 68.449219 85.5625 83.640625 C 70.371094 98.835938 70.371094 123.464844 85.5625 138.660156 C 100.757812 153.851562 125.386719 153.851562 140.582031 138.660156 L 140.011719 138.089844 " fill-opacity="1" fill-rule="nonzero"/></g></g></g><g clip-path="url(#17d54571dd)"><g clip-path="url(#ba7035bbae)"><g clip-path="url(#22d5b65e32)"><path fill="#020015" d="M 136.828125 134.902344 C 123.707031 148.023438 102.4375 148.023438 89.320312 134.90625 C 76.199219 121.785156 76.199219 100.515625 89.320312 87.398438 C 102.4375 74.277344 123.707031 74.277344 136.828125 87.394531 C 149.945312 100.515625 149.945312 121.785156 136.828125 134.902344 " fill-opacity="1" fill-rule="nonzero"/><path fill="#ff4e00" d="M 136.828125 134.902344 L 136.664062 134.742188 C 130.148438 141.257812 121.613281 144.515625 113.074219 144.515625 C 104.535156 144.515625 95.996094 141.257812 89.480469 134.742188 C 82.964844 128.226562 79.707031 119.691406 79.707031 111.152344 C 79.707031 102.613281 82.964844 94.074219 89.480469 87.558594 C 95.996094 81.042969 104.535156 77.785156 113.074219 77.785156 C 121.613281 77.785156 130.148438 81.039062 136.667969 87.558594 C 143.183594 94.070312 146.4375 102.609375 146.4375 111.148438 C 146.4375 119.691406 143.179688 128.226562 136.664062 134.742188 L 136.988281 135.066406 C 150.195312 121.855469 150.195312 100.445312 136.988281 87.234375 C 123.78125 74.027344 102.367188 74.027344 89.160156 87.234375 C 75.953125 100.445312 75.949219 121.855469 89.15625 135.066406 C 102.367188 148.273438 123.78125 148.273438 136.988281 135.066406 L 136.828125 134.902344 " fill-opacity="1" fill-rule="nonzero"/></g></g></g><path stroke-linecap="butt" transform="matrix(0.526088, -0.533977, 0.533977, 0.526088, 66.806198, 165.28695)" fill="none" stroke-linejoin="miter" d="M 11.250184 1.502984 L 40.276275 1.501586 " stroke="#ff4e00" stroke-width="3" stroke-opacity="1" stroke-miterlimit="4"/><path stroke-linecap="round" transform="matrix(0.526088, -0.533977, 0.533977, 0.526088, 66.806198, 165.28695)" fill="none" stroke-linejoin="round" d="M 1.499944 1.496751 C 1.499975 -0.983197 3.515883 -2.998583 5.999543 -3.002209 C 8.483148 -2.998466 10.502246 -0.986215 10.50216 1.501102 C 10.498417 3.984707 8.482509 6.000093 6.002561 6.000062 C 3.515244 5.999976 1.499858 3.984068 1.499944 1.496751 " stroke="#ff4e00" stroke-width="3" stroke-opacity="1" stroke-miterlimit="4"/><path stroke-linecap="butt" transform="matrix(0.530047, -0.530047, 0.530047, 0.530047, 56.008145, 157.209453)" fill="none" stroke-linejoin="miter" d="M 0.00197107 1.500805 L 33.257412 1.497121 " stroke="#ff4e00" stroke-width="3" stroke-opacity="1" stroke-miterlimit="4"/><path stroke-linecap="butt" transform="matrix(-0.0312878, -0.748947, 0.748947, -0.0312878, 56.80121, 174.401294)" fill="none" stroke-linejoin="miter" d="M -0.00153905 1.501473 L 22.467525 1.501318 " stroke="#ff4e00" stroke-width="3" stroke-opacity="1" stroke-miterlimit="4"/><path stroke-linecap="butt" transform="matrix(0.530047, -0.530047, 0.530047, 0.530047, 37.955041, 191.668826)" fill="none" stroke-linejoin="miter" d="M 11.252421 1.500787 L 35.75643 1.500787 " stroke="#ff4e00" stroke-width="3" stroke-opacity="1" stroke-miterlimit="4"/><path stroke-linecap="round" transform="matrix(0.530047, -0.530047, 0.530047, 0.530047, 37.955041, 191.668826)" fill="none" stroke-linejoin="round" d="M 1.502405 1.500787 C 1.49872 -0.986462 3.514313 -3.002054 6.001562 -2.99837 C 8.485126 -2.99837 10.500719 -0.982777 10.500719 1.500787 C 10.500719 3.984352 8.485126 5.999945 6.001562 5.999945 C 3.517998 5.999945 1.502405 3.984352 1.502405 1.500787 " stroke="#ff4e00" stroke-width="3" stroke-opacity="1" stroke-miterlimit="4"/><path stroke-linecap="butt" transform="matrix(-0.530047, -0.530047, 0.530047, -0.530047, 158.964993, 166.076167)" fill="none" stroke-linejoin="miter" d="M 11.251715 1.501416 L 39.602668 1.501416 " stroke="#ff4e00" stroke-width="3" stroke-opacity="1" stroke-miterlimit="4"/><path stroke-linecap="round" transform="matrix(-0.530047, -0.530047, 0.530047, -0.530047, 158.964993, 166.076167)" fill="none" stroke-linejoin="round" d="M 1.501698 1.501416 C 1.498014 -0.985833 3.513606 -3.001426 6.000856 -2.997741 C 8.48442 -2.997741 10.500013 -0.982148 10.500013 1.501416 C 10.500013 3.98498 8.48442 6.000573 6.000856 6.000573 C 3.517291 6.000573 1.501698 3.98498 1.501698 1.501416 " stroke="#ff4e00" stroke-width="3" stroke-opacity="1" stroke-miterlimit="4"/><path stroke-linecap="butt" transform="matrix(-0.530047, 0.530047, -0.530047, -0.530047, 166.154156, 68.776748)" fill="none" stroke-linejoin="miter" d="M -0.00141346 1.500866 L 32.358617 1.500866 " stroke="#ff4e00" stroke-width="3" stroke-opacity="1" stroke-miterlimit="4"/><path stroke-linecap="butt" transform="matrix(0.0000000013083, 0.7496, -0.7496, 0.0000000013083, 166.088915, 51.08338)" fill="none" stroke-linejoin="miter" d="M -0.00179985 1.499562 L 23.651442 1.499562 " stroke="#ff4e00" stroke-width="3" stroke-opacity="1" stroke-miterlimit="4"/><path stroke-linecap="butt" transform="matrix(-0.530047, 0.530047, -0.530047, -0.530047, 182.888652, 35.108058)" fill="none" stroke-linejoin="miter" d="M 11.252801 1.5003 L 33.265876 1.5003 " stroke="#ff4e00" stroke-width="3" stroke-opacity="1" stroke-miterlimit="4"/><path stroke-linecap="round" transform="matrix(-0.530047, 0.530047, -0.530047, -0.530047, 182.888652, 35.108058)" fill="none" stroke-linejoin="round" d="M 1.502785 1.5003 C 1.4991 -0.986949 3.514693 -3.002542 6.001942 -2.998857 C 8.485506 -2.998857 10.501099 -0.983265 10.501099 1.5003 C 10.501099 3.983864 8.485506 5.999457 6.001942 5.999457 C 3.514693 6.003142 1.4991 3.987549 1.502785 1.5003 " stroke="#ff4e00" stroke-width="3" stroke-opacity="1" stroke-miterlimit="4"/><path stroke-linecap="butt" transform="matrix(-0.468547, 0.585119, -0.585119, -0.468547, 159.030013, 54.375616)" fill="none" stroke-linejoin="miter" d="M 11.247104 1.499537 L 27.429483 1.499249 " stroke="#ff4e00" stroke-width="3" stroke-opacity="1" stroke-miterlimit="4"/><path stroke-linecap="round" transform="matrix(-0.468547, 0.585119, -0.585119, -0.468547, 159.030013, 54.375616)" fill="none" stroke-linejoin="round" d="M 1.500566 1.500052 C 1.501026 -0.983785 3.514331 -2.996543 6.002236 -2.999341 C 8.486073 -2.998881 10.498831 -0.985576 10.498372 1.498261 C 10.50117 3.986167 8.483797 6.002181 5.999959 6.001722 C 3.516122 6.001263 1.500107 3.98389 1.500566 1.500052 " stroke="#ff4e00" stroke-width="3" stroke-opacity="1" stroke-miterlimit="4"/><g fill="#00ffab" fill-opacity="1"><g transform="translate(88.082216, 126.126473)"><g><path d="M 21.386719 -30.582031 C 21.386719 -28.582031 22.984375 -26.933594 24.984375 -26.933594 C 26.984375 -26.933594 28.582031 -28.582031 28.582031 -30.582031 C 28.582031 -32.53125 26.984375 -34.179688 24.984375 -34.179688 C 22.984375 -34.179688 21.386719 -32.53125 21.386719 -30.582031 Z M 8.144531 -6.945312 C 8.144531 -4.996094 9.792969 -3.347656 11.792969 -3.347656 C 13.792969 -3.347656 15.390625 -4.996094 15.390625 -6.945312 C 15.390625 -8.945312 13.792969 -10.59375 11.792969 -10.59375 C 9.792969 -10.59375 8.144531 -8.945312 8.144531 -6.945312 Z M 34.578125 -6.945312 C 34.578125 -4.996094 36.226562 -3.347656 38.226562 -3.347656 C 40.222656 -3.347656 41.824219 -4.996094 41.824219 -6.945312 C 41.824219 -8.945312 40.222656 -10.59375 38.226562 -10.59375 C 36.226562 -10.59375 34.578125 -8.945312 34.578125 -6.945312 Z M 34.578125 -6.945312 "/></g></g></g></svg>